<?xml version="1.0" encoding="UTF-8" standalone="no"?>
<!-- Creator: CorelDRAW -->
<svg
   xmlns:dc="http://purl.org/dc/elements/1.1/"
   xmlns:cc="http://creativecommons.org/ns#"
   xmlns:rdf="http://www.w3.org/1999/02/22-rdf-syntax-ns#"
   xmlns:svg="http://www.w3.org/2000/svg"
   xmlns="http://www.w3.org/2000/svg"
   xmlns:xlink="http://www.w3.org/1999/xlink"
   xmlns:sodipodi="http://sodipodi.sourceforge.net/DTD/sodipodi-0.dtd"
   xmlns:inkscape="http://www.inkscape.org/namespaces/inkscape"
   xml:space="preserve"
   width="318.89764"
   height="177.16534"
   style="fill-rule:evenodd"
   viewBox="0 0 8.5 11"
   id="svg2"
   sodipodi:version="0.32"
   inkscape:version="0.46+devel"
   sodipodi:docname="Logo.svg"
   inkscape:output_extension="org.inkscape.output.svg.inkscape"
   version="1.0"><metadata
   id="metadata84"><rdf:RDF><cc:Work
       rdf:about=""><dc:format>image/svg+xml</dc:format><dc:type
         rdf:resource="http://purl.org/dc/dcmitype/StillImage" /><dc:title></dc:title></cc:Work></rdf:RDF></metadata><sodipodi:namedview
   inkscape:window-height="981"
   inkscape:window-width="1286"
   inkscape:pageshadow="2"
   inkscape:pageopacity="0.0"
   guidetolerance="10.0"
   gridtolerance="10.0"
   objecttolerance="10.0"
   borderopacity="1.0"
   bordercolor="#666666"
   pagecolor="#ffffff"
   id="base"
   showgrid="false"
   inkscape:zoom="1"
   inkscape:cx="518.82224"
   inkscape:cy="106.91895"
   inkscape:window-x="12"
   inkscape:window-y="30"
   inkscape:current-layer="svg2"
   units="mm"
   width="210mm" />
 <defs
   id="defs4"><inkscape:perspective
   sodipodi:type="inkscape:persp3d"
   inkscape:vp_x="0 : 495 : 1"
   inkscape:vp_y="0 : 1000 : 0"
   inkscape:vp_z="765 : 495 : 1"
   inkscape:persp3d-origin="382.5 : 330 : 1"
   id="perspective86" />
  <style
   type="text/css"
   id="style6">
   
    .fil1 {fill:#1F1A17}
    .fil6 {fill:white}
    .fil3 {fill:url(#id1)}
    .fil2 {fill:url(#id2)}
    .fil0 {fill:url(#id3)}
    .fil4 {fill:url(#id4)}
    .fil5 {fill:url(#id5)}
   
  </style>
   <clipPath
   id="id0">
    <rect
   x="2.8620701"
   y="3.04742"
   width="2.7758501"
   height="1.73077"
   id="rect9" />
   </clipPath>
  <linearGradient
   id="id1"
   gradientUnits="userSpaceOnUse"
   x1="5.9532299"
   y1="5.0457001"
   x2="4.98594"
   y2="6.28936">
   <stop
   offset="0"
   style="stop-color:#623620"
   id="stop12" />
   <stop
   offset="0.121569"
   style="stop-color:#CC9E20"
   id="stop14" />
   <stop
   offset="0.239216"
   style="stop-color:white"
   id="stop16" />
   <stop
   offset="0.521569"
   style="stop-color:#CF9A30"
   id="stop18" />
   <stop
   offset="1"
   style="stop-color:#662D29"
   id="stop20" />
  </linearGradient>
  <linearGradient
   id="id2"
   gradientUnits="userSpaceOnUse"
   x1="2.9107599"
   y1="5.1141801"
   x2="3.1500499"
   y2="6.22089">
   <stop
   offset="0"
   style="stop-color:#1F1A17"
   id="stop23" />
   <stop
   offset="0.0588235"
   style="stop-color:#626767"
   id="stop25" />
   <stop
   offset="0.121569"
   style="stop-color:#B5B1B4"
   id="stop27" />
   <stop
   offset="0.188235"
   style="stop-color:#E5E5E5"
   id="stop29" />
   <stop
   offset="0.239216"
   style="stop-color:white"
   id="stop31" />
   <stop
   offset="0.4"
   style="stop-color:#C8CECB"
   id="stop33" />
   <stop
   offset="0.619608"
   style="stop-color:#9F9A9E"
   id="stop35" />
   <stop
   offset="0.780392"
   style="stop-color:#666467"
   id="stop37" />
   <stop
   offset="1"
   style="stop-color:#1F1A17"
   id="stop39" />
  </linearGradient>
  <radialGradient
   id="id3"
   gradientUnits="userSpaceOnUse"
   cx="4.25"
   cy="5.5"
   r="3.8012199"
   fx="4.25"
   fy="5.5">
   <stop
   offset="0"
   style="stop-color:white"
   id="stop42" />
   <stop
   offset="0.941176"
   style="stop-color:#EFEFEE"
   id="stop44" />
   <stop
   offset="1"
   style="stop-color:#DEDEDD"
   id="stop46" />
  </radialGradient>
  <radialGradient
   id="id4"
   gradientUnits="userSpaceOnUse"
   cx="4.24827"
   cy="3.9158299"
   r="1.50052"
   fx="4.24827"
   fy="3.9158299">
   <stop
   offset="0"
   style="stop-color:white"
   id="stop49" />
   <stop
   offset="0.819608"
   style="stop-color:#E1E0E0"
   id="stop51" />
   <stop
   offset="1"
   style="stop-color:#C2C1C1"
   id="stop53" />
  </radialGradient>
  <radialGradient
   id="id5"
   gradientUnits="userSpaceOnUse"
   cx="4.2544498"
   cy="3.9198"
   r="1.45365"
   fx="4.2544498"
   fy="3.9198">
   <stop
   offset="0"
   style="stop-color:#DA251D"
   id="stop56" />
   <stop
   offset="1"
   style="stop-color:#82282A"
   id="stop58" />
  </radialGradient>
 
  
  
  
  
  
  
  
  
  
  
 <radialGradient
   inkscape:collect="always"
   xlink:href="#id3"
   id="radialGradient2667"
   gradientUnits="userSpaceOnUse"
   cx="4.25"
   cy="5.5"
   fx="4.25"
   fy="5.5"
   r="3.8012199" /></defs>
 <path
   style="fill:#000000"
   id="path70"
   d="M 2.3941225,4.7165953 0.90453199,4.344233 c 0,0 0.42017251,-0.1145747 0.52519051,-0.5346703 0,0 1.4131674,0.6492661 2.4347964,0.4009583 0,0 -0.1719628,0.3914811 -0.677861,0.5156337 L 2.8093581,5.7255731 c 0.4076777,0.1182976 0.7305269,-0.069331 0.7305269,-0.069331 0,0 -0.4251842,0.2834456 -0.8104174,0.2812128 l -0.01241,0.032722 c 0.3551687,0.06091 0.6223551,-0.0944 0.6223551,-0.0944 0,0 -0.341592,0.2276272 -0.6898276,0.2733585 L 2.260411,7.1801436 c 0,0 0.2516199,0.1627561 0.9463611,0.2765087 2.2252098,0.3645664 4.2102402,-0.6700072 6.3720712,-0.5331424 0.8415777,0.053273 1.4596047,0.274276 1.8765257,0.4913442 0.01278,-0.00727 0.02604,-0.014266 0.03978,-0.020948 -0.07795,-0.035268 -0.148262,-0.083826 -0.210662,-0.146305 -0.09362,-0.085788 -0.140429,-0.1735272 -0.140429,-0.2633297 l 0,-1.5271364 c 0,-0.089702 -0.09362,-0.144348 -0.280841,-0.1637372 l 0,-0.040942 0.626057,-0.491482 c 0.02721,0.015592 0.0566,0.037018 0.08774,0.06424 0.03113,0.027419 0.06052,0.05856 0.08774,0.093621 0.06639,0.089702 0.0995,0.1559041 0.0995,0.1989518 l 0.0058,0.011667 0,0.035268 0.0058,0.00578 0,0.2281735 0.877686,-0.5909118 c 0.120844,0.1637372 0.253535,0.2456641 0.397883,0.2456641 l 0.01167,0 0.0059,-0.00578 c 0.06639,0 0.12672,-0.021373 0.181366,-0.064436 l 0,0.093621 -0.0059,0.011721 0,0.029381 -0.0058,0.00578 c 0,0.027419 -0.0088,0.057584 -0.02646,0.090683 -0.0175,0.033093 -0.03797,0.065221 -0.0613,0.096559 -0.02328,0.031131 -0.05075,0.059541 -0.08187,0.084807 -0.03113,0.025456 -0.06052,0.043859 -0.08774,0.055622 l 0,1.5622338 c 0,0.2027914 -0.169613,0.3432202 -0.508994,0.4212491 -0.04683,0.0078 -0.09068,0.014637 -0.131614,0.020365 -0.04094,0.00594 -0.07717,0.00886 -0.108312,0.00886 -0.01559,0 -0.02721,0 -0.03505,0 -0.0039,0 -0.02137,0.00193 -0.05266,0.00578 -0.193505,0.014584 -0.341672,0.042905 -0.444616,0.084807 0.08774,0.055033 0.161388,0.107134 0.221767,0.152966 0.02233,-0.012198 0.04582,-0.025085 0.07071,-0.03898 0.195075,-0.1090909 0.37058,-0.1637372 0.52666,-0.1637372 0.136514,0 0.253539,0.042905 0.351074,0.1286764 0.09754,0.085783 0.146109,0.1931127 0.146109,0.3217732 0,0.367112 -0.461184,0.5146367 -0.643547,0.146305 0.237497,0.1335767 0.455016,-0.1051771 0.269105,-0.1051771 l -0.01167,-0.00583 -0.0059,0 c -0.0897,0 -0.210588,0.046829 -0.362726,0.1404287 -0.0897,0.05856 -0.166872,0.103411 -0.231091,0.1345526 -0.06444,0.031131 -0.114182,0.050754 -0.149243,0.05856 -0.01952,0.00385 -0.0429,0.00679 -0.07031,0.0087 -0.02721,0.002 -0.06248,0.00301 -0.105177,0.00301 -0.06639,0 -0.130639,-0.012728 -0.193113,-0.037972 -0.06248,-0.025456 -0.116929,-0.059541 -0.163737,-0.1024352 -0.04683,-0.042905 -0.08481,-0.09264 -0.114182,-0.149243 -0.02938,-0.056603 -0.04386,-0.1179052 -0.04386,-0.1843038 l 0,-0.029169 0.0058,0 c 0.0049,-0.12437 0.04545,-0.2280939 0.122021,-0.3112141 C 10.880736,7.3688073 10.28306,7.22115 9.5693374,7.1966324 7.8333786,7.1370911 6.34085,7.8660913 4.6273367,8.0627901 4.3902323,8.0899966 4.4385303,8.1131194 4.4270909,8.3551083 c -0.00573,0.1202546 -0.00939,0.250522 -0.0088,0.3823911 C 4.3841864,8.7190435 4.353066,8.7024439 4.3274082,8.6877535 4.267082,8.6536526 4.1534885,8.5909982 4.0600638,8.5185326 4.0585226,8.4601686 4.0562856,8.403173 4.0536467,8.3483305 4.0396987,8.0583247 4.0487871,8.1086805 3.7687321,8.0971031 3.257479,8.0759426 2.7672088,7.9758409 2.2514387,7.7914204 1.5709531,7.548302 0.6053974,7.4104984 -0.07878952,7.6670504 L 0.80587707,7.2306813 C 1.4490518,6.9103771 1.5076522,6.839126 1.8095265,6.1859995 L 1.9483908,5.8369243 C 1.6899985,5.629572 1.4523425,5.5382793 1.1051283,5.5116827 c 0,0 0.4388352,-0.1559041 0.9297137,0.1079189 L 2.062048,5.5514426 C 1.8355031,5.3902507 1.6137308,5.3157274 1.3056881,5.2921272 c 0,0 0.3837806,-0.1363186 0.8350167,0.061694 L 2.3942445,4.7166011 z M 4.2404276,0.59419671 4.3790957,1.0240055 4.8308022,1.0231569 4.464841,1.2879557 4.6052698,1.717213 4.2403905,1.4510247 3.875506,1.717213 4.0159347,1.2879557 3.6500531,1.0231569 4.1016801,1.0240055 4.2405443,0.59419671 z M 4.6592107,0.46003447 c 0.3075919,0.15374558 0.5188634,0.47183823 0.5188634,0.83903193 0,0.4048934 -0.2566898,0.7497995 -0.6161856,0.8810433 -0.110857,0.1772502 -0.096167,0.2815257 -0.1182977,0.4837868 l -0.0437,0.1425819 c -0.01066,0.034684 -0.021373,0.069331 -0.031926,0.1039997 -0.034843,0.010713 -0.069527,0.021373 -0.1041959,0.031926 l -0.1427781,0.0437 0.1425819,0.043859 c 0.034843,0.010713 0.069528,0.021373 0.1041959,0.032139 0.01066,0.034684 0.021373,0.069331 0.031926,0.1039997 l 0.019994,0.065614 c 7.717e-4,0.088137 0.00301,0.1745084 0.00599,0.2564725 0.011561,0.3144492 0.079127,0.3543255 0.5269723,0.3045796 C 5.6502571,3.7152107 6.369229,3.6106224 7.0855758,3.5217215 L 7.3789705,3.8506649 C 6.3046166,3.9624977 5.2239364,4.0961116 4.1487987,4.0961116 l -0.020365,0 -0.1222168,0 7.79e-5,-7.717e-4 C 3.1815412,4.0863241 2.3886923,3.991144 1.6584003,3.736077 c 0.583399,0.1496354 1.2367588,0.1874381 1.9319726,0.1635409 0.2216132,-0.00748 0.3645663,0.010183 0.4453,-0.206647 L 4.1733598,3.6506498 4.0489897,3.6124653 c 0.00239,-0.027631 0.00332,-0.056996 0.00355,-0.08853 l 5.404e-4,-0.066393 0.037601,-0.1224078 c 0.01066,-0.034684 0.021373,-0.069331 0.031926,-0.1041959 0.034684,-0.01066 0.069528,-0.021373 0.104196,-0.031926 l 0.1425794,-0.043859 -0.1425819,-0.0437 C 4.1921163,3.1007402 4.157273,3.0900804 4.1226046,3.0795266 4.1119448,3.0446833 4.1012319,3.009999 4.0906782,2.9753307 l -0.043859,-0.1425819 -0.00201,0.00658 C 4.0303886,2.5772309 3.9952801,2.3338791 3.9137827,2.1786602 3.5566199,2.0462609 3.3020037,1.7024361 3.3020037,1.2992233 c 0,-0.36719149 0.2112715,-0.68518657 0.5188634,-0.83903185 -0.2297008,0.14101742 -0.3829956,0.39457299 -0.3829956,0.68387345 0,0.4807692 0.3954162,0.7894409 0.8242248,0.8014669 0.4324339,-0.011774 0.7794917,-0.3661945 0.7794917,-0.8014669 0,-0.28932167 -0.1533585,-0.54285656 -0.3830753,-0.68387345 z m 1.754779,7.36939383 c 1.7681776,0.4228773 3.4774609,0.6218852 4.7360383,-0.2291705 0,0 -0.171963,0.2291705 0,0.572921 0,0 -2.2725488,0.6110934 -4.7360383,-0.3437505 z M 3.8739399,8.917982 C 3.0862619,9.4524953 5.2950587,9.7938545 4.5166446,10.173935 5.4931486,9.7326284 3.4652646,9.4832646 3.8739399,8.917982 z m 0,-0.7542846 C 3.0862619,8.6982107 5.2950587,9.0394919 4.5166446,9.4195718 5.4931486,8.9783448 3.4652646,8.7290585 3.8739399,8.1636974 z M 12.983074,4.435697 C 11.715769,3.6564997 10.129477,3.6186403 8.4602272,3.7491851 L 8.1747664,3.4036526 C 10.020993,3.2418777 11.766118,3.3337326 12.983056,4.4356821 z M 4.815679,2.6057457 c 0.013046,0.04248 0.02604,0.084807 0.039192,0.1273082 0.04248,0.013046 0.084807,0.02604 0.1273082,0.039192 -0.04248,0.013046 -0.084807,0.02604 -0.1273082,0.03898 -0.013046,0.04248 -0.02604,0.085003 -0.039192,0.1273081 -0.013046,-0.04248 -0.02604,-0.084807 -0.039192,-0.1273081 -0.04248,-0.01294 -0.084807,-0.02604 -0.1273082,-0.03898 0.04248,-0.013046 0.084807,-0.02604 0.1273082,-0.039192 0.013046,-0.04248 0.02604,-0.084807 0.039192,-0.1273082 z M 4.4437091,2.819722 c 0.013046,0.04248 0.02604,0.085003 0.039192,0.1273082 0.04248,0.013046 0.085003,0.02604 0.1273082,0.039192 -0.04248,0.013046 -0.084807,0.02604 -0.1273082,0.039192 -0.01294,0.04248 -0.02604,0.085003 -0.039192,0.1273081 -0.01294,-0.04248 -0.02604,-0.084807 -0.039192,-0.1273081 -0.04248,-0.01294 -0.084807,-0.02604 -0.1273082,-0.039192 0.04248,-0.013046 0.084807,-0.02604 0.1273082,-0.039192 0.013046,-0.04248 0.02604,-0.084807 0.039192,-0.1273082 z M 4.0476087,2.9887467 c 0.013046,0.04248 0.02604,0.085003 0.039192,0.1273081 0.04248,0.013046 0.084807,0.02604 0.1273081,0.039192 -0.04248,0.01294 -0.084807,0.02604 -0.1273081,0.03898 -0.013046,0.04248 -0.02604,0.085003 -0.039192,0.1273081 -0.013046,-0.04248 -0.02604,-0.084807 -0.039192,-0.1273081 -0.04248,-0.013046 -0.084807,-0.02604 -0.1273081,-0.03898 0.04248,-0.013046 0.084807,-0.02604 0.1273081,-0.039192 0.013046,-0.04248 0.02604,-0.084807 0.039192,-0.1273081 z M 3.6720909,3.1961786 c 0.013046,0.04248 0.02604,0.084807 0.039192,0.1273081 0.04248,0.013046 0.084807,0.02604 0.1273081,0.039192 -0.04248,0.013046 -0.084807,0.02604 -0.1273081,0.039192 -0.013046,0.04248 -0.02604,0.084807 -0.039192,0.1273081 -0.01294,-0.04248 -0.02604,-0.084807 -0.039192,-0.1273081 -0.04248,-0.013046 -0.084807,-0.02604 -0.1273081,-0.039192 0.04248,-0.013046 0.084807,-0.02604 0.1273081,-0.039192 0.013046,-0.04248 0.02604,-0.084807 0.039192,-0.1273081 z M 4.7655804,2.2586894 4.8047726,2.3859975 4.9320807,2.4251897 4.8047726,2.4643818 4.7655804,2.5916899 4.7263883,2.4643818 4.5990802,2.4251897 4.7263883,2.3859975 4.7655804,2.2586894 z M 3.8514572,3.4841861 3.8906493,3.6114943 4.0179574,3.6506864 3.8906493,3.6898785 3.8514572,3.8171866 3.812265,3.6898785 3.6849569,3.6506864 3.812265,3.6114943 3.8514572,3.4841861 z M 3.752745,2.684108 c 0.020365,0.06581 0.040518,0.1316145 0.060522,0.1974828 0.066006,0.020153 0.1316145,0.040518 0.1974827,0.060522 -0.06581,0.020365 -0.1316145,0.040518 -0.1974827,0.060713 C 3.793114,3.0686358 3.772908,3.1344403 3.752745,3.2003085 3.732592,3.1344985 3.712386,3.068694 3.692223,3.0028258 3.626413,2.9826728 3.5606085,2.9624668 3.4947402,2.9421128 3.5605502,2.9219598 3.6263547,2.9017538 3.692223,2.8815908 3.712376,2.8157808 3.732741,2.7499763 3.752745,2.684108 z M 4.6136735,2.5393676 c 0.00955,0.031131 0.019145,0.062283 0.028585,0.093621 0.031131,0.00949 0.062283,0.019145 0.093425,0.028585 -0.031131,0.00949 -0.062283,0.019039 -0.093425,0.028585 -0.00955,0.031131 -0.019145,0.062479 -0.028585,0.093621 -0.00955,-0.031131 -0.019145,-0.062283 -0.028585,-0.093621 -0.031131,-0.00955 -0.062283,-0.019145 -0.093425,-0.028585 0.031131,-0.00955 0.062283,-0.019198 0.093425,-0.028585 0.00955,-0.031131 0.019145,-0.062479 0.028585,-0.093621 z M -4.769661,7.4318584 C -2.7733099,9.2928916 0.42293921,6.9259405 2.699268,8.1315376 0.57036101,7.303611 -2.972634,9.8991864 -4.769661,7.4318584 z m 0,-3.2255494 C -3.440536,2.9673178 -1.5796598,3.6021494 0.18759763,3.8092678 L 0.48438122,3.5560464 C -1.4000782,3.2321147 -3.5123372,2.4799077 -4.7696806,4.206309 z M 0.24721634,4.194535 c -0.0268352,0.010713 -0.0456093,0.021373 -0.0562108,0.032139 -0.0213727,0.0053 -0.037389,0.00801 -0.0481549,0.00801 -0.0106598,0 -0.0213727,0.0027 -0.0321386,0.00801 l 0,0.00801 -0.008008,0 c -0.0107129,0.00541 -0.0213727,0.00801 -0.0321386,0.00801 -0.0481549,0 -0.0750113,-0.00262 -0.0802988,-0.00801 -0.17117785,-0.016016 -0.3237885,-0.1631485 -0.45748193,-0.4414445 l -0.88290379,0.6501084 0.1204509,0.1927255 0.096363,-0.040147 c 0.085592,0.1016503 0.16589031,0.1631485 0.24080621,0.1846909 l 0,2.3815816 c 0,0.1016503 -0.048155,0.1525735 -0.14454421,0.1525735 l -0.088137,0 c -0.00541,0 -0.00939,-0.00147 -0.012092,-0.00401 -0.00262,-0.0027 -0.00401,-0.00409 -0.00401,-0.00409 -0.021373,-0.01066 -0.04545,-0.019994 -0.072269,-0.028002 -0.026623,-0.00801 -0.046988,-0.01941 -0.06424,-0.028002 -0.1754895,-0.087745 -0.2647988,-0.2220799 -0.2647988,-0.4093801 l 0,-2.5340368 c 0,-0.044071 -0.018721,-0.072269 -0.024077,-0.088334 -0.01066,-0.016122 -0.017342,-0.032139 -0.019994,-0.048155 -0.00262,-0.016016 -0.00753,-0.02901 -0.012039,-0.040147 -0.059738,-0.1494392 -0.198013,-0.2808999 -0.4173882,-0.3933373 l -0.8186631,0.7063191 0,0.06424 c 0.096363,0 0.1899837,0.03076 0.2809158,0.092444 0.091075,0.061498 0.1365095,0.1298537 0.1365095,0.2046529 l 0,2.2289895 c -0.032139,0.021373 -0.066786,0.037389 -0.1043921,0.048155 -0.0053,0.0053 -0.012092,0.010713 -0.019994,0.016016 -0.00801,0.0053 -0.014743,0.010819 -0.020153,0.016122 l -0.032139,0.032139 c -0.032139,-0.026835 -0.072269,-0.053665 -0.1204509,-0.080299 -0.047996,-0.026835 -0.1012578,-0.05445 -0.1604066,-0.080304 -0.026464,-0.011508 -0.042692,-0.017448 -0.048155,-0.019994 -0.00541,-0.0027 -0.021373,-0.00939 -0.048155,-0.019994 -0.058953,0 -0.1016503,-0.010713 -0.1284802,-0.032139 l 0,-2.4297036 c 0,-0.1658904 -0.053469,-0.3157592 -0.1604066,-0.4494738 C -3.3669975,3.9166951 -3.5009455,3.8203747 -3.6614104,3.7615388 l -0.8106524,0.8105739 0.06424,0.040147 0.024077,0 0.016016,0.00801 0.06424,0 0.024077,0.00801 0.016016,0 c 0.1124215,0 0.2087419,0.080304 0.2890088,0.2408062 l 0,2.1728567 -0.00801,0 -0.00811,0.016016 c -0.1656942,0.1231927 -0.2755117,0.2782906 -0.329023,0.4655908 0.026835,-0.010713 0.054842,-0.018827 0.084218,-0.024077 0.029381,-0.0053 0.054842,-0.00796 0.076189,-0.00796 l 0.016122,-0.00811 0.016016,0 c 0.1658903,0 0.3237142,0.037389 0.4735247,0.1124215 0.1498317,0.075011 0.3023468,0.1819491 0.4574819,0.3210891 0.080299,-0.058756 0.1498317,-0.1096796 0.2086676,-0.1525735 0.058756,-0.042692 0.099105,-0.072073 0.1204508,-0.088334 l 0,0.00801 c 0.032139,-0.021373 0.053469,-0.034684 0.06424,-0.040147 l 0.016122,-0.00801 0.016016,-0.016016 c 0.00541,-0.0053 0.031343,-0.011667 0.072269,-0.032139 0.098516,-0.049162 0.2113511,-0.1229964 0.3450604,-0.2086676 0.091075,0.1445442 0.2127406,0.2688718 0.3651922,0.3732056 0.1525735,0.1043922 0.309045,0.1617803 0.4695896,0.1725515 0.069528,-0.032139 0.1271119,-0.06013 0.1725514,-0.084218 0.04545,-0.024077 0.085592,-0.038397 0.1163407,-0.052079 0.38662317,-0.1735273 0.7704817,-0.2648784 1.15579125,-0.2648784 l 0.0160163,0 c 0.0160163,0.0053 0.0722694,0.00801 0.16863222,0.00801 -0.0588624,-0.085512 -0.088238,-0.1309516 -0.088238,-0.1364353 -0.0534689,-0.074815 -0.0803041,-0.1525735 -0.0803041,-0.2327185 l 0,-2.38969 C 0.15114471,4.6497825 0.26613304,4.4678865 0.28755877,4.2270824 L 0.24741203,4.1949438 z M 1.4444903,6.4724892 1.4212084,6.4315469 c -0.05856,0.023494 -0.1092872,0.035056 -0.1521811,0.035056 -0.1247625,0 -0.2048068,-0.037018 -0.2398834,-0.1110479 -0.019516,-0.03898 -0.0291687,-0.070312 -0.0291687,-0.093621 l 0,-1.246316 C 1.0544252,4.992336 1.1073054,4.952163 1.1578362,4.8957558 c 0.050754,-0.056603 0.091659,-0.1296575 0.1228002,-0.21946 0,-0.031131 0.00393,-0.05856 0.011774,-0.081869 l 0,-0.070312 c -0.097535,0.054646 -0.1600142,0.081869 -0.1872419,0.081869 -0.1210395,0 -0.26138869,-0.1132064 -0.42132864,-0.3393593 l 0,0.070312 c -0.0117205,0.011721 -0.0242896,0.023282 -0.0379723,0.035268 -0.0137358,0.011668 -0.0205772,0.017501 -0.0205772,0.017501 -0.0624794,0.05856 -0.11496711,0.1014541 -0.15805724,0.1286765 -0.0779494,0.066393 -0.14042874,0.1218244 -0.18724186,0.1668714 -0.046829,0.044867 -0.0897017,0.084807 -0.1286764,0.1198622 l -0.0117205,0.00594 -0.0117205,0.011668 -0.005781,-0.00583 -0.0176073,0.029381 0.0818686,0.1169294 0.0818686,-0.046829 c 0.031131,0.066393 0.0761887,0.1014541 0.13455258,0.1053733 l 0,1.47447 c 0,0.1208432 0.0585602,0.2281735 0.17548952,0.3217732 0.0546462,0.046829 0.11320638,0.080887 0.17548952,0.1024351 0.0624794,0.021373 0.12495872,0.034101 0.18723655,0.037972 L 1.4441297,6.4727665 z M 1.2221924,3.7516782 C 1.1172116,3.8357 0.9687323,3.9212915 0.73656534,3.5820648 0.56911047,3.7038893 0.34445843,3.8160933 0.22163697,3.9389147 l 0.0759924,0.1286765 0.0936209,-0.046829 C 0.51914713,4.4612838 1.2220954,4.1416054 1.2220954,3.7515774 z m 4.0873207,2.9853499 -0.064436,0 -0.00583,0.00583 C 5.1573744,6.7389288 5.0890189,6.7146477 5.0344363,6.6696112 4.9797901,6.6247445 4.9525677,6.5652191 4.9525677,6.4911836 l 0,-1.2111593 C 5.1202188,5.1824895 5.2041663,5.0498515 5.2041663,4.8820625 l 0,-0.046829 c -0.1053732,0.035268 -0.1794034,0.052663 -0.2222973,0.052663 -0.093621,0 -0.1911558,-0.062479 -0.2925515,-0.1872365 l 0,0.00583 C 4.6736725,4.690898 4.6611035,4.676314 4.6513455,4.662631 c -0.00971,-0.01363 -0.012728,-0.020577 -0.0088,-0.020577 -0.00393,-0.00385 -0.00589,-0.023282 -0.00589,-0.058364 -0.031131,0.031131 -0.049746,0.050753 -0.055426,0.058364 -0.00583,0.00785 -0.012728,0.017607 -0.020577,0.029381 l -0.00589,0.011721 c -0.1600117,0.2105899 -0.2788981,0.3159207 -0.356927,0.3159207 -0.0078,0 -0.015592,-0.00385 -0.023282,-0.011721 l -0.029169,0.011721 0.011668,0 c -0.070116,0 -0.1384718,-0.042904 -0.2048068,-0.1286764 l 0,0.00589 C 3.9328352,4.8451561 3.9054166,4.8049935 3.870377,4.7562287 3.8353216,4.7074374 3.8078977,4.673379 3.7885085,4.6537935 l -0.00589,-0.011721 -0.029381,-0.035055 c -0.1676478,0.2028657 -0.392024,0.3550096 -0.6728439,0.4564054 0.082065,0.089702 0.1423857,0.1463049 0.1813657,0.1698095 l -0.00583,0 c 0.046829,0.05445 0.088726,0.1043922 0.1257383,0.1490468 0.037018,0.044867 0.071097,0.084807 0.1024352,0.1200584 0.050701,0.054646 0.088726,0.096559 0.1141822,0.1257383 0.025244,0.029381 0.041897,0.049746 0.049746,0.061498 -0.3550096,0.2418828 -0.5324375,0.5168694 -0.5324375,0.824989 0,0.093621 0.0078,0.1656942 0.023282,0.216522 0.019516,0.077949 0.053665,0.1482618 0.1024352,0.2106617 0.048791,0.062479 0.112029,0.1208432 0.1901746,0.1754895 0.1600142,0.097535 0.3237885,0.1463049 0.491482,0.1463049 l 0.035055,0 0.3978823,-0.3393593 c 0.019516,0.03898 0.044867,0.075011 0.076189,0.1083113 0.031131,0.033093 0.066393,0.069331 0.1053732,0.1083114 0.1012579,0.085788 0.1988563,0.1286764 0.292472,0.1286764 l 0.046829,0 0.00578,-0.00583 0.017607,0 0.00583,-0.00583 0.023494,0 0.00578,-0.00583 0.00583,0 0.3686606,-0.5148488 z m -1.1175405,0.023494 c -0.1365148,0 -0.2574748,-0.05856 -0.3628056,-0.1754895 C 3.7316321,6.4757454 3.6828621,6.3451439 3.6828621,6.1930053 c 0,-0.042905 0.0078,-0.09264 0.023494,-0.149243 0.015592,-0.056603 0.042905,-0.1218245 0.081869,-0.1960137 L 4.1509508,6.2397759 4.2972557,6.1110995 3.6418986,5.3679987 c 0.011667,0.00393 0.023282,0.00583 0.035055,0.00583 0.015592,0 0.027206,0 0.035055,0 l 0.1229964,0 0.011668,-0.00583 c 0.1286764,0 0.2360278,-0.054646 0.3218528,-0.1639334 0.062479,0.081869 0.1208432,0.1228003 0.1754895,0.1228003 l 0,1.3925822 -0.00583,0.00583 -0.00583,0 c -0.031131,0.023494 -0.077949,0.035268 -0.1404287,0.035268 z m 3.0347845,-1.9290344 0,-0.1345526 c -0.077949,0.070312 -0.1404288,0.1053732 -0.1872366,0.1053732 -0.1365148,0 -0.239963,-0.1112441 -0.3100633,-0.3335043 l -0.046829,0.00583 0,0.017501 c -0.089702,0.1404287 -0.1715703,0.2477589 -0.2457437,0.3218527 -0.023282,0.027207 -0.044867,0.051708 -0.06424,0.073054 -0.019517,0.021532 -0.03898,0.041897 -0.05856,0.061498 l -0.052663,0.070344 C 6.1950229,4.7497039 6.0585505,4.5624833 5.8519035,4.4571508 5.7153887,4.7224004 5.5261156,4.9252873 5.2843097,5.0656985 c 0.011668,0.00385 0.030176,0.0087 0.055622,0.014584 0.025244,0.00583 0.041897,0.010819 0.049746,0.014637 0.023282,0.00785 0.040942,0.01363 0.052663,0.017501 0.042904,0.01957 0.080887,0.042109 0.1139913,0.067374 0.033093,0.025456 0.06346,0.057584 0.090683,0.096559 l 0,1.2111598 -0.00578,0.00594 -0.017607,0 -0.017554,0.017501 0.011721,-0.00583 C 5.606074,6.5129743 5.591331,6.5226783 5.573936,6.5345053 5.556329,6.5461733 5.535964,6.5636743 5.512438,6.5871683 5.3915922,6.7080089 5.3310698,6.8289689 5.3310698,6.9498917 l 0.075992,-0.029169 c 0.031131,-0.00785 0.061498,-0.0166 0.090683,-0.026464 0.029381,-0.00971 0.063455,-0.014637 0.1024352,-0.014637 0.1911557,0 0.3959625,0.103411 0.6144037,0.3101375 L 6.8171967,6.6047321 6.6885202,6.4643034 6.583147,6.5696766 C 6.5012784,6.487808 6.4213668,6.4429572 6.3432636,6.435124 l 0.00583,0 C 6.3295776,6.431194 6.3120756,6.427324 6.2964306,6.423403 6.2808386,6.419473 6.2692246,6.415553 6.2613756,6.411682 l 0,-1.053162 0.157861,-0.1639334 c 0.1053733,0.1014541 0.2146021,0.1521811 0.3277077,0.1521811 0.1404287,0 0.2555338,-0.048791 0.3452196,-0.1463049 0.089702,-0.097535 0.1345525,-0.2204571 0.1345525,-0.368581 z m 2.0142521,-0.3398101 -0.046829,0.05856 c -0.062479,0 -0.1247625,-0.029381 -0.1872419,-0.087745 l 0.00589,0 c -0.00785,-0.0078 -0.016653,-0.015592 -0.026464,-0.023282 -0.00971,-0.0078 -0.018509,-0.015592 -0.026252,-0.023494 -0.027206,-0.023282 -0.050753,-0.044867 -0.070312,-0.06424 -0.01952,-0.019516 -0.037021,-0.037018 -0.052666,-0.052662 L 8.7025868,4.1583376 c 0,0.00386 -0.00385,-0.002 -0.011721,-0.017554 L 8.0823976,3.5380662 7.9360927,3.3917613 l 0,0.00583 C 7.8620572,3.296141 7.8113302,3.2044824 7.7841078,3.1226297 7.6865728,3.1733827 7.5870971,3.2123317 7.4857014,3.239559 7.3842474,3.266978 7.2828304,3.280501 7.1814347,3.280501 c -0.03898,0 -0.060517,-0.00201 -0.064436,-0.00589 -0.035056,0 -0.070116,-0.017554 -0.1053733,-0.052663 l 0,0.082065 c 0.1249588,0.1443479 0.2126611,0.2379689 0.2633298,0.2808415 0.035268,0.031131 0.067374,0.057584 0.096559,0.079127 0.029381,0.021373 0.051708,0.037972 0.067374,0.049746 0.070116,0.054646 0.1404287,0.1149671 0.2106617,0.1813657 0.070116,0.066393 0.1384718,0.1345525 0.2047271,0.2047271 l 0.2457438,0.269188 C 7.9049458,4.5055232 7.6632009,4.573815 7.3745077,4.573815 l -0.017501,0 -0.011721,-0.00583 -0.070312,0 -0.011667,-0.00583 -0.070312,0 c 0.077949,0.1092871 0.1171256,0.1950749 0.1171256,0.2574748 l 0,1.3983794 c -0.1754907,0.089694 -0.2809011,0.2398813 -0.315999,0.450543 0.101454,-0.074035 0.2164424,-0.1112495 0.3452195,-0.1112495 0.2184577,0 0.4075982,0.093621 0.5675153,0.2808999 0.00785,0.0078 0.014637,0.015592 0.020577,0.023494 0.00589,0.0078 0.012622,0.015486 0.020577,0.023282 l 0.052663,0.046829 C 8.2073998,6.678268 8.476505,6.5514319 8.8080741,6.5514319 c 0.1600142,0 0.3022673,0.037018 0.427104,0.1112441 L 9.1942361,6.580611 c -0.00393,-0.0078 -0.00583,-0.015592 -0.00583,-0.023494 l -0.00583,-0.00583 0,-0.00578 -0.00583,-0.011721 c -0.00393,-0.00393 -0.00589,-0.01363 -0.00589,-0.029169 l -0.00578,-0.00583 c -0.00393,-0.019516 -0.00589,-0.029381 -0.00589,-0.029381 0,-0.00385 -0.00193,-0.0078 -0.00583,-0.011721 l 0,0.00594 -0.00589,-0.017607 0,-0.011721 c -0.00393,-0.00393 -0.00583,-0.00981 -0.00583,-0.017501 l 0,-1.6734212 c 0.00386,-0.023494 0.017607,-0.050753 0.040942,-0.082065 l 0,-0.011667 c 0.0078,-0.00785 0.014637,-0.015645 0.020577,-0.023494 0.00583,-0.0078 0.012622,-0.015592 0.020365,-0.023282 l 0.00583,-0.011721 0.01172,-0.011721 0,-0.087745 z m -0.7489568,1.8782289 -0.029169,0 -0.00583,0.00589 -0.017501,0 -0.01172,0.011721 -0.00594,0 -0.011667,0.011721 C 8.3322716,6.321285 8.2386506,6.2548864 8.1293794,6.2002826 c -0.0507,-0.015645 -0.089702,-0.026252 -0.1171203,-0.032298 -0.027206,-0.00583 -0.046829,-0.010713 -0.05856,-0.014584 -0.027206,-0.0078 -0.040942,-0.011721 -0.040942,-0.011721 l 0,-1.4276796 C 8.0414331,4.6867939 8.1585003,4.6223417 8.2638312,4.5208876 l 0.2340284,0.2398834 0,1.6031676 -0.00583,0.00583 z m 0.6904349,-1.7026429 0.01172,-0.023282 c -0.0078,0.0078 -0.01172,0.01363 -0.01172,0.017501 l 0,0.00589 z m -0.00583,-0.011667 0,-0.00589 0,0.011667 c -0.00393,0 -0.00393,-0.00193 0,-0.00578 z m 2.0697577,-0.1106607 0,-0.1345526 c -0.07795,0.070312 -0.140429,0.1053733 -0.187242,0.1053733 -0.136515,0 -0.239883,-0.1112495 -0.310137,-0.3335044 l -0.04683,0.00583 0,0.017501 c -0.0897,0.1404287 -0.171767,0.247759 -0.245818,0.3218528 -0.02328,0.027206 -0.04487,0.051708 -0.06444,0.073054 -0.01941,0.021532 -0.03898,0.041897 -0.05836,0.061498 L 10.280928,4.7323 C 10.214725,4.4629183 10.078163,4.275703 9.8714361,4.1703695 9.7349266,4.435619 9.5457278,4.6385059 9.3039208,4.7789166 c 0.011667,0.00386 0.030176,0.0088 0.055622,0.014584 0.025244,0.00583 0.041897,0.010819 0.049746,0.014637 0.023494,0.00785 0.040942,0.01363 0.052663,0.017607 0.042905,0.019516 0.080888,0.041897 0.1139913,0.067374 0.033093,0.025244 0.063455,0.057584 0.090683,0.096559 l 0,1.2112383 -0.00578,0.00583 -0.017554,0 -0.017554,0.017554 0.01172,-0.00594 c -0.01172,0.00785 -0.026464,0.017554 -0.043859,0.029381 -0.017556,0.011673 -0.037974,0.029174 -0.0615,0.052668 C 9.4112563,6.4212525 9.3507339,6.5422336 9.3507339,6.6631353 l 0.075992,-0.029169 c 0.031131,-0.0078 0.061498,-0.0166 0.090683,-0.026252 0.029381,-0.00981 0.063455,-0.014637 0.1024352,-0.014637 0.1911557,0 0.3959629,0.103411 0.6144029,0.3101376 L 10.836861,6.3181114 10.708184,6.1776827 10.602811,6.2830559 c -0.08187,-0.081869 -0.16178,-0.1267194 -0.239883,-0.1345525 l 0.0058,0 c -0.01952,-0.00393 -0.03702,-0.0078 -0.05266,-0.011721 -0.01559,-0.00386 -0.02721,-0.0078 -0.03506,-0.011721 l 0,-1.053162 0.158057,-0.1637371 c 0.105177,0.1012578 0.214523,0.1519848 0.327628,0.1519848 0.140429,0 0.255534,-0.048791 0.34522,-0.1463049 0.0897,-0.097535 0.134553,-0.2204571 0.134553,-0.368581 z m 0.610519,3.1977516 c -0.0758,-0.036646 -0.166675,-0.077557 -0.271417,-0.1204509 -0.04073,0.036646 -0.06111,0.079519 -0.06111,0.1284802 0,0.05856 0.03702,0.087745 0.111244,0.087745 0.02646,0 0.100086,-0.031926 0.221374,-0.09597 z m 0.246682,-0.5067612 -0.01172,0.00583 -0.03506,0 c -0.0039,0 -0.0068,-9.244e-4 -0.0088,-0.00293 -0.0019,-0.00193 -0.0049,-0.00293 -0.0087,-0.00293 -0.0078,0 -0.01363,-9.265e-4 -0.01755,-0.00293 -0.0039,-0.00193 -0.0078,-0.00293 -0.01172,-0.00293 l -0.02328,0 C 11.850272,7.2028303 11.78198,7.1501243 11.78198,7.0721753 l 0,-1.4043145 0.356929,-0.2457436 0.0995,0.046829 c 0.01952,0.0078 0.03702,0.015645 0.0525,0.023282 0.01564,0.00785 0.03113,0.013736 0.04683,0.01766 l 0,1.5973121 c 0,0.042905 -0.02546,0.075011 -0.07619,0.096559 -0.0507,0.021373 -0.103411,0.032139 -0.158057,0.032139 z M 4.4322654,9.0955696 c 0.013205,0.1649092 0.037018,0.3195405 0.075992,0.4459258 C 4.4395099,9.5023033 4.3744849,9.4688335 4.3272846,9.4421945 4.2608913,9.4045934 4.1299557,9.3325149 4.0324209,9.2506463 c 0.015327,-0.1169241 0.023918,-0.2427472 0.02779,-0.3700501 0.02604,0.014796 0.050541,0.028373 0.072466,0.040942 0.038184,0.021373 0.1823415,0.097535 0.2994831,0.1741159 z M 4.5233407,9.9143891 4.2405051,10.560247 3.8811838,9.7395668 c 0.031555,-0.044283 0.057971,-0.099497 0.080102,-0.1631485 0.062283,0.038397 0.1228003,0.071877 0.1715704,0.099301 0.049162,0.027631 0.2738092,0.1457162 0.3904787,0.238653 z"
   class="fil1" />
</svg>