<?xml version="1.0" encoding="UTF-8" standalone="no"?>
<!-- Creator: CorelDRAW -->

<svg
   xmlns:dc="http://purl.org/dc/elements/1.1/"
   xmlns:cc="http://creativecommons.org/ns#"
   xmlns:rdf="http://www.w3.org/1999/02/22-rdf-syntax-ns#"
   xmlns:svg="http://www.w3.org/2000/svg"
   xmlns="http://www.w3.org/2000/svg"
   xmlns:xlink="http://www.w3.org/1999/xlink"
   xmlns:sodipodi="http://sodipodi.sourceforge.net/DTD/sodipodi-0.dtd"
   xmlns:inkscape="http://www.inkscape.org/namespaces/inkscape"
   xml:space="preserve"
   width="617.69"
   height="378.98001"
   style="fill-rule:evenodd"
   viewBox="0 0 6.8632222 4.210889"
   id="svg2"
   sodipodi:version="0.32"
   inkscape:version="0.47 r22583"
   sodipodi:docname="Logo rot-grau.svg"
   inkscape:output_extension="org.inkscape.output.svg.inkscape"
   version="1.1"><metadata
   id="metadata84"><rdf:RDF><cc:Work
       rdf:about=""><dc:format>image/svg+xml</dc:format><dc:type
         rdf:resource="http://purl.org/dc/dcmitype/StillImage" /><dc:title /></cc:Work></rdf:RDF></metadata><sodipodi:namedview
   inkscape:window-height="981"
   inkscape:window-width="1286"
   inkscape:pageshadow="2"
   inkscape:pageopacity="0.0"
   guidetolerance="10.0"
   gridtolerance="10.0"
   objecttolerance="10.0"
   borderopacity="1.0"
   bordercolor="#666666"
   pagecolor="#ffffff"
   id="base"
   showgrid="false"
   inkscape:zoom="1"
   inkscape:cx="395.12468"
   inkscape:cy="190.77541"
   inkscape:window-x="228"
   inkscape:window-y="45"
   inkscape:current-layer="svg2"
   inkscape:document-units="cm"
   inkscape:window-maximized="0" />
 <defs
   id="defs4"><inkscape:perspective
   sodipodi:type="inkscape:persp3d"
   inkscape:vp_x="0 : 495 : 1"
   inkscape:vp_y="0 : 1000 : 0"
   inkscape:vp_z="765 : 495 : 1"
   inkscape:persp3d-origin="382.5 : 330 : 1"
   id="perspective86" />
  <style
   type="text/css"
   id="style6">
   
    .fil1 {fill:#1F1A17}
    .fil6 {fill:white}
    .fil3 {fill:url(#id1)}
    .fil2 {fill:url(#id2)}
    .fil0 {fill:url(#id3)}
    .fil4 {fill:url(#id4)}
    .fil5 {fill:url(#id5)}
   
  </style>
   <clipPath
   id="id0">
    <rect
   x="2.8620701"
   y="3.04742"
   width="2.7758501"
   height="1.73077"
   id="rect9" />
   </clipPath>
  <linearGradient
   id="id1"
   gradientUnits="userSpaceOnUse"
   x1="5.9532299"
   y1="5.0457001"
   x2="4.98594"
   y2="6.28936">
   <stop
   offset="0"
   style="stop-color:#623620"
   id="stop12" />
   <stop
   offset="0.121569"
   style="stop-color:#CC9E20"
   id="stop14" />
   <stop
   offset="0.239216"
   style="stop-color:white"
   id="stop16" />
   <stop
   offset="0.521569"
   style="stop-color:#CF9A30"
   id="stop18" />
   <stop
   offset="1"
   style="stop-color:#662D29"
   id="stop20" />
  </linearGradient>
  <linearGradient
   id="id2"
   gradientUnits="userSpaceOnUse"
   x1="2.9107599"
   y1="5.1141801"
   x2="3.1500499"
   y2="6.22089">
   <stop
   offset="0"
   style="stop-color:#1F1A17"
   id="stop23" />
   <stop
   offset="0.0588235"
   style="stop-color:#626767"
   id="stop25" />
   <stop
   offset="0.121569"
   style="stop-color:#B5B1B4"
   id="stop27" />
   <stop
   offset="0.188235"
   style="stop-color:#E5E5E5"
   id="stop29" />
   <stop
   offset="0.239216"
   style="stop-color:white"
   id="stop31" />
   <stop
   offset="0.4"
   style="stop-color:#C8CECB"
   id="stop33" />
   <stop
   offset="0.619608"
   style="stop-color:#9F9A9E"
   id="stop35" />
   <stop
   offset="0.780392"
   style="stop-color:#666467"
   id="stop37" />
   <stop
   offset="1"
   style="stop-color:#1F1A17"
   id="stop39" />
  </linearGradient>
  <radialGradient
   id="id3"
   gradientUnits="userSpaceOnUse"
   cx="4.25"
   cy="5.5"
   r="3.8012199"
   fx="4.25"
   fy="5.5">
   <stop
   offset="0"
   style="stop-color:white"
   id="stop42" />
   <stop
   offset="0.941176"
   style="stop-color:#EFEFEE"
   id="stop44" />
   <stop
   offset="1"
   style="stop-color:#DEDEDD"
   id="stop46" />
  </radialGradient>
  <radialGradient
   id="id4"
   gradientUnits="userSpaceOnUse"
   cx="4.24827"
   cy="3.9158299"
   r="1.50052"
   fx="4.24827"
   fy="3.9158299">
   <stop
   offset="0"
   style="stop-color:white"
   id="stop49" />
   <stop
   offset="0.819608"
   style="stop-color:#E1E0E0"
   id="stop51" />
   <stop
   offset="1"
   style="stop-color:#C2C1C1"
   id="stop53" />
  </radialGradient>
  <radialGradient
   id="id5"
   gradientUnits="userSpaceOnUse"
   cx="4.2544498"
   cy="3.9198"
   r="1.45365"
   fx="4.2544498"
   fy="3.9198">
   <stop
   offset="0"
   style="stop-color:#DA251D"
   id="stop56" />
   <stop
   offset="1"
   style="stop-color:#82282A"
   id="stop58" />
  </radialGradient>
 
  
  
  
  
  
  
  
  
  
  
 <radialGradient
   inkscape:collect="always"
   xlink:href="#id5"
   id="radialGradient2651"
   gradientUnits="userSpaceOnUse"
   cx="4.2544498"
   cy="3.9198"
   fx="4.2544498"
   fy="3.9198"
   r="1.45365"
   gradientTransform="matrix(2.5102627,0,0,2.5102627,-7.2270959,-7.7187824)" /><radialGradient
   inkscape:collect="always"
   xlink:href="#id4"
   id="radialGradient2654"
   gradientUnits="userSpaceOnUse"
   cx="4.24827"
   cy="3.9158299"
   fx="4.24827"
   fy="3.9158299"
   r="1.50052"
   gradientTransform="matrix(2.5102627,0,0,2.5102627,-7.2270959,-7.7187824)" /><linearGradient
   inkscape:collect="always"
   xlink:href="#id1"
   id="linearGradient2660"
   gradientUnits="userSpaceOnUse"
   x1="5.9532299"
   y1="5.0457001"
   x2="4.98594"
   y2="6.28936" /><linearGradient
   inkscape:collect="always"
   xlink:href="#id2"
   id="linearGradient2663"
   gradientUnits="userSpaceOnUse"
   x1="2.9107599"
   y1="5.1141801"
   x2="3.1500499"
   y2="6.22089" /><radialGradient
   inkscape:collect="always"
   xlink:href="#id3"
   id="radialGradient2667"
   gradientUnits="userSpaceOnUse"
   cx="4.25"
   cy="5.5"
   fx="4.25"
   fy="5.5"
   r="3.8012199" /></defs>
 <path
   style="fill:url(#radialGradient2654)"
   id="path76"
   d="M 3.5736858,3.912369 3.4526987,4.1886661 3.2181874,3.6530815 3.2479742,3.6113057 c 0.00155,-0.00218 0.00304,-0.00452 0.00444,-0.00698 -0.045787,-0.038118 -0.08191,-0.084578 -0.086368,-0.1423445 -0.00467,-0.060563 0.026604,-0.1099771 0.069547,-0.1476411 -0.037576,-0.035184 -0.065653,-0.077027 -0.069547,-0.1274987 -0.00106,-0.013781 -2.666e-4,-0.02698 0.00212,-0.039602 -0.066246,-0.0067 -0.1315704,-0.016969 -0.1962448,-0.030568 l -0.034659,0.075752 -0.079528,-0.030934 C 2.6945255,3.0980348 2.507147,3.0982005 2.3352718,3.1151397 2.1241914,3.1359247 1.9131034,3.1831151 1.7051181,3.2242583 1.1658158,3.3309344 0.60216399,3.4131405 0.2015587,3.0042338 l -0.009137,0.00367 0.002887,-0.010091 C 0.1598086,2.9609698 0.1256037,2.9202228 0.09283224,2.8752242 l -0.0483878,-0.066444 0.12305308,-0.1090081 0.0601183,0.056047 c 0.0104427,0.00974 0.021036,0.019153 0.0317925,0.028306 0.0238475,-0.056629 0.059802,-0.1054913 0.10613391,-0.1464161 l 0,-0.7272055 c -0.005372,-0.00864 -0.0117731,-0.017547 -0.0169192,-0.020885 l -0.018576,0 -0.008786,-0.00294 -0.0300629,0 -0.005849,-0.00294 -0.0133797,0 -0.14182984,-0.08864 0.032169,-0.032179 -0.1178242,-0.1043742 0.0483778,-0.066434 C 0.58871651,0.91128464 1.4131721,1.2012904 2.0979291,1.3189966 l 0.047298,0.00813 0.05141,-0.037388 0.035864,0.052399 0.055582,0.00954 -0.030706,0.02621 c 0.00891,0.011949 0.021789,0.027821 0.031853,0.035658 0.00229,-0.00169 0.00449,-0.00349 0.00602,-0.00469 l 0.1469106,-0.1174201 0,0.097544 0.00736,-0.024324 0.083956,0.021538 c 0.131849,0.033808 0.2701193,0.050333 0.4083921,0.056421 l -4.89e-5,-2.24e-5 0.1385188,-0.042496 -0.2039237,-0.062696 0.1913046,-0.058595 -0.05493,-0.016794 0.056709,-0.017396 -0.1973418,-0.060681 0.2820983,-0.086228 c 0.00869,-0.00266 0.017396,-0.00532 0.026102,-0.00798 0.00266,-0.00869 0.00535,-0.017396 0.00801,-0.026102 l 0.034373,-0.11243732 c -0.00758,-0.00477 -0.015011,-0.00974 -0.022241,-0.014936 l -0.05392,0.039323 0.021337,-0.0652065 C 3.0759934,0.82984946 3.020253,0.71214324 3.020253,0.58486288 c 0,-0.0453128 0.00705,-0.0895386 0.020408,-0.13135451 l -0.083293,-0.0602664 0.1075271,2.076e-4 C 3.1059383,0.3103147 3.1734092,0.24096619 3.2595112,0.1978951 l 0.077442,-0.0387409 0.047557,0.0855774 0.068231,-0.21140679 0.068242,0.21140679 0.047557,-0.0855774 0.077442,0.0387409 c 0.086099,0.0430711 0.1535703,0.11241709 0.1946156,0.19555448 l 0.1075261,-2.076e-4 -0.083293,0.0602664 c 0.013329,0.0418134 0.020408,0.0860418 0.020408,0.13135451 0,0.12730295 -0.055768,0.24500666 -0.1476611,0.3255133 l 2.174e-4,6.8203e-4 0.2753682,0.0845783 -0.1760648,0.054041 0.1050746,0.032199 -0.021061,0.00645 0.1104716,0.033909 -0.1950976,0.05988 0.059257,0.018199 -0.158867,0.048782 -0.00236,0.00768 0.017145,0.00527 -0.02071,0.00635 -0.042398,0.1377883 c 0.0058,-6.228e-4 0.010694,-0.00118 0.014158,-0.00156 0.2239279,-0.024927 0.4471028,-0.056411 0.6705664,-0.085261 l 0,-0.2513828 0.1471366,0.1471165 0.019178,0 0.00176,0.00176 c 0.024249,-0.0012 0.04823,-0.00512 0.071761,-0.011472 0.031456,-0.00846 0.061748,-0.020559 0.090636,-0.035588 l 0.00675,-0.00351 0,-0.036389 0.023948,0.023948 0.063271,-0.032879 0.033532,0.1004608 c 0.00484,0.014484 0.012501,0.029373 0.021111,0.043525 l 0.02764,-0.00249 C 5.5026442,1.2078804 6.2111508,1.2169424 6.70261,1.6619893 L 6.763727,1.7173433 6.66477,1.8492501 6.594533,1.8060711 c -0.00222,-0.00137 -0.00447,-0.00274 -0.0067,-0.00409 l 0.00668,0.00906 c 0.013279,0.017999 0.034747,0.043337 0.058853,0.050768 l 0.019932,0 c 0.00427,0 0.0069,-0.00149 0.010267,-0.00414 l 0.1463257,-0.1150077 0,0.241658 -0.00213,0.00427 0,0.026862 -0.00926,0.00921 c -0.00334,0.010568 -0.00776,0.020835 -0.013003,0.030756 -0.00874,0.016493 -0.018777,0.032237 -0.029955,0.047103 -0.012727,0.01702 -0.027455,0.032307 -0.043832,0.045787 l 0,0.5211079 c 0,0.06839 -0.028808,0.1195036 -0.072263,0.1574537 3.359e-4,2.965e-4 6.818e-4,5.929e-4 0.00103,8.994e-4 0.054899,0.048318 0.084034,0.1121034 0.084034,0.185275 0,0.2009189 -0.225261,0.2877815 -0.3551144,0.1641561 -0.018124,0.010895 -0.036655,0.021212 -0.055512,0.030369 -0.023245,0.011271 -0.049,0.022643 -0.074299,0.028246 l -0.00181,3.755e-4 c -0.012175,0.00244 -0.024601,0.00387 -0.036903,0.00474 -0.014911,0.00108 -0.029945,0.00131 -0.044899,0.00131 -0.036015,0 -0.071138,-0.00698 -0.1044821,-0.020559 C 6.0451842,3.210987 6.0206842,3.19688 5.9986542,3.179215 l -0.00195,5.239e-4 c -0.049058,0.013204 -0.1021099,0.022843 -0.1521093,0.03125 -0.1302274,0.02194 -0.2628848,0.034689 -0.3948217,0.03972 C 5.02984,3.2667289 4.6053672,3.2034629 4.2128876,3.0513361 l -0.045481,-0.017622 c -0.1828049,0.044858 -0.3665862,0.085201 -0.5560132,0.1074367 3.94e-5,0.00763 2.97e-5,0.015087 -2.866e-4,0.021889 -0.00192,0.04042 -0.00306,0.080921 -0.00311,0.1213913 0.066828,0.041133 0.1304258,0.094017 0.1338648,0.1676454 0.00299,0.063449 -0.036042,0.1085337 -0.084598,0.1411972 0.045935,0.035578 0.082028,0.078985 0.084598,0.1339527 0.00427,0.09122 -0.078222,0.1444882 -0.1511404,0.1774479 l -0.01702,0.00771 z M 5.7352102,1.5568741 c -0.064574,-0.00482 -0.1294266,-0.00758 -0.194209,-0.00869 l 0.00688,0.00349 c 0.056737,0.028918 0.1007569,0.069557 0.1337568,0.1185245 0.013455,-0.016543 0.026129,-0.034423 0.037842,-0.051995 l 0,-0.059368 0.015739,-0.00198 z m 0.2795479,0.03552 c -0.037287,-0.00693 -0.074844,-0.012928 -0.1125953,-0.018074 l 0.011045,0.034986 c 0.00324,0.010217 0.01353,0.038643 0.023697,0.052665 0.00422,-0.00339 0.00826,-0.00698 0.010995,-0.00944 l 0.066848,-0.060148 z m 0.084084,0.1521571 0.043021,0.024601 c 0.016693,0.00954 0.032209,0.021287 0.046686,0.033939 0.016116,0.014083 0.030746,0.029817 0.0439,0.046726 l 6.521e-4,8.598e-4 6.525e-4,8.698e-4 c 0.015538,0.021036 0.031318,0.0447 0.041756,0.069961 L 6.5146561,1.7604941 C 6.383786,1.6912635 6.2437761,1.6427778 6.0988411,1.6097704 l 0,0.1347935 z m -0.2182247,0.5607977 0,-0.1705096 c -0.00811,-0.00147 -0.016442,-0.00248 -0.021387,-0.00299 l -0.081059,-0.00846 0,-0.083007 c -0.010794,-0.00269 -0.021287,-0.00612 -0.031506,-0.010242 l 0,0.2430613 0.023822,0.00479 0.044394,-0.044394 0.065741,0.071731 z m -0.08938,0.3020925 c 0.030025,0.00793 0.059832,0.016643 0.08938,0.026129 l 0,-0.1129116 -0.08938,0.086782 z m -0.460219,-0.6482301 0,0.3746316 c 0.00346,-0.00314 0.007,-0.00618 0.010644,-0.00911 l 0,-0.3587993 c -0.00339,-0.00243 -0.00698,-0.00467 -0.010644,-0.00673 z M 3.835178,2.0526153 c -0.00971,0.011171 -0.020509,0.021613 -0.032247,0.031378 l 0,0.3921834 c 0.0014,7.709e-4 0.00291,0.00139 0.00447,0.0019 l 0.019455,0 c 0.00813,-0.00982 0.016819,-0.019229 0.025893,-0.028306 0.00718,-0.00718 0.014685,-0.014158 0.022617,-0.020534 l 0,-0.3588094 c -0.0056,-0.00402 -0.011673,-0.00746 -0.017873,-0.010493 -0.00477,-0.00158 -0.00954,-0.00316 -0.014309,-0.00474 l -0.006,-0.00202 -3.063e-4,-1.483e-4 c -5.633e-4,-1.481e-4 -0.00114,-2.767e-4 -0.00171,-4.052e-4 z M 3.9734301,1.6694945 c -0.095154,0.00798 -0.1904035,0.014685 -0.2857558,0.019279 l 0,0.075704 0.039037,0.038563 c 0.014785,-0.00236 0.036627,-0.00989 0.04893,-0.014007 l 0.1190692,-0.03972 0,0.043337 c 0.025379,-0.029056 0.047032,-0.061599 0.065395,-0.097278 l 0.013329,-0.025883 z m 0.4642705,0.015112 0.1244463,0 0.070395,-0.063309 0,0.066364 c 0.026684,-0.00182 0.053092,-0.0058 0.078669,-0.012601 l -0.00645,-0.00708 c -0.021288,-0.022492 -0.04315,-0.044444 -0.065584,-0.065801 l -0.032061,0.00334 c -0.1730199,0.018049 -0.3461502,0.037546 -0.5195165,0.053792 0.053853,0.02867 0.095905,0.068161 0.1277272,0.1153918 0.013455,-0.016543 0.026122,-0.034423 0.037842,-0.051995 l 0,-0.059426 0.171092,-0.021312 0.013455,0.042634 z m -0.025665,0.7227573 c 0.01825,-0.029669 0.041557,-0.055808 0.070031,-0.077738 l 0,-0.202907 c -0.034985,0.016643 -0.073726,0.024927 -0.1149876,0.024927 -0.030756,0 -0.059702,-0.00613 -0.086712,-0.016994 l 0,0.2430612 0.023822,0.00479 L 4.348563,2.338119 4.41203,2.40738 z M 3.8670125,2.7365745 c 0.040985,-0.00562 0.08192,-0.011798 0.1228246,-0.018375 -0.013731,-0.00464 -0.027553,-0.00736 -0.041113,-0.00736 -0.0024,0 -0.0065,5.93e-5 -0.00866,6.62e-4 -0.011296,0.00379 -0.022718,0.00715 -0.034225,0.010142 l -0.038829,0.014936 z M 3.5260209,1.694429 c -0.035528,7.413e-4 -0.071068,0.00114 -0.1066259,0.00114 l -0.026862,0 C 3.383193,1.713794 3.370894,1.732392 3.357726,1.749638 l 0.00419,0.00502 0.00117,0.00234 c 0.00999,0.011522 0.019254,0.024124 0.027939,0.036163 0.0073,0.010141 0.014585,0.020408 0.021588,0.030816 l 0.00645,0.00836 c 7.114e-4,9.092e-4 0.00162,0.00207 0.00266,0.00334 L 3.442809,1.827247 C 3.459904,1.80965 3.47905,1.78574 3.490296,1.7712 l 8.402e-4,-0.00167 0.00321,-0.00479 c 0.00331,-0.00495 0.0067,-0.00984 0.010242,-0.014585 0.00613,-0.00816 0.013882,-0.016216 0.021438,-0.023797 l 0,-0.031921 z m -0.046369,1.0741564 c 0.00206,-3.94e-5 0.00409,-6.9e-5 0.00615,-1.087e-4 -9.193e-4,-9.388e-4 -0.00183,-0.00186 -0.00274,-0.00279 l -0.00341,0.00291 z M 2.9564197,2.4287009 c -0.00577,0.00159 -0.011522,0.00309 -0.017246,0.00449 l -0.094017,0.2491085 c 0.00126,4.445e-4 0.00249,8.796e-4 0.00369,0.0013 0.064099,0.022542 0.1325996,0.038653 0.2001482,0.051036 -0.011447,-0.011196 -0.022216,-0.023119 -0.032099,-0.035776 -0.0252,-0.032277 -0.043041,-0.068736 -0.05325,-0.1083555 -0.00961,-0.032694 -0.011798,-0.069278 -0.011798,-0.1031191 0,-0.020183 0.00157,-0.03976 0.00457,-0.058695 z m 0.1016858,-0.31064 -0.00147,0.00392 c 0.00147,-1.185e-4 0.00296,-2.47e-4 0.00442,-3.755e-4 -9.883e-4,-0.00119 -0.00197,-0.00237 -0.00296,-0.00354 z M 2.1001441,2.6969124 c -0.014384,-0.00856 -0.028037,-0.0184 -0.040925,-0.029343 -0.038485,-0.031071 -0.068163,-0.068934 -0.084006,-0.1129814 l 0,0.1689583 c 0,0.010869 0.00467,0.02086 0.010644,0.029736 L 2.1001542,2.6969099 z M 2.4711784,2.3568421 c 0.00374,-0.00803 0.00761,-0.016367 0.011597,-0.025052 l 0.023571,-0.059257 c -0.045915,-0.028316 -0.091379,-0.04469 -0.1453191,-0.053812 l 0,0.1604585 c 0.00294,1.78e-4 0.00577,2.176e-4 0.00771,2.176e-4 0.0057,-1.187e-4 0.016693,-0.00424 0.021864,-0.0063 l 0.073114,-0.029312 0.00746,0.013053 z m -0.06247,-0.4155464 c 0.072037,-0.013003 0.1527119,-0.00771 0.2254492,0.010066 l 0.022768,-0.057201 -0.1978564,-0.049475 -5.929e-4,0.00172 c -0.011798,0.033949 -0.027909,0.066404 -0.049761,0.094885 z M 0.8903557,3.002316 C 0.9614438,3.004396 1.033767,3.00197 1.106168,2.996596 1.077081,2.974656 1.050232,2.950324 1.025998,2.923492 1.004962,2.936445 0.98364,2.948783 0.961976,2.959615 c -0.00505,0.00251 -0.00997,0.00472 -0.014961,0.00685 l -0.00419,0.00417 -0.017748,0.00889 c -0.00502,0.00289 -0.010142,0.00645 -0.0149361,0.00964 L 0.89036,3.002319 z M 1.5453058,1.5282094 c -0.064446,-0.010468 -0.1308901,-0.021136 -0.198361,-0.030675 0.024977,0.026792 0.045659,0.05737 0.059654,0.092345 0.00515,0.012853 0.0055,0.00974 0.00788,0.022994 l 0.00178,0.00266 0.00208,0.00618 0.1269766,-0.093502 z M 1.0470287,1.4669841 c -0.10588536,-0.00535 -0.21091225,-0.00344 -0.31153864,0.010518 0.018576,0.016367 0.0358265,0.034491 0.0517064,0.054347 0.0265661,0.033216 0.0466583,0.06923 0.0598422,0.1076752 L 1.0470287,1.4669791 z M 3.6102578,1.364706 c 1.68e-4,0.00512 3.459e-4,0.010217 5.337e-4,0.015338 2.47e-4,0.0067 6.72e-4,0.019705 0.00197,0.030577 0.00715,3.163e-4 0.01579,1.581e-4 0.024877,-2.766e-4 l -0.020685,-0.067461 -0.0067,0.021839 z m 1.5312201,0.1940207 0.00891,0.00881 0.00259,0.00517 0.041261,0.043041 c 0.00618,0.00618 0.012325,0.012325 0.018425,0.01845 0.0066,0.00658 0.01353,0.012777 0.020584,0.018827 l 0.00264,0.00227 2.669e-4,2.47e-4 0.084292,-0.1053809 c -0.060148,0.00196 -0.1198902,0.00492 -0.1789692,0.00859 z m 0.2258257,-0.00989 0,0.020107 0.020459,-0.020534 c -0.00683,1.285e-4 -0.013656,2.766e-4 -0.020459,4.348e-4 z m 0.4311326,1.3313579 c -0.1328456,-0.031052 -0.2689144,-0.04898 -0.404933,-0.053654 -0.2387711,-0.00818 -0.4709704,0.026913 -0.703348,0.078599 -0.049633,0.01102 -0.099017,0.022693 -0.1482536,0.034669 0.4145699,0.08189 0.8838309,0.1225987 1.2565346,-0.059614 z M 4.6345931,2.6013567 c -0.015815,-0.00525 -0.032862,-0.00803 -0.05141,-0.00803 -0.027169,0 -0.050629,0.00708 -0.072579,0.023119 l -0.01225,0.00894 c 0.045333,-0.00831 0.090736,-0.016367 0.136237,-0.024023 z m -3.76903378,-0.749838 0,0.7188539 c 0.003916,0.0016 0.007832,0.00326 0.0115723,0.00502 0.005397,0.00223 0.0107941,0.00437 0.0161912,0.00673 0.0136307,0.00597 0.0270205,0.012376 0.0402244,0.019153 l 0,-0.7238543 c -0.00311,-0.00291 -0.00753,-0.00607 -0.010016,-0.00773 -0.0155636,-0.010543 -0.0327313,-0.018149 -0.0517867,-0.018149 l -0.006175,0 z m 0.56800208,0.064288 0,0.6964699 c 0,0.03545 0.015413,0.052843 0.046648,0.06845 0.00279,0.0014 0.00635,0.00349 0.00894,0.00449 2.272e-4,6.93e-5 4.644e-4,1.386e-4 6.918e-4,2.076e-4 l 0,-0.7704824 c -0.00645,-0.00464 -0.012727,-0.00959 -0.018827,-0.01476 l -0.037456,0.015614 z m 3.4817845,0.3777743 0,-0.4091728 -0.00417,-0.00427 c -0.00921,0.0054 -0.018676,0.010367 -0.028373,0.014886 l 0,0.3866306 c 0.00507,0.00149 0.010141,0.00304 0.015162,0.00457 l 0.00713,0.0022 0.0067,0.00334 c 0.00118,5.929e-4 0.00237,0.00119 0.00356,0.0018 z m 1.4006964,0.3664782 0,-0.4491085 -0.02189,0.015061 0,0.4320514 c 0.00595,2.668e-4 0.01097,9.092e-4 0.015689,0.002 l 0.0062,0 z"
   class="fil4"
   inkscape:export-filename="/Users/jens/Documents/Rollenspiel/Wizardry/Logo/Logo rot-grau.png"
   inkscape:export-xdpi="400.92978"
   inkscape:export-ydpi="400.92978" /><path
   style="fill:url(#radialGradient2651)"
   id="path78"
   d="M 2.7791877,1.8314868 2.2358137,1.6956565 c 0,0 0.153254,-0.041796 0.1915707,-0.19506 0,0 0.5155126,0.2368534 0.8882087,0.1462881 0,0 -0.062706,0.1428088 -0.247301,0.1881015 L 2.930682,2.1995465 c 0.1486879,0.043109 0.266482,-0.025331 0.266482,-0.025331 0,0 -0.1551117,0.1034052 -0.2956387,0.1025944 l -0.00452,0.011949 c 0.1295447,0.022241 0.2270106,-0.034433 0.2270106,-0.034433 0,0 -0.1246144,0.083057 -0.2516387,0.099718 l -0.1419479,0.376095 c 0,0 0.091783,0.059368 0.3452114,0.100895 0.8117235,0.1329737 1.5358562,-0.2444042 2.324453,-0.1944851 0.3069823,0.01943 0.5324315,0.100034 0.684531,0.1792378 0.00467,-0.00266 0.00949,-0.0052 0.014509,-0.00766 -0.028464,-0.012827 -0.054069,-0.030588 -0.076839,-0.053358 -0.034155,-0.031298 -0.051232,-0.063319 -0.051232,-0.096053 l 0,-0.55708 c 0,-0.032721 -0.034145,-0.052635 -0.1024464,-0.059762 l 0,-0.014936 L 6.09699,1.8476421 c 0.00997,0.0057 0.020634,0.01353 0.032021,0.023471 0.011397,0.00997 0.022065,0.021337 0.032021,0.034155 0.024174,0.032721 0.036281,0.056915 0.036281,0.072569 l 0.00214,0.00427 0,0.012827 0.00212,0.00212 0,0.083235 0.3201664,-0.2155663 c 0.044108,0.059762 0.092483,0.089639 0.1451409,0.089639 l 0.00427,0 0.00214,-0.00212 c 0.024174,0 0.046241,-0.00783 0.066165,-0.023471 l 0,0.034155 -0.00214,0.00427 0,0.010694 -0.00213,0.00212 c 0,0.00997 -0.00321,0.020986 -0.00961,0.033088 -0.0064,0.012074 -0.013857,0.023822 -0.022417,0.035214 -0.00851,0.011397 -0.018476,0.021714 -0.029867,0.030944 -0.011372,0.00926 -0.022065,0.016015 -0.032021,0.020283 l 0,0.5698798 c 0,0.073993 -0.061896,0.1252169 -0.1856992,0.1536808 -0.01707,0.00284 -0.033078,0.00532 -0.048011,0.00746 -0.014961,0.00215 -0.028118,0.00321 -0.039502,0.00321 -0.0057,0 -0.00994,0 -0.012802,0 -0.00141,0 -0.00783,7.114e-4 -0.019203,0.00211 -0.070574,0.00535 -0.1246144,0.015639 -0.162168,0.030934 0.031971,0.020082 0.058853,0.039077 0.080891,0.055848 0.00813,-0.00442 0.016718,-0.00916 0.025765,-0.014208 0.071148,-0.039838 0.1351877,-0.059752 0.1921054,-0.059752 0.049801,0 0.092483,0.015639 0.1280736,0.046955 0.035568,0.031298 0.053348,0.070435 0.053348,0.1173798 0,0.1339226 -0.1682479,0.187725 -0.2347698,0.053368 0.086644,0.048712 0.1659936,-0.038415 0.098176,-0.038415 l -0.00427,-0.00213 -0.00214,0 c -0.032731,0 -0.076839,0.01707 -0.1323235,0.051222 -0.032731,0.021337 -0.060839,0.037704 -0.084312,0.049088 -0.023471,0.011397 -0.041628,0.018501 -0.054435,0.021337 -0.0071,0.00143 -0.015639,0.0025 -0.025617,0.00321 -0.00994,7.215e-4 -0.022768,0.00109 -0.038405,0.00109 -0.024199,0 -0.047665,-0.00464 -0.070435,-0.013882 -0.022768,-0.00926 -0.042695,-0.021689 -0.059752,-0.037358 -0.017095,-0.015664 -0.030964,-0.033791 -0.041638,-0.054435 -0.010669,-0.020609 -0.016015,-0.043021 -0.016015,-0.067232 l 0,-0.010669 0.00214,0 c 0.00177,-0.04534 0.016595,-0.083182 0.044494,-0.1135209 -0.1597883,-0.0557 -0.3778046,-0.1095805 -0.638159,-0.1185246 -0.633279,-0.021764 -1.1777173,0.2442159 -1.8028029,0.3159567 -0.086476,0.00992 -0.068874,0.018375 -0.073044,0.106646 -0.00208,0.043859 -0.00341,0.091379 -0.00319,0.1394778 -0.012451,-0.00673 -0.023772,-0.012777 -0.033176,-0.018124 -0.02204,-0.012451 -0.063439,-0.035302 -0.097506,-0.06172 -5.733e-4,-0.021287 -0.00138,-0.042092 -0.00234,-0.062114 -0.00507,-0.1057974 -0.00179,-0.087435 -0.103937,-0.091645 C 3.0940908,3.056931 2.9152497,3.0203967 2.727098,2.9531643 2.4788782,2.8644642 2.1266407,2.8142012 1.8770578,2.9078013 L 2.1997747,2.7486281 C 2.4344139,2.6317829 2.4557812,2.6057891 2.5659065,2.3675426 L 2.6165865,2.240202 C 2.5223333,2.1645878 2.4356389,2.1312817 2.308971,2.1215569 c 0,0 0.1600745,-0.056868 0.3391415,0.039373 l 0.00989,-0.024877 c -0.08263,-0.058803 -0.1635336,-0.085981 -0.2759005,-0.094609 0,0 0.1399923,-0.049751 0.3045928,0.022492 L 2.7791808,1.8315011 z M 3.4526886,0.3276812 3.5033076,0.48447472 3.6680662,0.48416847 3.534588,0.58075337 3.585802,0.73734858 3.4526878,0.64024908 3.3195837,0.73734858 3.3707977,0.58075337 3.2373195,0.48416847 3.4020781,0.48447472 3.4526871,0.3276812 z M 3.6054682,0.2787411 c 0.1122012,0.0561244 0.1892688,0.17211114 0.1892688,0.30607382 0,0.14768126 -0.09363,0.27352073 -0.2247664,0.32140148 -0.04043,0.0646343 -0.035056,0.1026748 -0.043159,0.1764591 l -0.015915,0.051975 c -0.00389,0.012652 -0.00776,0.025321 -0.011648,0.03797 -0.012677,0.00392 -0.025321,0.00781 -0.03799,0.011673 l -0.052053,0.01594 0.052023,0.01599 c 0.012677,0.00389 0.025349,0.00778 0.038021,0.011673 0.00389,0.012652 0.00776,0.025311 0.011648,0.03797 l 0.00733,0.023898 c 2.768e-4,0.032149 0.0011,0.063655 0.00219,0.093562 0.00422,0.1147115 0.028888,0.1292384 0.1922133,0.1111143 0.2544754,-0.028316 0.5167577,-0.066434 0.7780735,-0.098879 l 0.1070257,0.1199884 c -0.3919072,0.040847 -0.7861264,0.089549 -1.1783323,0.089549 l -0.00738,0 -0.044572,0 3.94e-5,-2.767e-4 c -0.300865,-0.00329 -0.5900799,-0.03801 -0.8564841,-0.1310583 0.2128201,0.054583 0.4511746,0.06836 0.7047613,0.059644 0.080843,-0.00274 0.1329937,0.00372 0.1624366,-0.075396 L 3.428434,1.4425992 3.383101,1.4286922 c 8.796e-4,-0.010066 0.00121,-0.020835 0.00129,-0.032297 l 1.976e-4,-0.024249 0.013731,-0.04463 c 0.00389,-0.012677 0.00778,-0.025341 0.011673,-0.03801 0.012677,-0.00387 0.025331,-0.00776 0.038,-0.011673 l 0.051995,-0.01599 -0.052005,-0.01594 c -0.012652,-0.00389 -0.025331,-0.00776 -0.03799,-0.011673 -0.00389,-0.012677 -0.00778,-0.025341 -0.011673,-0.03801 l -0.01599,-0.052033 -7.114e-4,0.00238 C 3.3763764,1.0509698 3.3635741,0.96218168 3.3338299,0.90557279 3.2035423,0.85725525 3.1106626,0.73185006 3.1106626,0.58477377 c 0,-0.13396268 0.077078,-0.24994936 0.1892688,-0.30607382 -0.083808,0.0514504 -0.1397238,0.14393595 -0.1397238,0.24946489 0,0.17538201 0.1442523,0.28798737 0.3006693,0.29238535 0.1577499,-0.004318 0.2843525,-0.13359869 0.2843525,-0.29238535 0,-0.10552894 -0.055919,-0.19801454 -0.1397338,-0.24946489 z m 0.640117,2.6882655 c 0.6450095,0.1542531 1.2685236,0.2268524 1.7276331,-0.083599 0,0 -0.062706,0.083599 0,0.2089945 0,0 -0.8289892,0.2229188 -1.7276331,-0.1253952 z M 3.3190021,3.3641026 C 3.0316849,3.5590822 3.8374115,3.6835987 3.5534656,3.8222456 3.9096769,3.6612725 3.1699201,3.5703206 3.3190021,3.3641026 z m 0,-0.2751499 C 3.0316849,3.2839323 3.8374115,3.4084388 3.5534656,3.5470856 3.9096769,3.3861326 3.1699201,3.2951707 3.3190021,3.0889527 z M 6.641887,1.7290229 C 6.179595,1.4447906 5.6009493,1.4309641 4.9920123,1.4786091 L 4.8878866,1.3525538 c 0.6734809,-0.059031 1.310081,-0.025537 1.7540009,0.3764691 z M 3.6625315,1.0614713 c 0.00477,0.015488 0.00954,0.030982 0.014258,0.04647 0.015488,0.00477 0.030974,0.00951 0.04647,0.014258 -0.015488,0.00474 -0.030974,0.00951 -0.04647,0.014258 -0.00474,0.015513 -0.00949,0.030982 -0.014258,0.04646 -0.00474,-0.015488 -0.00951,-0.030954 -0.014258,-0.04646 -0.015488,-0.00474 -0.030974,-0.00949 -0.04646,-0.014258 0.015488,-0.00474 0.030974,-0.00949 0.04646,-0.014258 0.00474,-0.015488 0.00951,-0.030974 0.014258,-0.04647 z m -0.1356721,0.078074 c 0.00474,0.015488 0.00951,0.030994 0.014258,0.04647 0.015488,0.00474 0.030984,0.00951 0.04647,0.014258 -0.015488,0.00474 -0.030974,0.00951 -0.04647,0.014258 -0.00474,0.015513 -0.00951,0.030982 -0.014258,0.04647 -0.00474,-0.015488 -0.00951,-0.030964 -0.014258,-0.04647 -0.015488,-0.00474 -0.030964,-0.00949 -0.04647,-0.014258 0.015513,-0.00474 0.030992,-0.00951 0.04647,-0.014258 0.00474,-0.015488 0.00951,-0.030974 0.014258,-0.04647 z m -0.1445083,0.061629 c 0.00474,0.015513 0.00951,0.030984 0.014258,0.04647 0.015488,0.00474 0.030964,0.00951 0.04646,0.014258 -0.015488,0.00474 -0.030974,0.00951 -0.04646,0.014258 -0.00474,0.015513 -0.00951,0.030994 -0.014258,0.04647 -0.00474,-0.015488 -0.00951,-0.030964 -0.014258,-0.04647 -0.015488,-0.00474 -0.030964,-0.00951 -0.04647,-0.014258 0.015513,-0.00474 0.030992,-0.00951 0.04647,-0.014258 0.00477,-0.015488 0.00951,-0.030964 0.014258,-0.04647 z m -0.1369775,0.075664 c 0.00477,0.015488 0.00951,0.030964 0.014258,0.04646 0.015488,0.00477 0.030974,0.00951 0.04646,0.014258 -0.015488,0.00477 -0.030964,0.00951 -0.04646,0.014258 -0.00474,0.015488 -0.00949,0.030974 -0.014258,0.04646 -0.00474,-0.015488 -0.00949,-0.030964 -0.014258,-0.04646 -0.015488,-0.00474 -0.030974,-0.00949 -0.04646,-0.014258 0.015488,-0.00474 0.030974,-0.00949 0.04646,-0.014258 0.00477,-0.015488 0.00954,-0.030974 0.014258,-0.04646 z m 0.3988958,-0.34199822 0.014258,0.04646 0.04645,0.014283 -0.04645,0.014258 -0.014258,0.04647 -0.014258,-0.04647 -0.04645,-0.014258 0.04645,-0.014283 0.014258,-0.04646 z m -0.3334709,0.44705532 0.014258,0.04647 0.04646,0.014258 -0.04646,0.014258 -0.014258,0.04647 -0.014258,-0.04647 -0.04646,-0.014258 0.04646,-0.014258 0.014258,-0.04647 z M 3.2748039,1.090033 c 0.00741,0.024023 0.014785,0.048041 0.02214,0.072037 0.024023,0.00738 0.048021,0.01476 0.072027,0.022115 -0.023998,0.00738 -0.048001,0.014785 -0.072027,0.022141 -0.00736,0.024023 -0.014735,0.048021 -0.02214,0.072027 -0.00736,-0.023998 -0.014735,-0.048011 -0.02209,-0.072027 -0.023998,-0.00736 -0.048021,-0.014735 -0.072047,-0.022141 0.024023,-0.00736 0.048041,-0.014735 0.072047,-0.022115 0.00738,-0.023998 0.01476,-0.048011 0.02209,-0.072037 z M 3.5888628,1.037277 c 0.00349,0.011346 0.00698,0.022718 0.010468,0.034097 0.011372,0.00349 0.022743,0.00698 0.034107,0.010468 -0.011372,0.00349 -0.022743,0.00698 -0.034107,0.010443 -0.00349,0.011372 -0.00698,0.022743 -0.010468,0.034107 -0.00349,-0.011346 -0.00698,-0.022743 -0.010468,-0.034107 -0.011372,-0.00349 -0.022743,-0.00698 -0.034087,-0.010443 0.011346,-0.00349 0.022718,-0.00698 0.034087,-0.010468 0.00349,-0.011372 0.00698,-0.022743 0.010468,-0.034097 z M 0.1659441,2.8219661 C 0.8941964,3.5008541 2.0601456,2.6374317 2.8905078,3.0772122 2.113928,2.77522 0.82146907,3.7220434 0.1659441,2.8219661 z m 0,-1.1766102 C 0.65080133,1.1933805 1.3296391,1.4249573 1.9743122,1.5005212 L 2.0825798,1.408136 C 1.3951243,1.2899654 0.6246218,1.015566 0.1659441,1.6453559 z m 1.8300894,-0.00432 c -0.00976,0.00392 -0.016618,0.00781 -0.020509,0.011723 -0.00781,0.00195 -0.013656,0.00294 -0.017572,0.00294 -0.00392,0 -0.00781,9.883e-4 -0.011698,0.00294 l 0,0.00294 -0.00294,0 c -0.00389,0.00196 -0.00781,0.00294 -0.011698,0.00294 -0.017572,0 -0.027337,-9.688e-4 -0.029282,-0.00294 -0.06247,-0.00585 -0.1181003,-0.059526 -0.1668822,-0.1610233 l -0.3220743,0.2371496 0.04392,0.070267 0.035134,-0.014635 c 0.03123,0.037082 0.060502,0.059536 0.087839,0.067343 l 0,0.8687693 c 0,0.037062 -0.017597,0.055622 -0.052715,0.055622 l -0.032189,0 c -0.00195,0 -0.00341,-5.041e-4 -0.00439,-0.00145 -9.685e-4,-9.782e-4 -0.00146,-0.00147 -0.00146,-0.00147 -0.00781,-0.00392 -0.016593,-0.0073 -0.026358,-0.010242 -0.00976,-0.00291 -0.017145,-0.0071 -0.023421,-0.010242 C 1.375736,2.7296765 1.343123,2.6806665 1.343123,2.612337 l 0,-0.9243992 c 0,-0.016091 -0.00683,-0.026348 -0.00879,-0.032209 -0.00392,-0.00585 -0.00635,-0.011723 -0.00733,-0.017572 -9.486e-4,-0.00585 -0.00276,-0.010593 -0.00439,-0.014635 C 1.3007972,1.5690052 1.2503861,1.5210441 1.1703639,1.480039 l -0.29864339,0.2576584 0,0.023421 c 0.0351336,0 0.0692882,0.011246 0.10246643,0.03368 0.033176,0.022442 0.049781,0.047359 0.049781,0.074655 l 0,0.8131268 c -0.011723,0.00781 -0.0244,0.013681 -0.038058,0.017572 -0.00195,0.00195 -0.00439,0.00392 -0.00733,0.00585 -0.00291,0.00194 -0.00537,0.00394 -0.0073,0.00587 l -0.011723,0.011698 c -0.011723,-0.00976 -0.026338,-0.01953 -0.04392,-0.029272 -0.0175467,-0.00976 -0.0369435,-0.019831 -0.0585569,-0.029282 -0.009614,-0.00419 -0.0156138,-0.00635 -0.0175467,-0.0073 -0.001947,-9.687e-4 -0.007807,-0.00341 -0.0175718,-0.00733 -0.0214878,0 -0.0370916,-0.00392 -0.0468365,-0.011723 l 0,-0.886331 c 0,-0.060512 -0.0195298,-0.1151859 -0.0585569,-0.1639679 -0.0390271,-0.048782 -0.0878492,-0.083926 -0.14639601,-0.1054009 l -0.29571647,0.2957065 0.0234207,0.014635 0.008761,0 0.005849,0.00294 0.0234208,0 0.008786,0.00294 0.005849,0 c 0.0410051,0 0.0761287,0.029282 0.10541095,0.087839 l 0,0.7926405 -0.002937,0 -0.002937,0.00585 c -0.0605024,0.044899 -0.10051845,0.1014975 -0.12004829,0.1698193 0.009765,-0.00392 0.0200068,-0.00685 0.0307457,-0.00879 0.0107439,-0.00195 0.0200068,-0.00291 0.0278112,-0.00291 l 0.005874,-0.00294 0.005849,0 c 0.0605224,0 0.11810033,0.013656 0.17275377,0.040985 0.0546434,0.027337 0.11028337,0.066374 0.16688226,0.1171138 0.0292722,-0.021488 0.0546635,-0.040026 0.0761287,-0.05563 0.0214627,-0.015614 0.0361126,-0.026338 0.0439196,-0.032209 l 0,0.00294 c 0.0117229,-0.00781 0.0195298,-0.012677 0.0234208,-0.014635 l 0.005849,-0.00294 0.005849,-0.00585 c 0.001957,-0.00195 0.0114468,-0.00427 0.0263577,-0.011723 0.035955,-0.017948 0.077108,-0.044899 0.12588965,-0.076129 0.033196,0.052716 0.077582,0.098099 0.1332121,0.1361466 0.05563,0.038068 0.1127435,0.059041 0.1712903,0.062955 0.025369,-0.011723 0.04637,-0.02194 0.062945,-0.030736 0.016593,-0.00879 0.0312,-0.013982 0.042456,-0.019028 0.1410391,-0.063291 0.2810616,-0.096625 0.4216062,-0.096625 l 0.00585,0 c 0.00585,0.00195 0.026348,0.00294 0.061491,0.00294 -0.021488,-0.03124 -0.032209,-0.047823 -0.032209,-0.049771 -0.01953,-0.027327 -0.029282,-0.05564 -0.029282,-0.084915 l 0,-0.8717037 C 1.9608431,1.8069957 2.0028047,1.7406319 2.0106241,1.6527827 l -0.014635,-0.011723 z m 0.4367756,0.8309572 -0.00856,-0.014961 c -0.021337,0.00856 -0.039838,0.012802 -0.055492,0.012802 -0.045521,0 -0.074705,-0.01353 -0.087493,-0.040548 -0.00713,-0.014231 -0.010668,-0.025615 -0.010668,-0.034142 l 0,-0.4546337 c 0.019906,-0.00853 0.039117,-0.023119 0.057618,-0.043751 0.018501,-0.020634 0.033444,-0.047318 0.044808,-0.080042 0,-0.011397 0.00142,-0.021337 0.00429,-0.029877 l 0,-0.025617 c -0.035578,0.019906 -0.058359,0.029877 -0.068302,0.029877 -0.044118,0 -0.09535,-0.041271 -0.1536884,-0.1237936 l 0,0.025607 c -0.00427,0.00427 -0.00889,0.00853 -0.013857,0.012827 -0.005,0.00427 -0.00748,0.0064 -0.00748,0.0064 -0.022768,0.021337 -0.041972,0.036991 -0.057638,0.046944 -0.028454,0.024199 -0.051214,0.044484 -0.068292,0.060839 -0.01707,0.016367 -0.032731,0.030934 -0.046955,0.043751 l -0.00427,0.00214 -0.00427,0.00427 -0.00212,-0.00213 -0.00643,0.010669 0.029887,0.042695 0.029887,-0.01707 c 0.011397,0.024174 0.027741,0.036991 0.049078,0.038415 l 0,0.5378689 c 0,0.044108 0.021362,0.083235 0.064042,0.1173899 0.019932,0.017095 0.041271,0.029531 0.064032,0.037348 0.022768,0.00783 0.045551,0.012451 0.068312,0.013882 L 2.4328103,2.4719976 z M 2.3516914,1.4795028 C 2.3133844,1.5101208 2.2592464,1.5413608 2.1745397,1.4176178 2.1134627,1.4620218 2.031515,1.5029968 1.9867143,1.547805 l 0.027741,0.046955 0.034155,-0.01707 c 0.046658,0.1607171 0.303079,0.044118 0.303079,-0.098176 z m 1.4910082,1.0890097 -0.023496,0 -0.00213,0.00213 c -0.029872,-0.00142 -0.054786,-0.010313 -0.0747,-0.026669 -0.019931,-0.016367 -0.029887,-0.038058 -0.029887,-0.065109 l 0,-0.4418062 c 0.061185,-0.035578 0.091783,-0.083976 0.091783,-0.1451509 l 0,-0.01707 c -0.038415,0.012827 -0.065455,0.019229 -0.081099,0.019229 -0.034155,0 -0.069743,-0.022768 -0.1067163,-0.068312 l 0,0.00214 c -0.0057,-0.0057 -0.010317,-0.01102 -0.013882,-0.016015 -0.00354,-0.00497 -0.00464,-0.00748 -0.00321,-0.00748 -0.00143,-0.00141 -0.00214,-0.00853 -0.00214,-0.021337 -0.011397,0.011397 -0.018124,0.018501 -0.020258,0.021337 -0.00214,0.00286 -0.00462,0.00643 -0.00748,0.010694 l -0.00212,0.00427 c -0.058349,0.076839 -0.101746,0.1152637 -0.1301973,0.1152637 -0.00286,0 -0.0057,-0.00142 -0.00853,-0.00427 l -0.010694,0.00427 0.00427,0 c -0.025597,0 -0.050511,-0.015664 -0.074695,-0.046954 l 0,0.00213 C 3.340418,1.8784061 3.330448,1.8638221 3.317641,1.8460521 3.304839,1.8282541 3.294873,1.8158111 3.287746,1.8086841 l -0.00211,-0.00427 -0.010694,-0.012802 c -0.061185,0.073993 -0.1430046,0.1294868 -0.2454635,0.1664881 0.029887,0.032721 0.051945,0.053358 0.066176,0.061896 l -0.00214,0 c 0.017095,0.019906 0.032388,0.038058 0.045895,0.054415 0.01353,0.016367 0.025971,0.030954 0.037348,0.043751 0.018501,0.019931 0.032377,0.035232 0.041638,0.045898 0.00924,0.010669 0.015287,0.018149 0.018124,0.022417 -0.1294768,0.088226 -0.194209,0.1885458 -0.194209,0.3009453 0,0.034165 0.00284,0.060475 0.00853,0.078985 0.0071,0.028464 0.019555,0.054051 0.037348,0.076839 0.017798,0.022768 0.040905,0.044108 0.069359,0.064032 0.058349,0.035568 0.1181205,0.053358 0.1792956,0.053358 l 0.012802,0 0.1451509,-0.1238037 c 0.0071,0.014233 0.016367,0.027394 0.027741,0.039492 0.011397,0.0121 0.024199,0.025251 0.038425,0.039491 0.036981,0.03129 0.072569,0.046944 0.1067163,0.046944 l 0.01707,0 0.00212,-0.00212 0.00643,0 0.00213,-0.00214 0.00853,0 0.00212,-0.00213 0.00212,0 0.1344873,-0.1878254 z m -0.4076717,0.00856 c -0.049801,0 -0.093916,-0.021362 -0.132341,-0.064042 -0.035578,-0.039838 -0.053358,-0.087513 -0.053358,-0.1430046 0,-0.015664 0.00286,-0.033791 0.00856,-0.054425 0.0057,-0.020634 0.015664,-0.044474 0.029867,-0.071502 l 0.132331,0.1430046 0.053378,-0.046955 -0.2390674,-0.2710681 c 0.00427,0.00143 0.00853,0.00213 0.012802,0.00213 0.0057,0 0.00997,0 0.012828,0 l 0.044818,0 0.00427,-0.00213 c 0.046944,0 0.086099,-0.019932 0.1173899,-0.059772 0.022768,0.029885 0.044118,0.044828 0.064042,0.044828 l 0,0.5079918 -0.00214,0.00211 -0.00213,0 c -0.011397,0.00856 -0.028444,0.012827 -0.051214,0.012827 z m 1.1070761,-0.7036843 0,-0.049098 c -0.028484,0.025607 -0.051242,0.038425 -0.068312,0.038425 -0.049811,0 -0.087523,-0.040568 -0.11312,-0.1216674 l -0.01707,0.00213 0,0.0064 c -0.032721,0.051242 -0.062619,0.090369 -0.089649,0.11741 -0.00853,0.00994 -0.016367,0.018852 -0.023471,0.026664 -0.0071,0.00783 -0.014233,0.015288 -0.021337,0.022417 L 4.189942,1.9416958 C 4.1657428,1.8435145 4.1159291,1.7752127 4.0405309,1.7367882 3.9907298,1.8335412 3.9217076,1.9075563 3.8334844,1.9587581 c 0.00427,0.00142 0.01102,0.00321 0.020283,0.00535 0.00924,0.00213 0.015287,0.00392 0.018124,0.00532 0.00853,0.00286 0.014936,0.005 0.019229,0.0064 0.015614,0.00713 0.029511,0.015313 0.041608,0.02455 0.012099,0.00926 0.023119,0.020986 0.033078,0.035214 l 0,0.4418263 -0.00212,0.00214 -0.0064,0 -0.00643,0.0064 0.00427,-0.00213 c -0.00427,0.00284 -0.00961,0.00643 -0.01599,0.010669 -0.0064,0.00427 -0.013857,0.010669 -0.022417,0.019229 -0.044118,0.044108 -0.066175,0.088206 -0.066175,0.1323235 l 0.027751,-0.010669 c 0.011397,-0.00286 0.022417,-0.00605 0.033088,-0.00961 0.010669,-0.00356 0.02312,-0.00535 0.037348,-0.00535 0.069735,0 0.144428,0.037704 0.2241263,0.11313 l 0.2198091,-0.2134431 -0.046944,-0.051222 -0.038415,0.038415 c -0.029878,-0.029899 -0.059052,-0.046265 -0.087506,-0.049101 l 0.00213,0 c -0.00713,-0.00143 -0.01353,-0.00286 -0.019229,-0.00427 -0.0057,-0.00142 -0.00997,-0.00286 -0.012777,-0.00427 l 0,-0.3841882 0.057608,-0.059762 c 0.038435,0.036991 0.078263,0.055492 0.1195437,0.055492 0.051214,0 0.093196,-0.017798 0.1259173,-0.053368 0.032731,-0.035568 0.049108,-0.080399 0.049108,-0.1344572 z m 0.7347664,-0.1239417 -0.017095,0.021362 c -0.022768,0 -0.045531,-0.010669 -0.068302,-0.032021 l 0.00214,0 c -0.00286,-0.00284 -0.00605,-0.0057 -0.00961,-0.00853 -0.00356,-0.00286 -0.00675,-0.0057 -0.00961,-0.00856 -0.00997,-0.00853 -0.018476,-0.016367 -0.025617,-0.023471 -0.0071,-0.0071 -0.013505,-0.01353 -0.019204,-0.019229 l -0.049092,-0.051218 c 0,0.00142 -0.00141,-7.114e-4 -0.00427,-0.0064 l -0.22197,-0.2198463 -0.053368,-0.053358 0,0.00213 c -0.02703,-0.037001 -0.045521,-0.070445 -0.055492,-0.1003126 -0.035568,0.018501 -0.071849,0.032721 -0.10884,0.042674 -0.036991,0.00997 -0.073993,0.014961 -0.1109963,0.014961 -0.014233,0 -0.022065,-7.114e-4 -0.023471,-0.00214 -0.012802,0 -0.025597,-0.0064 -0.038415,-0.019204 l 0,0.029887 c 0.045541,0.052645 0.077562,0.086792 0.096053,0.1024564 0.012802,0.011397 0.02455,0.020986 0.035221,0.028818 0.010669,0.00781 0.018852,0.013857 0.024525,0.018149 0.025617,0.019906 0.051232,0.041964 0.076849,0.066155 0.025607,0.024174 0.050511,0.049098 0.074705,0.074695 L 4.8606501,1.70463 C 4.7895041,1.754431 4.7012786,1.779336 4.5959957,1.779336 l -0.0064,0 -0.00427,-0.00213 -0.025607,0 -0.00427,-0.00213 -0.025617,0 c 0.028454,0.039848 0.042695,0.071158 0.042695,0.093927 l 0,0.5101079 c -0.064042,0.032721 -0.1024664,0.087503 -0.1152637,0.1643444 0.036991,-0.02703 0.078965,-0.040551 0.1259374,-0.040551 0.079676,0 0.1486878,0.034145 0.2070188,0.1024564 0.00286,0.00284 0.00535,0.00567 0.00748,0.00853 0.00211,0.00286 0.00462,0.00567 0.00748,0.00853 l 0.019204,0.01707 c 0.075416,-0.092503 0.1735851,-0.1387578 0.2945421,-0.1387578 0.058349,0 0.1102733,0.01353 0.1558145,0.040578 l -0.014936,-0.029895 c -0.00142,-0.00284 -0.00213,-0.00567 -0.00213,-0.00853 l -0.00212,-0.00214 0,-0.00212 -0.00214,-0.00427 c -0.00146,-0.00143 -0.00216,-0.00497 -0.00216,-0.010669 l -0.00212,-0.00213 c -0.00143,-0.0071 -0.00214,-0.010669 -0.00214,-0.010669 0,-0.00142 -7.018e-4,-0.00284 -0.00212,-0.00427 l 0,0.00215 -0.00214,-0.0064 0,-0.00427 c -0.00142,-0.00143 -0.00213,-0.00356 -0.00213,-0.0064 l 0,-0.6104482 c 0.00142,-0.00853 0.0064,-0.018501 0.014961,-0.029885 l 0,-0.00427 c 0.00284,-0.00284 0.00532,-0.0057 0.00746,-0.00853 0.00215,-0.00284 0.00464,-0.0057 0.00748,-0.00853 l 0.00214,-0.00427 0.00427,-0.00427 0,-0.032021 z m -0.2732145,0.6851334 -0.010669,0 -0.00212,0.00215 -0.0064,0 -0.00427,0.00427 -0.00215,0 -0.00427,0.00424 c -0.028461,-0.02845 -0.062626,-0.052634 -0.1024535,-0.072558 -0.018501,-0.0057 -0.032731,-0.00959 -0.042695,-0.011748 -0.00994,-0.00213 -0.01707,-0.00392 -0.021337,-0.00535 -0.00994,-0.00284 -0.014936,-0.00427 -0.014936,-0.00427 l 0,-0.5207916 c 0.046954,-0.00997 0.089639,-0.033444 0.1280535,-0.070435 l 0.085369,0.087503 0,0.5848209 -0.00212,0.00212 z m 0.2518672,-0.6210917 0.00427,-0.00853 c -0.00284,0.00284 -0.00427,0.00497 -0.00427,0.0064 l 0,0.00214 z m -0.00214,-0.00427 0,-0.00213 0,0.00427 c -0.00143,0 -0.00143,-7.114e-4 0,-0.00212 z m 0.7550167,-0.040322 0,-0.049098 c -0.028464,0.025607 -0.051222,0.038425 -0.068312,0.038425 -0.049801,0 -0.087503,-0.040568 -0.11311,-0.1216699 l -0.01707,0.00213 0,0.0064 c -0.032741,0.051232 -0.062619,0.090359 -0.089656,0.1173999 -0.00853,0.00994 -0.016367,0.018827 -0.023471,0.026664 -0.0071,0.00783 -0.014233,0.015287 -0.021337,0.022417 l -0.019203,0.025617 C 5.6320368,1.7390022 5.5822428,1.6707105 5.5068348,1.632296 5.4570258,1.729039 5.3880115,1.803044 5.2997883,1.8542659 c 0.00427,0.00142 0.01102,0.00321 0.020283,0.00532 0.00924,0.00213 0.015287,0.00394 0.018124,0.00535 0.00856,0.00286 0.014961,0.00497 0.019203,0.0064 0.015664,0.00713 0.029531,0.015313 0.041618,0.02455 0.012099,0.00924 0.023119,0.020986 0.033088,0.035204 l 0,0.4418263 -0.00213,0.00214 -0.0064,0 -0.00643,0.0064 0.00427,-0.00214 c -0.00427,0.00284 -0.00961,0.0064 -0.016016,0.010669 -0.0064,0.00427 -0.013882,0.010669 -0.022417,0.019204 -0.044108,0.044108 -0.066165,0.088216 -0.066165,0.1323235 l 0.027741,-0.010669 c 0.011371,-0.00284 0.022417,-0.00602 0.033078,-0.00959 0.010669,-0.00356 0.023119,-0.00535 0.037358,-0.00535 0.069725,0 0.144428,0.037704 0.2241138,0.11313 l 0.2198312,-0.2134382 -0.046944,-0.051232 -0.038425,0.038435 c -0.029877,-0.029895 -0.059062,-0.046262 -0.087513,-0.049108 l 0.00213,0 c -0.0071,-0.00143 -0.01353,-0.00284 -0.019204,-0.00427 -0.0057,-0.00142 -0.00997,-0.00286 -0.012827,-0.00427 l 0,-0.3841882 0.057638,-0.059752 c 0.038415,0.036981 0.078253,0.055482 0.1195237,0.055482 0.051222,0 0.093206,-0.017798 0.1259374,-0.053368 0.032721,-0.035558 0.049078,-0.080399 0.049078,-0.1344472 z m 0.2227161,1.1664836 c -0.027673,-0.013329 -0.060791,-0.028306 -0.098997,-0.043909 -0.014886,0.01338 -0.022316,0.029016 -0.022316,0.046874 0,0.021362 0.01353,0.032021 0.040568,0.032021 0.00961,0 0.036537,-0.011673 0.080753,-0.034985 z m 0.089993,-0.1848507 -0.00427,0.00213 -0.012802,0 c -0.00143,0 -0.00249,-3.559e-4 -0.00321,-0.00108 -7.114e-4,-7.016e-4 -0.00178,-0.00106 -0.00321,-0.00106 -0.00286,0 -0.00497,-3.56e-4 -0.00643,-0.00107 -0.00141,-7.214e-4 -0.00284,-0.00108 -0.00427,-0.00108 l -0.00853,0 c -0.049779,-0.00997 -0.074663,-0.029177 -0.074663,-0.057631 l 0,-0.5122617 0.1301973,-0.089639 0.036281,0.01707 c 0.0071,0.00284 0.013505,0.00567 0.019203,0.00853 0.0057,0.00286 0.011397,0.00497 0.01707,0.00643 l 0,0.5826772 c 0,0.015664 -0.00924,0.027394 -0.027741,0.035222 -0.018501,0.00783 -0.037714,0.011748 -0.057628,0.011748 z M 3.522668,3.4288824 c 0.00482,0.060158 0.01348,0.1165891 0.027721,0.1626725 C 3.525286,3.5772469 3.501577,3.5650389 3.484382,3.5553039 3.460133,3.5415729 3.412405,3.5152979 3.3768273,3.4854709 c 0.0056,-0.042644 0.00871,-0.088559 0.010116,-0.1349918 0.00949,0.0054 0.018425,0.010367 0.026486,0.014886 0.013907,0.00781 0.066502,0.035618 0.1092366,0.063507 z M 3.5558562,3.7275836 3.4526894,3.9631918 3.3216035,3.6638179 c 0.011522,-0.016141 0.021161,-0.036281 0.029224,-0.059496 0.022718,0.014058 0.044771,0.02618 0.062609,0.036201 0.017923,0.010066 0.099866,0.0532 0.1424223,0.087058 z"
   class="fil5"
   inkscape:export-filename="/Users/jens/Documents/Rollenspiel/Wizardry/Logo/Logo rot-grau.png"
   inkscape:export-xdpi="400.92978"
   inkscape:export-ydpi="400.92978" />
</svg>