<?xml version="1.0" encoding="UTF-8" standalone="no"?>
<!-- Created with Inkscape (http://www.inkscape.org/) -->

<svg
   xmlns:dc="http://purl.org/dc/elements/1.1/"
   xmlns:cc="http://creativecommons.org/ns#"
   xmlns:rdf="http://www.w3.org/1999/02/22-rdf-syntax-ns#"
   xmlns:svg="http://www.w3.org/2000/svg"
   xmlns="http://www.w3.org/2000/svg"
   xmlns:sodipodi="http://sodipodi.sourceforge.net/DTD/sodipodi-0.dtd"
   xmlns:inkscape="http://www.inkscape.org/namespaces/inkscape"
   width="243.95752"
   height="105.067"
   id="svg3464"
   version="1.1"
   inkscape:version="0.47 r22583"
   sodipodi:docname="Neues Dokument 2">
  <defs
     id="defs3">
    <inkscape:perspective
       sodipodi:type="inkscape:persp3d"
       inkscape:vp_x="0 : 526.18109 : 1"
       inkscape:vp_y="0 : 1000 : 0"
       inkscape:vp_z="744.09448 : 526.18109 : 1"
       inkscape:persp3d-origin="372.04724 : 350.78739 : 1"
       id="perspective3470" />
    <inkscape:perspective
       id="perspective3422"
       inkscape:persp3d-origin="0.5 : 0.33333333 : 1"
       inkscape:vp_z="1 : 0.5 : 1"
       inkscape:vp_y="0 : 1000 : 0"
       inkscape:vp_x="0 : 0.5 : 1"
       sodipodi:type="inkscape:persp3d" />
    <radialGradient
       id="SVGID_30_"
       cx="154.0811"
       cy="266.27881"
       r="82.515701"
       gradientUnits="userSpaceOnUse">
      <stop
         offset="0"
         style="stop-color:#C20E1A"
         id="stop315" />
      <stop
         offset="0.0949"
         style="stop-color:#BC121A"
         id="stop317" />
      <stop
         offset="0.2458"
         style="stop-color:#AA171B"
         id="stop319" />
      <stop
         offset="0.4338"
         style="stop-color:#8E1B1A"
         id="stop321" />
      <stop
         offset="0.6516"
         style="stop-color:#6B1A16"
         id="stop323" />
      <stop
         offset="0.8916"
         style="stop-color:#421407"
         id="stop325" />
      <stop
         offset="1"
         style="stop-color:#2E0B00"
         id="stop327" />
    </radialGradient>
  </defs>
  <sodipodi:namedview
     inkscape:document-units="mm"
     id="base"
     pagecolor="#ffffff"
     bordercolor="#666666"
     borderopacity="1.0"
     inkscape:pageopacity="0.0"
     inkscape:pageshadow="2"
     inkscape:zoom="0.69042969"
     inkscape:cx="323.87699"
     inkscape:cy="0.90598738"
     inkscape:current-layer="layer1"
     showgrid="false"
     inkscape:window-width="1217"
     inkscape:window-height="733"
     inkscape:window-x="20"
     inkscape:window-y="20"
     inkscape:window-maximized="0" />
  <metadata
     id="metadata4">
    <rdf:RDF>
      <cc:Work
         rdf:about="">
        <dc:format>image/svg+xml</dc:format>
        <dc:type
           rdf:resource="http://purl.org/dc/dcmitype/StillImage" />
        <dc:title></dc:title>
      </cc:Work>
    </rdf:RDF>
  </metadata>
  <g
     inkscape:label="Layer 1"
     inkscape:groupmode="layer"
     id="layer1"
     transform="translate(-26.12301,-428.20117)">
    <g
       transform="translate(1e-5,210.47217)"
       id="g312">
      <radialGradient
         id="radialGradient3435"
         cx="154.0811"
         cy="266.27881"
         r="82.515701"
         gradientUnits="userSpaceOnUse">
        <stop
           offset="0"
           style="stop-color:#C20E1A"
           id="stop3437" />
        <stop
           offset="0.0949"
           style="stop-color:#BC121A"
           id="stop3439" />
        <stop
           offset="0.2458"
           style="stop-color:#AA171B"
           id="stop3441" />
        <stop
           offset="0.4338"
           style="stop-color:#8E1B1A"
           id="stop3443" />
        <stop
           offset="0.6516"
           style="stop-color:#6B1A16"
           id="stop3445" />
        <stop
           offset="0.8916"
           style="stop-color:#421407"
           id="stop3447" />
        <stop
           offset="1"
           style="stop-color:#2E0B00"
           id="stop3449" />
      </radialGradient>
      <path
         style="fill:url(#SVGID_30_)"
         d="m 67.686,254.319 c 24.664,-0.832 44.919,11.867 74.357,5.203 -28.732,2.717 -50.264,-13.632 -73.763,-10.352 0,-0.084 0,-0.16 0,-0.205 0,0.056 -0.034,0.129 -0.106,0.219 -7.144,1.017 -14.456,3.849 -22.21,9.589 5.603,-2.171 10.881,-3.432 15.946,-4.045 -1.479,1.415 -3.07,3.034 -4.768,4.905 -1.956,2.141 -3.737,4.519 -5.368,7.191 -1.653,2.642 -3.026,5.553 -4.152,8.688 -1.109,3.154 -1.659,6.477 -1.659,10.007 0,1.499 0.174,2.813 0.51,3.922 0.342,1.106 0.723,2.045 1.148,2.835 0.454,0.771 0.84,1.351 1.21,1.723 0.353,0.397 0.571,0.583 0.605,0.583 0.095,0 0.174,0.106 0.224,0.328 0.039,0.232 0.106,0.443 0.185,0.689 0.073,0.241 0.129,0.479 0.174,0.684 0.062,0.229 0.101,0.331 0.157,0.331 0.095,0 0.202,-0.037 0.353,-0.126 0.151,-0.12 0.488,-0.417 1.014,-0.966 l 6.164,-6.152 -0.292,-1.09 c -0.241,0.188 -0.549,0.439 -0.908,0.762 -0.353,0.314 -0.7,0.605 -1.042,0.905 -0.336,0.286 -0.639,0.538 -0.874,0.762 -0.247,0.23 -0.381,0.331 -0.437,0.331 -0.146,0 -0.426,-0.218 -0.835,-0.611 -0.409,-0.409 -0.824,-1.073 -1.222,-1.972 -0.415,-0.879 -0.779,-2.051 -1.092,-3.519 -0.314,-1.443 -0.477,-3.194 -0.477,-5.222 0,-0.273 0.031,-0.534 0.04,-0.803 0.499,-0.427 1.765,-0.886 2.051,-0.875 1.076,0.044 3.375,1.454 3.874,1.678 0.488,0.238 0.911,0.354 1.25,0.354 0.896,0 3.572,-3.063 5.343,-3.512 v 10.593 c 0,0 -0.084,0.199 -0.174,0.344 -0.095,0.121 -0.196,0.258 -0.331,0.364 -0.106,0.112 -0.196,0.224 -0.28,0.28 -0.078,0.104 -0.089,0.131 -0.062,0.131 0.118,0 0.392,0.177 0.79,0.541 0.398,0.378 0.857,0.782 1.328,1.205 0.487,0.426 0.93,0.804 1.339,1.182 0.409,0.359 0.656,0.541 0.734,0.541 0.034,0 0.179,-0.163 0.432,-0.496 0.252,-0.311 0.555,-0.689 0.874,-1.095 0.336,-0.393 0.645,-0.771 0.964,-1.104 0.319,-0.328 0.521,-0.496 0.644,-0.496 0.034,0 -0.034,-0.092 -0.168,-0.277 -0.157,-0.188 -0.37,-0.426 -0.6,-0.692 -0.224,-0.286 -0.448,-0.552 -0.633,-0.818 -0.185,-0.263 -0.28,-0.49 -0.28,-0.645 l 0.022,-0.131 v -31.666 z m -9.587,18.799 c -0.846,0 -3.998,1.903 -7.485,4.957 0.078,-1.04 0.196,-2.058 0.42,-3.019 0.336,-1.485 0.79,-2.897 1.345,-4.205 0.561,-1.336 1.205,-2.65 1.95,-3.928 0.757,-1.275 1.552,-2.521 2.354,-3.72 l 2.689,-3.494 c 0.919,-1.168 1.815,-2.185 2.656,-3.07 0.37,-0.396 0.723,-0.762 1.059,-1.103 v 19.918 c -0.598,-0.451 -3.654,-1.698 -4.988,-2.336 z m 204.1,-1.802 c 0,2.835 -0.459,5.516 -1.333,8.038 -0.902,2.521 -2.006,5.287 -3.334,7.41 -1.322,2.148 -2.751,4.051 -4.297,5.771 -1.535,1.698 -2.992,3.154 -4.297,4.384 -1.328,1.213 -2.432,2.188 -3.328,2.919 -0.88,0.704 -1.333,1.124 -1.333,1.236 0,-0.084 0,-0.798 0,-1.297 0,-0.479 0.045,-1 0.123,-1.58 0.079,-0.583 -0.039,-1.034 0.118,-1.034 0.073,0 0.224,0.084 0.409,0.255 0.19,0.177 0.398,0.261 0.583,0.261 0.667,-0.555 1.261,-1.064 1.771,-1.527 0.521,-0.493 1.138,-1.093 1.81,-1.821 0.247,-0.252 1.126,-1.25 2.224,-2.603 -0.14,-0.227 -0.258,-0.325 -0.61,-0.488 -0.438,-0.174 -0.886,-0.308 -1.323,-0.434 -0.442,-0.112 -0.84,-0.213 -1.188,-0.328 -0.348,-0.093 -0.516,-0.19 -0.516,-0.303 0,-0.207 0.129,-0.415 0.448,-0.667 0.314,-0.252 0.476,-0.574 0.476,-0.972 v -16.338 c 0,-1.407 -0.185,-2.507 -0.566,-3.328 -0.358,-0.798 -0.7,-1.336 -1.031,-1.58 -0.336,-0.213 -0.516,-0.353 -0.566,-0.387 l 3.44,-3.496 c 0.319,-0.32 0.532,-0.501 0.689,-0.541 0.157,-0.067 0.263,-0.115 0.348,-0.115 0.078,0 0.129,0.106 0.129,0.244 0,0.126 -0.073,0.3 -0.213,0.538 -0.128,0.218 -0.196,0.389 -0.196,0.518 0.106,0 0.269,0.151 0.493,0.435 0.207,0.277 0.431,0.652 0.672,1.078 0.235,0.426 0.448,0.872 0.667,1.362 0.202,0.493 0.37,0.921 0.499,1.319 l 0.219,0.863 v 18.843 c 0,0.387 0.129,0.687 0.314,0.953 1.434,-1.95 2.829,-4.082 3.541,-5.813 0.454,-1.053 0.813,-2.188 1.081,-3.37 0.269,-1.182 0.409,-2.438 0.409,-3.74 0,-1.639 -0.134,-3.025 -0.387,-4.191 -0.252,-1.168 -0.532,-2.101 -0.863,-2.833 -0.336,-0.703 -0.678,-1.213 -0.997,-1.558 -0.712,-0.81 -1.333,-1.308 -0.975,-1.729 0.274,-0.342 2.398,-2.375 2.398,-2.375 0.432,-0.426 0.717,-0.678 0.824,-0.756 0.112,-0.079 0.202,-0.129 0.286,-0.129 0.045,0 0.079,0.084 0.124,0.28 0.028,0.176 0.089,0.358 0.157,0.543 0.039,0.185 0.095,0.389 0.129,0.56 0.05,0.174 0.095,0.258 0.174,0.258 0.044,0 0.213,0.16 0.493,0.457 0.303,0.317 0.605,0.79 0.975,1.401 0.342,0.616 0.639,1.373 0.93,2.27 0.26,0.902 0.4,1.938 0.4,3.137 z m -74.878,-5.062 c -0.168,-0.185 -0.258,-0.314 -0.258,-0.345 0.348,-0.16 0.622,-0.3 0.846,-0.412 0.202,-0.106 0.387,-0.264 0.561,-0.451 0.196,-0.208 0.28,-0.459 0.28,-0.756 0,-2.415 0.224,-4.457 0.712,-6.177 0.493,-1.701 1.092,-3.121 1.821,-4.239 0.7,-1.137 1.507,-2.017 2.375,-2.678 0.863,-0.661 1.675,-1.157 2.42,-1.493 0.746,-0.328 1.356,-0.524 1.86,-0.603 0.504,-0.078 0.768,-0.134 0.818,-0.134 0.269,0 0.526,0.056 0.779,0.134 0.252,0.079 0.364,0.188 0.364,0.345 -1.35,0.106 -2.443,0.42 -3.283,0.908 -0.835,0.462 -1.591,1.269 -2.269,2.359 -0.672,1.082 -1.009,2.675 -1.009,4.771 v 9.295 c 0,0.078 0.073,0.078 0.23,0 0.162,-0.082 0.347,-0.182 0.588,-0.328 0.235,-0.121 0.47,-0.283 0.695,-0.474 0.229,-0.208 0.42,-0.398 0.577,-0.585 0.348,-0.392 0.684,-0.835 0.998,-1.339 0.314,-0.504 0.594,-0.992 0.863,-1.468 0.292,-0.457 0.543,-0.857 0.756,-1.191 0.235,-0.331 0.459,-0.496 0.65,-0.496 0.106,0 0.185,0.084 0.235,0.28 0.028,0.176 0.079,0.375 0.106,0.627 0.051,0.252 0.079,0.513 0.106,0.779 0.051,0.286 0.135,0.49 0.241,0.65 0.263,0.345 0.633,0.773 1.059,1.317 0.426,0.518 0.846,1.165 1.255,1.899 0.387,0.778 0.756,1.667 1.037,2.723 0.297,1.037 0.431,2.27 0.431,3.65 v 5.474 c 0,0.577 -0.196,1.294 -0.605,2.09 -0.409,0.824 -0.919,1.664 -1.535,2.533 -0.633,0.882 -1.3,1.751 -2.012,2.633 -0.728,0.863 -1.4,1.642 -2.034,2.354 -0.645,0.695 -1.205,1.266 -1.659,1.692 -0.47,0.423 -0.745,0.622 -0.818,0.622 -0.319,0 -0.784,-0.208 -1.429,-0.667 -0.633,-0.442 -1.272,-1.031 -1.922,-1.773 -0.627,-0.742 -1.199,-1.594 -1.692,-2.549 -0.488,-0.98 -0.712,-1.972 -0.712,-2.983 v -13.206 c 0,-0.339 -0.084,-0.695 -0.28,-1.079 -0.174,-0.359 -0.359,-0.689 -0.561,-0.97 -0.221,-0.305 -0.406,-0.549 -0.585,-0.739 z m 6.017,15.54 c 0,0.454 0.168,0.952 0.51,1.49 0.37,0.518 0.74,1.008 1.171,1.448 0.426,0.443 0.829,0.827 1.232,1.124 0.37,0.319 0.611,0.476 0.689,0.476 0.241,0 0.471,-0.252 0.672,-0.759 0.218,-0.501 0.403,-1.076 0.56,-1.703 0.163,-0.647 0.269,-1.252 0.348,-1.84 0.078,-0.58 0.106,-0.925 0.106,-1.057 v -8.838 c 0,-0.426 -0.084,-0.933 -0.258,-1.533 -0.179,-0.622 -0.42,-1.176 -0.74,-1.731 -0.292,-0.533 -0.689,-1.009 -1.143,-1.381 -0.476,-0.395 -0.992,-0.585 -1.574,-0.585 -0.745,0 -1.261,0.19 -1.575,0.585 v 14.304 z m 12.187,1.77 c -0.14,-1.339 -0.213,-2.718 -0.213,-4.172 v -6.676 c 0,-0.109 0,-0.384 0,-0.756 0,-0.423 0.022,-0.896 0.084,-1.406 0.045,-0.499 0.124,-1 0.213,-1.468 0.112,-0.487 0.252,-0.84 0.459,-1.078 0.213,-0.267 0.695,-0.717 1.384,-1.275 0.711,-0.585 1.434,-1.177 2.241,-1.796 0.79,-0.597 1.524,-1.124 2.185,-1.574 0.661,-0.479 1.07,-0.717 1.21,-0.717 0.208,0 0.471,0.235 0.801,0.672 0.33,0.437 0.627,1 0.947,1.664 0.319,0.661 0.588,1.361 0.823,2.118 0.241,0.757 0.348,1.443 0.348,2.073 0,0.801 -0.325,1.678 -0.953,2.594 -0.645,0.894 -1.345,1.72 -2.14,2.462 -0.768,0.743 -1.793,1.594 -3.065,2.555 v 1.574 c 0,0.477 0.034,1.003 0.129,1.6 0.089,0.597 0.229,1.185 0.387,1.771 0.157,0.583 0.319,1.101 0.454,1.577 0.163,0.454 0.292,0.771 0.37,0.93 0.028,0.106 0.129,0.28 0.303,0.518 0.168,0.238 0.375,0.476 0.583,0.689 0.224,0.238 0.459,0.457 0.706,0.627 0.258,0.173 0.465,0.26 0.672,0.26 0.432,0 0.79,-0.073 1.104,-0.216 0.297,-0.123 0.459,-0.101 0.459,0.106 0,0.031 -0.247,0.269 -0.695,0.695 -0.477,0.423 -0.998,0.872 -1.575,1.359 -0.588,0.49 -1.121,0.927 -1.625,1.339 -0.504,0.412 -0.807,0.605 -0.885,0.605 -0.056,0 -0.275,-0.124 -0.605,-0.409 -0.331,-0.266 -0.684,-0.588 -1.081,-0.953 -0.375,-0.358 -0.762,-0.748 -1.121,-1.123 -0.387,-0.395 -0.656,-0.726 -0.846,-0.992 -0.554,-0.793 -0.895,-1.832 -1.058,-3.177 z m 4.326,-7.821 c 0.073,-0.051 0.297,-0.261 0.695,-0.667 0.387,-0.412 0.784,-1.062 1.25,-1.924 0.437,-0.869 0.672,-1.802 0.672,-2.835 0,-0.451 -0.084,-0.947 -0.241,-1.465 -0.163,-0.518 -0.331,-1.003 -0.521,-1.429 -0.207,-0.423 -0.403,-0.779 -0.627,-1.079 -0.196,-0.28 -0.375,-0.434 -0.532,-0.434 -0.163,0 -0.319,0.098 -0.482,0.283 -0.14,0.207 -0.213,0.412 -0.213,0.647 v 8.903 z m 8.028,-8.399 c 0.135,0 0.235,-0.022 0.331,-0.084 0.09,-0.067 0.213,-0.09 0.32,-0.09 0.426,0 0.734,0.336 0.907,1.014 0.174,0.675 0.264,1.451 0.264,2.348 v 15.058 c 0,0.129 -0.056,0.244 -0.157,0.389 -0.089,0.121 -0.196,0.258 -0.319,0.364 -0.106,0.109 -0.207,0.224 -0.286,0.277 -0.073,0.106 -0.095,0.132 -0.062,0.132 0.123,0 0.387,0.179 0.795,0.541 0.393,0.381 0.852,0.782 1.317,1.208 0.499,0.426 0.958,0.801 1.345,1.182 0.415,0.359 0.656,0.538 0.734,0.538 0.028,0 0.185,-0.163 0.432,-0.493 0.258,-0.311 0.555,-0.692 0.891,-1.098 0.303,-0.39 0.633,-0.771 0.947,-1.101 0.313,-0.328 0.521,-0.496 0.65,-0.496 0.028,0 -0.04,-0.093 -0.174,-0.28 -0.163,-0.185 -0.37,-0.423 -0.583,-0.689 -0.241,-0.286 -0.459,-0.552 -0.65,-0.818 -0.19,-0.266 -0.28,-0.49 -0.28,-0.645 v -13.895 c 0,-0.314 0.202,-0.726 0.627,-1.23 l 2.264,-2.306 c 0.247,-0.185 0.381,-0.277 0.415,-0.277 0.241,0 0.471,0.137 0.695,0.451 0.235,0.316 0.459,0.65 0.644,0.994 0.191,0.342 0.359,0.673 0.516,0.97 0.163,0.313 0.274,0.473 0.353,0.473 0.785,-0.77 1.406,-1.415 1.854,-1.919 0.477,-0.501 0.902,-0.947 1.294,-1.359 0.375,-0.406 0.588,-0.65 0.588,-0.731 0,-0.056 -0.163,-0.224 -0.477,-0.474 -0.313,-0.252 -0.661,-0.552 -1.036,-0.882 -0.398,-0.333 -0.746,-0.625 -1.059,-0.924 -0.319,-0.28 -0.454,-0.527 -0.454,-0.74 l -6.225,6.211 c 0,-0.585 -0.079,-1.182 -0.235,-1.793 -0.157,-0.611 -0.359,-1.18 -0.605,-1.698 -0.257,-0.541 -0.538,-0.964 -0.807,-1.269 -0.258,-0.333 -0.51,-0.501 -0.751,-0.501 v -0.171 c 0,-0.129 0.011,-0.274 0.067,-0.409 0,-0.157 -0.067,-0.238 -0.174,-0.238 -0.05,0 -0.134,0.022 -0.241,0.089 -0.106,0.062 -0.263,0.193 -0.476,0.429 l -3.244,3.188 c -0.073,0.082 -0.146,0.16 -0.213,0.241 -0.04,0.073 -0.084,0.154 -0.084,0.232 0.001,0.188 0.13,0.281 0.342,0.281 z m 20.894,9.441 v 1.574 c 0,0.477 0.04,1.003 0.151,1.6 0.095,0.597 0.213,1.185 0.37,1.771 0.157,0.583 0.313,1.101 0.476,1.577 0.134,0.454 0.263,0.771 0.342,0.93 0.034,0.106 0.129,0.28 0.325,0.518 0.174,0.238 0.364,0.476 0.561,0.689 0.224,0.238 0.465,0.457 0.711,0.627 0.252,0.173 0.465,0.26 0.672,0.26 0.426,0 0.785,-0.073 1.104,-0.216 0.313,-0.123 0.454,-0.101 0.454,0.106 0,0.031 -0.213,0.269 -0.695,0.695 -0.448,0.423 -0.986,0.872 -1.574,1.359 -0.561,0.49 -1.115,0.927 -1.619,1.339 -0.504,0.412 -0.785,0.605 -0.863,0.605 -0.084,0 -0.297,-0.124 -0.628,-0.409 -0.336,-0.266 -0.684,-0.588 -1.059,-0.953 -0.398,-0.358 -0.79,-0.748 -1.149,-1.123 -0.358,-0.395 -0.65,-0.726 -0.84,-0.992 -0.532,-0.796 -0.902,-1.835 -1.037,-3.18 -0.163,-1.339 -0.241,-2.718 -0.241,-4.172 v -6.676 c 0,-0.109 0,-0.384 0,-0.756 0,-0.423 0.022,-0.896 0.089,-1.406 0.062,-0.499 0.118,-1 0.241,-1.468 0.089,-0.487 0.235,-0.84 0.426,-1.078 0.241,-0.267 0.689,-0.717 1.384,-1.275 0.711,-0.585 1.468,-1.177 2.247,-1.796 0.807,-0.597 1.524,-1.124 2.185,-1.574 0.661,-0.479 1.07,-0.717 1.221,-0.717 0.196,0 0.454,0.235 0.79,0.672 0.325,0.437 0.656,1 0.953,1.664 0.314,0.661 0.577,1.361 0.818,2.118 0.235,0.757 0.342,1.443 0.342,2.073 0,0.801 -0.319,1.678 -0.947,2.594 -0.65,0.894 -1.35,1.72 -2.146,2.462 -0.767,0.745 -1.786,1.597 -3.064,2.558 z m 0,-1.042 c 0.079,-0.051 0.319,-0.261 0.689,-0.667 0.398,-0.412 0.818,-1.062 1.255,-1.924 0.443,-0.869 0.672,-1.802 0.672,-2.835 0,-0.451 -0.078,-0.947 -0.235,-1.465 -0.157,-0.518 -0.336,-1.003 -0.521,-1.429 -0.185,-0.423 -0.403,-0.779 -0.605,-1.079 -0.224,-0.28 -0.403,-0.434 -0.566,-0.434 -0.151,0 -0.314,0.098 -0.448,0.283 -0.163,0.207 -0.241,0.412 -0.241,0.647 v 8.903 z m -70.754,-8.405 c 0.331,0.252 0.684,0.762 1.059,1.533 0.364,0.773 0.543,1.815 0.543,3.09 v 11.001 c 0,0.798 -0.067,1.474 -0.174,2.031 -0.112,0.532 -0.252,0.955 -0.409,1.274 -0.163,0.317 -0.28,0.561 -0.415,0.734 -0.106,0.171 -0.173,0.274 -0.173,0.328 0,0.106 0.151,0.193 0.437,0.255 0.302,0.045 0.639,0.151 1.031,0.26 0.381,0.106 0.785,0.275 1.193,0.496 0.409,0.205 0.712,0.513 0.953,0.908 0.079,0.19 0.185,0.389 0.342,0.627 0.163,0.238 0.303,0.345 0.415,0.345 0.124,0 0.437,-0.179 0.992,-0.538 0.532,-0.381 1.126,-0.891 1.771,-1.513 0.65,-0.647 1.272,-1.42 1.899,-2.336 0.616,-0.911 1.053,-1.917 1.322,-3.003 0,1.009 0.168,1.925 0.493,2.743 0.331,0.821 0.711,1.527 1.104,2.124 0.409,0.597 0.795,1.079 1.126,1.423 0.325,0.345 0.493,0.558 0.493,0.585 0,0.079 0.005,0.185 0.028,0.345 0.011,0.16 0.163,0.238 0.426,0.238 0.112,0 0.443,-0.182 0.998,-0.561 0.538,-0.364 1.098,-0.776 1.664,-1.213 0.543,-0.44 1.048,-0.849 1.468,-1.23 0.432,-0.364 0.6,-0.541 0.521,-0.541 -0.297,0 -0.51,0.014 -0.605,0.042 -0.095,0.05 -0.179,0.064 -0.263,0.064 -0.185,0 -0.437,-0.101 -0.756,-0.322 -0.314,-0.205 -0.622,-0.543 -0.953,-1.017 -0.331,-0.451 -0.622,-1.076 -0.84,-1.793 -0.235,-0.742 -0.364,-1.645 -0.364,-2.681 v -12.273 c 0,-0.426 0.163,-0.818 0.476,-1.168 0.314,-0.345 0.594,-0.603 0.863,-0.776 0.286,-0.177 0.426,-0.294 0.477,-0.325 0,-0.05 -0.079,-0.098 -0.235,-0.213 -0.157,-0.098 -0.336,-0.19 -0.521,-0.283 -0.19,-0.093 -0.392,-0.222 -0.583,-0.322 -0.19,-0.112 -0.336,-0.205 -0.409,-0.286 -0.588,-0.712 -0.947,-1.317 -1.104,-1.835 -0.157,-0.519 -0.313,-0.804 -0.476,-0.804 -0.185,0 -0.516,0.208 -0.953,0.566 -0.437,0.381 -0.908,0.771 -1.361,1.233 -0.477,0.439 -1.059,1.045 -1.749,1.837 0,0.263 0.062,0.474 0.168,0.645 0.112,0.196 0.241,0.367 0.347,0.541 0.129,0.177 0.241,0.35 0.348,0.521 0.129,0.174 0.173,0.404 0.173,0.67 v 10.458 c 0,0.793 -0.095,1.563 -0.28,2.334 -0.191,0.771 -0.426,1.499 -0.695,2.163 -0.286,0.659 -0.566,1.191 -0.885,1.597 -0.297,0.412 -0.583,0.607 -0.801,0.607 -0.157,0 -0.336,-0.073 -0.561,-0.196 -0.196,-0.146 -0.426,-0.305 -0.644,-0.476 -0.202,-0.174 -0.375,-0.336 -0.521,-0.496 -0.123,-0.16 -0.196,-0.266 -0.196,-0.345 v -14.89 c 0,-0.479 -0.129,-1.014 -0.348,-1.664 -0.229,-0.628 -0.493,-1.247 -0.795,-1.793 -0.28,-0.569 -0.577,-1.059 -0.846,-1.471 -0.263,-0.39 -0.448,-0.603 -0.583,-0.603 0,-0.112 0.078,-0.269 0.218,-0.457 0.118,-0.208 0.196,-0.367 0.196,-0.474 0,-0.031 -0.011,-0.095 -0.022,-0.176 -0.017,-0.076 -0.062,-0.132 -0.09,-0.132 -0.128,0 -0.252,0.056 -0.409,0.132 -0.157,0.081 -0.398,0.266 -0.695,0.588 l -3.39,3.432 c 0.05,0.036 0.229,0.184 0.56,0.436 z m -7.004,22.081 v -1.401 c -0.364,-0.397 -0.644,-0.835 -0.846,-1.339 -0.219,-0.504 -0.375,-0.998 -0.471,-1.449 -0.09,-0.476 -0.168,-0.854 -0.196,-1.168 -0.045,-0.317 -0.078,-0.476 -0.129,-0.476 -0.106,0 -0.213,0.137 -0.325,0.389 -0.095,0.252 -0.196,0.541 -0.348,0.911 -0.123,0.344 -0.28,0.686 -0.448,1.036 -0.179,0.345 -0.375,0.611 -0.56,0.821 -0.112,0.106 -0.375,0.367 -0.785,0.779 -0.409,0.406 -0.84,0.818 -1.316,1.229 -0.454,0.39 -0.925,0.771 -1.362,1.101 -0.442,0.333 -0.75,0.496 -0.908,0.496 -0.106,0 -0.403,-0.23 -0.84,-0.667 -0.437,-0.459 -0.919,-1.02 -1.384,-1.731 -0.493,-0.689 -0.925,-1.459 -1.317,-2.308 -0.398,-0.872 -0.588,-1.712 -0.588,-2.507 v -6.463 c 0,-0.426 0.011,-1.009 0.028,-1.751 0.028,-0.74 0.062,-1.505 0.129,-2.289 0.039,-0.81 0.162,-1.527 0.319,-2.208 0.14,-0.675 0.347,-1.208 0.583,-1.555 0.454,-0.661 1.042,-1.199 1.731,-1.642 0.711,-0.459 1.412,-0.829 2.14,-1.146 0.706,-0.314 1.373,-0.585 1.989,-0.818 0.633,-0.218 1.082,-0.457 1.401,-0.694 0.56,-0.395 1.148,-0.776 1.776,-1.185 0.645,-0.412 1.064,-0.633 1.25,-0.633 0.319,0 0.532,0.247 0.695,0.74 0.157,0.49 0.392,0.972 0.706,1.429 0.19,0.263 0.442,0.484 0.762,0.644 0.292,0.16 0.605,0.267 0.885,0.345 0.303,0.081 0.549,0.168 0.734,0.261 0.185,0.095 0.308,0.229 0.308,0.389 0,0.059 -0.079,0.196 -0.224,0.367 -0.14,0.173 -0.258,0.395 -0.409,0.647 -0.123,0.255 -0.263,0.543 -0.409,0.888 -0.123,0.342 -0.196,0.756 -0.196,1.23 v 10.071 c 0,0.613 0.089,1.297 0.263,2.054 0.174,0.756 0.409,1.468 0.689,2.092 0.308,0.65 0.622,1.185 0.93,1.645 0.325,0.44 0.672,0.669 1.037,0.669 0.106,0 0.292,-0.025 0.561,-0.044 0.291,-0.014 0.409,0.008 0.409,0.089 0,0.079 -0.331,0.339 -0.969,0.796 -0.661,0.442 -1.406,0.902 -2.224,1.406 -0.801,0.504 -1.586,0.972 -2.292,1.384 -0.728,0.412 -1.16,0.608 -1.322,0.608 -0.073,0 -0.005,-0.16 0.219,-0.479 0.201,-0.291 0.324,-0.504 0.324,-0.563 z m -2.157,-18.971 c 0,-0.583 -0.062,-1.157 -0.157,-1.706 -0.095,-0.566 -0.247,-0.969 -0.431,-1.208 -0.264,-0.297 -0.588,-0.597 -0.953,-0.869 -0.381,-0.266 -0.588,-0.412 -0.667,-0.412 -0.235,0 -0.515,0.089 -0.84,0.263 -0.331,0.171 -0.655,0.437 -0.975,0.821 -0.292,0.359 -0.572,0.841 -0.773,1.426 -0.229,0.583 -0.331,1.271 -0.331,2.095 v 8.533 c 0,1.168 0.095,2.149 0.297,2.919 0.196,0.776 0.432,1.42 0.701,1.925 0.263,0.504 0.538,0.857 0.846,1.079 0.275,0.204 0.521,0.328 0.729,0.328 0.112,0 0.292,-0.224 0.543,-0.65 0.251,-0.426 0.51,-0.916 0.779,-1.446 0.286,-0.558 0.504,-1.084 0.711,-1.603 0.185,-0.538 0.28,-0.894 0.28,-1.079 0.079,-0.557 0.146,-1 0.168,-1.364 0.056,-0.378 0.073,-0.826 0.073,-1.384 v -7.668 z m -18.16,4.46 1.199,-1.244 c 0.134,-0.098 0.208,-0.157 0.219,-0.157 0.117,0 0.252,0.084 0.37,0.247 0.134,0.168 0.241,0.342 0.336,0.543 0.124,0.182 0.213,0.353 0.297,0.519 0.078,0.168 0.123,0.246 0.185,0.246 0.409,-0.412 0.745,-0.75 0.986,-1.014 0.252,-0.264 0.465,-0.507 0.684,-0.734 0.196,-0.202 0.297,-0.339 0.297,-0.37 0,-0.059 -0.084,-0.143 -0.23,-0.283 -0.168,-0.12 -0.37,-0.28 -0.56,-0.451 -0.224,-0.174 -0.403,-0.342 -0.571,-0.501 -0.168,-0.154 -0.247,-0.269 -0.247,-0.393 l -3.312,3.32 c 0,-0.316 -0.05,-0.639 -0.134,-0.972 -0.084,-0.331 -0.18,-0.619 -0.325,-0.916 -0.118,-0.269 -0.269,-0.504 -0.398,-0.675 -0.151,-0.173 -0.291,-0.257 -0.403,-0.257 v -0.093 c 0,-0.067 0.011,-0.12 0.022,-0.205 0,-0.084 -0.022,-0.131 -0.09,-0.131 -0.017,0 -0.073,0.008 -0.123,0.053 -0.062,0.022 -0.146,0.106 -0.247,0.216 l -1.737,1.717 c -0.05,0.025 -0.079,0.078 -0.106,0.109 -0.045,0.054 -0.056,0.084 -0.056,0.135 0,0.101 0.067,0.137 0.185,0.137 0.067,0 0.134,-0.008 0.168,-0.031 0.062,-0.045 0.123,-0.059 0.168,-0.059 0.235,0 0.398,0.18 0.488,0.552 0.095,0.355 0.151,0.771 0.151,1.252 v 8.013 c 0,0.07 -0.044,0.14 -0.084,0.196 -0.056,0.073 -0.106,0.146 -0.168,0.21 -0.067,0.045 -0.129,0.107 -0.157,0.16 -0.051,0.031 -0.062,0.045 -0.028,0.045 0.051,0 0.196,0.115 0.415,0.306 0.213,0.19 0.454,0.412 0.712,0.619 0.252,0.235 0.499,0.454 0.7,0.644 0.224,0.188 0.364,0.286 0.398,0.286 0.011,0 0.095,-0.089 0.241,-0.263 0.118,-0.171 0.275,-0.361 0.448,-0.583 0.174,-0.205 0.359,-0.415 0.51,-0.588 0.168,-0.174 0.292,-0.261 0.353,-0.261 0.022,0 -0.022,-0.042 -0.101,-0.16 -0.084,-0.098 -0.185,-0.207 -0.297,-0.358 -0.135,-0.151 -0.241,-0.306 -0.342,-0.429 -0.118,-0.154 -0.163,-0.258 -0.163,-0.342 v -7.401 c 0,-0.169 0.112,-0.394 0.347,-0.654 z m -8.051,3.88 v 0.84 c 0,0.247 0.034,0.544 0.079,0.849 0.062,0.322 0.123,0.644 0.218,0.958 0.073,0.297 0.146,0.588 0.241,0.815 0.073,0.274 0.129,0.442 0.191,0.501 0.011,0.064 0.073,0.157 0.168,0.294 0.095,0.112 0.19,0.25 0.297,0.359 0.124,0.137 0.241,0.238 0.387,0.333 0.118,0.087 0.252,0.146 0.347,0.146 0.23,0 0.426,-0.051 0.588,-0.124 0.163,-0.056 0.252,-0.042 0.252,0.05 0,0.02 -0.118,0.157 -0.381,0.364 -0.235,0.238 -0.526,0.482 -0.824,0.74 -0.313,0.255 -0.616,0.493 -0.885,0.698 -0.263,0.229 -0.42,0.333 -0.454,0.333 -0.05,0 -0.151,-0.059 -0.325,-0.204 -0.168,-0.151 -0.37,-0.322 -0.577,-0.51 -0.196,-0.21 -0.415,-0.406 -0.599,-0.627 -0.202,-0.19 -0.348,-0.367 -0.443,-0.518 -0.303,-0.415 -0.482,-0.964 -0.566,-1.684 -0.084,-0.704 -0.134,-1.449 -0.134,-2.208 v -3.578 c 0,-0.051 0,-0.191 0,-0.387 0,-0.235 0.034,-0.482 0.056,-0.748 0.028,-0.266 0.073,-0.546 0.118,-0.804 0.056,-0.258 0.135,-0.442 0.235,-0.557 0.135,-0.146 0.387,-0.381 0.746,-0.672 0.386,-0.319 0.768,-0.642 1.188,-0.964 0.42,-0.325 0.818,-0.603 1.166,-0.852 0.347,-0.247 0.577,-0.361 0.661,-0.361 0.101,0 0.241,0.109 0.42,0.35 0.168,0.241 0.342,0.527 0.504,0.871 0.168,0.37 0.314,0.737 0.432,1.146 0.134,0.406 0.179,0.765 0.179,1.095 0,0.432 -0.168,0.899 -0.51,1.373 -0.336,0.49 -0.7,0.925 -1.121,1.323 -0.41,0.402 -0.976,0.847 -1.654,1.36 z m 0,-0.547 c 0.056,-0.033 0.163,-0.146 0.387,-0.37 0.196,-0.205 0.426,-0.546 0.655,-1.017 0.235,-0.457 0.37,-0.958 0.37,-1.51 0,-0.247 -0.062,-0.507 -0.14,-0.779 -0.084,-0.274 -0.174,-0.527 -0.275,-0.759 -0.101,-0.229 -0.218,-0.42 -0.331,-0.577 -0.106,-0.157 -0.196,-0.238 -0.28,-0.238 -0.079,0 -0.163,0.062 -0.252,0.16 -0.078,0.098 -0.134,0.224 -0.134,0.336 v 4.754 z m -29.842,11.442 c -0.437,-0.459 -0.913,-1.02 -1.389,-1.731 -0.482,-0.689 -0.914,-1.459 -1.311,-2.308 -0.398,-0.872 -0.583,-1.712 -0.583,-2.507 v -6.463 c 0,-0.426 0.006,-1.009 0.022,-1.751 0.022,-0.74 0.067,-1.505 0.129,-2.289 0.045,-0.81 0.168,-1.527 0.325,-2.208 0.146,-0.675 0.347,-1.208 0.56,-1.555 0.476,-0.661 1.064,-1.199 1.754,-1.642 0.711,-0.459 1.412,-0.829 2.129,-1.146 0.717,-0.314 1.384,-0.585 2,-0.818 0.627,-0.218 1.081,-0.457 1.4,-0.694 0.538,-0.395 1.138,-0.776 1.771,-1.185 0.65,-0.412 1.07,-0.633 1.255,-0.633 0.319,0 0.532,0.247 0.689,0.74 0.157,0.49 0.398,0.972 0.712,1.429 0.185,0.263 0.437,0.484 0.745,0.644 0.308,0.16 0.616,0.267 0.896,0.345 0.302,0.081 0.549,0.168 0.739,0.261 0.185,0.095 0.28,0.229 0.28,0.389 0,0.059 -0.05,0.196 -0.196,0.367 -0.14,0.173 -0.269,0.395 -0.415,0.647 -0.129,0.255 -0.263,0.543 -0.409,0.888 -0.118,0.342 -0.19,0.756 -0.19,1.23 v 10.071 c 0,0.613 0.084,1.297 0.257,2.054 0.174,0.756 0.409,1.468 0.689,2.092 0.303,0.65 0.605,1.185 0.936,1.645 0.325,0.44 0.667,0.669 1.014,0.669 0.129,0 0.314,-0.025 0.583,-0.044 0.291,-0.014 0.409,0.008 0.409,0.089 0,0.079 -0.331,0.339 -0.992,0.796 -0.639,0.442 -1.384,0.902 -2.208,1.406 -0.818,0.504 -1.58,0.972 -2.292,1.384 -0.723,0.412 -1.16,0.608 -1.317,0.608 -0.078,0 -0.011,-0.16 0.219,-0.479 0.202,-0.291 0.313,-0.504 0.313,-0.563 v -1.401 c -0.358,-0.397 -0.633,-0.835 -0.84,-1.339 -0.213,-0.504 -0.375,-0.998 -0.465,-1.449 -0.095,-0.476 -0.168,-0.854 -0.208,-1.168 -0.039,-0.317 -0.067,-0.476 -0.123,-0.476 -0.106,0 -0.213,0.137 -0.319,0.389 -0.096,0.252 -0.208,0.541 -0.348,0.911 -0.123,0.344 -0.28,0.686 -0.454,1.036 -0.174,0.345 -0.375,0.611 -0.561,0.821 -0.106,0.106 -0.381,0.367 -0.779,0.779 -0.415,0.406 -0.84,0.818 -1.322,1.229 -0.448,0.39 -0.919,0.771 -1.356,1.101 -0.454,0.333 -0.751,0.496 -0.913,0.496 -0.101,0 -0.393,-0.23 -0.836,-0.667 z m 1.256,-10.29 c 0,1.168 0.089,2.149 0.286,2.919 0.202,0.776 0.432,1.42 0.706,1.925 0.269,0.504 0.543,0.857 0.846,1.079 0.28,0.204 0.521,0.328 0.728,0.328 0.112,0 0.292,-0.224 0.543,-0.65 0.258,-0.426 0.51,-0.916 0.785,-1.446 0.286,-0.558 0.504,-1.084 0.711,-1.603 0.185,-0.538 0.274,-0.894 0.274,-1.079 0.084,-0.557 0.146,-1 0.174,-1.364 0.056,-0.378 0.067,-0.826 0.067,-1.384 v -7.67 c 0,-0.583 -0.062,-1.157 -0.151,-1.706 -0.095,-0.566 -0.247,-0.969 -0.431,-1.208 -0.269,-0.297 -0.588,-0.597 -0.964,-0.869 -0.375,-0.266 -0.577,-0.412 -0.656,-0.412 -0.241,0 -0.521,0.089 -0.857,0.263 -0.319,0.171 -0.645,0.437 -0.964,0.821 -0.308,0.359 -0.572,0.841 -0.773,1.426 -0.224,0.583 -0.325,1.271 -0.325,2.095 v 8.535 z M 82.618,267.1 c 0.235,0.757 0.348,1.443 0.348,2.073 0,0.801 -0.331,1.678 -0.953,2.594 -0.645,0.894 -1.367,1.72 -2.14,2.462 -0.773,0.743 -1.793,1.594 -3.071,2.555 v 1.574 c 0,0.477 0.034,1.003 0.135,1.6 0.101,0.597 0.229,1.185 0.387,1.771 0.157,0.583 0.319,1.101 0.454,1.577 0.157,0.454 0.269,0.771 0.37,0.93 0.028,0.106 0.129,0.28 0.303,0.518 0.179,0.238 0.375,0.476 0.583,0.689 0.219,0.238 0.459,0.457 0.695,0.627 0.269,0.173 0.477,0.26 0.672,0.26 0.437,0 0.801,-0.073 1.115,-0.216 0.297,-0.123 0.454,-0.101 0.454,0.106 0,0.031 -0.235,0.269 -0.689,0.695 -0.477,0.423 -0.998,0.872 -1.58,1.359 -0.583,0.49 -1.115,0.927 -1.619,1.339 -0.504,0.412 -0.807,0.605 -0.891,0.605 -0.073,0 -0.269,-0.124 -0.6,-0.409 -0.331,-0.266 -0.684,-0.588 -1.081,-0.953 -0.375,-0.358 -0.762,-0.748 -1.126,-1.123 -0.387,-0.395 -0.655,-0.726 -0.84,-0.992 -0.555,-0.796 -0.896,-1.835 -1.059,-3.18 -0.151,-1.339 -0.218,-2.718 -0.218,-4.172 v -6.676 c 0,-0.109 0,-0.384 0,-0.756 0,-0.423 0.028,-0.896 0.089,-1.406 0.045,-0.499 0.124,-1 0.224,-1.468 0.09,-0.487 0.235,-0.84 0.448,-1.078 0.213,-0.267 0.689,-0.717 1.378,-1.275 0.717,-0.585 1.44,-1.177 2.247,-1.796 0.79,-0.597 1.524,-1.124 2.185,-1.574 0.661,-0.479 1.059,-0.717 1.21,-0.717 0.208,0 0.465,0.235 0.796,0.672 0.336,0.437 0.644,1 0.952,1.664 0.318,0.664 0.581,1.364 0.822,2.121 z m -3.2,3.216 c 0,-0.451 -0.079,-0.947 -0.235,-1.465 -0.163,-0.518 -0.336,-1.003 -0.526,-1.429 -0.196,-0.423 -0.398,-0.779 -0.611,-1.079 -0.208,-0.28 -0.398,-0.434 -0.549,-0.434 -0.163,0 -0.319,0.098 -0.476,0.283 -0.151,0.207 -0.219,0.412 -0.219,0.647 v 8.903 c 0.067,-0.051 0.297,-0.261 0.695,-0.667 0.381,-0.412 0.796,-1.062 1.25,-1.924 0.442,-0.868 0.671,-1.801 0.671,-2.835 z m 21.084,-4.544 c 0,-0.056 -0.157,-0.224 -0.471,-0.474 -0.319,-0.252 -0.667,-0.552 -1.042,-0.882 -0.392,-0.333 -0.74,-0.625 -1.059,-0.924 -0.308,-0.28 -0.454,-0.527 -0.454,-0.74 l -6.219,6.211 c 0,-0.585 -0.079,-1.182 -0.241,-1.793 -0.157,-0.611 -0.364,-1.18 -0.622,-1.698 -0.246,-0.541 -0.515,-0.964 -0.784,-1.269 -0.263,-0.333 -0.516,-0.501 -0.756,-0.501 v -0.171 c 0,-0.129 0.028,-0.274 0.067,-0.409 0,-0.157 -0.067,-0.238 -0.174,-0.238 -0.05,0 -0.124,0.022 -0.235,0.089 -0.106,0.062 -0.269,0.193 -0.471,0.429 l -3.25,3.188 c -0.079,0.082 -0.146,0.16 -0.213,0.241 -0.045,0.073 -0.084,0.154 -0.084,0.232 0,0.188 0.129,0.28 0.342,0.28 0.129,0 0.23,-0.022 0.325,-0.084 0.095,-0.067 0.218,-0.09 0.325,-0.09 0.42,0 0.74,0.336 0.908,1.014 0.174,0.675 0.258,1.451 0.258,2.348 v 15.058 c 0,0.129 -0.056,0.244 -0.151,0.389 -0.089,0.121 -0.19,0.258 -0.325,0.364 -0.106,0.109 -0.202,0.224 -0.28,0.277 -0.079,0.106 -0.089,0.132 -0.067,0.132 0.118,0 0.398,0.179 0.79,0.541 0.404,0.381 0.863,0.782 1.333,1.208 0.488,0.426 0.93,0.801 1.339,1.182 0.409,0.359 0.655,0.538 0.734,0.538 0.034,0 0.174,-0.163 0.432,-0.493 0.252,-0.311 0.555,-0.692 0.868,-1.098 0.336,-0.39 0.65,-0.771 0.969,-1.101 0.32,-0.328 0.521,-0.496 0.645,-0.496 0.034,0 -0.034,-0.093 -0.168,-0.28 -0.157,-0.185 -0.37,-0.423 -0.605,-0.689 -0.219,-0.286 -0.443,-0.552 -0.628,-0.818 -0.185,-0.266 -0.28,-0.49 -0.28,-0.645 v -13.895 c 0,-0.314 0.202,-0.726 0.622,-1.23 l 2.27,-2.306 c 0.241,-0.185 0.37,-0.277 0.415,-0.277 0.235,0 0.459,0.137 0.689,0.451 0.241,0.316 0.443,0.65 0.65,0.994 0.185,0.342 0.359,0.673 0.516,0.97 0.163,0.313 0.269,0.473 0.347,0.473 0.785,-0.77 1.407,-1.415 1.866,-1.919 0.471,-0.501 0.896,-0.947 1.294,-1.359 0.368,-0.405 0.575,-0.649 0.575,-0.73 z m 22.984,7.133 c 0,-0.034 -1.277,-1.281 -1.496,-1.527 -1.194,-1.412 -0.18,-2.925 -0.011,-3.18 0.162,-0.258 0.342,-0.51 0.555,-0.757 0.185,-0.249 0.37,-0.454 0.566,-0.625 0.19,-0.199 0.297,-0.26 0.336,-0.26 -0.532,1.126 -0.745,2.521 0.308,3.317 0.331,0.252 2.045,1.429 2.527,1.689 0.499,0.266 0.97,0.628 1.39,1.045 0.426,0.393 0.779,0.936 1.059,1.561 0.297,0.65 0.454,1.474 0.454,2.449 0,0.759 -0.128,1.546 -0.336,2.306 -0.224,0.762 -0.487,1.479 -0.813,2.188 -0.319,0.684 -0.672,1.339 -1.037,1.936 -0.398,0.594 -0.75,1.106 -1.076,1.541 -0.336,0.429 -0.627,0.771 -0.863,1.017 -0.247,0.247 -0.398,0.384 -0.454,0.384 -0.044,0 -0.263,-0.092 -0.61,-0.305 -0.348,-0.19 -0.74,-0.465 -1.154,-0.849 -0.403,-0.362 -0.779,-0.832 -1.115,-1.37 -0.325,-0.558 -0.493,-1.166 -0.493,-1.846 v -5.547 c 0,-0.398 0.134,-0.762 0.364,-1.098 0.23,-0.339 0.488,-0.659 0.779,-0.927 0.275,-0.297 0.527,-0.535 0.773,-0.712 0.235,-0.184 0.347,-0.335 0.347,-0.43 z m 0.157,7.398 c 0,0.639 0.106,1.138 0.325,1.519 0.213,0.403 0.448,0.717 0.712,0.93 0.252,0.232 0.605,0.448 1.047,0.636 0.084,0 0.191,-0.129 0.359,-0.333 0.168,-0.224 0.336,-0.529 0.487,-0.972 0.163,-0.423 0.28,-0.941 0.415,-1.56 0.101,-0.642 0.168,-1.384 0.168,-2.236 0,-1.092 -0.19,-1.98 -0.555,-2.701 -0.353,-0.706 -0.768,-1.258 -1.205,-1.622 -0.448,-0.384 -0.846,-0.583 -1.216,-0.644 -0.358,-0.04 -0.538,0.022 -0.538,0.238 v 6.745 z m 30.839,-24.745 c -0.762,0.286 -8.556,3.863 -15.358,11.422 0.487,-0.039 1.597,0.283 1.597,2.269 2.084,-1.684 4.869,-1.714 4.925,-1.684 1.692,-5.455 13.206,-15.602 22.014,-16.874 1.305,-0.185 1.782,-1.081 1.759,-1.437 -1.496,0.28 -2.746,0.524 -3.76,0.708 -1.008,0.18 -21.095,6.469 -38.733,-5.746 -3.849,5.326 -7.822,5.542 -7.923,5.791 12.82,7.232 33.646,6.159 35.479,5.551 z m -37.389,43.289 c 0.756,-0.306 7.289,-3.018 13.839,-9.903 -0.896,-0.261 -1.541,-0.51 -2.908,-1.664 -1.53,1.389 -2.471,1.748 -4.102,2.229 -3.804,4.819 -12.271,13.072 -20.014,14.209 -1.317,0.182 -1.776,1.056 -1.759,1.432 1.496,-0.3 2.746,-0.543 3.76,-0.729 1.014,-0.182 21.095,-6.469 38.739,5.768 3.844,-5.348 7.816,-5.538 7.917,-5.791 -12.841,-7.232 -33.646,-6.179 -35.472,-5.551 z m 16.669,-4.615 c 37.512,-3.547 59.583,28.911 109.987,0.611 -53.291,20.162 -69.819,-7.323 -109.987,-0.611 z m 20.188,-67.748 -0.415,0.462 c 0.18,0.154 0.364,0.308 0.533,0.47 0.14,-0.067 0.173,0.017 0.185,0.16 0.09,0.084 0.163,0.182 0.247,0.269 v -0.059 l 0.134,0.14 c -0.033,-0.098 -0.044,-0.244 -0.067,-0.333 0.017,0.053 0.056,0.081 0.084,0.076 0.034,-0.148 0.101,-0.177 0.168,-0.19 0.006,-0.045 0.017,-0.067 0.017,-0.106 -0.017,0.044 -0.011,0.062 -0.011,0.106 0.146,-0.048 0.319,0.098 0.448,0.036 0.157,-0.168 0,-0.345 -0.011,-0.451 0.247,-0.207 0,0.429 0.247,0.309 -0.011,-0.093 -0.101,-0.222 0.005,-0.216 0.163,0.266 0.23,0.375 0.543,0.328 -0.045,0.056 -0.062,0.101 -0.112,0.118 0.134,-0.017 0.252,-0.062 0.471,-0.179 0.235,0.118 0.358,0.42 0.504,0.7 l 0.168,0.064 -0.089,0.101 c 0.151,0.311 0.325,0.577 0.627,0.625 0.135,0.171 0.308,0.045 0.493,-0.16 -0.779,-1.101 -1.726,-2.079 -2.846,-2.863 -0.112,0.138 -0.269,0.345 -0.275,0.619 0.006,-0.274 -0.089,-0.406 -0.229,-0.442 -0.017,0.02 -0.034,0.076 -0.017,0.182 l -0.162,-0.221 c 0,0.022 0,-0.009 0,-0.009 -0.269,0 -0.594,0.138 -0.672,-0.101 -0.12,0.327 0.009,0.388 0.032,0.565 z m 3.255,1.443 c 0.067,0.26 0.555,0.19 0.241,0.409 -0.129,0.014 -0.292,-0.168 -0.381,-0.3 0.022,-0.025 0.118,-0.054 0.14,-0.109 z m -0.841,3.087 c -0.034,-0.143 -0.056,-0.289 -0.112,-0.403 0.179,-0.235 0.431,-0.045 0.577,0.014 -0.128,0.504 -0.229,0.305 -0.465,0.389 z m -3.658,-5.362 c 0.028,-0.014 0.045,-0.053 0.084,-0.07 0.118,0.098 0.129,0.331 0.151,0.605 l 0.303,-1.443 c 0.011,0 0.039,-0.011 0.05,-0.011 0.151,0.07 0.297,0.098 0.442,0.176 -0.073,0.406 -0.185,0.168 -0.173,0.687 l 0.269,-0.35 c 0.319,1.118 -0.813,0.81 -0.325,1.698 -0.286,-0.213 -0.594,-0.437 -0.896,-0.627 -0.095,-0.216 -0.336,-0.314 0.022,-0.793 0.034,0 0.073,0.037 0.101,0.045 -0.011,0.027 -0.011,0.033 -0.028,0.083 z m 2.969,3.799 c -0.04,-0.082 -0.084,-0.166 -0.124,-0.241 0.084,-0.12 0.14,-0.182 0.208,-0.008 -0.067,0.094 -0.084,0.176 -0.084,0.249 z m 0.908,-0.071 c -0.19,-0.014 -0.336,-0.131 -0.499,-0.19 l 0.684,-0.076 -0.185,0.266 z m -1.406,-1.145 c -0.006,0.005 -0.006,0.005 -0.006,0.008 0,0.008 0,0.014 0,0.022 0,0.02 0.006,0.025 0,0.084 0.006,0 0.017,-0.008 0.045,-0.014 0.168,0.446 0.476,-0.482 0.42,0.356 l -0.128,0.09 c -0.124,-0.084 -0.252,-0.168 -0.404,-0.064 0.028,-0.177 -0.179,-0.224 -0.005,-0.477 0.049,-0.061 0.072,-0.053 0.078,-0.005 z m 3.283,3.078 c 0.235,-0.81 -0.124,-1.684 0.202,-1.765 l 0.022,0.084 h -0.011 l 0.022,0.067 -0.011,-0.067 0.062,-0.017 c 0.14,0.269 0.297,0.561 0.448,0.84 -0.011,0.003 -0.022,0.003 -0.056,0.02 l 0.079,0.044 c 0.123,0.205 0.202,0.44 0.297,0.67 -0.337,-0.004 -0.679,0.001 -1.054,0.124 z m -3.244,-5.476 c 0,0.05 0,0.067 -0.028,0.098 l 0.034,-0.098 c -0.001,0 -0.001,0 -0.006,0 z m -10.097,-1.194 c 0.286,0.104 0.37,0.435 0.381,0.79 -0.19,0.067 -0.397,0.129 -0.583,0.202 l 0.269,-0.218 -0.095,-0.118 -0.275,0.361 c -0.235,0.09 -0.431,0.221 -0.655,0.322 0.017,-0.818 0.813,-1.224 0.958,-1.339 z m 12.573,11.789 c 0.005,0 0.017,0 0.045,0.006 0,0.042 -0.028,0.07 -0.028,0.09 l -0.017,-0.096 z m -13.34,3.759 c 0.297,0.022 0.616,0.082 0.93,0.143 -0.05,0.106 -0.079,0.244 -0.135,0.361 -0.044,0.134 -0.112,0.244 -0.179,0.358 -0.443,0.153 -0.437,-0.43 -0.616,-0.862 z m 5.782,-7.32 0.056,-0.397 c 0.347,0.109 0.661,0.246 0.583,0.664 l -0.639,-0.267 z m -7.514,0.796 -0.168,-0.213 c 0.084,0 0.179,0.008 0.274,0.084 -0.078,0.042 -0.095,0.092 -0.106,0.129 z m 17.56,2.185 c 0.017,-0.084 0.196,-0.124 0.297,-0.045 0,-0.154 -0.011,-0.305 -0.011,-0.459 h -0.006 v -0.003 c -0.005,-0.098 -0.022,-0.19 -0.022,-0.288 -0.263,-0.177 -0.577,-0.378 -0.739,-0.72 l 0.263,0.003 c -0.235,-0.359 -0.532,-1.849 -1.333,-1.857 -0.05,0.16 0.062,0.392 0.163,0.513 -0.101,0.42 -0.829,0.339 -1.222,0.571 -0.392,-0.238 0.191,-1.121 -0.235,-1.656 l -0.42,0.785 c -0.174,-0.627 -0.017,-0.745 0.235,-1.488 -0.549,0.151 -0.65,0.106 -0.751,-0.16 0.258,0.801 0.426,1.608 0.448,2.488 0.006,0.008 0.011,0.017 0.017,0.022 -0.006,0.011 -0.011,0.008 -0.011,0.017 0,0.084 0.017,0.163 0.017,0.247 0,0.588 -0.045,1.166 -0.168,1.698 0.078,-0.078 0.151,-0.188 0.168,-0.216 0.14,0.121 -0.179,0.426 0.05,0.457 l -0.179,0.207 c 0.022,-0.16 -0.011,-0.213 -0.079,-0.224 -0.168,0.723 -0.448,1.393 -0.773,2.034 l -1.743,-2.258 c -0.056,0.042 -0.078,0.042 -0.118,0.09 0.034,-0.132 -0.129,-0.132 -0.062,-0.3 l -0.017,-0.014 c -0.079,0.056 -0.224,-0.067 -0.196,0.213 -0.028,-0.465 -0.28,-0.067 -0.443,-0.328 -0.062,-0.19 0.23,-0.3 0,-0.375 l 0.174,-0.045 c 0.011,0.008 0.022,-0.008 0.05,-0.014 l -0.319,-0.415 v 0.008 l -0.011,-0.017 -0.134,-0.16 0.095,-0.115 0.022,-0.059 v 0.017 l 2.084,-2.857 c -0.017,-0.364 -0.224,-0.561 -0.393,-0.701 -0.078,0.79 -0.073,-0.311 -0.297,0.443 l 0.208,0.543 c -0.219,0.101 -0.543,-0.39 -0.056,-1.048 -0.146,-0.325 -0.482,-0.714 -0.874,-0.302 -0.23,-0.199 -0.196,-0.393 -0.112,-0.642 l -0.756,0.084 c -0.005,0 -0.005,0.008 -0.005,0.008 v -0.008 l -0.857,0.092 c -0.056,0.098 -0.106,0.179 -0.146,0.314 -0.118,-0.093 -0.213,-0.168 -0.286,-0.255 l -0.801,0.084 c -0.106,0.204 -0.179,0.459 -0.129,0.779 0,0 0,0 0.005,0 0.448,-0.451 0.28,0.221 0.622,0.168 l -0.157,0.104 c 0.056,0.042 0.112,0.07 0.168,0.166 -0.101,-0.04 -0.224,-0.011 -0.364,0.07 0.448,0.336 0.269,1.356 0.852,1.166 0.067,-0.112 0.129,-0.241 0.179,-0.35 0.006,-0.008 0.006,-0.042 0.006,-0.045 -0.011,-0.124 -0.028,-0.252 0.084,-0.384 -0.347,0.297 -0.118,-0.585 -0.432,-0.289 l 0.04,0.048 -0.146,0.067 c 0.101,-0.21 -0.022,-0.487 0.241,-0.487 0,-0.008 -0.006,-0.017 -0.011,-0.039 l 0.017,0.039 c 0,0 0,0 -0.005,0 0.028,0.076 0.073,0.165 0.118,0.121 -0.039,-0.16 0.247,-0.182 0.258,-0.3 0.073,0.26 -0.09,0.213 -0.118,0.442 0.022,0.084 0.084,0.19 0.146,0.314 0.039,-0.124 0.101,-0.208 0.185,-0.23 -0.051,0.087 -0.09,0.18 -0.146,0.275 0.022,0.05 0.062,0.089 0.084,0.126 -0.034,-0.037 -0.09,-0.04 -0.124,-0.04 -0.045,0.07 -0.067,0.143 -0.118,0.216 l 0.067,0.014 -0.112,0.328 c 0,-0.078 0,-0.151 -0.028,-0.218 0,0.028 0,0.036 -0.006,0.042 -0.028,0.109 -0.095,0.244 -0.162,0.35 -0.006,0 -0.011,0 -0.017,0 -0.179,0.415 -0.319,0.829 -0.247,1.185 0.331,-0.518 0.404,-0.121 0.331,0.221 l -0.852,-0.501 c -0.005,0.037 -0.028,0.098 -0.067,0.16 l 1.21,0.521 c 0.028,-0.086 -0.067,-0.263 0.034,-0.406 0.263,0.333 0.532,0.104 0.751,0.479 -0.14,-0.218 -0.14,0.031 -0.168,0.193 l 0.084,0.031 -0.134,0.059 c -0.005,0.003 -0.005,0.014 -0.011,0.017 0,-0.002 -0.005,-0.002 -0.005,-0.008 l -0.841,0.384 c -0.011,-0.047 -0.017,-0.064 -0.028,-0.115 -0.073,0.079 -0.123,0.129 -0.168,0.199 l -0.83,0.364 c -0.106,-0.196 -0.235,-0.504 -0.65,-0.594 -0.7,0.846 -0.975,0.137 -0.667,1.014 0.297,0.384 0.381,0.672 0.594,0.776 l 0.235,2.227 -2.471,-1.826 -2.499,1.826 0.331,-3.079 -0.829,-0.359 c -0.118,-0.008 -0.258,-0.062 -0.37,-0.162 l 0.022,0.19 c -0.084,-0.25 -0.639,-0.174 -0.857,-0.297 h -0.017 l -0.017,-0.04 c 0.017,0.003 0.017,0.006 0.034,0.04 l 0.353,-0.112 -1.148,-0.504 0.829,-0.359 -0.078,-0.025 c -0.045,0.182 -0.04,-0.151 0.095,0.014 -0.045,-0.151 0.118,-0.157 0.14,-0.271 0.179,0.045 0.224,0.098 0.196,0.126 l 1.647,-0.709 -0.079,-0.742 c -0.005,-0.014 -0.005,-0.02 -0.005,-0.059 0,-0.002 0,-0.002 0,-0.002 l -0.247,-2.281 -0.689,-0.073 c -0.067,0.07 -0.146,0.135 -0.308,0.14 l 0.045,-0.163 -3.917,-0.429 c 0.706,-1.16 1.642,-2.163 2.796,-2.877 -0.101,-0.129 -0.213,-0.213 -0.37,-0.224 0.358,-0.179 1.076,-1.434 1.625,-1.597 -0.006,-0.23 -0.011,-0.387 -0.028,-0.516 -3.278,0.938 -5.989,3.194 -7.559,6.158 l 0.762,0.975 c -0.062,0.135 -0.129,0.252 -0.202,0.3 0.274,0.171 0.561,0.367 0.639,0.482 -0.347,-0.101 -0.532,-0.266 -0.7,-0.423 -0.314,0.171 -0.684,-0.005 -0.998,0.146 0.006,-0.146 0.011,-0.305 0.022,-0.473 l -0.011,-0.028 c -0.605,1.457 -0.941,3.054 -0.947,4.735 0.146,0.131 0.252,0.247 0.616,0.389 l -0.039,-0.134 c 0.521,0.599 2.516,0.745 2.448,1.115 0.432,0.073 0.488,-0.031 0.073,-0.168 1.036,0.207 0.683,0.199 1.176,0.457 -0.476,-0.216 -0.336,0.076 -0.504,0.154 -0.796,0.053 -2.236,-0.911 -3.76,-1.451 0.174,6.712 5.642,12.105 12.416,12.105 3.194,0 6.085,-1.213 8.31,-3.208 -0.303,-0.082 -0.801,-0.524 -1.154,0.039 -0.403,-1.252 -1.406,-0.748 -1.687,-2.42 l -0.902,2.286 c -0.504,-0.734 -1.356,-0.857 -1.849,-1.608 -0.751,0.919 -1.025,-0.014 -1.535,-0.028 l 0.442,-0.476 c -0.403,0.224 -0.028,-1.028 -0.605,-0.146 -0.095,0.146 -0.067,0.484 -0.022,0.636 0.005,0.003 0.011,0.003 0.011,0.008 0.011,0.098 0,0.067 -0.011,-0.008 -0.196,-0.179 -0.392,-0.28 -0.532,-0.403 l 0.073,-0.168 c -0.095,-0.017 -0.157,-0.002 -0.208,0.017 -0.034,-0.053 -0.05,-0.124 -0.062,-0.196 0.124,-0.005 0.247,-0.014 0.364,-0.02 l 0.471,-1.042 c -0.106,-0.045 -0.269,-0.135 -0.235,0.131 l -0.118,-0.305 c 0.292,0.151 0.269,-0.112 0.459,-0.174 l -0.157,-0.095 c -0.011,-0.104 0.218,-0.146 0.364,-0.258 l 1.048,-2.409 5.569,1.289 c 0.118,0.227 0.252,0.432 0.465,0.541 l -0.011,-0.098 c 0.095,0.034 0.263,0.011 0.207,0.266 -0.202,0.838 -0.599,0.151 -1.02,0.358 l 0.067,0.3 c -0.18,-0.516 -0.611,0.157 -0.723,-0.431 0.645,-0.504 -0.118,-0.796 -0.185,-1.174 -0.129,0.014 -0.241,0.271 -0.342,0.501 -0.062,-0.062 -0.112,-0.112 -0.179,-0.151 -0.359,0.367 -0.768,0.711 -1.199,1.025 0.084,0.252 0.095,0.555 -0.202,0.756 0.174,0.518 0.734,1.092 1.546,0.479 l -0.028,1.543 c 0.756,-0.353 1.311,0.664 2.073,0.846 0.011,0.171 0.017,0.303 0.011,0.392 0.403,-0.389 0.773,-0.773 1.138,-1.227 -0.375,-0.591 -1.205,-0.852 -1.294,-0.952 l 0.118,0.025 0.028,-1.361 0.185,0.076 c 0.482,-0.387 -0.196,-0.168 0.067,-0.723 1.165,-0.031 0.583,1.323 1.328,1.97 0.073,-0.166 0.129,-0.235 0.022,-0.378 0.106,0.14 0.224,0.219 0.319,0.294 0.796,-1.258 1.412,-2.665 1.709,-4.171 -0.022,0.045 -0.073,0.062 -0.09,0.089 0,-0.078 0.056,-0.095 0.095,-0.112 0.168,-0.827 0.258,-1.675 0.258,-2.536 0,-0.031 0,-0.039 0,-0.047 l -0.297,-0.079 z m -5.883,-4.309 c -0.319,0 -0.493,0.089 -0.527,-0.28 0.353,-0.552 0.443,-0.263 0.527,0.28 z m -2.651,0.067 c 0.062,0.163 0.319,0.076 0.247,0.375 -0.19,0.137 -0.185,-0.165 -0.291,-0.263 l 0.044,-0.112 z m 0.97,0.88 c -0.051,-0.35 -0.314,-0.193 -0.387,-0.381 0.101,0.028 0.062,-0.14 0.067,-0.208 0.18,-0.045 -0.011,0.42 0.247,0.333 l 0.006,-0.05 c 0.073,-0.275 0.179,-0.067 0.258,-0.16 -0.258,0.161 0.055,0.284 -0.191,0.466 z m -8.791,-1.033 0.011,-0.168 c 0.364,0.171 0.292,-0.011 0.465,0.277 l 0.358,-0.16 c -0.011,-0.104 -0.342,-0.054 -0.179,-0.124 l 0.829,0.202 -0.073,-0.224 0.398,0.588 c -0.588,0.115 -1.289,-0.154 -1.911,-0.364 l 0.102,-0.027 z m -4.555,2.364 c 0,-0.75 0.118,-1.454 0.303,-2.168 -0.213,-0.039 -0.403,-0.098 -0.566,-0.134 l 0.129,0.283 -0.717,-0.316 c 0.028,-0.132 0.123,-0.202 0.196,-0.294 -0.073,-0.009 -0.095,0.008 -0.067,0.039 l -0.229,-0.213 c 0.117,0.045 0.263,0.081 0.364,0.045 0.011,-0.039 0.017,-0.106 0.017,-0.193 l 0.067,0.112 0.493,0.302 0.067,-0.221 c 0.028,0.129 0.146,0.229 0.336,0.322 0.112,-0.395 0.274,-0.765 0.437,-1.135 l 2.23,3.057 c 0.19,-0.02 0.319,-0.022 0.415,0.168 l 0.325,-0.168 0.319,0.26 c -0.067,0.193 -0.504,0.092 -0.728,0.182 l 0.313,0.415 -0.745,1.009 c 0.202,0.101 0.381,0.179 0.426,0.252 -0.045,0.017 -0.286,0.048 -0.269,0.151 l 0.824,0.112 c -0.387,0.112 -0.829,-0.005 -1.261,-0.109 l -1.664,2.266 c -0.022,-0.034 -0.05,-0.067 -0.067,-0.104 -0.011,-0.003 -0.017,-0.003 -0.022,-0.008 l 0.017,0.005 c -0.59,-1.183 -0.943,-2.5 -0.943,-3.917 z m 0.818,7.166 c -0.695,-0.286 -1.378,-0.549 -2.023,-0.706 -0.196,-0.387 0.292,-0.35 0.443,-0.63 0.358,0.616 1.193,0.616 2.095,0.633 l -0.515,0.703 z m 5.659,6.189 c -0.331,0.154 -0.846,-0.42 -0.997,-0.185 -0.437,-0.166 0.163,-1.328 0.42,-1.056 -0.347,0.622 0.101,0.588 0.488,0.471 0.146,-0.229 0.034,-0.348 0.005,-0.653 0.532,0.224 0.101,0.859 0.084,1.423 z m -0.678,-3.668 0.263,-0.358 -0.146,0.594 c -0.117,0.053 -0.117,-0.129 -0.117,-0.236 z m 0.734,-0.366 -0.213,0.277 0.331,-1.087 c -0.415,-0.112 -1.02,-0.132 -1.306,-0.488 -0.134,-0.168 -0.129,-0.428 -0.286,-0.58 -0.123,-0.121 -0.319,-0.115 -0.431,-0.261 -0.163,0.076 -0.359,0.166 -0.533,0.202 0.017,-0.313 -0.056,-0.392 -0.308,-0.541 -0.196,-0.115 0.941,-0.373 0.986,-0.653 -0.303,-0.014 -0.471,0.025 -0.711,-0.151 -0.168,-0.121 -0.516,-0.378 -0.695,-0.426 -0.308,-0.081 -1.917,-0.205 -2.219,-0.331 l 5.076,-0.566 1.776,4.042 c -0.386,-0.039 -0.768,-0.098 -1.132,-0.188 -0.145,0.327 -0.313,0.65 -0.335,0.751 z m 2.577,0.347 c 1.109,0.135 0.034,1.499 0.28,2.32 l -1.709,-0.37 -0.448,0.888 -0.224,-0.672 0.348,0.417 0.415,-2.14 c 0.017,0.431 0.639,0.089 0.902,0.412 l 0.436,-0.855 z m 1.507,-4.827 0.135,-0.205 c -0.079,-0.048 -0.185,-0.171 -0.331,-0.132 -0.168,0.552 -0.443,0.124 -0.818,0.208 0.062,-0.076 -0.017,-0.199 -0.022,-0.328 l -0.257,0.129 c -0.314,-0.249 -0.746,-0.658 -1.003,-0.717 l 0.252,-0.037 c -0.101,-0.146 -0.263,-0.292 -0.42,-0.252 0.006,-0.465 0.286,0.014 0.454,-0.302 0.067,0.392 0.319,-0.106 0.213,0.263 0.174,0.241 0.274,-0.062 0.415,-0.199 -0.056,0.165 -0.129,0.442 -0.292,0.527 l 0.482,0.322 c -0.095,-0.118 0.106,-0.207 0.006,-0.347 0.325,0.106 0.263,0.336 0.711,0.232 0.005,-0.031 -0.022,-0.031 -0.028,-0.048 0.398,0.258 0.835,0.513 1.143,0.734 -0.298,-0.075 -0.399,0.113 -0.64,0.152 z m 1.182,-1.258 c -0.257,-0.054 0.028,-0.375 -0.213,-0.375 l 0.292,-0.182 -0.022,0.325 c 0.348,0.171 0.19,-0.062 0.583,-0.059 -0.141,0.395 -0.427,-0.009 -0.64,0.291 z m 6.909,-1.236 c 0,0 0,0 -0.005,0 l 0.05,0.124 -0.168,0.02 c -0.415,0.535 0.202,0.65 -0.309,1.336 -0.493,0.386 -0.062,-0.504 -0.118,-0.746 0.011,-0.086 0.011,-0.171 0.022,-0.235 -0.039,-0.26 -0.336,-0.092 -0.14,-0.409 0.033,-0.305 -0.084,-0.339 0.033,-0.112 l 0.062,-0.599 c 0,0 0.213,-0.687 0.891,-1.015 l -0.387,0.322 c -0.101,0.776 1.037,0.252 0.65,1.286 -0.155,-0.179 -0.357,0.001 -0.581,0.028 z m 0.516,0.003 c 0.465,-0.274 0.375,0.389 0.515,0.569 -0.258,-0.056 -0.308,-0.384 -0.515,-0.569 z m 0.717,-1.773 c -0.011,-0.35 -0.286,-0.235 -0.454,-0.179 0.19,-0.681 0.594,0.034 0.672,-0.179 0.028,0.215 -0.207,0.056 -0.218,0.358 z m -10.214,-3.522 c 0.039,-0.064 0.095,-0.084 0.129,-0.098 l 0.672,-0.496 c -0.017,-0.566 -0.202,-0.23 -0.527,-0.35 l 0.325,-0.241 c 0.118,-0.325 -0.168,-0.647 -0.375,-0.062 0.073,-0.798 0.493,-0.263 0.728,-0.538 0.079,-0.143 0.096,-0.238 0.146,-0.344 l -1.491,-3.362 c 0.18,-0.056 0.336,-0.143 0.477,-0.252 1.221,0.14 2.364,0.519 3.384,1.101 -0.084,-0.163 -0.219,-0.3 -0.325,-0.331 l 0.415,-0.316 c 0.112,-0.771 -0.644,0.143 -0.011,-0.659 -0.252,0.723 0.566,-0.207 0.19,0.639 0.006,0.008 0.045,0.008 0.056,0.014 0.163,-0.092 0.269,-0.235 0.331,-0.513 -0.089,-0.022 -0.118,-0.263 -0.134,-0.448 -0.084,-0.047 -0.168,-0.076 -0.252,-0.126 -0.033,0.059 -0.084,0.098 -0.123,0.188 0.022,-0.045 0.045,-0.118 0.095,-0.193 -0.269,-0.104 -0.543,-0.238 -0.813,-0.331 -0.039,0.073 -0.095,0.143 -0.168,0.188 -0.073,-0.045 -0.151,-0.176 -0.208,-0.3 -0.605,-0.176 -1.232,-0.3 -1.877,-0.384 -0.123,-0.728 -0.734,-1.294 -1.518,-1.294 -0.824,0 -1.485,0.65 -1.53,1.465 -0.011,0 -0.022,-0.002 -0.034,-0.002 -0.213,0.07 -0.207,-0.028 -0.168,-0.166 -0.056,0 -0.084,0.034 -0.135,0.039 0.073,0.098 0.14,0.19 0.208,0.275 -0.202,-0.009 -0.442,0.165 -0.543,0.249 0.499,-0.076 -0.079,0.905 0.577,0.695 0,0 0.079,-0.163 0.067,-0.26 l 0.257,0.294 c 0.011,0 0.017,0 0.028,0.003 0.034,-0.062 0.028,-0.093 0.039,-0.14 0.039,0.05 0.062,0.109 0.101,0.154 -0.045,-0.005 -0.09,-0.011 -0.14,-0.014 0,0.005 0,0.014 -0.011,0.02 l -0.017,-0.022 c -0.409,-0.034 -0.885,0.031 -1.3,0.426 -0.005,0.022 0,0.031 0,0.048 0.521,-0.154 1.076,-0.255 1.642,-0.311 0.096,0.076 0.191,0.148 0.297,0.202 l -1.967,4.465 2.499,1.827 1.004,-0.739 z m 2.577,-6.084 -0.112,0.258 c -0.157,-0.064 0.084,-0.322 -0.056,-0.344 l 0.168,0.086 z m -2.219,0.056 c 0.011,0.062 -0.039,0.216 0.062,0.202 -0.095,0.028 -0.112,-0.028 -0.129,-0.104 0.028,-0.031 0.045,-0.065 0.067,-0.098 z m -2.841,-0.297 -0.005,-0.048 c 0.056,-0.022 0.118,-0.022 0.174,-0.036 0.022,0.05 0.044,0.092 0.062,0.137 l -0.231,-0.053 z m 1.177,3.067 -0.208,-0.202 c 0.18,-0.316 0.292,-0.07 0.448,-0.154 0.101,0.101 0.42,0.047 0.314,0.35 -0.09,0.039 -0.151,0.174 -0.229,0.148 l -0.084,-0.244 c -0.09,-0.071 -0.18,0.013 -0.241,0.102 z m 33.601,10.554 1.255,-2.188 -0.14,2.501 2.543,0.54 -2.49,0.623 0.339,2.6 -1.435,-2.195 -2.294,1.149 1.578,-2.065 -1.734,-1.809 2.378,0.844 z m -1.328,18.918 -3.278,-2.507 4.026,0.763 1.423,-4.005 0.474,4.17 4.286,0.01 -3.866,1.854 1.373,3.97 -3.012,-3.005 -3.303,2.422 1.877,-3.672 z"
         id="path329" />
      <path
         d="m 161.547,305.214 -4.225,-0.975 c -1.07,2.86 -3.076,4.351 -3.748,4.544 -0.801,0.241 -2.695,0.804 -4.802,3.76 l -3.054,4.283 c 0,0 -16.798,-12.097 -41.737,-9.875 -23.135,2.056 -30.295,6.261 -30.295,6.261 0,0 46.763,-11.803 72.234,9.584 5.945,-8.609 7.491,-8.993 8.203,-9.192 2.365,-0.722 6.511,-2.585 7.424,-8.39 z"
         id="path331" />
      <path
         d="m 260.378,257.984 c 9.951,8.091 6.914,20.762 5.833,23.838 -1.014,2.891 -2.286,5.595 -3.804,8.051 -2.863,4.695 -9.161,13.946 -25.74,19.729 0,0 -3.95,5.905 -6.729,9.23 24.452,-8.536 32.128,-20.476 35.254,-25.412 2.784,-4.376 11.654,-24.163 -4.814,-35.436 z"
         id="path333" />
      <path
         d="M 50.345,306.172 C 39.43,297.874 37.761,281.821 45.397,264.34 c -7.754,2.429 -13.256,7.152 -13.256,7.152 l 1.58,-3.115 c 1.765,-3.494 4.88,-7.693 9.144,-11.615 -8.562,6.379 -13.604,16.143 -13.604,16.143 l -3.138,6.345 5.67,-4.157 2.857,-2.087 c 0.062,-0.028 3.614,-3.025 8.371,-5.144 -1.339,2.507 -11.996,28.416 6.382,46.326 11.458,-9.78 33.954,-18.451 60.462,-20.4 -26.026,-1.595 -51.94,8.784 -59.52,12.384 z"
         id="path335" />
      <path
         d="m 200.354,246.444 c 4.482,0.112 10.001,2.303 10.001,2.303 0,0 -12.596,1.718 -13.554,10.214 4.981,-6.651 19.05,-8.188 19.05,-8.188 0,0 -7.295,-4.833 -15.005,-5.102 -5.194,-0.185 -9.738,2.062 -13.134,5.74 1.794,-1.462 5.907,-5.084 12.642,-4.967 z"
         id="path337" />
      <path
         d="m 163.211,246.369 c 5.003,0 10.875,-1.829 10.875,-1.829 l 0.292,0.765 c 0.09,0.274 2.185,6.827 -10.08,12.354 0.605,0.549 1.199,1.225 1.731,1.841 0.051,0.036 0.079,0.084 0.129,0.115 2.354,-2.076 4.443,-3.109 6.376,-3.196 5.373,-5.054 3.833,-9.845 3.743,-10.105 l -0.263,-0.804 -0.667,-1.675 c 0,0 -4.656,1.751 -10.679,2.25"
         id="path339" />
      <path
         d="m 128.59,238.516 v -0.563 c 0.342,-8.584 6.057,-15.991 14.159,-18.325 1.49,-1.224 3.39,-1.899 5.368,-1.899 2.056,0 3.95,0.689 5.446,1.97 8.253,2.485 13.979,10.256 13.979,19.072 0,2.513 -0.454,4.981 -1.367,7.312 l -2.964,0.286 c 1.608,-2.723 2.448,-5.807 2.448,-8.964 0,-8.024 -5.317,-15.011 -12.965,-17.092 -1.238,-1.176 -2.902,-1.771 -4.539,-1.771 -1.636,0 -3.255,0.572 -4.493,1.726 -7.749,2.017 -13.139,9.018 -13.139,17.137 0,0.854 0.067,1.717 0.185,2.597 l -2.118,-1.486 z"
         id="path341" />
      <path
         d="m 130.708,240.001 -4.505,-2.225 -2.908,4.093 c -2.561,3.65 -4.045,3.734 -4.841,3.981 -0.672,0.21 -3.294,0.308 -4.247,2.6 l -0.627,1.438 c -0.079,-1.39 1.137,-3.947 3.491,-4.631 0.689,-0.199 2.146,-0.661 3.944,-3.188 l 2.958,-4.208 0.997,-1.39 4.124,2.045"
         id="path343" />
      <polygon
         points="249.792,251.896 250.651,257.581 247.315,252.852 242.057,255.282 245.634,250.783 241.591,246.397 247.077,248.536 249.887,243.214 249.668,249.228 255.493,250.117 "
         id="polygon345" />
      <polygon
         points="106.405,248.77 107.041,252.57 104.75,249.439 101.259,251.126 103.604,248.071 100.844,245.178 104.545,246.549 106.369,242.952 106.291,246.985 110.201,247.516 "
         id="polygon347" />
      <polygon
         points="235.154,245.146 237.313,248.253 233.966,246.429 231.576,249.389 232.38,245.695 228.716,244.282 232.576,243.95 232.697,239.991 234.308,243.606 238.005,242.442 "
         id="polygon349" />
      <polygon
         points="223.816,256.258 223.281,260.955 221.642,256.486 216.952,257.289 220.757,254.486 218.485,250.141 222.382,253.011 225.749,249.389 224.29,254.116 228.716,256.066 "
         id="polygon351" />
      <polygon
         points="235.154,245.146 237.313,248.253 233.966,246.429 231.576,249.389 232.38,245.695 228.716,244.282 232.576,243.95 232.697,239.991 234.308,243.606 238.005,242.442 "
         id="polygon353" />
    </g>
  </g>
</svg>
