<?xml version="1.0" encoding="UTF-8" standalone="no"?>
<!-- Created with Inkscape (http://www.inkscape.org/) -->

<svg
   xmlns:dc="http://purl.org/dc/elements/1.1/"
   xmlns:cc="http://creativecommons.org/ns#"
   xmlns:rdf="http://www.w3.org/1999/02/22-rdf-syntax-ns#"
   xmlns:svg="http://www.w3.org/2000/svg"
   xmlns="http://www.w3.org/2000/svg"
   xmlns:xlink="http://www.w3.org/1999/xlink"
   xmlns:sodipodi="http://sodipodi.sourceforge.net/DTD/sodipodi-0.dtd"
   xmlns:inkscape="http://www.inkscape.org/namespaces/inkscape"
   id="svg1"
   sodipodi:version="0.32"
   inkscape:version="0.48.2 r9819"
   width="331.79669"
   height="332.14032"
   sodipodi:docname="Kombination4.svg"
   version="1.1">
  <metadata
     id="metadata20" />
  <defs
     id="defs3">
    <linearGradient
       id="linearGradient1085">
      <stop
         style="stop-color:#00009f;stop-opacity:1.0000000;"
         offset="0.0000000"
         id="stop1086" />
      <stop
         style="stop-color:#0000ff;stop-opacity:1.0000000;"
         offset="1.0000000"
         id="stop1087" />
    </linearGradient>
    <radialGradient
       xlink:href="#linearGradient1085"
       id="radialGradient1088"
       cx="1.7995006"
       cy="-0.033503532"
       r="2.1367373"
       fx="1.7995006"
       fy="-0.033503532" />
    <radialGradient
       xlink:href="#linearGradient1085"
       id="radialGradient1089"
       cx="-1.8538072"
       cy="-0.028270273"
       r="2.1367373"
       fx="-1.8538072"
       fy="-0.028270273" />
    <radialGradient
       xlink:href="#linearGradient1085"
       id="radialGradient1090"
       cx="-0.34090281"
       cy="-1.884181"
       r="2.1367373"
       fx="-0.34090281"
       fy="-1.884181"
       gradientTransform="scale(0.751916,1.329935)" />
    <radialGradient
       xlink:href="#linearGradient1085"
       id="radialGradient1091"
       cx="-0.33888963"
       cy="0.86286521"
       r="2.1367373"
       fx="-0.33888963"
       fy="0.86286521"
       gradientTransform="scale(0.751916,1.329935)" />
    <radialGradient
       xlink:href="#linearGradient1085"
       id="radialGradient1092"
       cx="0.86051458"
       cy="-0.022911092"
       r="2.1367371"
       fx="0.86051458"
       fy="-0.022911092" />
    <radialGradient
       xlink:href="#linearGradient1085"
       id="radialGradient1093"
       cx="-2.7927938"
       cy="-0.031800985"
       r="2.1367373"
       fx="-2.7927938"
       fy="-0.031800985" />
    <radialGradient
       xlink:href="#linearGradient1085"
       id="radialGradient1094"
       cx="-0.34090281"
       cy="-1.1746118"
       r="2.1367373"
       fx="-0.34090281"
       fy="-1.1746118"
       gradientTransform="scale(0.751916,1.329935)" />
    <radialGradient
       xlink:href="#linearGradient1085"
       id="radialGradient1095"
       cx="-0.33623907"
       cy="1.5691054"
       r="2.1367371"
       fx="-0.33623907"
       fy="1.5691054"
       gradientTransform="scale(0.751916,1.329935)" />
    <radialGradient
       xlink:href="#linearGradient1085"
       id="radialGradient1096"
       cx="198.80725"
       cy="131.93388"
       r="242.1655"
       fx="198.80725"
       fy="131.93388"
       gradientTransform="scale(0.99952789,1.0004723)"
       gradientUnits="userSpaceOnUse" />
  </defs>
  <sodipodi:namedview
     id="base"
     pagecolor="#ffffff"
     bordercolor="#666666"
     borderopacity="1.0"
     inkscape:pageopacity="0.0"
     inkscape:pageshadow="2"
     inkscape:zoom="1.22"
     inkscape:cx="195.87184"
     inkscape:cy="120.30632"
     inkscape:window-width="1320"
     inkscape:window-height="820"
     showgrid="true"
     inkscape:window-x="29"
     inkscape:window-y="24"
     fit-margin-top="0"
     fit-margin-left="0"
     fit-margin-right="0"
     fit-margin-bottom="0"
     inkscape:window-maximized="0"
     inkscape:current-layer="svg1"
     units="mm" />
  <path
     inkscape:connector-curvature="0"
     sodipodi:nodetypes="cccccccccccccccccccccccccccccccccccccccccccc"
     id="path1188"
     d="m 125.5625,6.2965422 c -15.19944,0.55954 -32.248629,5.6532998 -41.343749,16.5624998 -13.229261,28.18773 18.907709,15.17291 22.687499,34.6875 3.77979,19.51457 -18.906249,20.59377 -18.906249,20.59377 l 0,0 -81.750001,0 0.125,80.937498 c 0,0 1.07917,22.686 20.59375,18.9062 15.8556,-3.0711 10.23276,-24.878 22.6875,-25.8437 2.87417,-0.2229 6.7148,0.6757 12,3.1562 10.9092,9.0951 16.00296,26.1443 16.5625,41.3438 0.20656,5.6109 -0.2833,10.8879 -1.25,15.5 -0.0248,0.2047 -0.0673,0.4201 -0.0937,0.625 -1.69391,13.1144 -6.7618,26.4178 -15.96875,34.0937 -28.18774,13.2293 -15.17291,-18.9077 -34.6875,-22.6875 -14.2182,-2.7539 -18.61045,8.4784 -19.96875,14.8125 l 0,86.9063 c 0,0 82.093761,-0.7813 82.093751,-0.7813 0,0 22.686029,-1.0792 18.906249,-20.5937 -3.77979,-19.5146 -35.88551,-6.4998 -22.656249,-34.6875 9.09512,-10.9092 26.113059,-16.003 41.312499,-16.5625 5.61095,-0.2066 10.88796,0.2833 15.5,1.25 0.20469,0.025 0.42018,0.067 0.625,0.094 13.11441,1.6939 26.44906,6.7618 34.125,15.9687 13.22927,28.1878 -18.90771,15.1729 -22.6875,34.6875 -3.77979,19.5146 18.90625,20.5938 18.90625,20.5938 l 81.1875,0.031 0,-86.0938 c 1.38641,-6.3521 5.80273,-17.4565 19.9375,-14.7187 19.51458,3.7798 6.49976,35.9167 34.6875,22.6875 9.20694,-7.676 14.27484,-21.0106 15.96875,-34.125 0.0265,-0.2048 0.0689,-0.3891 0.0937,-0.5938 0.96669,-4.612 1.45656,-9.889 1.25,-15.5 -0.55955,-15.1994 -5.6533,-32.2486 -16.5625,-41.3437 -28.18774,-13.2293 -15.17291,18.9077 -34.6875,22.6875 -19.51459,3.7798 -20.59375,-18.9063 -20.59375,-18.9063 l -0.0937,-81.843698 -86.15625,0 c -6.40564,-1.4819 -16.96428,-5.9918 -14.2813,-19.84367 3.77978,-19.51459 35.88552,-6.49976 22.65625,-34.6875 -7.67595,-9.20695 -20.97934,-14.2748398 -34.09375,-15.9687498 -0.20483,-0.0265 -0.42031,-0.0689 -0.625,-0.0937 -4.61205,-0.9667 -9.88905,-1.45656 -15.5,-1.25 z"
     style="fill:#000000;stroke:#000000;stroke-width:12.50000000000000000;stroke-linejoin:round;stroke-dasharray:none;fill-opacity:1.0" />
  <metadata
     id="metadata22">
    <rdf:RDF>
      <cc:Work
         rdf:about="">
        <dc:title></dc:title>
        <dc:rights>
          <cc:Agent>
            <dc:title>Nicu Buculei</dc:title>
          </cc:Agent>
        </dc:rights>
        <dc:type
           rdf:resource="http://purl.org/dc/dcmitype/StillImage" />
        <cc:license
           rdf:resource="http://web.resource.org/cc/PublicDomain" />
        <dc:format>image/svg+xml</dc:format>
      </cc:Work>
      <cc:License
         rdf:about="http://web.resource.org/cc/PublicDomain">
        <cc:permits
           rdf:resource="http://web.resource.org/cc/Reproduction" />
        <cc:permits
           rdf:resource="http://web.resource.org/cc/Distribution" />
        <cc:permits
           rdf:resource="http://web.resource.org/cc/DerivativeWorks" />
      </cc:License>
    </rdf:RDF>
  </metadata>
</svg>
