<?xml version="1.0" encoding="UTF-8" standalone="no"?>
<svg
   xmlns:dc="http://purl.org/dc/elements/1.1/"
   xmlns:cc="http://creativecommons.org/ns#"
   xmlns:rdf="http://www.w3.org/1999/02/22-rdf-syntax-ns#"
   xmlns:svg="http://www.w3.org/2000/svg"
   xmlns="http://www.w3.org/2000/svg"
   xmlns:sodipodi="http://sodipodi.sourceforge.net/DTD/sodipodi-0.dtd"
   xmlns:inkscape="http://www.inkscape.org/namespaces/inkscape"
   version="1.1"
   width="310"
   height="310"
   id="svg2"
   inkscape:version="0.47 r22583"
   sodipodi:docname="qrcode_161555.svg">
  <metadata
     id="metadata10">
    <rdf:RDF>
      <cc:Work
         rdf:about="">
        <dc:format>image/svg+xml</dc:format>
        <dc:type
           rdf:resource="http://purl.org/dc/dcmitype/StillImage" />
        <dc:title></dc:title>
      </cc:Work>
    </rdf:RDF>
  </metadata>
  <defs
     id="defs8">
    <inkscape:perspective
       sodipodi:type="inkscape:persp3d"
       inkscape:vp_x="0 : 155 : 1"
       inkscape:vp_y="0 : 1000 : 0"
       inkscape:vp_z="310 : 155 : 1"
       inkscape:persp3d-origin="155 : 103.33333 : 1"
       id="perspective12" />
  </defs>
  <sodipodi:namedview
     pagecolor="#ffffff"
     bordercolor="#666666"
     borderopacity="1"
     objecttolerance="10"
     gridtolerance="10"
     guidetolerance="10"
     inkscape:pageopacity="0"
     inkscape:pageshadow="2"
     inkscape:window-width="640"
     inkscape:window-height="484"
     id="namedview6"
     showgrid="false"
     inkscape:zoom="0.76129032"
     inkscape:cx="155"
     inkscape:cy="155"
     inkscape:window-x="0"
     inkscape:window-y="0"
     inkscape:window-maximized="0"
     inkscape:current-layer="svg2" />
  <path
     style="fill:#000000; stroke:none;"
     d="M10 10L10 80L80 80L80 10L10 10M90 10L90 30L100 30L100 40L90 40L90 50L100 50L100 70L90 70L90 90L60 90L60 100L50 100L50 90L30 90L30 100L50 100L50 110L20 110L20 90L10 90L10 110L20 110L20 130L10 130L10 140L20 140L20 150L10 150L10 170L20 170L20 180L30 180L30 170L20 170L20 160L30 160L30 150L40 150L40 170L50 170L50 180L40 180L40 190L30 190L30 210L20 210L20 220L40 220L40 210L60 210L60 200L90 200L90 210L100 210L100 220L90 220L90 250L110 250L110 260L90 260L90 280L100 280L100 290L90 290L90 300L110 300L110 280L100 280L100 270L110 270L110 260L120 260L120 250L110 250L110 240L130 240L130 260L140 260L140 240L150 240L150 230L170 230L170 250L150 250L150 270L140 270L140 290L160 290L160 300L170 300L170 290L180 290L180 300L190 300L190 290L180 290L180 270L190 270L190 280L200 280L200 270L230 270L230 260L250 260L250 270L240 270L240 290L250 290L250 270L270 270L270 280L260 280L260 300L270 300L270 280L280 280L280 300L290 300L290 280L300 280L300 270L290 270L290 260L300 260L300 240L290 240L290 230L300 230L300 220L280 220L280 190L290 190L290 160L300 160L300 140L280 140L280 130L270 130L270 120L290 120L290 130L300 130L300 120L290 120L290 110L300 110L300 90L280 90L280 100L290 100L290 110L270 110L270 120L260 120L260 140L280 140L280 150L250 150L250 160L240 160L240 140L220 140L220 150L230 150L230 160L220 160L220 180L210 180L210 140L190 140L190 130L210 130L210 120L200 120L200 110L220 110L220 130L240 130L240 120L230 120L230 110L260 110L260 100L270 100L270 90L260 90L260 100L240 100L240 90L230 90L230 100L220 100L220 90L190 90L190 80L200 80L200 70L210 70L210 80L220 80L220 60L210 60L210 50L190 50L190 40L200 40L200 20L210 20L210 30L220 30L220 10L190 10L190 20L180 20L180 10L160 10L160 20L150 20L150 30L140 30L140 40L120 40L120 50L110 50L110 20L130 20L130 10L90 10M230 10L230 80L300 80L300 10L230 10M70 20L70 70L20 70L20 20L70 20M180 20L180 30L190 30L190 40L170 40L170 50L180 50L180 70L190 70L190 60L200 60L200 70L190 70L190 80L180 80L180 90L170 90L170 100L160 100L160 110L150 110L150 120L140 120L140 130L170 130L170 110L180 110L180 100L190 100L190 110L180 110L180 120L190 120L190 130L170 130L170 140L190 140L190 150L200 150L200 180L210 180L210 190L220 190L220 180L230 180L230 170L240 170L240 180L260 180L260 170L250 170L250 160L280 160L280 180L270 180L270 190L260 190L260 200L270 200L270 210L230 210L230 190L220 190L220 200L200 200L200 210L190 210L190 180L180 180L180 200L160 200L160 220L150 220L150 210L130 210L130 200L140 200L140 190L130 190L130 180L120 180L120 200L110 200L110 190L100 190L100 200L90 200L90 190L100 190L100 180L120 180L120 170L110 170L110 160L130 160L130 180L140 180L140 170L150 170L150 160L140 160L140 150L150 150L150 140L140 140L140 130L130 130L130 120L120 120L120 130L100 130L100 140L80 140L80 150L100 150L100 170L90 170L90 160L80 160L80 170L70 170L70 160L80 160L80 150L70 150L70 140L80 140L80 130L70 130L70 120L100 120L100 110L60 110L60 120L50 120L50 150L40 150L40 140L20 140L20 130L30 130L30 120L50 120L50 110L60 110L60 100L90 100L90 90L100 90L100 110L110 110L110 90L120 90L120 70L110 70L110 80L100 80L100 70L110 70L110 60L130 60L130 50L140 50L140 40L170 40L170 20L180 20M290 20L290 70L240 70L240 20L290 20M30 30L30 60L60 60L60 30L30 30M250 30L250 60L280 60L280 30L250 30M140 50L140 60L150 60L150 80L140 80L140 70L130 70L130 80L140 80L140 100L160 100L160 60L150 60L150 50L140 50M170 70L170 80L180 80L180 70L170 70M120 100L120 110L110 110L110 120L120 120L120 110L130 110L130 120L140 120L140 110L130 110L130 100L120 100M130 140L130 150L110 150L110 140L130 140M150 150L150 160L160 160L160 170L170 170L170 160L160 160L160 150L150 150M60 160L60 170L50 170L50 160L60 160M60 180L60 200L50 200L50 180L60 180M80 180L80 190L70 190L70 180L80 180M140 180L140 190L150 190L150 180L140 180M10 190L10 200L20 200L20 190L10 190M240 190L240 200L250 200L250 190L240 190M70 210L70 220L80 220L80 210L70 210M120 210L120 220L110 220L110 230L100 230L100 220L110 220L110 210L120 210M180 210L180 220L190 220L190 230L170 230L170 210L180 210M140 220L140 230L130 230L130 220L140 220M250 220L250 250L220 250L220 220L250 220M10 230L10 300L80 300L80 230L10 230M230 230L230 240L240 240L240 230L230 230M280 230L280 250L290 250L290 260L280 260L280 250L260 250L260 240L270 240L270 230L280 230M70 240L70 290L20 290L20 240L70 240M210 240L210 260L200 260L200 270L190 270L190 250L180 250L180 260L170 260L170 270L160 270L160 280L170 280L170 290L160 290L160 280L150 280L150 270L160 270L160 260L170 260L170 250L180 250L180 240L210 240M30 250L30 280L60 280L60 250L30 250M120 270L120 290L130 290L130 270L120 270M290 270L290 280L280 280L280 270L290 270M210 280L210 290L200 290L200 300L220 300L220 280L210 280z"
     id="path4" />
</svg>
