<?xml version="1.0" encoding="UTF-8" standalone="no"?>
<!-- Created with Inkscape (http://www.inkscape.org/) -->

<svg
   xmlns:dc="http://purl.org/dc/elements/1.1/"
   xmlns:cc="http://creativecommons.org/ns#"
   xmlns:rdf="http://www.w3.org/1999/02/22-rdf-syntax-ns#"
   xmlns:svg="http://www.w3.org/2000/svg"
   xmlns="http://www.w3.org/2000/svg"
   xmlns:sodipodi="http://sodipodi.sourceforge.net/DTD/sodipodi-0.dtd"
   xmlns:inkscape="http://www.inkscape.org/namespaces/inkscape"
   width="400.0004"
   height="400.0004"
   id="svg2"
   version="1.1"
   inkscape:version="0.47 r22583"
   sodipodi:docname="Icon.5_34.svg">
  <defs
     id="defs4">
    <inkscape:perspective
       sodipodi:type="inkscape:persp3d"
       inkscape:vp_x="-965.88144 : 609.08931 : 1"
       inkscape:vp_y="0 : 3135.0012 : 0"
       inkscape:vp_z="1252.5634 : 779.2487 : 1"
       inkscape:persp3d-origin="-252.04156 : 266.63723 : 1"
       id="perspective10" />
    <inkscape:perspective
       id="perspective3409"
       inkscape:persp3d-origin="0.5 : 0.33333333 : 1"
       inkscape:vp_z="1 : 0.5 : 1"
       inkscape:vp_y="0 : 1000 : 0"
       inkscape:vp_x="0 : 0.5 : 1"
       sodipodi:type="inkscape:persp3d" />
    <inkscape:perspective
       id="perspective3437"
       inkscape:persp3d-origin="0.5 : 0.33333333 : 1"
       inkscape:vp_z="1 : 0.5 : 1"
       inkscape:vp_y="0 : 1000 : 0"
       inkscape:vp_x="0 : 0.5 : 1"
       sodipodi:type="inkscape:persp3d" />
    <inkscape:perspective
       id="perspective3465"
       inkscape:persp3d-origin="0.5 : 0.33333333 : 1"
       inkscape:vp_z="1 : 0.5 : 1"
       inkscape:vp_y="0 : 1000 : 0"
       inkscape:vp_x="0 : 0.5 : 1"
       sodipodi:type="inkscape:persp3d" />
    <inkscape:perspective
       id="perspective4306"
       inkscape:persp3d-origin="0.5 : 0.33333333 : 1"
       inkscape:vp_z="1 : 0.5 : 1"
       inkscape:vp_y="0 : 1000 : 0"
       inkscape:vp_x="0 : 0.5 : 1"
       sodipodi:type="inkscape:persp3d" />
    <inkscape:perspective
       id="perspective4333"
       inkscape:persp3d-origin="0.5 : 0.33333333 : 1"
       inkscape:vp_z="1 : 0.5 : 1"
       inkscape:vp_y="0 : 1000 : 0"
       inkscape:vp_x="0 : 0.5 : 1"
       sodipodi:type="inkscape:persp3d" />
    <inkscape:perspective
       id="perspective4358"
       inkscape:persp3d-origin="0.5 : 0.33333333 : 1"
       inkscape:vp_z="1 : 0.5 : 1"
       inkscape:vp_y="0 : 1000 : 0"
       inkscape:vp_x="0 : 0.5 : 1"
       sodipodi:type="inkscape:persp3d" />
    <inkscape:perspective
       id="perspective4380"
       inkscape:persp3d-origin="0.5 : 0.33333333 : 1"
       inkscape:vp_z="1 : 0.5 : 1"
       inkscape:vp_y="0 : 1000 : 0"
       inkscape:vp_x="0 : 0.5 : 1"
       sodipodi:type="inkscape:persp3d" />
    <inkscape:perspective
       id="perspective4402"
       inkscape:persp3d-origin="0.5 : 0.33333333 : 1"
       inkscape:vp_z="1 : 0.5 : 1"
       inkscape:vp_y="0 : 1000 : 0"
       inkscape:vp_x="0 : 0.5 : 1"
       sodipodi:type="inkscape:persp3d" />
    <inkscape:perspective
       id="perspective4424"
       inkscape:persp3d-origin="0.5 : 0.33333333 : 1"
       inkscape:vp_z="1 : 0.5 : 1"
       inkscape:vp_y="0 : 1000 : 0"
       inkscape:vp_x="0 : 0.5 : 1"
       sodipodi:type="inkscape:persp3d" />
    <inkscape:perspective
       id="perspective4466"
       inkscape:persp3d-origin="0.5 : 0.33333333 : 1"
       inkscape:vp_z="1 : 0.5 : 1"
       inkscape:vp_y="0 : 1000 : 0"
       inkscape:vp_x="0 : 0.5 : 1"
       sodipodi:type="inkscape:persp3d" />
    <inkscape:perspective
       id="perspective4664"
       inkscape:persp3d-origin="0.5 : 0.33333333 : 1"
       inkscape:vp_z="1 : 0.5 : 1"
       inkscape:vp_y="0 : 1000 : 0"
       inkscape:vp_x="0 : 0.5 : 1"
       sodipodi:type="inkscape:persp3d" />
    <inkscape:perspective
       id="perspective4678"
       inkscape:persp3d-origin="0.5 : 0.33333333 : 1"
       inkscape:vp_z="1 : 0.5 : 1"
       inkscape:vp_y="0 : 1000 : 0"
       inkscape:vp_x="0 : 0.5 : 1"
       sodipodi:type="inkscape:persp3d" />
    <inkscape:perspective
       id="perspective4702"
       inkscape:persp3d-origin="0.5 : 0.33333333 : 1"
       inkscape:vp_z="1 : 0.5 : 1"
       inkscape:vp_y="0 : 1000 : 0"
       inkscape:vp_x="0 : 0.5 : 1"
       sodipodi:type="inkscape:persp3d" />
    <inkscape:perspective
       id="perspective4727"
       inkscape:persp3d-origin="0.5 : 0.33333333 : 1"
       inkscape:vp_z="1 : 0.5 : 1"
       inkscape:vp_y="0 : 1000 : 0"
       inkscape:vp_x="0 : 0.5 : 1"
       sodipodi:type="inkscape:persp3d" />
    <inkscape:perspective
       id="perspective4749"
       inkscape:persp3d-origin="0.5 : 0.33333333 : 1"
       inkscape:vp_z="1 : 0.5 : 1"
       inkscape:vp_y="0 : 1000 : 0"
       inkscape:vp_x="0 : 0.5 : 1"
       sodipodi:type="inkscape:persp3d" />
    <inkscape:perspective
       id="perspective4771"
       inkscape:persp3d-origin="0.5 : 0.33333333 : 1"
       inkscape:vp_z="1 : 0.5 : 1"
       inkscape:vp_y="0 : 1000 : 0"
       inkscape:vp_x="0 : 0.5 : 1"
       sodipodi:type="inkscape:persp3d" />
    <inkscape:perspective
       id="perspective5029"
       inkscape:persp3d-origin="0.5 : 0.33333333 : 1"
       inkscape:vp_z="1 : 0.5 : 1"
       inkscape:vp_y="0 : 1000 : 0"
       inkscape:vp_x="0 : 0.5 : 1"
       sodipodi:type="inkscape:persp3d" />
    <inkscape:perspective
       id="perspective5045"
       inkscape:persp3d-origin="0.5 : 0.33333333 : 1"
       inkscape:vp_z="1 : 0.5 : 1"
       inkscape:vp_y="0 : 1000 : 0"
       inkscape:vp_x="0 : 0.5 : 1"
       sodipodi:type="inkscape:persp3d" />
    <inkscape:perspective
       id="perspective5045-0"
       inkscape:persp3d-origin="0.5 : 0.33333333 : 1"
       inkscape:vp_z="1 : 0.5 : 1"
       inkscape:vp_y="0 : 1000 : 0"
       inkscape:vp_x="0 : 0.5 : 1"
       sodipodi:type="inkscape:persp3d" />
    <inkscape:perspective
       id="perspective5267"
       inkscape:persp3d-origin="0.5 : 0.33333333 : 1"
       inkscape:vp_z="1 : 0.5 : 1"
       inkscape:vp_y="0 : 1000 : 0"
       inkscape:vp_x="0 : 0.5 : 1"
       sodipodi:type="inkscape:persp3d" />
    <inkscape:perspective
       id="perspective5283"
       inkscape:persp3d-origin="0.5 : 0.33333333 : 1"
       inkscape:vp_z="1 : 0.5 : 1"
       inkscape:vp_y="0 : 1000 : 0"
       inkscape:vp_x="0 : 0.5 : 1"
       sodipodi:type="inkscape:persp3d" />
    <inkscape:perspective
       id="perspective5424"
       inkscape:persp3d-origin="0.5 : 0.33333333 : 1"
       inkscape:vp_z="1 : 0.5 : 1"
       inkscape:vp_y="0 : 1000 : 0"
       inkscape:vp_x="0 : 0.5 : 1"
       sodipodi:type="inkscape:persp3d" />
    <inkscape:perspective
       id="perspective5442"
       inkscape:persp3d-origin="0.5 : 0.33333333 : 1"
       inkscape:vp_z="1 : 0.5 : 1"
       inkscape:vp_y="0 : 1000 : 0"
       inkscape:vp_x="0 : 0.5 : 1"
       sodipodi:type="inkscape:persp3d" />
    <inkscape:perspective
       id="perspective5464"
       inkscape:persp3d-origin="0.5 : 0.33333333 : 1"
       inkscape:vp_z="1 : 0.5 : 1"
       inkscape:vp_y="0 : 1000 : 0"
       inkscape:vp_x="0 : 0.5 : 1"
       sodipodi:type="inkscape:persp3d" />
    <inkscape:perspective
       id="perspective5604"
       inkscape:persp3d-origin="0.5 : 0.33333333 : 1"
       inkscape:vp_z="1 : 0.5 : 1"
       inkscape:vp_y="0 : 1000 : 0"
       inkscape:vp_x="0 : 0.5 : 1"
       sodipodi:type="inkscape:persp3d" />
    <inkscape:perspective
       id="perspective5620"
       inkscape:persp3d-origin="0.5 : 0.33333333 : 1"
       inkscape:vp_z="1 : 0.5 : 1"
       inkscape:vp_y="0 : 1000 : 0"
       inkscape:vp_x="0 : 0.5 : 1"
       sodipodi:type="inkscape:persp3d" />
    <inkscape:perspective
       id="perspective5642"
       inkscape:persp3d-origin="0.5 : 0.33333333 : 1"
       inkscape:vp_z="1 : 0.5 : 1"
       inkscape:vp_y="0 : 1000 : 0"
       inkscape:vp_x="0 : 0.5 : 1"
       sodipodi:type="inkscape:persp3d" />
    <inkscape:perspective
       id="perspective5938"
       inkscape:persp3d-origin="0.5 : 0.33333333 : 1"
       inkscape:vp_z="1 : 0.5 : 1"
       inkscape:vp_y="0 : 1000 : 0"
       inkscape:vp_x="0 : 0.5 : 1"
       sodipodi:type="inkscape:persp3d" />
    <inkscape:perspective
       id="perspective5956"
       inkscape:persp3d-origin="0.5 : 0.33333333 : 1"
       inkscape:vp_z="1 : 0.5 : 1"
       inkscape:vp_y="0 : 1000 : 0"
       inkscape:vp_x="0 : 0.5 : 1"
       sodipodi:type="inkscape:persp3d" />
  </defs>
  <sodipodi:namedview
     id="base"
     pagecolor="#ffffff"
     bordercolor="#666666"
     borderopacity="1.0"
     inkscape:pageopacity="0.0"
     inkscape:pageshadow="2"
     inkscape:zoom="1.24"
     inkscape:cx="48.000385"
     inkscape:cy="157.20324"
     inkscape:document-units="px"
     inkscape:current-layer="layer1"
     showgrid="false"
     inkscape:window-width="1920"
     inkscape:window-height="1071"
     inkscape:window-x="0"
     inkscape:window-y="0"
     inkscape:window-maximized="0" />
  <metadata
     id="metadata7">
    <rdf:RDF>
      <cc:Work
         rdf:about="">
        <dc:format>image/svg+xml</dc:format>
        <dc:type
           rdf:resource="http://purl.org/dc/dcmitype/StillImage" />
        <dc:title></dc:title>
      </cc:Work>
    </rdf:RDF>
  </metadata>
  <g
     inkscape:label="Ebene 1"
     inkscape:groupmode="layer"
     id="layer1"
     transform="translate(-336.68402,-645.6778)">
    <rect
       style="fill:#888888;fill-opacity:1;stroke:none"
       id="rect3421-9"
       width="400.0004"
       height="400.0004"
       x="336.68402"
       y="645.6778"
       inkscape:export-filename="/Users/jens/Documents/Rollenspiel/Wizardry/Sonstiges Material/789_Lorc_RPG_icons/Icon.5_58.edited.png"
       inkscape:export-xdpi="89.999908"
       inkscape:export-ydpi="89.999908" />
    <path
       style="fill:#000000"
       d="m 349.68614,658.6815 0,186.34374 c 0,102.48334 0.28814,186.63186 0.65625,186.99996 0.36811,0.3682 84.40561,0.5452 186.75,0.4063 l 186.09375,-0.25 0.25,-186.75001 0.25,-186.74999 -187,0 -187,0 z"
       id="path3415-3"
       inkscape:export-filename="/Users/jens/Documents/Rollenspiel/Wizardry/Sonstiges Material/789_Lorc_RPG_icons/Icon.5_58.edited.png"
       inkscape:export-xdpi="89.999908"
       inkscape:export-ydpi="89.999908" />
    <path
       style="fill:#ffffff"
       d="M 199.375 27.375 C 195.08889 27.394584 190.74097 28.368045 186.78125 30.3125 C 172.67674 37.23865 162 58.37029 162 79.375 C 162 101.08554 172.65299 122.16361 187.3125 129.46875 C 199.15823 135.37172 213.69476 131.37694 223.1875 119.59375 C 225.79694 116.3547 228.78802 111.84714 229.84375 109.59375 C 243.54539 80.34832 234.79531 42.4681 211.5 30.1875 C 207.87724 28.27769 203.66111 27.355416 199.375 27.375 z M 118.96875 30.21875 L 113.21875 33.28125 C 110.06906 34.95972 107.36538 36.39585 107.21875 36.5 C 106.99506 36.65889 148.57447 116.90373 150.46875 119.96875 C 150.88075 120.63536 152.12602 120.46907 154 119.5 L 156.875 118.03125 L 154.28125 111.75 C 151.21292 104.28214 148.05515 92.60203 148.03125 88.71875 C 148.01531 86.12646 143.34077 76.54482 125.875 43.34375 L 118.96875 30.21875 z M 279.4375 31.40625 C 279.3042 31.42892 279.21724 31.464076 279.15625 31.53125 C 278.67895 32.05682 272.0968 44.32612 264.5625 58.78125 C 254.1833 78.69461 250.6389 86.44889 249.9375 90.78125 C 248.7321 98.22613 246.8218 105.24414 244.1875 111.71875 C 242.2008 116.6018 242.16925 116.99795 243.78125 117.9375 C 244.72835 118.48949 246.2382 118.95205 247.125 118.96875 C 248.2449 118.98987 255.1917 106.60073 269.875 78.40625 C 281.5007 56.08247 291 37.41344 291 36.90625 C 291 35.485319 281.437 31.066195 279.4375 31.40625 z M 316.375 59.0625 L 286.78125 91.78125 L 257.21875 124.5 L 261.8125 129.25 C 264.3527 131.86769 266.7283 133.89269 267.0625 133.75 C 268.1899 133.26866 326.00895 68.81729 325.90625 68.15625 C 325.85025 67.79613 323.68775 65.60264 321.09375 63.28125 L 316.375 59.0625 z M 82.5 59.28125 L 77.65625 63.375 C 74.98927 65.63555 72.73925 67.76605 72.65625 68.09375 C 72.57323 68.42146 86.12352 83.78539 102.78125 102.25 L 133.0625 135.84375 L 137.65625 130.9375 L 142.21875 126.03125 L 139.375 122.5625 C 137.79904 120.64838 124.35 105.63405 109.5 89.1875 L 82.5 59.28125 z M 53.6875 98 C 53.4685 98 51.63307 100.47562 49.625 103.5 L 45.96875 109 L 55.71875 115.25 C 61.07865 118.68812 77.86718 129.45803 93 139.1875 C 108.13281 148.91697 120.87267 156.80108 121.3125 156.6875 C 122.24964 156.44551 127.49718 145.12756 126.90625 144.625 C 125.86729 143.7414 54.03606 98 53.6875 98 z M 344.28125 98.4375 C 343.58475 98.70478 327.3677 108.91186 308.25 121.125 C 289.1322 133.33814 273.39625 143.40175 273.28125 143.46875 C 273.16625 143.53574 274.1647 145.8046 275.5 148.53125 C 276.8354 151.2579 277.95175 154.0625 277.96875 154.75 C 277.98595 155.4375 278.2882 156 278.625 156 C 279.132 156 350.656 110.50373 351.875 109.40625 C 352.7887 108.58363 345.45355 97.98766 344.28125 98.4375 z M 234 128.71875 L 229.25 133.1875 C 220.44519 141.42337 209.59789 146 198.90625 146 C 189.32528 146 176.19382 140.28703 169.5 133.1875 C 167.85178 131.43939 165.57164 130 164.4375 130 C 161.12479 130 150.87399 136.62517 146.28125 141.71875 C 132.87781 156.58384 126.19858 182.71846 124.40625 227.4375 L 123.6875 245 L 133.34375 245 L 143 245 L 142.9375 242.25 C 142.89978 240.7375 142.33728 229.75705 141.6875 217.84375 L 140.5 196.1875 L 146.84375 195.5 C 150.32451 195.12739 153.33223 194.98848 153.53125 195.1875 C 153.73027 195.38652 154.59007 209.04436 155.46875 225.53125 C 156.34742 242.01814 158.85221 281.36132 161.03125 312.96875 C 163.2103 344.57613 165 370.78875 165 371.21875 C 165 371.64885 171.3 372 179 372 L 193 372 L 193 324 L 193 276 L 199.5 276 L 206 276 L 206 324 L 206 372 L 220.90625 372 L 235.84375 372 L 236.4375 365.75 C 237.17141 357.9278 244.15485 238.53291 245.65625 208.15625 L 246.3125 194.8125 L 252.90625 195.5 C 256.53355 195.8842 259.5817 196.2776 259.6875 196.375 C 259.901 196.57151 258.34445 226.39254 257.53125 237.75 L 257.03125 245 L 266 245 L 275 245 L 275 239.25 C 274.9744 228.40085 273.02495 194.49841 271.96875 186.5 C 267.97585 156.26319 256.7097 137.30047 238.75 130.53125 L 234 128.71875 z M 35.46875 143.375 C 34.49218 143.45572 33.767654 145.0151 32.625 149.125 C 31.68592 152.50268 31.18905 155.53241 31.53125 155.875 C 31.87345 156.21758 50.47671 161.96957 72.84375 168.65625 C 95.2108 175.34294 113.9233 180.71434 114.4375 180.59375 C 115.68322 180.30162 118.26226 168.82793 117.28125 167.9375 C 116.66346 167.37675 94.14165 160.60206 35.90625 143.4375 C 35.754993 143.39292 35.60826 143.36347 35.46875 143.375 z M 362.84375 143.625 C 361.52665 143.73273 282.7104 166.94583 282.3125 167.34375 C 282.1337 167.52251 283.0078 171.97538 284.5 178.59375 C 284.9561 180.61682 286.5862 180.23118 326 168.5 C 348.5736 161.78115 367.23185 156.08061 367.46875 155.84375 C 368.42305 154.88936 364.12055 143.52057 362.84375 143.625 z M 27 192 L 27 199 L 27 206 L 69.375 206 L 111.75 206 L 112.375 202.875 C 112.71875 201.15625 113 198.00625 113 195.875 L 113 192 L 70 192 L 27 192 z M 285.75 192 L 286.375 195.125 C 286.7188 196.84375 287 199.99375 287 202.125 L 287 206 L 329.5 206 L 372 206 L 372 199 L 372 192 L 328.875 192 L 285.75 192 z M 288 218.1875 L 288 225.34375 L 288 232.5 L 325.25 243.625 C 345.7351 249.75129 362.8933 254.69305 363.375 254.59375 C 364.5686 254.3476 368.11305 242.6785 367.21875 241.9375 C 366.82575 241.61182 355.25 238.04022 341.5 234 C 327.75 229.95978 310.0875 224.76314 302.25 222.4375 L 288 218.1875 z M 110.5 218.21875 L 71.3125 229.84375 C 49.76506 236.24749 31.86805 241.78242 31.53125 242.125 C 31.19444 242.46759 31.68592 245.49732 32.625 248.875 C 33.93095 253.57225 34.69613 254.91935 35.90625 254.5625 C 90.02458 238.60345 109.66699 232.67264 110.3125 232.0625 C 110.752 231.64707 110.97702 228.34922 110.8125 224.75 L 110.5 218.21875 z M 288.5 247.96875 L 288.1875 253.4375 C 287.892 258.85012 287.8617 258.88272 284.5 259.1875 C 281.3867 259.46977 283.7222 261.16514 312.8125 279.75 C 330.2419 290.88505 344.73505 299.998 345.03125 300 C 345.77475 300.00614 352.3573 289.03485 351.875 288.59375 C 351.6611 288.39812 337.325 279.16788 320 268.09375 L 288.5 247.96875 z M 109.5 248.3125 L 87.46875 262.40625 C 75.35815 270.15602 61.07586 279.31188 55.71875 282.75 L 45.96875 289 L 49.625 294.5 C 51.63307 297.52438 53.44424 300 53.65625 300 C 53.86826 300 68.29788 290.8875 85.71875 279.75 C 115.88817 260.4621 117.22487 259.47624 113.9375 259 C 110.60337 258.51698 110.48302 258.32385 110 253.40625 L 109.5 248.3125 z M 144 259 L 139.75 259.0625 L 135.5 259.15625 L 103.78125 294.3125 L 72.0625 329.5 L 77.1875 334.125 L 82.28125 338.75 L 95.96875 323.625 C 103.4994 315.3057 117.40659 299.95 126.84375 289.5 L 144 270.5 L 144 264.75 L 144 259 z M 256 259 L 256 265.53125 L 256 272.03125 L 286.1875 305.5 L 316.375 338.9375 L 321.09375 334.71875 C 323.68465 332.39905 325.6242 329.9643 325.4375 329.3125 C 325.2508 328.6606 311.0498 312.57316 293.875 293.5625 C 264.7434 261.31714 262.44965 259 259.34375 259 L 256 259 z M 145.4375 287.5 L 142.34375 293.5 C 140.62917 296.8 131.92553 313.43015 123.03125 330.46875 C 114.13696 347.50721 107.24058 361.5874 107.6875 361.75 C 108.13442 361.9126 110.75 363.30045 113.5 364.84375 C 116.25 366.38715 118.78193 367.41325 119.125 367.09375 C 119.46807 366.77425 125.88057 354.74623 133.375 340.375 L 147 314.25 L 146.90625 306.875 C 146.84655 302.8213 146.49086 296.8 146.125 293.5 L 145.4375 287.5 z M 254.90625 292 C 254.57855 291.99719 254.00655 297.65138 253.65625 304.5625 L 253.03125 317.125 L 263.875 337.8125 C 269.8433 349.18876 275.6916 360.4125 276.875 362.75 C 278.0583 365.0875 279.5054 367 280.0625 367 C 282.4774 367 291.1035 361.80965 290.8125 360.53125 C 290.3099 358.32315 255.56375 292.006 254.90625 292 z "
       transform="translate(336.68402,645.6778)"
       id="path5946" />
  </g>
</svg>
