<?xml version="1.0" encoding="UTF-8" standalone="no"?>
<!-- Created with Inkscape (http://www.inkscape.org/) -->

<svg
   xmlns:dc="http://purl.org/dc/elements/1.1/"
   xmlns:cc="http://creativecommons.org/ns#"
   xmlns:rdf="http://www.w3.org/1999/02/22-rdf-syntax-ns#"
   xmlns:svg="http://www.w3.org/2000/svg"
   xmlns="http://www.w3.org/2000/svg"
   xmlns:sodipodi="http://sodipodi.sourceforge.net/DTD/sodipodi-0.dtd"
   xmlns:inkscape="http://www.inkscape.org/namespaces/inkscape"
   width="400.0004"
   height="400.0004"
   id="svg2"
   version="1.1"
   inkscape:version="0.47 r22583"
   sodipodi:docname="Icon.4_25.svg">
  <defs
     id="defs4">
    <inkscape:perspective
       sodipodi:type="inkscape:persp3d"
       inkscape:vp_x="-965.88144 : 609.08931 : 1"
       inkscape:vp_y="0 : 3135.0012 : 0"
       inkscape:vp_z="1252.5634 : 779.2487 : 1"
       inkscape:persp3d-origin="-252.04156 : 266.63723 : 1"
       id="perspective10" />
    <inkscape:perspective
       id="perspective3409"
       inkscape:persp3d-origin="0.5 : 0.33333333 : 1"
       inkscape:vp_z="1 : 0.5 : 1"
       inkscape:vp_y="0 : 1000 : 0"
       inkscape:vp_x="0 : 0.5 : 1"
       sodipodi:type="inkscape:persp3d" />
    <inkscape:perspective
       id="perspective3437"
       inkscape:persp3d-origin="0.5 : 0.33333333 : 1"
       inkscape:vp_z="1 : 0.5 : 1"
       inkscape:vp_y="0 : 1000 : 0"
       inkscape:vp_x="0 : 0.5 : 1"
       sodipodi:type="inkscape:persp3d" />
    <inkscape:perspective
       id="perspective3465"
       inkscape:persp3d-origin="0.5 : 0.33333333 : 1"
       inkscape:vp_z="1 : 0.5 : 1"
       inkscape:vp_y="0 : 1000 : 0"
       inkscape:vp_x="0 : 0.5 : 1"
       sodipodi:type="inkscape:persp3d" />
    <inkscape:perspective
       id="perspective4306"
       inkscape:persp3d-origin="0.5 : 0.33333333 : 1"
       inkscape:vp_z="1 : 0.5 : 1"
       inkscape:vp_y="0 : 1000 : 0"
       inkscape:vp_x="0 : 0.5 : 1"
       sodipodi:type="inkscape:persp3d" />
    <inkscape:perspective
       id="perspective4333"
       inkscape:persp3d-origin="0.5 : 0.33333333 : 1"
       inkscape:vp_z="1 : 0.5 : 1"
       inkscape:vp_y="0 : 1000 : 0"
       inkscape:vp_x="0 : 0.5 : 1"
       sodipodi:type="inkscape:persp3d" />
    <inkscape:perspective
       id="perspective4358"
       inkscape:persp3d-origin="0.5 : 0.33333333 : 1"
       inkscape:vp_z="1 : 0.5 : 1"
       inkscape:vp_y="0 : 1000 : 0"
       inkscape:vp_x="0 : 0.5 : 1"
       sodipodi:type="inkscape:persp3d" />
    <inkscape:perspective
       id="perspective4380"
       inkscape:persp3d-origin="0.5 : 0.33333333 : 1"
       inkscape:vp_z="1 : 0.5 : 1"
       inkscape:vp_y="0 : 1000 : 0"
       inkscape:vp_x="0 : 0.5 : 1"
       sodipodi:type="inkscape:persp3d" />
    <inkscape:perspective
       id="perspective4402"
       inkscape:persp3d-origin="0.5 : 0.33333333 : 1"
       inkscape:vp_z="1 : 0.5 : 1"
       inkscape:vp_y="0 : 1000 : 0"
       inkscape:vp_x="0 : 0.5 : 1"
       sodipodi:type="inkscape:persp3d" />
    <inkscape:perspective
       id="perspective4424"
       inkscape:persp3d-origin="0.5 : 0.33333333 : 1"
       inkscape:vp_z="1 : 0.5 : 1"
       inkscape:vp_y="0 : 1000 : 0"
       inkscape:vp_x="0 : 0.5 : 1"
       sodipodi:type="inkscape:persp3d" />
    <inkscape:perspective
       id="perspective4466"
       inkscape:persp3d-origin="0.5 : 0.33333333 : 1"
       inkscape:vp_z="1 : 0.5 : 1"
       inkscape:vp_y="0 : 1000 : 0"
       inkscape:vp_x="0 : 0.5 : 1"
       sodipodi:type="inkscape:persp3d" />
    <inkscape:perspective
       id="perspective4664"
       inkscape:persp3d-origin="0.5 : 0.33333333 : 1"
       inkscape:vp_z="1 : 0.5 : 1"
       inkscape:vp_y="0 : 1000 : 0"
       inkscape:vp_x="0 : 0.5 : 1"
       sodipodi:type="inkscape:persp3d" />
    <inkscape:perspective
       id="perspective4678"
       inkscape:persp3d-origin="0.5 : 0.33333333 : 1"
       inkscape:vp_z="1 : 0.5 : 1"
       inkscape:vp_y="0 : 1000 : 0"
       inkscape:vp_x="0 : 0.5 : 1"
       sodipodi:type="inkscape:persp3d" />
    <inkscape:perspective
       id="perspective4702"
       inkscape:persp3d-origin="0.5 : 0.33333333 : 1"
       inkscape:vp_z="1 : 0.5 : 1"
       inkscape:vp_y="0 : 1000 : 0"
       inkscape:vp_x="0 : 0.5 : 1"
       sodipodi:type="inkscape:persp3d" />
    <inkscape:perspective
       id="perspective4727"
       inkscape:persp3d-origin="0.5 : 0.33333333 : 1"
       inkscape:vp_z="1 : 0.5 : 1"
       inkscape:vp_y="0 : 1000 : 0"
       inkscape:vp_x="0 : 0.5 : 1"
       sodipodi:type="inkscape:persp3d" />
    <inkscape:perspective
       id="perspective4749"
       inkscape:persp3d-origin="0.5 : 0.33333333 : 1"
       inkscape:vp_z="1 : 0.5 : 1"
       inkscape:vp_y="0 : 1000 : 0"
       inkscape:vp_x="0 : 0.5 : 1"
       sodipodi:type="inkscape:persp3d" />
    <inkscape:perspective
       id="perspective4771"
       inkscape:persp3d-origin="0.5 : 0.33333333 : 1"
       inkscape:vp_z="1 : 0.5 : 1"
       inkscape:vp_y="0 : 1000 : 0"
       inkscape:vp_x="0 : 0.5 : 1"
       sodipodi:type="inkscape:persp3d" />
    <inkscape:perspective
       id="perspective5029"
       inkscape:persp3d-origin="0.5 : 0.33333333 : 1"
       inkscape:vp_z="1 : 0.5 : 1"
       inkscape:vp_y="0 : 1000 : 0"
       inkscape:vp_x="0 : 0.5 : 1"
       sodipodi:type="inkscape:persp3d" />
    <inkscape:perspective
       id="perspective5045"
       inkscape:persp3d-origin="0.5 : 0.33333333 : 1"
       inkscape:vp_z="1 : 0.5 : 1"
       inkscape:vp_y="0 : 1000 : 0"
       inkscape:vp_x="0 : 0.5 : 1"
       sodipodi:type="inkscape:persp3d" />
    <inkscape:perspective
       id="perspective5045-0"
       inkscape:persp3d-origin="0.5 : 0.33333333 : 1"
       inkscape:vp_z="1 : 0.5 : 1"
       inkscape:vp_y="0 : 1000 : 0"
       inkscape:vp_x="0 : 0.5 : 1"
       sodipodi:type="inkscape:persp3d" />
    <inkscape:perspective
       id="perspective5267"
       inkscape:persp3d-origin="0.5 : 0.33333333 : 1"
       inkscape:vp_z="1 : 0.5 : 1"
       inkscape:vp_y="0 : 1000 : 0"
       inkscape:vp_x="0 : 0.5 : 1"
       sodipodi:type="inkscape:persp3d" />
    <inkscape:perspective
       id="perspective5283"
       inkscape:persp3d-origin="0.5 : 0.33333333 : 1"
       inkscape:vp_z="1 : 0.5 : 1"
       inkscape:vp_y="0 : 1000 : 0"
       inkscape:vp_x="0 : 0.5 : 1"
       sodipodi:type="inkscape:persp3d" />
    <inkscape:perspective
       id="perspective5424"
       inkscape:persp3d-origin="0.5 : 0.33333333 : 1"
       inkscape:vp_z="1 : 0.5 : 1"
       inkscape:vp_y="0 : 1000 : 0"
       inkscape:vp_x="0 : 0.5 : 1"
       sodipodi:type="inkscape:persp3d" />
    <inkscape:perspective
       id="perspective5442"
       inkscape:persp3d-origin="0.5 : 0.33333333 : 1"
       inkscape:vp_z="1 : 0.5 : 1"
       inkscape:vp_y="0 : 1000 : 0"
       inkscape:vp_x="0 : 0.5 : 1"
       sodipodi:type="inkscape:persp3d" />
    <inkscape:perspective
       id="perspective5464"
       inkscape:persp3d-origin="0.5 : 0.33333333 : 1"
       inkscape:vp_z="1 : 0.5 : 1"
       inkscape:vp_y="0 : 1000 : 0"
       inkscape:vp_x="0 : 0.5 : 1"
       sodipodi:type="inkscape:persp3d" />
    <inkscape:perspective
       id="perspective5604"
       inkscape:persp3d-origin="0.5 : 0.33333333 : 1"
       inkscape:vp_z="1 : 0.5 : 1"
       inkscape:vp_y="0 : 1000 : 0"
       inkscape:vp_x="0 : 0.5 : 1"
       sodipodi:type="inkscape:persp3d" />
    <inkscape:perspective
       id="perspective5620"
       inkscape:persp3d-origin="0.5 : 0.33333333 : 1"
       inkscape:vp_z="1 : 0.5 : 1"
       inkscape:vp_y="0 : 1000 : 0"
       inkscape:vp_x="0 : 0.5 : 1"
       sodipodi:type="inkscape:persp3d" />
    <inkscape:perspective
       id="perspective5642"
       inkscape:persp3d-origin="0.5 : 0.33333333 : 1"
       inkscape:vp_z="1 : 0.5 : 1"
       inkscape:vp_y="0 : 1000 : 0"
       inkscape:vp_x="0 : 0.5 : 1"
       sodipodi:type="inkscape:persp3d" />
    <inkscape:perspective
       id="perspective5938"
       inkscape:persp3d-origin="0.5 : 0.33333333 : 1"
       inkscape:vp_z="1 : 0.5 : 1"
       inkscape:vp_y="0 : 1000 : 0"
       inkscape:vp_x="0 : 0.5 : 1"
       sodipodi:type="inkscape:persp3d" />
    <inkscape:perspective
       id="perspective5956"
       inkscape:persp3d-origin="0.5 : 0.33333333 : 1"
       inkscape:vp_z="1 : 0.5 : 1"
       inkscape:vp_y="0 : 1000 : 0"
       inkscape:vp_x="0 : 0.5 : 1"
       sodipodi:type="inkscape:persp3d" />
    <inkscape:perspective
       id="perspective6078"
       inkscape:persp3d-origin="0.5 : 0.33333333 : 1"
       inkscape:vp_z="1 : 0.5 : 1"
       inkscape:vp_y="0 : 1000 : 0"
       inkscape:vp_x="0 : 0.5 : 1"
       sodipodi:type="inkscape:persp3d" />
    <inkscape:perspective
       id="perspective6094"
       inkscape:persp3d-origin="0.5 : 0.33333333 : 1"
       inkscape:vp_z="1 : 0.5 : 1"
       inkscape:vp_y="0 : 1000 : 0"
       inkscape:vp_x="0 : 0.5 : 1"
       sodipodi:type="inkscape:persp3d" />
    <inkscape:perspective
       id="perspective6234"
       inkscape:persp3d-origin="0.5 : 0.33333333 : 1"
       inkscape:vp_z="1 : 0.5 : 1"
       inkscape:vp_y="0 : 1000 : 0"
       inkscape:vp_x="0 : 0.5 : 1"
       sodipodi:type="inkscape:persp3d" />
    <inkscape:perspective
       id="perspective6250"
       inkscape:persp3d-origin="0.5 : 0.33333333 : 1"
       inkscape:vp_z="1 : 0.5 : 1"
       inkscape:vp_y="0 : 1000 : 0"
       inkscape:vp_x="0 : 0.5 : 1"
       sodipodi:type="inkscape:persp3d" />
    <inkscape:perspective
       id="perspective6372"
       inkscape:persp3d-origin="0.5 : 0.33333333 : 1"
       inkscape:vp_z="1 : 0.5 : 1"
       inkscape:vp_y="0 : 1000 : 0"
       inkscape:vp_x="0 : 0.5 : 1"
       sodipodi:type="inkscape:persp3d" />
    <inkscape:perspective
       id="perspective6388"
       inkscape:persp3d-origin="0.5 : 0.33333333 : 1"
       inkscape:vp_z="1 : 0.5 : 1"
       inkscape:vp_y="0 : 1000 : 0"
       inkscape:vp_x="0 : 0.5 : 1"
       sodipodi:type="inkscape:persp3d" />
    <inkscape:perspective
       id="perspective6528"
       inkscape:persp3d-origin="0.5 : 0.33333333 : 1"
       inkscape:vp_z="1 : 0.5 : 1"
       inkscape:vp_y="0 : 1000 : 0"
       inkscape:vp_x="0 : 0.5 : 1"
       sodipodi:type="inkscape:persp3d" />
    <inkscape:perspective
       id="perspective6544"
       inkscape:persp3d-origin="0.5 : 0.33333333 : 1"
       inkscape:vp_z="1 : 0.5 : 1"
       inkscape:vp_y="0 : 1000 : 0"
       inkscape:vp_x="0 : 0.5 : 1"
       sodipodi:type="inkscape:persp3d" />
    <inkscape:perspective
       id="perspective6684"
       inkscape:persp3d-origin="0.5 : 0.33333333 : 1"
       inkscape:vp_z="1 : 0.5 : 1"
       inkscape:vp_y="0 : 1000 : 0"
       inkscape:vp_x="0 : 0.5 : 1"
       sodipodi:type="inkscape:persp3d" />
    <inkscape:perspective
       id="perspective6700"
       inkscape:persp3d-origin="0.5 : 0.33333333 : 1"
       inkscape:vp_z="1 : 0.5 : 1"
       inkscape:vp_y="0 : 1000 : 0"
       inkscape:vp_x="0 : 0.5 : 1"
       sodipodi:type="inkscape:persp3d" />
  </defs>
  <sodipodi:namedview
     id="base"
     pagecolor="#ffffff"
     bordercolor="#666666"
     borderopacity="1.0"
     inkscape:pageopacity="0.0"
     inkscape:pageshadow="2"
     inkscape:zoom="1.24"
     inkscape:cx="48.000385"
     inkscape:cy="157.20324"
     inkscape:document-units="px"
     inkscape:current-layer="layer1"
     showgrid="false"
     inkscape:window-width="1920"
     inkscape:window-height="1071"
     inkscape:window-x="0"
     inkscape:window-y="0"
     inkscape:window-maximized="0" />
  <metadata
     id="metadata7">
    <rdf:RDF>
      <cc:Work
         rdf:about="">
        <dc:format>image/svg+xml</dc:format>
        <dc:type
           rdf:resource="http://purl.org/dc/dcmitype/StillImage" />
        <dc:title></dc:title>
      </cc:Work>
    </rdf:RDF>
  </metadata>
  <g
     inkscape:label="Ebene 1"
     inkscape:groupmode="layer"
     id="layer1"
     transform="translate(-336.68402,-645.6778)">
    <rect
       style="fill:#888888;fill-opacity:1;stroke:none"
       id="rect3421-9"
       width="400.0004"
       height="400.0004"
       x="336.68402"
       y="645.6778"
       inkscape:export-filename="/Users/jens/Documents/Rollenspiel/Wizardry/Sonstiges Material/789_Lorc_RPG_icons/Icon.5_58.edited.png"
       inkscape:export-xdpi="89.999908"
       inkscape:export-ydpi="89.999908" />
    <path
       style="fill:#000000"
       d="m 349.68614,658.6815 0,186.34374 c 0,102.48334 0.28814,186.63186 0.65625,186.99996 0.36811,0.3682 84.40561,0.5452 186.75,0.4063 l 186.09375,-0.25 0.25,-186.75001 0.25,-186.74999 -187,0 -187,0 z"
       id="path3415-3"
       inkscape:export-filename="/Users/jens/Documents/Rollenspiel/Wizardry/Sonstiges Material/789_Lorc_RPG_icons/Icon.5_58.edited.png"
       inkscape:export-xdpi="89.999908"
       inkscape:export-ydpi="89.999908" />
    <path
       style="fill:#ffffff"
       d="M 51.5 26.96875 L 39.5 27.21875 L 27.5 27.5 L 27.21875 39.40625 L 26.9375 51.34375 L 29.9375 55.09375 L 32.96875 58.84375 L 30.25 64.65625 C 27.80451 69.92324 27.55235 71.60873 27.53125 82.0625 C 27.50883 93.14384 27.60657 93.79144 30.21875 97.21875 C 31.71948 99.18777 34.57343 101.80194 36.5625 103.03125 C 42.74969 106.85514 55.64473 106.65454 65.1875 102.5625 C 66.51619 101.99274 69.72165 105.39912 80.25 118.65625 C 87.60243 127.91431 93.92257 136.04 94.3125 136.6875 C 94.70242 137.335 94.05255 140.26 92.875 143.1875 C 91.41929 146.80653 90.59066 151.57691 90.25 158.125 C 89.79454 166.8797 89.97089 168.27177 92.25 173.25 C 97.58786 184.90942 111.1481 189.73212 126.8125 185.5625 L 132.125 184.15625 L 146.9375 202.8125 C 155.08069 213.08413 165.76905 226.59703 170.6875 232.8125 L 179.625 244.09375 L 177.75 251.3125 C 175.21982 260.9843 175.79141 272.85637 179.125 279.53125 C 184.71077 290.71562 194.90656 295.65145 210.46875 294.71875 L 219.5 294.1875 L 245.5 327.1875 C 259.8 345.3418 273.88166 363.07535 276.78125 366.59375 L 282.03125 373 L 290.125 373 C 297.47883 373 298.25063 372.81585 298.75 370.90625 C 299.49539 368.05585 306.41237 353.98015 308.28125 351.53125 C 309.7312 349.63125 310.0677 349.8455 316.625 357.03125 C 320.37767 361.14355 325.31519 366.4125 327.59375 368.75 L 331.75 373 L 351.875 373 L 372 373 L 371.96875 345.75 L 371.9375 318.5 L 361.0625 309.125 L 350.15625 299.75 L 354.84375 290.90625 C 357.40981 286.03535 359.87249 282.04225 360.34375 282.03125 C 360.81501 282.02015 363.51501 283.83915 366.34375 286.09375 L 371.5 290.1875 L 371.78125 281.875 L 372.09375 273.5625 L 368.5 270.53125 L 364.875 267.5 L 366.0625 260.03125 C 371.28401 226.59514 345.42409 207.9736 310.46875 220 L 305.09375 221.84375 L 272.5 196.78125 C 247.53024 177.57071 240.04914 171.31664 240.5625 170.09375 C 242.54525 165.37063 244.12066 154.74829 243.75 148.4375 C 242.32387 124.15619 219.48294 115.07655 191.25 127.5625 L 185.6875 130.03125 L 173.59375 120.78125 C 144.535 98.56875 142.1066 96.58896 142.875 95.5625 C 144.9032 92.85315 148.01968 83.69907 149 77.5625 C 149.88848 72.00085 149.79739 69.83193 148.53125 65.625 C 145.74942 56.38201 140.04503 51.96424 130.0625 51.25 C 121.80284 50.65902 114.40645 52.60729 104.21875 58.0625 L 96.90625 61.96875 L 74.21875 44.46875 L 51.5 26.96875 z M 127.5 65 C 132.21038 65 133.16425 65.34956 134.59375 67.53125 C 136.55992 70.532 136.15909 76.38103 133.5 83.34375 C 132.52348 85.90074 131.46278 87.9671 131.125 87.9375 C 130.78722 87.90794 125.67993 84.15207 119.78125 79.5625 C 111.85241 73.39334 109.37386 70.94057 110.28125 70.1875 C 113.18049 67.78135 122.39985 65 127.5 65 z M 42.5625 70.875 L 50.21875 80.6875 C 56.59163 88.83672 57.59598 90.62277 56.1875 91.1875 C 55.2551 91.56134 52.1375 91.8988 49.25 91.9375 C 42.08993 92.03335 39.95879 89.90668 40.0625 82.75 C 40.10434 79.8625 40.68447 76.0072 41.34375 74.1875 L 42.5625 70.875 z M 108.28125 88.3125 C 108.62528 88.380425 110.79015 89.934133 114.75 92.90625 C 119.2875 96.31193 123 99.50597 123 100.03125 C 123 101.43643 123.03702 101.47915 116 95.40625 C 110.41023 90.582312 107.83893 88.225168 108.28125 88.3125 z M 134.53125 109.5 C 136.13755 109.56501 141.10521 113.10928 153.6875 122.75 C 171.69514 136.54771 172.78241 137.55998 171.28125 139.21875 C 170.40116 140.19123 169.37322 141 169 141 C 168.16656 141 133.97055 111.27949 133.90625 110.5 C 133.85249 109.84764 133.99582 109.47833 134.53125 109.5 z M 91 110 C 91.051615 109.94838 91.45697 110.25306 92.25 110.875 C 93.2125 111.62985 94 112.41735 94 112.625 C 94 113.44804 93.18136 112.91575 91.875 111.25 C 91.25306 110.45697 90.948385 110.05162 91 110 z M 93.71875 113.5 L 98.46875 118.125 C 101.08913 120.67418 103.07944 123.19179 102.875 123.71875 C 102.67056 124.24571 100.50969 122.16989 98.09375 119.09375 L 93.71875 113.5 z M 113.0625 135.5 C 114.2862 135.59909 118.13471 139.50987 127.4375 149.6875 C 139.43744 162.81592 140.69518 164.51019 139.1875 165.65625 C 138.25947 166.36168 137.18234 166.95125 136.78125 166.96875 C 135.83321 167.01009 112.76988 138.00978 112.625 136.59375 C 112.5514 135.87445 112.6546 135.46697 113.0625 135.5 z M 216.3125 136.15625 C 219.52053 136.23803 222.30838 136.63058 223.6875 137.34375 C 227.85444 139.49855 230.01948 144.51349 229.875 151.65625 C 229.61481 164.51844 230.53651 164.55063 213.1875 151.25 L 197.875 139.5 L 201.1875 138.09375 C 204.43271 136.71827 210.96578 136.01995 216.3125 136.15625 z M 184.59375 147.28125 C 185.77205 147.33366 187.19064 148.41066 190.6875 151.125 C 193.88322 153.60559 202.46354 160.21815 209.75 165.84375 L 223 176.09375 L 220.96875 180.03125 C 219.85862 182.2073 218.62007 183.98165 218.21875 183.96875 C 217.19028 183.93581 179.87715 151.30139 179.84375 150.40625 C 179.82867 150.00205 180.9496 149.00217 182.34375 148.15625 C 183.25907 147.60087 183.88677 147.2498 184.59375 147.28125 z M 104.875 152.15625 C 106.17941 151.84333 108.67487 154.59385 113.375 160.4375 C 117.59935 165.6896 121.3082 170.67442 121.625 171.5 C 122.09835 172.73351 121.13049 173 116.125 173 C 110.80612 173 109.63294 172.64378 106.78125 170.09375 C 103.67873 167.31942 103.496 166.80744 103.5 160.125 C 103.50313 155.10469 103.72405 152.43235 104.875 152.15625 z M 150.0625 175.03125 C 150.62821 175.00895 185.80833 213.26255 189.40625 217.8125 C 191.30459 220.21315 191.30026 220.26199 188.90625 224.6875 C 187.57802 227.14284 186.275 229.28877 186 229.4375 C 185.725 229.58622 176.40421 218.1749 165.28125 204.09375 L 145.0625 178.5 L 147.28125 176.78125 C 148.50421 175.83098 149.75214 175.04345 150.0625 175.03125 z M 235.125 185.78125 C 235.72797 185.93828 248.6129 195.59983 263.75 207.25 C 287.07165 225.19936 290.99608 228.59394 289.5 229.46875 C 288.52895 230.03655 285.59006 231.92757 282.96875 233.6875 L 278.1875 236.90625 L 253.5625 215.40625 L 228.96875 193.875 L 231.5 189.6875 C 232.89326 187.38107 234.52202 185.62422 235.125 185.78125 z M 330.3125 230.5 C 342.17837 230.5 346.75743 232.78521 350.5625 240.5625 C 352.60774 244.74283 353.05616 246.92165 352.8125 251.96875 L 352.5 258.21875 L 335.78125 245.375 C 324.40485 236.64372 319.39915 232.22593 320.09375 231.53125 C 320.65525 230.96969 325.25244 230.5 330.3125 230.5 z M 200.96875 231.71875 C 201.57436 231.04183 235.97432 267.7835 236.78125 269.96875 C 236.94252 270.40549 235.11705 271.907 232.71875 273.3125 C 223.74932 278.56894 224.91311 279.25599 209.15625 259.375 L 195.0625 241.59375 L 197.65625 237.03125 C 199.08972 234.53292 200.58137 232.15176 200.96875 231.71875 z M 303.4375 238.46875 C 303.60182 238.4436 303.70298 238.43895 303.78125 238.46875 C 306.15498 239.37248 347.20002 271.39822 347.71875 272.75 C 347.99955 273.48175 346.87469 276.86277 345.1875 280.28125 C 339.45111 291.90403 342.58178 293.11058 314.40625 268.46875 C 300.70264 256.48382 289.5 246.43644 289.5 246.125 C 289.5 245.05054 300.97273 238.84601 303.4375 238.46875 z M 190.5 257.75 L 199.25 268.84375 C 204.0625 274.95273 208 280.40525 208 280.96875 C 208 282.09549 207.26343 282.11804 201.84375 281.0625 C 193.34958 279.40816 189.71991 273.99467 190.21875 263.78125 L 190.5 257.75 z M 247.15625 281.5 C 247.51073 281.5 255.79274 290.275 265.5625 301 C 275.33227 311.725 287.11106 324.64985 291.75 329.71875 L 300.1875 338.9375 L 298.15625 341.75 C 297.04742 343.3072 294.36569 347.89195 292.1875 351.90625 L 288.21875 359.1875 L 277.25 345.34375 C 244.60326 304.20125 233.004 289.4501 233 289 C 232.995 288.4512 246.1172 281.5 247.15625 281.5 z "
       transform="translate(336.68402,645.6778)"
       id="path6690" />
  </g>
</svg>
