<?xml version="1.0" encoding="UTF-8" standalone="no"?>
<!-- Created with Inkscape (http://www.inkscape.org/) -->

<svg
   xmlns:dc="http://purl.org/dc/elements/1.1/"
   xmlns:cc="http://creativecommons.org/ns#"
   xmlns:rdf="http://www.w3.org/1999/02/22-rdf-syntax-ns#"
   xmlns:svg="http://www.w3.org/2000/svg"
   xmlns="http://www.w3.org/2000/svg"
   xmlns:sodipodi="http://sodipodi.sourceforge.net/DTD/sodipodi-0.dtd"
   xmlns:inkscape="http://www.inkscape.org/namespaces/inkscape"
   width="400.0004"
   height="400.0004"
   id="svg2"
   version="1.1"
   inkscape:version="0.47 r22583"
   sodipodi:docname="Icon.7_20.svg">
  <defs
     id="defs4">
    <inkscape:perspective
       sodipodi:type="inkscape:persp3d"
       inkscape:vp_x="-965.88144 : 609.08931 : 1"
       inkscape:vp_y="0 : 3135.0012 : 0"
       inkscape:vp_z="1252.5634 : 779.2487 : 1"
       inkscape:persp3d-origin="-252.04156 : 266.63723 : 1"
       id="perspective10" />
    <inkscape:perspective
       id="perspective3409"
       inkscape:persp3d-origin="0.5 : 0.33333333 : 1"
       inkscape:vp_z="1 : 0.5 : 1"
       inkscape:vp_y="0 : 1000 : 0"
       inkscape:vp_x="0 : 0.5 : 1"
       sodipodi:type="inkscape:persp3d" />
    <inkscape:perspective
       id="perspective3437"
       inkscape:persp3d-origin="0.5 : 0.33333333 : 1"
       inkscape:vp_z="1 : 0.5 : 1"
       inkscape:vp_y="0 : 1000 : 0"
       inkscape:vp_x="0 : 0.5 : 1"
       sodipodi:type="inkscape:persp3d" />
    <inkscape:perspective
       id="perspective3465"
       inkscape:persp3d-origin="0.5 : 0.33333333 : 1"
       inkscape:vp_z="1 : 0.5 : 1"
       inkscape:vp_y="0 : 1000 : 0"
       inkscape:vp_x="0 : 0.5 : 1"
       sodipodi:type="inkscape:persp3d" />
    <inkscape:perspective
       id="perspective4306"
       inkscape:persp3d-origin="0.5 : 0.33333333 : 1"
       inkscape:vp_z="1 : 0.5 : 1"
       inkscape:vp_y="0 : 1000 : 0"
       inkscape:vp_x="0 : 0.5 : 1"
       sodipodi:type="inkscape:persp3d" />
    <inkscape:perspective
       id="perspective4333"
       inkscape:persp3d-origin="0.5 : 0.33333333 : 1"
       inkscape:vp_z="1 : 0.5 : 1"
       inkscape:vp_y="0 : 1000 : 0"
       inkscape:vp_x="0 : 0.5 : 1"
       sodipodi:type="inkscape:persp3d" />
    <inkscape:perspective
       id="perspective4358"
       inkscape:persp3d-origin="0.5 : 0.33333333 : 1"
       inkscape:vp_z="1 : 0.5 : 1"
       inkscape:vp_y="0 : 1000 : 0"
       inkscape:vp_x="0 : 0.5 : 1"
       sodipodi:type="inkscape:persp3d" />
    <inkscape:perspective
       id="perspective4380"
       inkscape:persp3d-origin="0.5 : 0.33333333 : 1"
       inkscape:vp_z="1 : 0.5 : 1"
       inkscape:vp_y="0 : 1000 : 0"
       inkscape:vp_x="0 : 0.5 : 1"
       sodipodi:type="inkscape:persp3d" />
    <inkscape:perspective
       id="perspective4402"
       inkscape:persp3d-origin="0.5 : 0.33333333 : 1"
       inkscape:vp_z="1 : 0.5 : 1"
       inkscape:vp_y="0 : 1000 : 0"
       inkscape:vp_x="0 : 0.5 : 1"
       sodipodi:type="inkscape:persp3d" />
    <inkscape:perspective
       id="perspective4424"
       inkscape:persp3d-origin="0.5 : 0.33333333 : 1"
       inkscape:vp_z="1 : 0.5 : 1"
       inkscape:vp_y="0 : 1000 : 0"
       inkscape:vp_x="0 : 0.5 : 1"
       sodipodi:type="inkscape:persp3d" />
    <inkscape:perspective
       id="perspective4466"
       inkscape:persp3d-origin="0.5 : 0.33333333 : 1"
       inkscape:vp_z="1 : 0.5 : 1"
       inkscape:vp_y="0 : 1000 : 0"
       inkscape:vp_x="0 : 0.5 : 1"
       sodipodi:type="inkscape:persp3d" />
    <inkscape:perspective
       id="perspective4664"
       inkscape:persp3d-origin="0.5 : 0.33333333 : 1"
       inkscape:vp_z="1 : 0.5 : 1"
       inkscape:vp_y="0 : 1000 : 0"
       inkscape:vp_x="0 : 0.5 : 1"
       sodipodi:type="inkscape:persp3d" />
    <inkscape:perspective
       id="perspective4678"
       inkscape:persp3d-origin="0.5 : 0.33333333 : 1"
       inkscape:vp_z="1 : 0.5 : 1"
       inkscape:vp_y="0 : 1000 : 0"
       inkscape:vp_x="0 : 0.5 : 1"
       sodipodi:type="inkscape:persp3d" />
    <inkscape:perspective
       id="perspective4702"
       inkscape:persp3d-origin="0.5 : 0.33333333 : 1"
       inkscape:vp_z="1 : 0.5 : 1"
       inkscape:vp_y="0 : 1000 : 0"
       inkscape:vp_x="0 : 0.5 : 1"
       sodipodi:type="inkscape:persp3d" />
    <inkscape:perspective
       id="perspective4727"
       inkscape:persp3d-origin="0.5 : 0.33333333 : 1"
       inkscape:vp_z="1 : 0.5 : 1"
       inkscape:vp_y="0 : 1000 : 0"
       inkscape:vp_x="0 : 0.5 : 1"
       sodipodi:type="inkscape:persp3d" />
    <inkscape:perspective
       id="perspective4749"
       inkscape:persp3d-origin="0.5 : 0.33333333 : 1"
       inkscape:vp_z="1 : 0.5 : 1"
       inkscape:vp_y="0 : 1000 : 0"
       inkscape:vp_x="0 : 0.5 : 1"
       sodipodi:type="inkscape:persp3d" />
    <inkscape:perspective
       id="perspective4771"
       inkscape:persp3d-origin="0.5 : 0.33333333 : 1"
       inkscape:vp_z="1 : 0.5 : 1"
       inkscape:vp_y="0 : 1000 : 0"
       inkscape:vp_x="0 : 0.5 : 1"
       sodipodi:type="inkscape:persp3d" />
    <inkscape:perspective
       id="perspective5029"
       inkscape:persp3d-origin="0.5 : 0.33333333 : 1"
       inkscape:vp_z="1 : 0.5 : 1"
       inkscape:vp_y="0 : 1000 : 0"
       inkscape:vp_x="0 : 0.5 : 1"
       sodipodi:type="inkscape:persp3d" />
    <inkscape:perspective
       id="perspective5045"
       inkscape:persp3d-origin="0.5 : 0.33333333 : 1"
       inkscape:vp_z="1 : 0.5 : 1"
       inkscape:vp_y="0 : 1000 : 0"
       inkscape:vp_x="0 : 0.5 : 1"
       sodipodi:type="inkscape:persp3d" />
    <inkscape:perspective
       id="perspective5045-0"
       inkscape:persp3d-origin="0.5 : 0.33333333 : 1"
       inkscape:vp_z="1 : 0.5 : 1"
       inkscape:vp_y="0 : 1000 : 0"
       inkscape:vp_x="0 : 0.5 : 1"
       sodipodi:type="inkscape:persp3d" />
    <inkscape:perspective
       id="perspective5267"
       inkscape:persp3d-origin="0.5 : 0.33333333 : 1"
       inkscape:vp_z="1 : 0.5 : 1"
       inkscape:vp_y="0 : 1000 : 0"
       inkscape:vp_x="0 : 0.5 : 1"
       sodipodi:type="inkscape:persp3d" />
    <inkscape:perspective
       id="perspective5283"
       inkscape:persp3d-origin="0.5 : 0.33333333 : 1"
       inkscape:vp_z="1 : 0.5 : 1"
       inkscape:vp_y="0 : 1000 : 0"
       inkscape:vp_x="0 : 0.5 : 1"
       sodipodi:type="inkscape:persp3d" />
    <inkscape:perspective
       id="perspective5424"
       inkscape:persp3d-origin="0.5 : 0.33333333 : 1"
       inkscape:vp_z="1 : 0.5 : 1"
       inkscape:vp_y="0 : 1000 : 0"
       inkscape:vp_x="0 : 0.5 : 1"
       sodipodi:type="inkscape:persp3d" />
    <inkscape:perspective
       id="perspective5442"
       inkscape:persp3d-origin="0.5 : 0.33333333 : 1"
       inkscape:vp_z="1 : 0.5 : 1"
       inkscape:vp_y="0 : 1000 : 0"
       inkscape:vp_x="0 : 0.5 : 1"
       sodipodi:type="inkscape:persp3d" />
    <inkscape:perspective
       id="perspective5464"
       inkscape:persp3d-origin="0.5 : 0.33333333 : 1"
       inkscape:vp_z="1 : 0.5 : 1"
       inkscape:vp_y="0 : 1000 : 0"
       inkscape:vp_x="0 : 0.5 : 1"
       sodipodi:type="inkscape:persp3d" />
    <inkscape:perspective
       id="perspective5604"
       inkscape:persp3d-origin="0.5 : 0.33333333 : 1"
       inkscape:vp_z="1 : 0.5 : 1"
       inkscape:vp_y="0 : 1000 : 0"
       inkscape:vp_x="0 : 0.5 : 1"
       sodipodi:type="inkscape:persp3d" />
    <inkscape:perspective
       id="perspective5620"
       inkscape:persp3d-origin="0.5 : 0.33333333 : 1"
       inkscape:vp_z="1 : 0.5 : 1"
       inkscape:vp_y="0 : 1000 : 0"
       inkscape:vp_x="0 : 0.5 : 1"
       sodipodi:type="inkscape:persp3d" />
    <inkscape:perspective
       id="perspective5642"
       inkscape:persp3d-origin="0.5 : 0.33333333 : 1"
       inkscape:vp_z="1 : 0.5 : 1"
       inkscape:vp_y="0 : 1000 : 0"
       inkscape:vp_x="0 : 0.5 : 1"
       sodipodi:type="inkscape:persp3d" />
    <inkscape:perspective
       id="perspective5938"
       inkscape:persp3d-origin="0.5 : 0.33333333 : 1"
       inkscape:vp_z="1 : 0.5 : 1"
       inkscape:vp_y="0 : 1000 : 0"
       inkscape:vp_x="0 : 0.5 : 1"
       sodipodi:type="inkscape:persp3d" />
    <inkscape:perspective
       id="perspective5956"
       inkscape:persp3d-origin="0.5 : 0.33333333 : 1"
       inkscape:vp_z="1 : 0.5 : 1"
       inkscape:vp_y="0 : 1000 : 0"
       inkscape:vp_x="0 : 0.5 : 1"
       sodipodi:type="inkscape:persp3d" />
    <inkscape:perspective
       id="perspective6078"
       inkscape:persp3d-origin="0.5 : 0.33333333 : 1"
       inkscape:vp_z="1 : 0.5 : 1"
       inkscape:vp_y="0 : 1000 : 0"
       inkscape:vp_x="0 : 0.5 : 1"
       sodipodi:type="inkscape:persp3d" />
    <inkscape:perspective
       id="perspective6094"
       inkscape:persp3d-origin="0.5 : 0.33333333 : 1"
       inkscape:vp_z="1 : 0.5 : 1"
       inkscape:vp_y="0 : 1000 : 0"
       inkscape:vp_x="0 : 0.5 : 1"
       sodipodi:type="inkscape:persp3d" />
    <inkscape:perspective
       id="perspective6234"
       inkscape:persp3d-origin="0.5 : 0.33333333 : 1"
       inkscape:vp_z="1 : 0.5 : 1"
       inkscape:vp_y="0 : 1000 : 0"
       inkscape:vp_x="0 : 0.5 : 1"
       sodipodi:type="inkscape:persp3d" />
    <inkscape:perspective
       id="perspective6250"
       inkscape:persp3d-origin="0.5 : 0.33333333 : 1"
       inkscape:vp_z="1 : 0.5 : 1"
       inkscape:vp_y="0 : 1000 : 0"
       inkscape:vp_x="0 : 0.5 : 1"
       sodipodi:type="inkscape:persp3d" />
    <inkscape:perspective
       id="perspective6372"
       inkscape:persp3d-origin="0.5 : 0.33333333 : 1"
       inkscape:vp_z="1 : 0.5 : 1"
       inkscape:vp_y="0 : 1000 : 0"
       inkscape:vp_x="0 : 0.5 : 1"
       sodipodi:type="inkscape:persp3d" />
    <inkscape:perspective
       id="perspective6388"
       inkscape:persp3d-origin="0.5 : 0.33333333 : 1"
       inkscape:vp_z="1 : 0.5 : 1"
       inkscape:vp_y="0 : 1000 : 0"
       inkscape:vp_x="0 : 0.5 : 1"
       sodipodi:type="inkscape:persp3d" />
    <inkscape:perspective
       id="perspective6528"
       inkscape:persp3d-origin="0.5 : 0.33333333 : 1"
       inkscape:vp_z="1 : 0.5 : 1"
       inkscape:vp_y="0 : 1000 : 0"
       inkscape:vp_x="0 : 0.5 : 1"
       sodipodi:type="inkscape:persp3d" />
    <inkscape:perspective
       id="perspective6544"
       inkscape:persp3d-origin="0.5 : 0.33333333 : 1"
       inkscape:vp_z="1 : 0.5 : 1"
       inkscape:vp_y="0 : 1000 : 0"
       inkscape:vp_x="0 : 0.5 : 1"
       sodipodi:type="inkscape:persp3d" />
  </defs>
  <sodipodi:namedview
     id="base"
     pagecolor="#ffffff"
     bordercolor="#666666"
     borderopacity="1.0"
     inkscape:pageopacity="0.0"
     inkscape:pageshadow="2"
     inkscape:zoom="1.24"
     inkscape:cx="48.000385"
     inkscape:cy="157.20324"
     inkscape:document-units="px"
     inkscape:current-layer="layer1"
     showgrid="false"
     inkscape:window-width="1920"
     inkscape:window-height="1071"
     inkscape:window-x="0"
     inkscape:window-y="0"
     inkscape:window-maximized="0" />
  <metadata
     id="metadata7">
    <rdf:RDF>
      <cc:Work
         rdf:about="">
        <dc:format>image/svg+xml</dc:format>
        <dc:type
           rdf:resource="http://purl.org/dc/dcmitype/StillImage" />
        <dc:title></dc:title>
      </cc:Work>
    </rdf:RDF>
  </metadata>
  <g
     inkscape:label="Ebene 1"
     inkscape:groupmode="layer"
     id="layer1"
     transform="translate(-336.68402,-645.6778)">
    <rect
       style="fill:#888888;fill-opacity:1;stroke:none"
       id="rect3421-9"
       width="400.0004"
       height="400.0004"
       x="336.68402"
       y="645.6778"
       inkscape:export-filename="/Users/jens/Documents/Rollenspiel/Wizardry/Sonstiges Material/789_Lorc_RPG_icons/Icon.5_58.edited.png"
       inkscape:export-xdpi="89.999908"
       inkscape:export-ydpi="89.999908" />
    <path
       style="fill:#000000"
       d="m 349.68614,658.6815 0,186.34374 c 0,102.48334 0.28814,186.63186 0.65625,186.99996 0.36811,0.3682 84.40561,0.5452 186.75,0.4063 l 186.09375,-0.25 0.25,-186.75001 0.25,-186.74999 -187,0 -187,0 z"
       id="path3415-3"
       inkscape:export-filename="/Users/jens/Documents/Rollenspiel/Wizardry/Sonstiges Material/789_Lorc_RPG_icons/Icon.5_58.edited.png"
       inkscape:export-xdpi="89.999908"
       inkscape:export-ydpi="89.999908" />
    <path
       style="fill:#ffffff"
       d="M 191.375 51.90625 C 183.76103 51.829385 177.28035 52.283518 174.71875 53.375 C 169.16755 55.74034 166.50275 59.51951 166.59375 64.84375 C 166.82679 78.47793 179.64445 84.86907 193.90625 78.46875 C 197.28535 76.9523 200.20884 75.87601 200.40625 76.09375 C 200.92728 76.66845 206 86.87387 206 87.34375 C 206 88.41422 193.3396 93.23221 188.09375 94.15625 C 174.69715 96.51601 162.17426 90.23923 155.84375 78 C 153.12392 72.74156 152.04097 60.63334 153.96875 57.03125 C 154.61991 55.81454 154.99236 54.64861 154.78125 54.4375 C 154.1418 53.79805 133.0387 58.83243 124.5 61.65625 C 105.74121 67.85996 84.84397 78.83062 75.0625 87.625 C 63.66153 97.87546 64.92352 113.75949 77.5 118.5625 C 81.9064 120.24531 91.96508 120.23427 96.0625 118.5625 C 97.29274 118.06055 97.91269 119.3026 99.15625 124.5 C 100.01861 128.10397 100.46538 131.2023 100.125 131.40625 C 99.78463 131.61019 96.31861 132.27758 92.4375 132.875 C 74.67841 135.60865 60.14995 127.91862 55.25 113.21875 L 53.375 107.59375 L 49.21875 113.09375 C 44.16043 119.79345 40.30147 129.71269 39.4375 138.1875 C 38.23158 150.01663 42.3062 157.63043 52.25 162.125 C 56.94439 164.24686 58.8919 164.4827 70.5 164.4375 C 82.38396 164.39121 84.27265 164.12754 92.5 161.28125 C 111.16994 154.82228 122.12127 146.62943 127.9375 134.75 C 135.71564 118.86341 133.74077 103.68413 123.625 101.5625 C 122.17953 101.25934 119.875 100.75423 118.5 100.46875 C 116.13733 99.97821 116 99.60091 116 93.34375 L 116 86.71875 L 121.5 87.28125 C 132.20486 88.38609 141.18661 95.2404 144.4375 104.78125 C 149.49758 119.63175 142.83957 142.20193 129.46875 155.5 C 113.32623 171.5547 81.27755 181.67481 59 177.75 C 54.325 176.92637 48.34778 175.23784 45.71875 174 C 40.16548 171.38532 31.41567 163.82723 30.46875 160.84375 C 29.97687 159.294 29.52368 159.0703 28.65625 159.9375 C 27.87749 160.71605 27.497 166.67145 27.5 178.3125 C 27.50417 193.28604 27.80477 196.53569 29.8125 203.5 C 32.82803 213.96017 36.35869 221.89248 41.8125 230.5 C 46.46195 237.83804 56.5509 250 58 250 C 58.4651 250 58.43294 248.5375 57.90625 246.75 C 56.35002 241.4684 56.6808 227.03975 58.46875 222 C 62.16056 211.59383 69.85971 203.55968 80 199.5625 C 84.45286 197.80723 98.58961 196.23794 101.15625 197.21875 C 102.12263 197.58804 102.39535 199.50484 102.15625 204.21875 L 101.84375 210.71875 L 95.09375 210.65625 C 74.90266 210.47137 64.22628 229.52229 73.34375 249.4375 C 78.29817 260.2594 87.95943 267.79885 100.25 270.46875 C 116.32805 273.96145 136.01858 270.86895 154.25 261.96875 C 173.43915 252.60095 177.2775 241.23211 164.8125 230.5625 C 158.82729 225.43938 151.33359 223.37324 144.34375 224.9375 C 134.71263 227.09285 129.54147 235.1992 133.96875 241.1875 L 136.15625 244.125 L 131.875 248.8125 C 129.51816 251.3928 127.29107 253.62455 126.9375 253.78125 C 126.10746 254.14905 121.7907 248.3029 120.21875 244.6875 C 118.12261 239.8665 118.70014 231.96295 121.59375 226.15625 C 128.66926 211.95756 148.37609 206.81899 165.125 214.8125 C 176.05097 220.02699 183.99031 229.77729 185.625 240 C 186.01939 242.4664 186.70668 243.9206 187.375 243.625 C 202.79695 236.8048 209.02476 234.1759 216.34375 231.4375 C 233.64499 224.9642 244.30502 216.2273 250.71875 203.25 C 254.15975 196.28761 254.50725 194.90385 254.46875 187.5625 C 254.41881 178.02969 252.22641 172.28892 246.46875 166.53125 C 242.12682 162.18933 234.41324 158.33048 228.25 157.40625 C 223.47162 156.68969 223.33492 156.24292 225.0625 148.1875 L 226.09375 143.28125 L 231.3125 144.1875 C 239.44968 145.60704 250.33446 151.2407 256.0625 156.96875 C 259.0863 159.99254 262.39511 164.72185 264.28125 168.75 C 270.68226 182.4204 268.76859 201.35182 259.59375 215.28125 L 255.5 221.5 L 268.5 221.5 C 275.65 221.5 283.35371 221.84158 285.625 222.25 L 289.75 223 L 288.4375 219.25 C 287.70286 217.19158 287.05535 212.30591 287.03125 208.40625 C 286.99439 202.45178 287.4725 200.33927 290.03125 195.21875 C 295.41528 184.44434 305.29302 178.27011 318.78125 177.25 L 326.09375 176.71875 L 325.8125 183.59375 L 325.5 190.5 L 318.8125 191.0625 C 310.42584 191.78358 305.14036 195.02109 302.125 201.25 C 297.22537 211.37129 301.85708 222.1208 313.5 227.625 C 324.01307 232.59503 341.67421 229.90631 352.4375 221.71875 C 380.44865 200.41087 377.93638 157.47144 346.59375 121.75 C 341.25847 115.66934 340.00435 114.91351 339.96875 117.75 C 339.95667 118.7125 339.05491 121.45012 337.96875 123.84375 C 329.59484 142.29779 304.98927 152.21842 285.5 144.96875 C 277.09833 141.84348 268.80485 133.54564 266.59375 126.0625 C 265.71107 123.07517 265 119.19352 265 117.4375 C 265 111.11975 269.16803 102.65316 273.9375 99.3125 C 275.61763 98.13568 276.25396 98.52577 280 103 L 284.1875 108 L 281.59375 111.0625 C 279.63566 113.38956 279 115.27653 279 118.71875 C 279 122.74463 279.49066 123.77191 283.25 127.53125 C 291.46288 135.74413 303.90018 136.19955 316.125 128.78125 C 323.07393 124.56448 326.5 119.01627 326.5 111.96875 C 326.5 104.5588 323.74067 100.58054 312.9375 92.40625 C 299.53094 82.26208 268.96435 66.2759 257.40625 63.375 L 254.8125 62.75 L 256.65625 66.125 C 258.08224 68.74042 258.5 71.66825 258.5 79.03125 C 258.5 87.72014 258.23076 89.10343 255.3125 95.03125 C 247.57332 110.75176 233.11168 119.86761 213.28125 121.5625 C 203.77754 122.37477 199.97198 124.05149 195.46875 129.3125 C 187.49162 138.63198 185.50347 154.21182 190.84375 165.5 C 194.4853 173.19744 202.63794 180.76025 211.4375 184.59375 C 218.6615 187.74086 218.50656 187.32152 214.875 195.53125 L 212.96875 199.875 L 207.71875 197.71875 C 189.62789 190.30243 177.46534 175.69885 174.75 158.15625 C 172.5939 144.22668 177.17681 129.06531 186.5625 119.03125 C 193.20982 111.92472 199.26586 109.28718 211.8125 108.03125 C 223.96854 106.81442 230.59222 104.09527 236.84375 97.78125 C 251.75683 82.71909 246.90943 63.82885 226.09375 55.9375 C 219.91281 53.594262 204.06496 52.034359 191.375 51.90625 z M 259.71875 235 C 258.97017 235 254.12191 235.72435 248.9375 236.59375 C 228.77425 239.97465 199.76029 251.7279 171.78125 267.875 C 148.63809 281.2314 132.59544 285.56485 109.5 284.71875 C 97.40129 284.27565 94.26436 283.79085 86.34375 281.15625 C 76.33147 277.82595 66.86896 273.3524 60.25 268.8125 C 57.9125 267.2092 56 266.07465 56 266.28125 C 56 267.30255 61.31311 279.5831 62.75 281.875 C 71.41828 295.7014 85.80876 305.31065 103.5 309.09375 C 113.05947 311.13795 134.74682 310.66605 146.375 308.15625 C 151.80241 306.98475 157.7066 305.1083 159.5 304 C 166.04606 299.9543 173.56991 290.2536 175.96875 282.75 C 176.62811 280.6875 177.41623 279 177.75 279 C 178.08376 279 181.01271 279.74795 184.25 280.65625 C 189.80403 282.21465 190.10487 282.45435 189.53125 284.90625 C 188.19965 290.59805 182.56716 300.36055 177.375 305.96875 C 170.69008 313.18925 164.21504 317.60525 157.375 319.59375 L 152.21875 321.09375 L 148.1875 330.78125 C 143.3246 342.52115 140.66424 352.36104 141.5625 355.3125 C 141.9275 356.5118 142.93606 358.2875 143.78125 359.25 C 146.00402 361.7813 151.57145 361.5156 154.28125 358.75 C 155.49375 357.5125 159.875 350.52995 164 343.21875 C 179.03541 316.56955 201.01752 290.73915 222 275.09375 C 228.325 270.37755 237.78127 262.2318 243.03125 257 C 252.95118 247.1146 262.15322 235 259.71875 235 z "
       transform="translate(336.68402,645.6778)"
       id="path6534" />
  </g>
</svg>
