<?xml version="1.0" encoding="UTF-8" standalone="no"?>
<!-- Created with Inkscape (http://www.inkscape.org/) -->

<svg
   xmlns:dc="http://purl.org/dc/elements/1.1/"
   xmlns:cc="http://creativecommons.org/ns#"
   xmlns:rdf="http://www.w3.org/1999/02/22-rdf-syntax-ns#"
   xmlns:svg="http://www.w3.org/2000/svg"
   xmlns="http://www.w3.org/2000/svg"
   xmlns:sodipodi="http://sodipodi.sourceforge.net/DTD/sodipodi-0.dtd"
   xmlns:inkscape="http://www.inkscape.org/namespaces/inkscape"
   width="400.0004"
   height="400.0004"
   id="svg2"
   version="1.1"
   inkscape:version="0.47 r22583"
   sodipodi:docname="Icon.8_01.svg">
  <defs
     id="defs4">
    <inkscape:perspective
       sodipodi:type="inkscape:persp3d"
       inkscape:vp_x="-965.88144 : 609.08931 : 1"
       inkscape:vp_y="0 : 3135.0012 : 0"
       inkscape:vp_z="1252.5634 : 779.2487 : 1"
       inkscape:persp3d-origin="-252.04156 : 266.63723 : 1"
       id="perspective10" />
    <inkscape:perspective
       id="perspective3409"
       inkscape:persp3d-origin="0.5 : 0.33333333 : 1"
       inkscape:vp_z="1 : 0.5 : 1"
       inkscape:vp_y="0 : 1000 : 0"
       inkscape:vp_x="0 : 0.5 : 1"
       sodipodi:type="inkscape:persp3d" />
    <inkscape:perspective
       id="perspective3437"
       inkscape:persp3d-origin="0.5 : 0.33333333 : 1"
       inkscape:vp_z="1 : 0.5 : 1"
       inkscape:vp_y="0 : 1000 : 0"
       inkscape:vp_x="0 : 0.5 : 1"
       sodipodi:type="inkscape:persp3d" />
    <inkscape:perspective
       id="perspective3465"
       inkscape:persp3d-origin="0.5 : 0.33333333 : 1"
       inkscape:vp_z="1 : 0.5 : 1"
       inkscape:vp_y="0 : 1000 : 0"
       inkscape:vp_x="0 : 0.5 : 1"
       sodipodi:type="inkscape:persp3d" />
    <inkscape:perspective
       id="perspective4306"
       inkscape:persp3d-origin="0.5 : 0.33333333 : 1"
       inkscape:vp_z="1 : 0.5 : 1"
       inkscape:vp_y="0 : 1000 : 0"
       inkscape:vp_x="0 : 0.5 : 1"
       sodipodi:type="inkscape:persp3d" />
    <inkscape:perspective
       id="perspective4333"
       inkscape:persp3d-origin="0.5 : 0.33333333 : 1"
       inkscape:vp_z="1 : 0.5 : 1"
       inkscape:vp_y="0 : 1000 : 0"
       inkscape:vp_x="0 : 0.5 : 1"
       sodipodi:type="inkscape:persp3d" />
    <inkscape:perspective
       id="perspective4358"
       inkscape:persp3d-origin="0.5 : 0.33333333 : 1"
       inkscape:vp_z="1 : 0.5 : 1"
       inkscape:vp_y="0 : 1000 : 0"
       inkscape:vp_x="0 : 0.5 : 1"
       sodipodi:type="inkscape:persp3d" />
    <inkscape:perspective
       id="perspective4380"
       inkscape:persp3d-origin="0.5 : 0.33333333 : 1"
       inkscape:vp_z="1 : 0.5 : 1"
       inkscape:vp_y="0 : 1000 : 0"
       inkscape:vp_x="0 : 0.5 : 1"
       sodipodi:type="inkscape:persp3d" />
    <inkscape:perspective
       id="perspective4402"
       inkscape:persp3d-origin="0.5 : 0.33333333 : 1"
       inkscape:vp_z="1 : 0.5 : 1"
       inkscape:vp_y="0 : 1000 : 0"
       inkscape:vp_x="0 : 0.5 : 1"
       sodipodi:type="inkscape:persp3d" />
    <inkscape:perspective
       id="perspective4424"
       inkscape:persp3d-origin="0.5 : 0.33333333 : 1"
       inkscape:vp_z="1 : 0.5 : 1"
       inkscape:vp_y="0 : 1000 : 0"
       inkscape:vp_x="0 : 0.5 : 1"
       sodipodi:type="inkscape:persp3d" />
    <inkscape:perspective
       id="perspective4466"
       inkscape:persp3d-origin="0.5 : 0.33333333 : 1"
       inkscape:vp_z="1 : 0.5 : 1"
       inkscape:vp_y="0 : 1000 : 0"
       inkscape:vp_x="0 : 0.5 : 1"
       sodipodi:type="inkscape:persp3d" />
    <inkscape:perspective
       id="perspective4664"
       inkscape:persp3d-origin="0.5 : 0.33333333 : 1"
       inkscape:vp_z="1 : 0.5 : 1"
       inkscape:vp_y="0 : 1000 : 0"
       inkscape:vp_x="0 : 0.5 : 1"
       sodipodi:type="inkscape:persp3d" />
    <inkscape:perspective
       id="perspective4678"
       inkscape:persp3d-origin="0.5 : 0.33333333 : 1"
       inkscape:vp_z="1 : 0.5 : 1"
       inkscape:vp_y="0 : 1000 : 0"
       inkscape:vp_x="0 : 0.5 : 1"
       sodipodi:type="inkscape:persp3d" />
    <inkscape:perspective
       id="perspective4702"
       inkscape:persp3d-origin="0.5 : 0.33333333 : 1"
       inkscape:vp_z="1 : 0.5 : 1"
       inkscape:vp_y="0 : 1000 : 0"
       inkscape:vp_x="0 : 0.5 : 1"
       sodipodi:type="inkscape:persp3d" />
    <inkscape:perspective
       id="perspective4727"
       inkscape:persp3d-origin="0.5 : 0.33333333 : 1"
       inkscape:vp_z="1 : 0.5 : 1"
       inkscape:vp_y="0 : 1000 : 0"
       inkscape:vp_x="0 : 0.5 : 1"
       sodipodi:type="inkscape:persp3d" />
    <inkscape:perspective
       id="perspective4749"
       inkscape:persp3d-origin="0.5 : 0.33333333 : 1"
       inkscape:vp_z="1 : 0.5 : 1"
       inkscape:vp_y="0 : 1000 : 0"
       inkscape:vp_x="0 : 0.5 : 1"
       sodipodi:type="inkscape:persp3d" />
    <inkscape:perspective
       id="perspective4771"
       inkscape:persp3d-origin="0.5 : 0.33333333 : 1"
       inkscape:vp_z="1 : 0.5 : 1"
       inkscape:vp_y="0 : 1000 : 0"
       inkscape:vp_x="0 : 0.5 : 1"
       sodipodi:type="inkscape:persp3d" />
    <inkscape:perspective
       id="perspective5029"
       inkscape:persp3d-origin="0.5 : 0.33333333 : 1"
       inkscape:vp_z="1 : 0.5 : 1"
       inkscape:vp_y="0 : 1000 : 0"
       inkscape:vp_x="0 : 0.5 : 1"
       sodipodi:type="inkscape:persp3d" />
    <inkscape:perspective
       id="perspective5045"
       inkscape:persp3d-origin="0.5 : 0.33333333 : 1"
       inkscape:vp_z="1 : 0.5 : 1"
       inkscape:vp_y="0 : 1000 : 0"
       inkscape:vp_x="0 : 0.5 : 1"
       sodipodi:type="inkscape:persp3d" />
    <inkscape:perspective
       id="perspective5045-0"
       inkscape:persp3d-origin="0.5 : 0.33333333 : 1"
       inkscape:vp_z="1 : 0.5 : 1"
       inkscape:vp_y="0 : 1000 : 0"
       inkscape:vp_x="0 : 0.5 : 1"
       sodipodi:type="inkscape:persp3d" />
    <inkscape:perspective
       id="perspective5267"
       inkscape:persp3d-origin="0.5 : 0.33333333 : 1"
       inkscape:vp_z="1 : 0.5 : 1"
       inkscape:vp_y="0 : 1000 : 0"
       inkscape:vp_x="0 : 0.5 : 1"
       sodipodi:type="inkscape:persp3d" />
    <inkscape:perspective
       id="perspective5283"
       inkscape:persp3d-origin="0.5 : 0.33333333 : 1"
       inkscape:vp_z="1 : 0.5 : 1"
       inkscape:vp_y="0 : 1000 : 0"
       inkscape:vp_x="0 : 0.5 : 1"
       sodipodi:type="inkscape:persp3d" />
    <inkscape:perspective
       id="perspective5424"
       inkscape:persp3d-origin="0.5 : 0.33333333 : 1"
       inkscape:vp_z="1 : 0.5 : 1"
       inkscape:vp_y="0 : 1000 : 0"
       inkscape:vp_x="0 : 0.5 : 1"
       sodipodi:type="inkscape:persp3d" />
    <inkscape:perspective
       id="perspective5442"
       inkscape:persp3d-origin="0.5 : 0.33333333 : 1"
       inkscape:vp_z="1 : 0.5 : 1"
       inkscape:vp_y="0 : 1000 : 0"
       inkscape:vp_x="0 : 0.5 : 1"
       sodipodi:type="inkscape:persp3d" />
    <inkscape:perspective
       id="perspective5464"
       inkscape:persp3d-origin="0.5 : 0.33333333 : 1"
       inkscape:vp_z="1 : 0.5 : 1"
       inkscape:vp_y="0 : 1000 : 0"
       inkscape:vp_x="0 : 0.5 : 1"
       sodipodi:type="inkscape:persp3d" />
    <inkscape:perspective
       id="perspective5604"
       inkscape:persp3d-origin="0.5 : 0.33333333 : 1"
       inkscape:vp_z="1 : 0.5 : 1"
       inkscape:vp_y="0 : 1000 : 0"
       inkscape:vp_x="0 : 0.5 : 1"
       sodipodi:type="inkscape:persp3d" />
    <inkscape:perspective
       id="perspective5620"
       inkscape:persp3d-origin="0.5 : 0.33333333 : 1"
       inkscape:vp_z="1 : 0.5 : 1"
       inkscape:vp_y="0 : 1000 : 0"
       inkscape:vp_x="0 : 0.5 : 1"
       sodipodi:type="inkscape:persp3d" />
    <inkscape:perspective
       id="perspective5642"
       inkscape:persp3d-origin="0.5 : 0.33333333 : 1"
       inkscape:vp_z="1 : 0.5 : 1"
       inkscape:vp_y="0 : 1000 : 0"
       inkscape:vp_x="0 : 0.5 : 1"
       sodipodi:type="inkscape:persp3d" />
    <inkscape:perspective
       id="perspective5938"
       inkscape:persp3d-origin="0.5 : 0.33333333 : 1"
       inkscape:vp_z="1 : 0.5 : 1"
       inkscape:vp_y="0 : 1000 : 0"
       inkscape:vp_x="0 : 0.5 : 1"
       sodipodi:type="inkscape:persp3d" />
    <inkscape:perspective
       id="perspective5956"
       inkscape:persp3d-origin="0.5 : 0.33333333 : 1"
       inkscape:vp_z="1 : 0.5 : 1"
       inkscape:vp_y="0 : 1000 : 0"
       inkscape:vp_x="0 : 0.5 : 1"
       sodipodi:type="inkscape:persp3d" />
    <inkscape:perspective
       id="perspective6078"
       inkscape:persp3d-origin="0.5 : 0.33333333 : 1"
       inkscape:vp_z="1 : 0.5 : 1"
       inkscape:vp_y="0 : 1000 : 0"
       inkscape:vp_x="0 : 0.5 : 1"
       sodipodi:type="inkscape:persp3d" />
    <inkscape:perspective
       id="perspective6094"
       inkscape:persp3d-origin="0.5 : 0.33333333 : 1"
       inkscape:vp_z="1 : 0.5 : 1"
       inkscape:vp_y="0 : 1000 : 0"
       inkscape:vp_x="0 : 0.5 : 1"
       sodipodi:type="inkscape:persp3d" />
    <inkscape:perspective
       id="perspective6234"
       inkscape:persp3d-origin="0.5 : 0.33333333 : 1"
       inkscape:vp_z="1 : 0.5 : 1"
       inkscape:vp_y="0 : 1000 : 0"
       inkscape:vp_x="0 : 0.5 : 1"
       sodipodi:type="inkscape:persp3d" />
    <inkscape:perspective
       id="perspective6250"
       inkscape:persp3d-origin="0.5 : 0.33333333 : 1"
       inkscape:vp_z="1 : 0.5 : 1"
       inkscape:vp_y="0 : 1000 : 0"
       inkscape:vp_x="0 : 0.5 : 1"
       sodipodi:type="inkscape:persp3d" />
    <inkscape:perspective
       id="perspective6372"
       inkscape:persp3d-origin="0.5 : 0.33333333 : 1"
       inkscape:vp_z="1 : 0.5 : 1"
       inkscape:vp_y="0 : 1000 : 0"
       inkscape:vp_x="0 : 0.5 : 1"
       sodipodi:type="inkscape:persp3d" />
    <inkscape:perspective
       id="perspective6388"
       inkscape:persp3d-origin="0.5 : 0.33333333 : 1"
       inkscape:vp_z="1 : 0.5 : 1"
       inkscape:vp_y="0 : 1000 : 0"
       inkscape:vp_x="0 : 0.5 : 1"
       sodipodi:type="inkscape:persp3d" />
  </defs>
  <sodipodi:namedview
     id="base"
     pagecolor="#ffffff"
     bordercolor="#666666"
     borderopacity="1.0"
     inkscape:pageopacity="0.0"
     inkscape:pageshadow="2"
     inkscape:zoom="1.24"
     inkscape:cx="48.000385"
     inkscape:cy="157.20324"
     inkscape:document-units="px"
     inkscape:current-layer="layer1"
     showgrid="false"
     inkscape:window-width="1920"
     inkscape:window-height="1071"
     inkscape:window-x="0"
     inkscape:window-y="0"
     inkscape:window-maximized="0" />
  <metadata
     id="metadata7">
    <rdf:RDF>
      <cc:Work
         rdf:about="">
        <dc:format>image/svg+xml</dc:format>
        <dc:type
           rdf:resource="http://purl.org/dc/dcmitype/StillImage" />
        <dc:title></dc:title>
      </cc:Work>
    </rdf:RDF>
  </metadata>
  <g
     inkscape:label="Ebene 1"
     inkscape:groupmode="layer"
     id="layer1"
     transform="translate(-336.68402,-645.6778)">
    <rect
       style="fill:#888888;fill-opacity:1;stroke:none"
       id="rect3421-9"
       width="400.0004"
       height="400.0004"
       x="336.68402"
       y="645.6778"
       inkscape:export-filename="/Users/jens/Documents/Rollenspiel/Wizardry/Sonstiges Material/789_Lorc_RPG_icons/Icon.5_58.edited.png"
       inkscape:export-xdpi="89.999908"
       inkscape:export-ydpi="89.999908" />
    <path
       style="fill:#000000"
       d="m 349.68614,658.6815 0,186.34374 c 0,102.48334 0.28814,186.63186 0.65625,186.99996 0.36811,0.3682 84.40561,0.5452 186.75,0.4063 l 186.09375,-0.25 0.25,-186.75001 0.25,-186.74999 -187,0 -187,0 z"
       id="path3415-3"
       inkscape:export-filename="/Users/jens/Documents/Rollenspiel/Wizardry/Sonstiges Material/789_Lorc_RPG_icons/Icon.5_58.edited.png"
       inkscape:export-xdpi="89.999908"
       inkscape:export-ydpi="89.999908" />
    <path
       style="fill:#ffffff"
       d="M 196.625 37.5 L 194.375 52 C 193.13695 59.975 192.0967 66.6125 192.0625 66.75 C 192.02829 66.8875 190.6891 67 189.09375 67 C 187.49841 67 181.01596 67.88684 174.6875 68.96875 C 152.76016 72.71741 132.87643 81.28645 116.28125 94.15625 C 112.85555 96.81293 109.59402 99 109.03125 99 C 108.46848 99 95.73653 89.87675 80.75 78.71875 C 53.17913 58.19126 51 56.61021 51 57.21875 C 51 57.40506 60.60414 70.55246 72.34375 86.4375 L 93.6875 115.3125 L 88.375 122.40625 C 74.33594 141.14644 63.0602 172.26782 63 192.375 C 62.99158 195.19046 62.60571 198.07286 62.15625 198.78125 C 61.66441 199.55647 55.2853 200.96065 46.15625 202.28125 C 37.81412 203.48802 31 204.72771 31 205.03125 C 31 205.33479 38.09391 206.61948 46.78125 207.90625 L 62.59375 210.25 L 63.75 219.875 C 66.54971 243.15334 74.90417 262.4616 93.40625 288.4375 C 94.03418 289.3191 87.9604 298.29875 73.34375 318.09375 C 61.81025 333.71315 51.97379 347.1419 51.5 347.9375 C 50.46408 349.6772 49.59884 350.30425 83.375 325.15625 L 110.25 305.15625 L 117.375 310.46875 C 135.60462 324.08665 158.59052 333.07335 182.40625 335.90625 C 186.74685 336.42255 190.57156 337.31415 190.9375 337.90625 C 191.30344 338.49835 192.67327 346.42139 193.96875 355.5 C 195.26423 364.5787 196.52188 371.82185 196.75 371.59375 C 196.97813 371.36565 200.91608 345.66725 205.53125 314.46875 C 210.14641 283.27025 214.06406 257.63855 214.21875 257.53125 C 214.37344 257.42385 217.65616 255.7513 221.53125 253.8125 L 228.59375 250.28125 L 238.53125 255.90625 C 261.91893 269.13725 260.2516 268.32405 258.90625 265.78125 C 258.23966 264.52135 254.25158 257.4 250.03125 249.9375 L 242.34375 236.375 L 246.03125 229.4375 L 249.71875 222.5 L 306.59375 213.875 C 337.88363 209.13521 362.825 204.99936 362 204.6875 C 361.175 204.37564 335.53588 200.49257 305.03125 196.03125 C 274.52661 191.56993 249.52075 187.83079 249.46875 187.71875 C 249.41678 187.60672 247.89781 184.42783 246.09375 180.6875 C 244.2897 176.94717 243.0417 173.3307 243.3125 172.625 C 243.5833 171.91931 247.45954 164.91066 251.90625 157.0625 C 256.35297 149.21435 259.38413 143.03319 258.65625 143.3125 C 257.92838 143.59181 250.97325 147.41884 243.21875 151.8125 L 229.125 159.78125 L 221.8125 156.15625 C 217.78802 154.15245 214.36396 152.42855 214.1875 152.34375 C 213.88469 152.19825 205.007 93.49717 205 91.59375 C 204.99585 90.41962 223.23273 91.70375 233.03125 93.5625 C 281.73045 102.80058 321.06705 142.38114 330.5 191.65625 L 332 199.5 L 331.53125 190 C 330.95574 177.9806 326.55854 160.27687 320.96875 147.53125 C 317.62113 139.89816 308.76744 125.2801 301.5625 115.46875 C 300.72228 114.32459 308.07646 103.96841 340 61.25 C 341.925 58.67407 342.825 56.99228 342 57.5 C 341.175 58.00771 328.575 67.23249 314 78 C 299.425 88.7675 286.96247 97.91201 286.3125 98.3125 C 285.62336 98.73715 282.28859 96.91658 278.3125 93.9375 C 264.97771 83.94641 251.35502 77.12585 235.5 72.53125 C 225.87798 69.74289 210.7548 67.006 204.875 67 L 201.21875 67 L 200.0625 58.75 C 199.42011 54.2125 198.37362 47.575 197.75 44 L 196.625 37.5 z M 187.5 93.40625 C 187.65207 93.398274 187.75394 93.410189 187.78125 93.4375 C 188.13749 93.79375 180.61484 145.61718 179.5 150.5 C 179.21282 151.75778 176.48052 153.84152 172.09375 156.09375 L 165.09375 159.65625 L 150.46875 151.25 C 142.41341 146.62773 135.66055 142.99569 135.46875 143.1875 C 135.27694 143.37931 138.84557 150.25871 143.40625 158.4375 L 151.6875 173.28125 L 148.5 179.40625 C 146.74792 182.76764 145.13393 186.02425 144.90625 186.65625 C 144.65952 187.34109 133.28276 189.46699 116.71875 191.90625 C 101.43274 194.15731 88.74816 196 88.53125 196 C 87.81332 196 89.25318 188.62311 91.65625 180 C 94.76725 168.83655 103.49041 151.20001 110.78125 141.375 C 127.32904 119.07551 151.37591 102.6667 177.9375 95.5625 C 182.47972 94.347633 186.43548 93.462079 187.5 93.40625 z M 87.75 214.03125 C 88.1625 214.05191 101.05619 216.00209 116.40625 218.34375 L 144.3125 222.59375 L 148.125 229.71875 L 151.9375 236.875 L 143.9375 250.9375 C 139.5368 258.6867 135.65701 265.71485 135.34375 266.53125 C 135.03048 267.34765 140.35878 264.8196 147.15625 260.9375 C 167.23388 249.4711 164.82351 250.15785 172.4375 253.90625 C 176.92491 256.11535 179.14242 257.8117 179.46875 259.3125 C 179.73057 260.5166 182.22661 277.025 185.03125 296 C 187.8359 314.975 190.39225 331.5125 190.6875 332.75 C 191.15201 334.6969 190.81708 334.98425 188.34375 334.90625 C 181.53373 334.69125 164.41809 328.88165 152.8125 322.84375 C 118.90305 305.20205 94.64636 271.55272 88.5 233.65625 C 86.90507 223.82236 86.52615 213.96995 87.75 214.03125 z "
       transform="translate(336.68402,645.6778)"
       id="path6378" />
  </g>
</svg>
