<?xml version="1.0" encoding="UTF-8" standalone="no"?>
<!-- Created with Inkscape (http://www.inkscape.org/) -->

<svg
   xmlns:dc="http://purl.org/dc/elements/1.1/"
   xmlns:cc="http://creativecommons.org/ns#"
   xmlns:rdf="http://www.w3.org/1999/02/22-rdf-syntax-ns#"
   xmlns:svg="http://www.w3.org/2000/svg"
   xmlns="http://www.w3.org/2000/svg"
   xmlns:sodipodi="http://sodipodi.sourceforge.net/DTD/sodipodi-0.dtd"
   xmlns:inkscape="http://www.inkscape.org/namespaces/inkscape"
   width="400.0004"
   height="400.0004"
   id="svg2"
   version="1.1"
   inkscape:version="0.47 r22583"
   sodipodi:docname="Icon.6_04.svg">
  <defs
     id="defs4">
    <inkscape:perspective
       sodipodi:type="inkscape:persp3d"
       inkscape:vp_x="-965.88144 : 609.08931 : 1"
       inkscape:vp_y="0 : 3135.0012 : 0"
       inkscape:vp_z="1252.5634 : 779.2487 : 1"
       inkscape:persp3d-origin="-252.04156 : 266.63723 : 1"
       id="perspective10" />
    <inkscape:perspective
       id="perspective3409"
       inkscape:persp3d-origin="0.5 : 0.33333333 : 1"
       inkscape:vp_z="1 : 0.5 : 1"
       inkscape:vp_y="0 : 1000 : 0"
       inkscape:vp_x="0 : 0.5 : 1"
       sodipodi:type="inkscape:persp3d" />
    <inkscape:perspective
       id="perspective3437"
       inkscape:persp3d-origin="0.5 : 0.33333333 : 1"
       inkscape:vp_z="1 : 0.5 : 1"
       inkscape:vp_y="0 : 1000 : 0"
       inkscape:vp_x="0 : 0.5 : 1"
       sodipodi:type="inkscape:persp3d" />
    <inkscape:perspective
       id="perspective3465"
       inkscape:persp3d-origin="0.5 : 0.33333333 : 1"
       inkscape:vp_z="1 : 0.5 : 1"
       inkscape:vp_y="0 : 1000 : 0"
       inkscape:vp_x="0 : 0.5 : 1"
       sodipodi:type="inkscape:persp3d" />
    <inkscape:perspective
       id="perspective4306"
       inkscape:persp3d-origin="0.5 : 0.33333333 : 1"
       inkscape:vp_z="1 : 0.5 : 1"
       inkscape:vp_y="0 : 1000 : 0"
       inkscape:vp_x="0 : 0.5 : 1"
       sodipodi:type="inkscape:persp3d" />
    <inkscape:perspective
       id="perspective4333"
       inkscape:persp3d-origin="0.5 : 0.33333333 : 1"
       inkscape:vp_z="1 : 0.5 : 1"
       inkscape:vp_y="0 : 1000 : 0"
       inkscape:vp_x="0 : 0.5 : 1"
       sodipodi:type="inkscape:persp3d" />
    <inkscape:perspective
       id="perspective4358"
       inkscape:persp3d-origin="0.5 : 0.33333333 : 1"
       inkscape:vp_z="1 : 0.5 : 1"
       inkscape:vp_y="0 : 1000 : 0"
       inkscape:vp_x="0 : 0.5 : 1"
       sodipodi:type="inkscape:persp3d" />
    <inkscape:perspective
       id="perspective4380"
       inkscape:persp3d-origin="0.5 : 0.33333333 : 1"
       inkscape:vp_z="1 : 0.5 : 1"
       inkscape:vp_y="0 : 1000 : 0"
       inkscape:vp_x="0 : 0.5 : 1"
       sodipodi:type="inkscape:persp3d" />
    <inkscape:perspective
       id="perspective4402"
       inkscape:persp3d-origin="0.5 : 0.33333333 : 1"
       inkscape:vp_z="1 : 0.5 : 1"
       inkscape:vp_y="0 : 1000 : 0"
       inkscape:vp_x="0 : 0.5 : 1"
       sodipodi:type="inkscape:persp3d" />
    <inkscape:perspective
       id="perspective4424"
       inkscape:persp3d-origin="0.5 : 0.33333333 : 1"
       inkscape:vp_z="1 : 0.5 : 1"
       inkscape:vp_y="0 : 1000 : 0"
       inkscape:vp_x="0 : 0.5 : 1"
       sodipodi:type="inkscape:persp3d" />
    <inkscape:perspective
       id="perspective4466"
       inkscape:persp3d-origin="0.5 : 0.33333333 : 1"
       inkscape:vp_z="1 : 0.5 : 1"
       inkscape:vp_y="0 : 1000 : 0"
       inkscape:vp_x="0 : 0.5 : 1"
       sodipodi:type="inkscape:persp3d" />
    <inkscape:perspective
       id="perspective4664"
       inkscape:persp3d-origin="0.5 : 0.33333333 : 1"
       inkscape:vp_z="1 : 0.5 : 1"
       inkscape:vp_y="0 : 1000 : 0"
       inkscape:vp_x="0 : 0.5 : 1"
       sodipodi:type="inkscape:persp3d" />
    <inkscape:perspective
       id="perspective4678"
       inkscape:persp3d-origin="0.5 : 0.33333333 : 1"
       inkscape:vp_z="1 : 0.5 : 1"
       inkscape:vp_y="0 : 1000 : 0"
       inkscape:vp_x="0 : 0.5 : 1"
       sodipodi:type="inkscape:persp3d" />
    <inkscape:perspective
       id="perspective4702"
       inkscape:persp3d-origin="0.5 : 0.33333333 : 1"
       inkscape:vp_z="1 : 0.5 : 1"
       inkscape:vp_y="0 : 1000 : 0"
       inkscape:vp_x="0 : 0.5 : 1"
       sodipodi:type="inkscape:persp3d" />
    <inkscape:perspective
       id="perspective4727"
       inkscape:persp3d-origin="0.5 : 0.33333333 : 1"
       inkscape:vp_z="1 : 0.5 : 1"
       inkscape:vp_y="0 : 1000 : 0"
       inkscape:vp_x="0 : 0.5 : 1"
       sodipodi:type="inkscape:persp3d" />
    <inkscape:perspective
       id="perspective4749"
       inkscape:persp3d-origin="0.5 : 0.33333333 : 1"
       inkscape:vp_z="1 : 0.5 : 1"
       inkscape:vp_y="0 : 1000 : 0"
       inkscape:vp_x="0 : 0.5 : 1"
       sodipodi:type="inkscape:persp3d" />
    <inkscape:perspective
       id="perspective4771"
       inkscape:persp3d-origin="0.5 : 0.33333333 : 1"
       inkscape:vp_z="1 : 0.5 : 1"
       inkscape:vp_y="0 : 1000 : 0"
       inkscape:vp_x="0 : 0.5 : 1"
       sodipodi:type="inkscape:persp3d" />
    <inkscape:perspective
       id="perspective5029"
       inkscape:persp3d-origin="0.5 : 0.33333333 : 1"
       inkscape:vp_z="1 : 0.5 : 1"
       inkscape:vp_y="0 : 1000 : 0"
       inkscape:vp_x="0 : 0.5 : 1"
       sodipodi:type="inkscape:persp3d" />
    <inkscape:perspective
       id="perspective5045"
       inkscape:persp3d-origin="0.5 : 0.33333333 : 1"
       inkscape:vp_z="1 : 0.5 : 1"
       inkscape:vp_y="0 : 1000 : 0"
       inkscape:vp_x="0 : 0.5 : 1"
       sodipodi:type="inkscape:persp3d" />
    <inkscape:perspective
       id="perspective5045-0"
       inkscape:persp3d-origin="0.5 : 0.33333333 : 1"
       inkscape:vp_z="1 : 0.5 : 1"
       inkscape:vp_y="0 : 1000 : 0"
       inkscape:vp_x="0 : 0.5 : 1"
       sodipodi:type="inkscape:persp3d" />
    <inkscape:perspective
       id="perspective5267"
       inkscape:persp3d-origin="0.5 : 0.33333333 : 1"
       inkscape:vp_z="1 : 0.5 : 1"
       inkscape:vp_y="0 : 1000 : 0"
       inkscape:vp_x="0 : 0.5 : 1"
       sodipodi:type="inkscape:persp3d" />
    <inkscape:perspective
       id="perspective5283"
       inkscape:persp3d-origin="0.5 : 0.33333333 : 1"
       inkscape:vp_z="1 : 0.5 : 1"
       inkscape:vp_y="0 : 1000 : 0"
       inkscape:vp_x="0 : 0.5 : 1"
       sodipodi:type="inkscape:persp3d" />
    <inkscape:perspective
       id="perspective5424"
       inkscape:persp3d-origin="0.5 : 0.33333333 : 1"
       inkscape:vp_z="1 : 0.5 : 1"
       inkscape:vp_y="0 : 1000 : 0"
       inkscape:vp_x="0 : 0.5 : 1"
       sodipodi:type="inkscape:persp3d" />
    <inkscape:perspective
       id="perspective5442"
       inkscape:persp3d-origin="0.5 : 0.33333333 : 1"
       inkscape:vp_z="1 : 0.5 : 1"
       inkscape:vp_y="0 : 1000 : 0"
       inkscape:vp_x="0 : 0.5 : 1"
       sodipodi:type="inkscape:persp3d" />
    <inkscape:perspective
       id="perspective5464"
       inkscape:persp3d-origin="0.5 : 0.33333333 : 1"
       inkscape:vp_z="1 : 0.5 : 1"
       inkscape:vp_y="0 : 1000 : 0"
       inkscape:vp_x="0 : 0.5 : 1"
       sodipodi:type="inkscape:persp3d" />
    <inkscape:perspective
       id="perspective5699"
       inkscape:persp3d-origin="0.5 : 0.33333333 : 1"
       inkscape:vp_z="1 : 0.5 : 1"
       inkscape:vp_y="0 : 1000 : 0"
       inkscape:vp_x="0 : 0.5 : 1"
       sodipodi:type="inkscape:persp3d" />
  </defs>
  <sodipodi:namedview
     id="base"
     pagecolor="#ffffff"
     bordercolor="#666666"
     borderopacity="1.0"
     inkscape:pageopacity="0.0"
     inkscape:pageshadow="2"
     inkscape:zoom="1.43"
     inkscape:cx="153.24232"
     inkscape:cy="253.984"
     inkscape:document-units="px"
     inkscape:current-layer="layer1"
     showgrid="false"
     inkscape:window-width="1920"
     inkscape:window-height="1071"
     inkscape:window-x="0"
     inkscape:window-y="0"
     inkscape:window-maximized="0" />
  <metadata
     id="metadata7">
    <rdf:RDF>
      <cc:Work
         rdf:about="">
        <dc:format>image/svg+xml</dc:format>
        <dc:type
           rdf:resource="http://purl.org/dc/dcmitype/StillImage" />
        <dc:title />
      </cc:Work>
    </rdf:RDF>
  </metadata>
  <g
     inkscape:label="Ebene 1"
     inkscape:groupmode="layer"
     id="layer1"
     transform="translate(-336.68402,-645.6778)">
    <rect
       style="fill:#888888;fill-opacity:1;stroke:none"
       id="rect3421-9"
       width="400.0004"
       height="400.0004"
       x="336.68402"
       y="645.6778"
       inkscape:export-filename="/Users/jens/Documents/Rollenspiel/Wizardry/Sonstiges Material/789_Lorc_RPG_icons/Icon.5_58.edited.png"
       inkscape:export-xdpi="89.999908"
       inkscape:export-ydpi="89.999908" />
    <path
       style="fill:#000000"
       d="m 349.68614,658.6815 0,186.34374 c 0,102.48334 0.28814,186.63186 0.65625,186.99996 0.36811,0.3682 84.40561,0.5452 186.75,0.4063 l 186.09375,-0.25 0.25,-186.75001 0.25,-186.74999 -187,0 -187,0 z"
       id="path3415-3"
       inkscape:export-filename="/Users/jens/Documents/Rollenspiel/Wizardry/Sonstiges Material/789_Lorc_RPG_icons/Icon.5_58.edited.png"
       inkscape:export-xdpi="89.999908"
       inkscape:export-ydpi="89.999908" />
    <path
       style="fill:#ffffff"
       d="M 223.375 30.21875 C 217.91088 30.23643 213.22036 32.486824 208.8125 37.03125 C 198.2686 47.90188 182.58939 75.81028 176.375 94.78125 C 171.09354 110.90411 169.70897 120.92879 170.28125 138.5 C 170.79561 154.29282 172.3709 162.33703 177.375 174.5 L 179.84375 180.5 L 175.6875 182.34375 C 168.4264 185.52871 167.08669 185.17219 164.78125 179.5 C 158.82073 164.83502 155.36782 144.28448 156.25 128.8125 L 156.75 120.03125 L 153.8125 121.78125 C 152.19572 122.73372 148.31359 125.64558 145.1875 128.25 L 139.5 132.96875 L 137.5 130.65625 C 136.4 129.3772 132.21924 124.48277 128.21875 119.78125 C 114.66741 103.85528 87.81129 79.22509 79.15625 74.8125 C 63.34284 66.75036 39.08828 88.54449 37.28125 112.4375 C 36.77162 119.17601 36.98762 120.46139 39.4375 125.46875 C 41.79617 130.28971 43.22939 131.69707 50.3125 136.25 C 78.10761 154.11635 90.32409 163.27467 102.34375 175.25 C 108.72845 181.61116 110.09214 183.48851 109.59375 185.28125 C 105.40958 200.332 105.12668 221.41976 108.90625 235.21875 C 113.62478 252.44582 124.11885 273.14534 137.09375 290.78125 C 145.68149 302.45397 170.42013 327.38149 181.4375 335.46875 C 205.4503 353.0952 229.14575 364.82715 249.09375 368.96875 C 251.51325 369.47115 258.675 369.7992 265 369.6875 C 274.5798 369.5182 277.26155 369.0971 281.03125 367.25 C 291.92375 361.913 304.8705 348.62088 312.9375 334.5 C 317.5037 326.50715 324.53435 309.1906 323.59375 308.25 C 323.30305 307.95929 322.03595 308.3887 320.78125 309.1875 C 317.80145 311.08461 308.9178 314.50676 302 316.4375 C 292.6633 319.04335 278.77445 320.00062 266.71875 318.875 C 225.75735 315.05048 192.76025 290.05867 179.78125 253 C 177.33645 246.01933 174.90928 233.68023 175.8125 232.875 C 176.72268 232.06357 187.3308 230.07167 188.125 230.5625 C 188.4657 230.77307 189.0174 233.14802 189.375 235.84375 C 190.2858 242.71003 194.31705 254.12142 198.59375 261.90625 C 214.28735 290.47308 246.6314 307.53199 281.5 305.65625 C 294.0272 304.98235 301.4208 303.2373 311.625 298.53125 C 347.3511 282.05472 357.2671 244.57765 338.75 196 C 335.9133 188.55818 326.65635 169.76529 323.90625 165.875 L 322.0625 163.28125 L 313.28125 164.65625 C 308.45365 165.42143 299.83775 167.17019 294.15625 168.53125 C 288.47465 169.89231 283.28425 171 282.59375 171 C 281.33955 171 277.77625 160.19771 278.59375 158.875 C 279.12155 158.0209 297.8898 153.51171 307.5 151.9375 C 316.7434 150.42337 321.1861 147.37474 324.6875 140.125 C 326.9686 135.40191 327.42975 133.14023 327.46875 126 C 327.59065 103.86992 314.8123 85.4851 299.5 85.71875 C 294.1712 85.80006 285.9783 88.93112 269.5 97.25 C 260.127 101.98185 257.44065 104.30172 252.09375 112.25 C 242.68885 126.23075 238.01765 142.24741 239.78125 154.40625 C 240.34595 158.29953 241.09155 162.25825 241.46875 163.1875 C 242.03145 164.57329 241.03885 165.21903 235.84375 166.78125 C 232.36015 167.8288 229.3289 168.53895 229.125 168.375 C 227.9495 167.42938 226.03025 155.40638 226.03125 149 C 226.03385 137.55987 228.3105 128.7892 234.4375 116.5 C 239.7587 105.82704 246.51415 96.03109 256.21875 84.90625 C 264.26075 75.68729 264.7055 66.74519 257.8125 53.8125 C 254.1705 46.97938 244.5035 37.54837 237.75 34.21875 C 232.32872 31.54594 227.62487 30.204999 223.375 30.21875 z M 223.15625 44 C 229.34827 43.685157 239.17002 49.996084 244.90625 58.65625 C 248.37185 63.88835 249.8971 71.21412 248 73.5 C 243.4468 78.98629 225.04705 67.53767 220.34375 56.28125 C 218.44315 51.73235 218.35065 46.01922 220.15625 44.875 C 221.00725 44.335717 222.00958 44.058304 223.15625 44 z M 71.34375 87 C 72.954395 86.984209 74.285051 87.645182 75.09375 89.15625 C 79.02044 96.49333 70.04187 115.92123 60.65625 120.375 C 56.57022 122.31394 53.83156 122.45656 52.1875 120.8125 C 50.53839 119.16339 50.702 111.1325 52.46875 106.125 C 56.094383 95.848844 65.591445 87.056396 71.34375 87 z M 152.34375 88 C 143.41089 88.01772 134.63225 90.837334 129.5 95.59375 L 126.875 98.03125 L 134.15625 105.90625 L 141.4375 113.78125 L 145.46875 111.03125 C 147.68212 109.51422 151.85291 107.07228 154.71875 105.625 C 160.12732 102.89362 160.64641 102.01793 162.59375 92.28125 C 163.20777 89.21115 163.13883 89.13314 158.5 88.4375 C 156.46635 88.132535 154.40518 87.995911 152.34375 88 z M 299.84375 99.125 C 302.89374 99.147224 307.018 103.31492 310.09375 109.5625 C 314.17775 117.85826 315.1528 128.51463 312.3125 134 C 309.9243 138.61213 307.11425 138.92185 302.71875 135.0625 C 297.82645 130.76702 294.77035 123.12487 294.28125 114 C 293.84225 105.81275 295.856 99.82019 299.25 99.1875 C 299.44298 99.151526 299.64042 99.123518 299.84375 99.125 z "
       transform="translate(336.68402,645.6778)"
       id="path5430" />
  </g>
</svg>
