<?xml version="1.0" encoding="UTF-8" standalone="no"?>
<!-- Created with Inkscape (http://www.inkscape.org/) -->

<svg
   xmlns:dc="http://purl.org/dc/elements/1.1/"
   xmlns:cc="http://creativecommons.org/ns#"
   xmlns:rdf="http://www.w3.org/1999/02/22-rdf-syntax-ns#"
   xmlns:svg="http://www.w3.org/2000/svg"
   xmlns="http://www.w3.org/2000/svg"
   xmlns:sodipodi="http://sodipodi.sourceforge.net/DTD/sodipodi-0.dtd"
   xmlns:inkscape="http://www.inkscape.org/namespaces/inkscape"
   width="400.0004"
   height="400.0004"
   id="svg2"
   version="1.1"
   inkscape:version="0.48.2 r9819"
   sodipodi:docname="GE.svg">
  <defs
     id="defs4">
    <inkscape:perspective
       sodipodi:type="inkscape:persp3d"
       inkscape:vp_x="-965.88144 : 609.08931 : 1"
       inkscape:vp_y="0 : 3135.0012 : 0"
       inkscape:vp_z="1252.5634 : 779.2487 : 1"
       inkscape:persp3d-origin="-252.04156 : 266.63723 : 1"
       id="perspective10" />
    <inkscape:perspective
       id="perspective3409"
       inkscape:persp3d-origin="0.5 : 0.33333333 : 1"
       inkscape:vp_z="1 : 0.5 : 1"
       inkscape:vp_y="0 : 1000 : 0"
       inkscape:vp_x="0 : 0.5 : 1"
       sodipodi:type="inkscape:persp3d" />
    <inkscape:perspective
       id="perspective3437"
       inkscape:persp3d-origin="0.5 : 0.33333333 : 1"
       inkscape:vp_z="1 : 0.5 : 1"
       inkscape:vp_y="0 : 1000 : 0"
       inkscape:vp_x="0 : 0.5 : 1"
       sodipodi:type="inkscape:persp3d" />
    <inkscape:perspective
       id="perspective3465"
       inkscape:persp3d-origin="0.5 : 0.33333333 : 1"
       inkscape:vp_z="1 : 0.5 : 1"
       inkscape:vp_y="0 : 1000 : 0"
       inkscape:vp_x="0 : 0.5 : 1"
       sodipodi:type="inkscape:persp3d" />
    <inkscape:perspective
       id="perspective4306"
       inkscape:persp3d-origin="0.5 : 0.33333333 : 1"
       inkscape:vp_z="1 : 0.5 : 1"
       inkscape:vp_y="0 : 1000 : 0"
       inkscape:vp_x="0 : 0.5 : 1"
       sodipodi:type="inkscape:persp3d" />
    <inkscape:perspective
       id="perspective4333"
       inkscape:persp3d-origin="0.5 : 0.33333333 : 1"
       inkscape:vp_z="1 : 0.5 : 1"
       inkscape:vp_y="0 : 1000 : 0"
       inkscape:vp_x="0 : 0.5 : 1"
       sodipodi:type="inkscape:persp3d" />
    <inkscape:perspective
       id="perspective4358"
       inkscape:persp3d-origin="0.5 : 0.33333333 : 1"
       inkscape:vp_z="1 : 0.5 : 1"
       inkscape:vp_y="0 : 1000 : 0"
       inkscape:vp_x="0 : 0.5 : 1"
       sodipodi:type="inkscape:persp3d" />
    <inkscape:perspective
       id="perspective4380"
       inkscape:persp3d-origin="0.5 : 0.33333333 : 1"
       inkscape:vp_z="1 : 0.5 : 1"
       inkscape:vp_y="0 : 1000 : 0"
       inkscape:vp_x="0 : 0.5 : 1"
       sodipodi:type="inkscape:persp3d" />
    <inkscape:perspective
       id="perspective4402"
       inkscape:persp3d-origin="0.5 : 0.33333333 : 1"
       inkscape:vp_z="1 : 0.5 : 1"
       inkscape:vp_y="0 : 1000 : 0"
       inkscape:vp_x="0 : 0.5 : 1"
       sodipodi:type="inkscape:persp3d" />
    <inkscape:perspective
       id="perspective4424"
       inkscape:persp3d-origin="0.5 : 0.33333333 : 1"
       inkscape:vp_z="1 : 0.5 : 1"
       inkscape:vp_y="0 : 1000 : 0"
       inkscape:vp_x="0 : 0.5 : 1"
       sodipodi:type="inkscape:persp3d" />
    <inkscape:perspective
       id="perspective4466"
       inkscape:persp3d-origin="0.5 : 0.33333333 : 1"
       inkscape:vp_z="1 : 0.5 : 1"
       inkscape:vp_y="0 : 1000 : 0"
       inkscape:vp_x="0 : 0.5 : 1"
       sodipodi:type="inkscape:persp3d" />
    <inkscape:perspective
       id="perspective4664"
       inkscape:persp3d-origin="0.5 : 0.33333333 : 1"
       inkscape:vp_z="1 : 0.5 : 1"
       inkscape:vp_y="0 : 1000 : 0"
       inkscape:vp_x="0 : 0.5 : 1"
       sodipodi:type="inkscape:persp3d" />
    <inkscape:perspective
       id="perspective4678"
       inkscape:persp3d-origin="0.5 : 0.33333333 : 1"
       inkscape:vp_z="1 : 0.5 : 1"
       inkscape:vp_y="0 : 1000 : 0"
       inkscape:vp_x="0 : 0.5 : 1"
       sodipodi:type="inkscape:persp3d" />
    <inkscape:perspective
       id="perspective4702"
       inkscape:persp3d-origin="0.5 : 0.33333333 : 1"
       inkscape:vp_z="1 : 0.5 : 1"
       inkscape:vp_y="0 : 1000 : 0"
       inkscape:vp_x="0 : 0.5 : 1"
       sodipodi:type="inkscape:persp3d" />
    <inkscape:perspective
       id="perspective4727"
       inkscape:persp3d-origin="0.5 : 0.33333333 : 1"
       inkscape:vp_z="1 : 0.5 : 1"
       inkscape:vp_y="0 : 1000 : 0"
       inkscape:vp_x="0 : 0.5 : 1"
       sodipodi:type="inkscape:persp3d" />
    <inkscape:perspective
       id="perspective4749"
       inkscape:persp3d-origin="0.5 : 0.33333333 : 1"
       inkscape:vp_z="1 : 0.5 : 1"
       inkscape:vp_y="0 : 1000 : 0"
       inkscape:vp_x="0 : 0.5 : 1"
       sodipodi:type="inkscape:persp3d" />
    <inkscape:perspective
       id="perspective4771"
       inkscape:persp3d-origin="0.5 : 0.33333333 : 1"
       inkscape:vp_z="1 : 0.5 : 1"
       inkscape:vp_y="0 : 1000 : 0"
       inkscape:vp_x="0 : 0.5 : 1"
       sodipodi:type="inkscape:persp3d" />
    <inkscape:perspective
       id="perspective5029"
       inkscape:persp3d-origin="0.5 : 0.33333333 : 1"
       inkscape:vp_z="1 : 0.5 : 1"
       inkscape:vp_y="0 : 1000 : 0"
       inkscape:vp_x="0 : 0.5 : 1"
       sodipodi:type="inkscape:persp3d" />
    <inkscape:perspective
       id="perspective5045"
       inkscape:persp3d-origin="0.5 : 0.33333333 : 1"
       inkscape:vp_z="1 : 0.5 : 1"
       inkscape:vp_y="0 : 1000 : 0"
       inkscape:vp_x="0 : 0.5 : 1"
       sodipodi:type="inkscape:persp3d" />
    <inkscape:perspective
       id="perspective5045-0"
       inkscape:persp3d-origin="0.5 : 0.33333333 : 1"
       inkscape:vp_z="1 : 0.5 : 1"
       inkscape:vp_y="0 : 1000 : 0"
       inkscape:vp_x="0 : 0.5 : 1"
       sodipodi:type="inkscape:persp3d" />
    <inkscape:perspective
       id="perspective5267"
       inkscape:persp3d-origin="0.5 : 0.33333333 : 1"
       inkscape:vp_z="1 : 0.5 : 1"
       inkscape:vp_y="0 : 1000 : 0"
       inkscape:vp_x="0 : 0.5 : 1"
       sodipodi:type="inkscape:persp3d" />
    <inkscape:perspective
       id="perspective5283"
       inkscape:persp3d-origin="0.5 : 0.33333333 : 1"
       inkscape:vp_z="1 : 0.5 : 1"
       inkscape:vp_y="0 : 1000 : 0"
       inkscape:vp_x="0 : 0.5 : 1"
       sodipodi:type="inkscape:persp3d" />
    <inkscape:perspective
       id="perspective5424"
       inkscape:persp3d-origin="0.5 : 0.33333333 : 1"
       inkscape:vp_z="1 : 0.5 : 1"
       inkscape:vp_y="0 : 1000 : 0"
       inkscape:vp_x="0 : 0.5 : 1"
       sodipodi:type="inkscape:persp3d" />
    <inkscape:perspective
       id="perspective5442"
       inkscape:persp3d-origin="0.5 : 0.33333333 : 1"
       inkscape:vp_z="1 : 0.5 : 1"
       inkscape:vp_y="0 : 1000 : 0"
       inkscape:vp_x="0 : 0.5 : 1"
       sodipodi:type="inkscape:persp3d" />
    <inkscape:perspective
       id="perspective5464"
       inkscape:persp3d-origin="0.5 : 0.33333333 : 1"
       inkscape:vp_z="1 : 0.5 : 1"
       inkscape:vp_y="0 : 1000 : 0"
       inkscape:vp_x="0 : 0.5 : 1"
       sodipodi:type="inkscape:persp3d" />
    <inkscape:perspective
       id="perspective5604"
       inkscape:persp3d-origin="0.5 : 0.33333333 : 1"
       inkscape:vp_z="1 : 0.5 : 1"
       inkscape:vp_y="0 : 1000 : 0"
       inkscape:vp_x="0 : 0.5 : 1"
       sodipodi:type="inkscape:persp3d" />
    <inkscape:perspective
       id="perspective5620"
       inkscape:persp3d-origin="0.5 : 0.33333333 : 1"
       inkscape:vp_z="1 : 0.5 : 1"
       inkscape:vp_y="0 : 1000 : 0"
       inkscape:vp_x="0 : 0.5 : 1"
       sodipodi:type="inkscape:persp3d" />
    <inkscape:perspective
       id="perspective5642"
       inkscape:persp3d-origin="0.5 : 0.33333333 : 1"
       inkscape:vp_z="1 : 0.5 : 1"
       inkscape:vp_y="0 : 1000 : 0"
       inkscape:vp_x="0 : 0.5 : 1"
       sodipodi:type="inkscape:persp3d" />
    <inkscape:perspective
       id="perspective5938"
       inkscape:persp3d-origin="0.5 : 0.33333333 : 1"
       inkscape:vp_z="1 : 0.5 : 1"
       inkscape:vp_y="0 : 1000 : 0"
       inkscape:vp_x="0 : 0.5 : 1"
       sodipodi:type="inkscape:persp3d" />
    <inkscape:perspective
       id="perspective5956"
       inkscape:persp3d-origin="0.5 : 0.33333333 : 1"
       inkscape:vp_z="1 : 0.5 : 1"
       inkscape:vp_y="0 : 1000 : 0"
       inkscape:vp_x="0 : 0.5 : 1"
       sodipodi:type="inkscape:persp3d" />
    <inkscape:perspective
       id="perspective6078"
       inkscape:persp3d-origin="0.5 : 0.33333333 : 1"
       inkscape:vp_z="1 : 0.5 : 1"
       inkscape:vp_y="0 : 1000 : 0"
       inkscape:vp_x="0 : 0.5 : 1"
       sodipodi:type="inkscape:persp3d" />
    <inkscape:perspective
       id="perspective6094"
       inkscape:persp3d-origin="0.5 : 0.33333333 : 1"
       inkscape:vp_z="1 : 0.5 : 1"
       inkscape:vp_y="0 : 1000 : 0"
       inkscape:vp_x="0 : 0.5 : 1"
       sodipodi:type="inkscape:persp3d" />
    <inkscape:perspective
       id="perspective6234"
       inkscape:persp3d-origin="0.5 : 0.33333333 : 1"
       inkscape:vp_z="1 : 0.5 : 1"
       inkscape:vp_y="0 : 1000 : 0"
       inkscape:vp_x="0 : 0.5 : 1"
       sodipodi:type="inkscape:persp3d" />
    <inkscape:perspective
       id="perspective6250"
       inkscape:persp3d-origin="0.5 : 0.33333333 : 1"
       inkscape:vp_z="1 : 0.5 : 1"
       inkscape:vp_y="0 : 1000 : 0"
       inkscape:vp_x="0 : 0.5 : 1"
       sodipodi:type="inkscape:persp3d" />
    <inkscape:perspective
       id="perspective6372"
       inkscape:persp3d-origin="0.5 : 0.33333333 : 1"
       inkscape:vp_z="1 : 0.5 : 1"
       inkscape:vp_y="0 : 1000 : 0"
       inkscape:vp_x="0 : 0.5 : 1"
       sodipodi:type="inkscape:persp3d" />
    <inkscape:perspective
       id="perspective6388"
       inkscape:persp3d-origin="0.5 : 0.33333333 : 1"
       inkscape:vp_z="1 : 0.5 : 1"
       inkscape:vp_y="0 : 1000 : 0"
       inkscape:vp_x="0 : 0.5 : 1"
       sodipodi:type="inkscape:persp3d" />
    <inkscape:perspective
       id="perspective6528"
       inkscape:persp3d-origin="0.5 : 0.33333333 : 1"
       inkscape:vp_z="1 : 0.5 : 1"
       inkscape:vp_y="0 : 1000 : 0"
       inkscape:vp_x="0 : 0.5 : 1"
       sodipodi:type="inkscape:persp3d" />
    <inkscape:perspective
       id="perspective6544"
       inkscape:persp3d-origin="0.5 : 0.33333333 : 1"
       inkscape:vp_z="1 : 0.5 : 1"
       inkscape:vp_y="0 : 1000 : 0"
       inkscape:vp_x="0 : 0.5 : 1"
       sodipodi:type="inkscape:persp3d" />
  </defs>
  <sodipodi:namedview
     id="base"
     pagecolor="#ffffff"
     bordercolor="#666666"
     borderopacity="1.0"
     inkscape:pageopacity="0.0"
     inkscape:pageshadow="2"
     inkscape:zoom="1.2218217"
     inkscape:cx="-56.351989"
     inkscape:cy="157.20324"
     inkscape:document-units="px"
     inkscape:current-layer="layer1"
     showgrid="false"
     inkscape:window-width="1920"
     inkscape:window-height="1071"
     inkscape:window-x="0"
     inkscape:window-y="0"
     inkscape:window-maximized="0" />
  <metadata
     id="metadata7">
    <rdf:RDF>
      <cc:Work
         rdf:about="">
        <dc:format>image/svg+xml</dc:format>
        <dc:type
           rdf:resource="http://purl.org/dc/dcmitype/StillImage" />
        <dc:title></dc:title>
      </cc:Work>
    </rdf:RDF>
  </metadata>
  <g
     inkscape:label="Ebene 1"
     inkscape:groupmode="layer"
     id="layer1"
     transform="translate(-336.68402,-645.6778)">
    <rect
       style="fill:#888888;fill-opacity:1;stroke:none"
       id="rect3421-9"
       width="400.0004"
       height="400.0004"
       x="336.68402"
       y="645.6778"
       inkscape:export-filename="/Users/jens/Documents/Rollenspiel/Wizardry/Sonstiges Material/789_Lorc_RPG_icons/Icon.5_58.edited.png"
       inkscape:export-xdpi="89.999908"
       inkscape:export-ydpi="89.999908" />
    <path
       style="fill:#ffffff"
       d="m 349.68614,658.6815 0,186.34374 c 0,102.48334 0.28814,186.63186 0.65625,186.99996 0.36811,0.3682 84.40561,0.5452 186.75,0.4063 l 186.09375,-0.25 0.25,-186.75001 0.25,-186.74999 -187,0 -187,0 z"
       id="path3415-3"
       inkscape:export-filename="/Users/jens/Documents/Rollenspiel/Wizardry/Sonstiges Material/789_Lorc_RPG_icons/Icon.5_58.edited.png"
       inkscape:export-xdpi="89.999908"
       inkscape:export-ydpi="89.999908" />
    <path
       style="fill:#000000;fill-opacity:1.0"
       d="M 228.75 21.59375 L 226.4375 24.46875 C 223.1125 28.63795 218.45025 41.52465 214.03125 58.71875 L 212.9375 62.9375 L 205.1875 62.34375 C 196.1545 61.64715 179.83675 63.3002 168.59375 66.0625 C 164.25575 67.1284 160.344 68 159.875 68 C 159.406 68 156.925 63.8291 154.375 58.75 C 149.385 48.8145 141.52125 36.6409 138.15625 33.625 C 136.11525 31.7957 136.06375 31.8157 135.46875 34.1875 C 134.67075 37.3675 137.4165 53.9994 140.5625 65.1875 C 142.9775 73.778 143.042 76 140.875 76 C 137.247 76 115.47825 91.0131 105.53125 100.375 C 102.24325 103.4692 99.39375 106 99.21875 106 C 99.04375 106 95.6505 103.7989 91.6875 101.125 C 81.0825 93.9689 62.61 85.04605 61.25 86.40625 C 59.733 87.92305 73.233 105.3207 82.75 114.125 L 88.84375 119.75 L 85.28125 125.0625 C 80.00525 132.8969 72.50725 149.2406 69.40625 159.6875 L 66.6875 168.84375 L 52.59375 168.3125 C 39.72775 167.8028 25.79925 168.88805 24.15625 170.53125 C 22.40925 172.27725 39.545 179.96885 52 183.03125 C 54.475 183.63985 58.14625 184.57355 60.15625 185.09375 L 63.8125 186.03125 L 63.90625 198.9375 C 64.00125 213.1004 64.971 221.77595 67.75 232.65625 L 69.59375 239.78125 L 59.53125 244.9375 C 49.12625 250.2702 33.91975 260.5628 33.21875 262.75 C 32.67775 264.4367 38.352 264.38325 48.5 262.59375 C 56.036 261.26495 71.1015 257.6699 74.3125 256.4375 C 75.3445 256.0417 76.99375 258.1648 79.96875 263.6875 C 85.59875 274.1395 93.92075 285.5508 101.46875 293.1875 L 107.65625 299.46875 L 101.28125 309.1875 C 95.24025 318.4073 88.92775 330.77805 87.71875 335.78125 C 87.23975 337.76235 87.46975 337.99265 89.34375 337.40625 C 93.44675 336.12255 100.5335 330.57335 110.8125 320.59375 C 120.5815 311.10995 121.2305 310.6631 123.3125 312 C 135.9915 320.1399 151.53725 327.35055 163.15625 330.46875 L 169.78125 332.25 L 169.6875 349.875 C 169.6265 361.5627 170.05025 369.00985 170.90625 371.96875 L 172.1875 376.4375 L 174.59375 372.46875 C 178.03875 366.80585 182.66825 354.4516 185.15625 344.25 L 187.28125 335.46875 L 200.40625 335.375 C 213.42425 335.281 229.55075 333.12985 237.09375 330.46875 L 240.90625 329.125 L 244.40625 336.3125 C 250.88925 349.7111 261.708 366 264.125 366 C 266.395 366 263.98875 347.3789 259.71875 331.8125 L 257.34375 323.125 L 263.8125 319.84375 C 272.7435 315.31045 283.89275 307.37965 293.09375 299.03125 C 297.36075 295.15985 301.04925 292 301.28125 292 C 301.51325 292 305.47275 294.54555 310.09375 297.65625 C 322.13675 305.76155 339 313.42055 339 310.78125 C 339 307.47495 327.6925 293.1754 318.1875 284.4375 L 311.59375 278.34375 L 315.65625 271.9375 C 322.08725 261.7541 325.05 255.3828 329.625 242 L 333.90625 229.5 L 346.6875 229.84375 C 359.4515 230.18495 374.64675 228.7594 376.34375 227.0625 C 378.33075 225.0754 353.042 214.978 339.875 212.5 L 336.5 211.875 L 336.40625 197.1875 C 336.31225 183.7199 334.6225 171.2223 331.4375 160.3125 C 330.8685 158.3631 331.83025 157.6177 340.15625 153.4375 C 353.60825 146.6832 367 137.3839 367 134.8125 C 367 132.6488 347.35925 135.319 333.03125 139.4375 C 328.37025 140.7773 324.4975 141.7931 324.4375 141.6875 C 324.3795 141.5818 322.379 137.9 320 133.5 C 314.746 123.7826 307.27525 113.5005 299.03125 104.6875 L 292.875 98.09375 L 297.8125 90.78125 C 306.0455 78.58045 314.68 60 312.125 60 C 309.803 60 297.827 69.22505 289.125 77.71875 L 279.5 87.125 L 276.5 85.40625 C 274.85 84.45495 270.13925 81.72385 266.03125 79.34375 C 257.92625 74.64745 246.4485 69.97815 236.5625 67.34375 L 230.3125 65.65625 L 230.78125 50.71875 C 231.09425 40.96575 230.827 33.3153 230 28.6875 L 228.75 21.59375 z M 201.96875 76.53125 C 211.87576 76.402252 210.62613 76.715425 209.5 85.25 L 208.875 90 L 201.5 90 C 197.448 90 190.74375 90.4854 186.59375 91.0625 C 182.44475 91.6397 176.8115 92.69335 174.0625 93.40625 L 169.0625 94.6875 L 166.90625 88.21875 C 165.25125 83.24555 165.05 81.5877 166 81 C 169.566 78.7962 184.432 76.68275 197 76.59375 C 198.903 76.580213 200.55346 76.549678 201.96875 76.53125 z M 228.53125 79 C 230.09525 79 248.0655 85.47675 252.1875 87.53125 C 260.8325 91.83975 270 97.34595 270 98.21875 C 270 98.66505 268.312 101.26065 266.25 103.96875 C 264.187 106.67675 262.275 108.885 262 108.875 C 261.725 108.8679 257.00725 106.4543 251.53125 103.5 C 246.05425 100.5457 238.40425 97.12115 234.53125 95.90625 C 230.65725 94.69135 227.107 93.3647 226.625 92.9375 C 225.87 92.2695 227.68525 79 228.53125 79 z M 147.34375 88 C 148.01875 88 153 98.59265 153 100.03125 C 153 100.46035 150.412 102.26135 147.25 104.03125 C 139.883 108.15405 129.4785 115.8565 125.0625 120.4375 C 123.1675 122.4041 121.3675 123.99375 121.0625 123.96875 C 120.7585 123.94415 118.26125 121.91535 115.53125 119.46875 L 110.5625 115 L 115.03125 110.4375 C 120.83225 104.4844 131.78775 96.26865 140.09375 91.65625 C 143.72075 89.64165 146.97775 88 147.34375 88 z M 208 103.71875 L 208 109.125 C 208.025 115.8667 209.795 128.20065 210.875 129.28125 C 211.861 130.26665 216.965 120.78965 220 112.34375 L 222.1875 106.1875 L 225.34375 107.1875 C 234.48075 110.1188 242.35375 113.43805 247.59375 116.59375 C 250.81775 118.53495 253.591 120.2782 253.75 120.4375 C 253.91 120.5969 252.0305 124.92855 249.5625 130.09375 C 247.0935 135.25905 244.77325 140.78355 244.40625 142.34375 L 243.71875 145.1875 L 247.71875 143.15625 C 249.90575 142.04035 254.748 138.60655 258.5 135.53125 L 265.34375 129.9375 L 268.78125 133.21875 C 274.67625 138.84015 287.163 157.2635 285.875 158.4375 C 285.67 158.6235 282.72075 160.54935 279.34375 162.71875 C 275.96775 164.88815 271.31275 168.17425 268.96875 170.03125 C 264.82475 173.31285 264.75875 173.4386 267.09375 174.0625 C 269.32375 174.6587 273.656 174.3102 286.625 172.5 L 291.75 171.78125 L 293.375 180.625 C 294.27 185.4993 295 193.4375 295 198.25 L 295 207 L 288.3125 207 C 278.6995 207 268.6475 208.8822 269.9375 210.4375 C 271.2645 212.0355 280.074 216.2237 287 218.5625 C 290.025 219.5838 292.607 220.4915 292.75 220.5625 C 293.504 220.9376 287.39625 237.34385 284.40625 242.96875 C 278.62125 253.85175 279.73575 253.46555 269.46875 248.40625 C 264.54175 245.97795 258.9495 243.70205 257.0625 243.34375 L 253.625 242.6875 L 256.03125 246.59375 C 257.34125 248.74495 260.8955 253.61195 263.9375 257.40625 L 269.46875 264.3125 L 263.1875 269.96875 C 257.4725 275.14355 241.3485 285.85395 240.6875 284.90625 C 240.5345 284.68715 238.03525 280.86365 235.15625 276.40625 C 232.27725 271.94895 228.82675 267.24485 227.46875 265.96875 L 225 263.65625 L 225.03125 270.0625 C 225.05125 273.5959 225.656 279.5356 226.375 283.25 L 227.6875 290 L 224.09375 290.96875 C 222.11775 291.49165 217.575 292.3664 214 292.9375 C 210.425 293.5085 204.067 294 199.875 294 L 192.25 294 L 191.75 283.25 C 191.474 277.3375 190.81925 271.38705 190.28125 270.03125 L 189.28125 267.5625 L 186.78125 271.53125 C 185.40725 273.71205 182.98925 278.9875 181.40625 283.25 C 179.82425 287.5125 177.968 291 177.25 291 C 173.205 291 155.07925 283.2931 148.90625 278.9375 L 146.34375 277.09375 L 150.6875 268.3125 C 153.0735 263.4702 155.30725 257.99915 155.65625 256.15625 L 156.28125 252.8125 L 153.25 254.375 C 151.572 255.2425 146.69125 258.75085 142.40625 262.15625 L 134.59375 268.34375 L 130.21875 263.40625 C 124.95375 257.49735 120.49 251.2317 116.875 244.625 L 114.1875 239.71875 L 122.84375 234 C 127.59975 230.8601 132.29525 227.39635 133.28125 226.28125 C 135.02225 224.31065 134.9995 224.24725 132.5625 223.78125 C 131.1825 223.51745 125.47075 223.8964 119.84375 224.625 C 114.21675 225.3537 109.4205 225.76435 109.1875 225.53125 C 107.8915 224.23455 105.8405 212.04515 105.3125 202.40625 L 104.71875 191.3125 L 115.09375 190.65625 C 126.38875 189.93045 131 189.15875 131 188.03125 C 131 186.96325 122.383 182.49275 115.5 179.96875 C 112.2 178.75865 109.1395 177.4121 108.6875 177 C 106.9055 175.3773 114.654 155.5074 120 148 L 122.09375 145.03125 L 129.8125 148.875 C 138.4185 153.1745 144.83875 155.5051 145.71875 154.625 C 146.42875 153.9154 140.78225 145.335 135.15625 138.5625 C 131.22125 133.8249 131.13125 133.515 132.78125 131.6875 C 137.43925 126.5281 158.3715 111.97245 159.4375 113.15625 C 159.6065 113.34415 161.8145 116.65 164.3125 120.5 C 166.8105 124.35 170.1715 129.075 171.8125 131 L 174.8125 134.5 L 175.46875 131.875 C 175.83975 130.4236 175.471 124.57 174.625 118.875 C 173.785 113.1801 173.39225 108.24765 173.78125 107.90625 C 175.55225 106.35055 185.508 104.7261 196.25 104.25 L 208 103.71875 z M 284.6875 108.78125 L 291.28125 116.34375 C 299.81725 126.13095 311 142.8848 311 145.875 C 311 146.4388 309.01975 147.77065 306.59375 148.84375 C 298.39375 152.47105 298.94875 152.7007 293.71875 143.6875 C 291.08875 139.1561 285.85475 131.86375 282.09375 127.46875 L 275.25 119.46875 L 279.96875 114.125 L 284.6875 108.78125 z M 99.28125 129.46875 C 101.23325 129.71668 110 135.99266 110 137.28125 C 110 137.74395 108.199 141.1039 106 144.75 C 101.962 151.4447 96.80125 163.7665 95.53125 169.75 C 94.92225 172.6213 94.45725 173.00125 91.65625 172.90625 C 89.91225 172.84735 86.62175 172.35545 84.34375 171.84375 L 80.21875 170.9375 L 82.125 164.5625 C 85.952 151.8048 95.712 131.5317 99 129.5 C 99.064937 129.45986 99.151117 129.45222 99.28125 129.46875 z M 200.75 150.875 C 185.93238 150.80659 171.20063 157.3985 161.84375 169.71875 C 155.65475 177.86785 152.885 185.4428 152.25 196 C 150.889 218.6075 164.3025 238.1849 185.8125 245.0625 C 201.0125 249.9224 219.97225 245.83955 232.15625 235.09375 C 255.91925 214.13595 252.999 175.51775 226.375 158.40625 C 218.54538 153.37398 209.64057 150.91605 200.75 150.875 z M 316.90625 163.75 C 318.59448 163.92349 318.86562 166.28737 320.5625 173.5 C 321.4685 177.35 322.454 186.9125 322.75 194.75 L 323.28125 209 L 319.875 208.84375 C 318.012 208.75135 314.88925 208.49235 312.90625 208.28125 L 309.28125 207.90625 L 308.71875 195.6875 C 308.40475 188.9785 307.38375 179.9926 306.46875 175.6875 C 305.55475 171.3823 304.97025 167.7162 305.15625 167.5625 C 305.34325 167.4087 308.30475 166.35355 311.71875 165.21875 C 314.3805 164.33424 315.89331 163.64591 316.90625 163.75 z M 79.90625 188.78125 C 80.930516 188.79248 82.456375 188.99296 84.8125 189.3125 L 91.5 190.21875 L 91.71875 201.34375 C 91.84775 207.47155 92.78025 216.4371 93.78125 221.25 L 95.625 230 L 90.28125 232 C 87.34225 233.0996 84.3075 234 83.5625 234 C 80.1085 234 75.2785 198.9401 77.5625 190.4375 C 77.885625 189.23444 78.199141 188.76253 79.90625 188.78125 z M 307.71875 224.25 C 307.9169 224.26229 308.13825 224.31605 308.375 224.375 C 309.546 224.6666 312.43125 225.22015 314.78125 225.59375 C 317.13025 225.96725 319.26725 226.60505 319.53125 227.03125 C 320.20825 228.12715 314.6065 244.8288 311.4375 251.1875 C 309.9785 254.1136 307.1715 259.3125 305.1875 262.75 C 303.2025 266.1875 301.32925 268.9695 301.03125 268.9375 C 300.73325 268.9056 298.17375 267.09955 295.34375 264.90625 L 290.21875 260.90625 L 296.03125 249.625 C 299.23225 243.4124 302.82225 235.07375 304.03125 231.09375 C 305.74188 225.46172 306.3317 224.16395 307.71875 224.25 z M 100.625 246.3125 C 101.252 246.0623 103.2495 248.4895 105.0625 251.6875 C 109.2725 259.1101 115.21875 267.2194 120.84375 273.25 C 125.72975 278.4885 125.75275 278.0739 119.59375 284.75 C 117.94375 286.5375 116.3005 288 115.9375 288 C 114.8915 288 105.80175 278.0263 101.34375 272 C 95.37975 263.937 88.67425 251.9287 89.65625 251.0625 C 90.12425 250.6494 92.525 249.49935 95 248.53125 C 97.475 247.56315 99.998 246.5627 100.625 246.3125 z M 279.4375 274 C 279.7155 274 282.25875 276.0448 285.09375 278.5625 L 290.25 283.15625 L 284.875 288.1875 C 277.544 295.0463 269.92325 300.63825 261.03125 305.71875 C 256.91925 308.06785 253.26025 310 252.90625 310 C 252.35525 310 247 298.6103 247 297.4375 C 247 297.208 249.137 295.92885 251.75 294.59375 C 258.129 291.33365 269.54275 283.13855 274.71875 278.09375 C 277.03475 275.83625 279.1605 274 279.4375 274 z M 139.0625 289.78125 C 140.49802 289.82558 142.33194 290.95143 145.625 292.9375 C 152.388 297.0164 165.56075 302.54975 171.09375 303.65625 C 172.71775 303.98115 174.242 304.61445 174.5 305.03125 C 174.757 305.44815 174.46475 308.4003 173.84375 311.625 C 173.22175 314.8496 172.42875 317.8107 172.09375 318.1875 C 171.35375 319.0194 151.1955 312.2283 145.1875 309.125 C 142.8155 307.9003 138.41325 305.32955 135.40625 303.40625 L 129.9375 299.90625 L 133.1875 295.40625 C 136.03375 291.44271 137.21683 289.72425 139.0625 289.78125 z M 230.03125 303.78125 C 231.17087 303.74261 231.484 304.1283 231.75 304.875 C 232.069 305.772 233.1545 308.691 234.1875 311.375 C 235.2215 314.059 235.8955 316.4165 235.6875 316.625 C 235.4785 316.8335 231.30525 317.91895 226.40625 319.03125 C 221.24025 320.20425 211.68625 321.3275 203.65625 321.6875 L 189.8125 322.3125 L 190.53125 315.40625 C 190.92625 311.61005 191.3305 308.3795 191.4375 308.25 C 191.5455 308.1205 197.0005 307.8262 203.5625 307.5625 C 210.2495 307.2939 218.9255 306.23005 223.3125 305.15625 C 226.896 304.279 228.89163 303.81989 230.03125 303.78125 z "
       transform="translate(336.68402,645.6778)"
       id="path3066" />
  </g>
</svg>
