<?xml version="1.0" encoding="UTF-8" standalone="no"?>
<!-- Created with Inkscape (http://www.inkscape.org/) -->

<svg
   xmlns:dc="http://purl.org/dc/elements/1.1/"
   xmlns:cc="http://creativecommons.org/ns#"
   xmlns:rdf="http://www.w3.org/1999/02/22-rdf-syntax-ns#"
   xmlns:svg="http://www.w3.org/2000/svg"
   xmlns="http://www.w3.org/2000/svg"
   xmlns:sodipodi="http://sodipodi.sourceforge.net/DTD/sodipodi-0.dtd"
   xmlns:inkscape="http://www.inkscape.org/namespaces/inkscape"
   width="345"
   height="345"
   id="svg2"
   version="1.1"
   inkscape:version="0.48.2 r9819"
   sodipodi:docname="CH.svg">
  <defs
     id="defs4">
    <inkscape:perspective
       sodipodi:type="inkscape:persp3d"
       inkscape:vp_x="-965.88144 : 609.08931 : 1"
       inkscape:vp_y="0 : 3135.0012 : 0"
       inkscape:vp_z="1252.5634 : 779.2487 : 1"
       inkscape:persp3d-origin="-252.04156 : 266.63723 : 1"
       id="perspective10" />
    <inkscape:perspective
       id="perspective3409"
       inkscape:persp3d-origin="0.5 : 0.33333333 : 1"
       inkscape:vp_z="1 : 0.5 : 1"
       inkscape:vp_y="0 : 1000 : 0"
       inkscape:vp_x="0 : 0.5 : 1"
       sodipodi:type="inkscape:persp3d" />
    <inkscape:perspective
       id="perspective3437"
       inkscape:persp3d-origin="0.5 : 0.33333333 : 1"
       inkscape:vp_z="1 : 0.5 : 1"
       inkscape:vp_y="0 : 1000 : 0"
       inkscape:vp_x="0 : 0.5 : 1"
       sodipodi:type="inkscape:persp3d" />
    <inkscape:perspective
       id="perspective3465"
       inkscape:persp3d-origin="0.5 : 0.33333333 : 1"
       inkscape:vp_z="1 : 0.5 : 1"
       inkscape:vp_y="0 : 1000 : 0"
       inkscape:vp_x="0 : 0.5 : 1"
       sodipodi:type="inkscape:persp3d" />
    <inkscape:perspective
       id="perspective4306"
       inkscape:persp3d-origin="0.5 : 0.33333333 : 1"
       inkscape:vp_z="1 : 0.5 : 1"
       inkscape:vp_y="0 : 1000 : 0"
       inkscape:vp_x="0 : 0.5 : 1"
       sodipodi:type="inkscape:persp3d" />
    <inkscape:perspective
       id="perspective4333"
       inkscape:persp3d-origin="0.5 : 0.33333333 : 1"
       inkscape:vp_z="1 : 0.5 : 1"
       inkscape:vp_y="0 : 1000 : 0"
       inkscape:vp_x="0 : 0.5 : 1"
       sodipodi:type="inkscape:persp3d" />
    <inkscape:perspective
       id="perspective4358"
       inkscape:persp3d-origin="0.5 : 0.33333333 : 1"
       inkscape:vp_z="1 : 0.5 : 1"
       inkscape:vp_y="0 : 1000 : 0"
       inkscape:vp_x="0 : 0.5 : 1"
       sodipodi:type="inkscape:persp3d" />
    <inkscape:perspective
       id="perspective4380"
       inkscape:persp3d-origin="0.5 : 0.33333333 : 1"
       inkscape:vp_z="1 : 0.5 : 1"
       inkscape:vp_y="0 : 1000 : 0"
       inkscape:vp_x="0 : 0.5 : 1"
       sodipodi:type="inkscape:persp3d" />
    <inkscape:perspective
       id="perspective4402"
       inkscape:persp3d-origin="0.5 : 0.33333333 : 1"
       inkscape:vp_z="1 : 0.5 : 1"
       inkscape:vp_y="0 : 1000 : 0"
       inkscape:vp_x="0 : 0.5 : 1"
       sodipodi:type="inkscape:persp3d" />
    <inkscape:perspective
       id="perspective4424"
       inkscape:persp3d-origin="0.5 : 0.33333333 : 1"
       inkscape:vp_z="1 : 0.5 : 1"
       inkscape:vp_y="0 : 1000 : 0"
       inkscape:vp_x="0 : 0.5 : 1"
       sodipodi:type="inkscape:persp3d" />
    <inkscape:perspective
       id="perspective4466"
       inkscape:persp3d-origin="0.5 : 0.33333333 : 1"
       inkscape:vp_z="1 : 0.5 : 1"
       inkscape:vp_y="0 : 1000 : 0"
       inkscape:vp_x="0 : 0.5 : 1"
       sodipodi:type="inkscape:persp3d" />
    <inkscape:perspective
       id="perspective4664"
       inkscape:persp3d-origin="0.5 : 0.33333333 : 1"
       inkscape:vp_z="1 : 0.5 : 1"
       inkscape:vp_y="0 : 1000 : 0"
       inkscape:vp_x="0 : 0.5 : 1"
       sodipodi:type="inkscape:persp3d" />
    <inkscape:perspective
       id="perspective4678"
       inkscape:persp3d-origin="0.5 : 0.33333333 : 1"
       inkscape:vp_z="1 : 0.5 : 1"
       inkscape:vp_y="0 : 1000 : 0"
       inkscape:vp_x="0 : 0.5 : 1"
       sodipodi:type="inkscape:persp3d" />
    <inkscape:perspective
       id="perspective4702"
       inkscape:persp3d-origin="0.5 : 0.33333333 : 1"
       inkscape:vp_z="1 : 0.5 : 1"
       inkscape:vp_y="0 : 1000 : 0"
       inkscape:vp_x="0 : 0.5 : 1"
       sodipodi:type="inkscape:persp3d" />
    <inkscape:perspective
       id="perspective4727"
       inkscape:persp3d-origin="0.5 : 0.33333333 : 1"
       inkscape:vp_z="1 : 0.5 : 1"
       inkscape:vp_y="0 : 1000 : 0"
       inkscape:vp_x="0 : 0.5 : 1"
       sodipodi:type="inkscape:persp3d" />
    <inkscape:perspective
       id="perspective4749"
       inkscape:persp3d-origin="0.5 : 0.33333333 : 1"
       inkscape:vp_z="1 : 0.5 : 1"
       inkscape:vp_y="0 : 1000 : 0"
       inkscape:vp_x="0 : 0.5 : 1"
       sodipodi:type="inkscape:persp3d" />
    <inkscape:perspective
       id="perspective4771"
       inkscape:persp3d-origin="0.5 : 0.33333333 : 1"
       inkscape:vp_z="1 : 0.5 : 1"
       inkscape:vp_y="0 : 1000 : 0"
       inkscape:vp_x="0 : 0.5 : 1"
       sodipodi:type="inkscape:persp3d" />
    <inkscape:perspective
       id="perspective5029"
       inkscape:persp3d-origin="0.5 : 0.33333333 : 1"
       inkscape:vp_z="1 : 0.5 : 1"
       inkscape:vp_y="0 : 1000 : 0"
       inkscape:vp_x="0 : 0.5 : 1"
       sodipodi:type="inkscape:persp3d" />
    <inkscape:perspective
       id="perspective5045"
       inkscape:persp3d-origin="0.5 : 0.33333333 : 1"
       inkscape:vp_z="1 : 0.5 : 1"
       inkscape:vp_y="0 : 1000 : 0"
       inkscape:vp_x="0 : 0.5 : 1"
       sodipodi:type="inkscape:persp3d" />
    <inkscape:perspective
       id="perspective5045-0"
       inkscape:persp3d-origin="0.5 : 0.33333333 : 1"
       inkscape:vp_z="1 : 0.5 : 1"
       inkscape:vp_y="0 : 1000 : 0"
       inkscape:vp_x="0 : 0.5 : 1"
       sodipodi:type="inkscape:persp3d" />
    <inkscape:perspective
       id="perspective5267"
       inkscape:persp3d-origin="0.5 : 0.33333333 : 1"
       inkscape:vp_z="1 : 0.5 : 1"
       inkscape:vp_y="0 : 1000 : 0"
       inkscape:vp_x="0 : 0.5 : 1"
       sodipodi:type="inkscape:persp3d" />
    <inkscape:perspective
       id="perspective5283"
       inkscape:persp3d-origin="0.5 : 0.33333333 : 1"
       inkscape:vp_z="1 : 0.5 : 1"
       inkscape:vp_y="0 : 1000 : 0"
       inkscape:vp_x="0 : 0.5 : 1"
       sodipodi:type="inkscape:persp3d" />
    <inkscape:perspective
       id="perspective5424"
       inkscape:persp3d-origin="0.5 : 0.33333333 : 1"
       inkscape:vp_z="1 : 0.5 : 1"
       inkscape:vp_y="0 : 1000 : 0"
       inkscape:vp_x="0 : 0.5 : 1"
       sodipodi:type="inkscape:persp3d" />
    <inkscape:perspective
       id="perspective5442"
       inkscape:persp3d-origin="0.5 : 0.33333333 : 1"
       inkscape:vp_z="1 : 0.5 : 1"
       inkscape:vp_y="0 : 1000 : 0"
       inkscape:vp_x="0 : 0.5 : 1"
       sodipodi:type="inkscape:persp3d" />
    <inkscape:perspective
       id="perspective5464"
       inkscape:persp3d-origin="0.5 : 0.33333333 : 1"
       inkscape:vp_z="1 : 0.5 : 1"
       inkscape:vp_y="0 : 1000 : 0"
       inkscape:vp_x="0 : 0.5 : 1"
       sodipodi:type="inkscape:persp3d" />
    <inkscape:perspective
       id="perspective5604"
       inkscape:persp3d-origin="0.5 : 0.33333333 : 1"
       inkscape:vp_z="1 : 0.5 : 1"
       inkscape:vp_y="0 : 1000 : 0"
       inkscape:vp_x="0 : 0.5 : 1"
       sodipodi:type="inkscape:persp3d" />
    <inkscape:perspective
       id="perspective5620"
       inkscape:persp3d-origin="0.5 : 0.33333333 : 1"
       inkscape:vp_z="1 : 0.5 : 1"
       inkscape:vp_y="0 : 1000 : 0"
       inkscape:vp_x="0 : 0.5 : 1"
       sodipodi:type="inkscape:persp3d" />
    <inkscape:perspective
       id="perspective5642"
       inkscape:persp3d-origin="0.5 : 0.33333333 : 1"
       inkscape:vp_z="1 : 0.5 : 1"
       inkscape:vp_y="0 : 1000 : 0"
       inkscape:vp_x="0 : 0.5 : 1"
       sodipodi:type="inkscape:persp3d" />
    <inkscape:perspective
       id="perspective5938"
       inkscape:persp3d-origin="0.5 : 0.33333333 : 1"
       inkscape:vp_z="1 : 0.5 : 1"
       inkscape:vp_y="0 : 1000 : 0"
       inkscape:vp_x="0 : 0.5 : 1"
       sodipodi:type="inkscape:persp3d" />
    <inkscape:perspective
       id="perspective5956"
       inkscape:persp3d-origin="0.5 : 0.33333333 : 1"
       inkscape:vp_z="1 : 0.5 : 1"
       inkscape:vp_y="0 : 1000 : 0"
       inkscape:vp_x="0 : 0.5 : 1"
       sodipodi:type="inkscape:persp3d" />
  </defs>
  <sodipodi:namedview
     id="base"
     pagecolor="#ffffff"
     bordercolor="#666666"
     borderopacity="1.0"
     inkscape:pageopacity="0.0"
     inkscape:pageshadow="2"
     inkscape:zoom="1.8751522"
     inkscape:cx="21.000385"
     inkscape:cy="150.53445"
     inkscape:document-units="px"
     inkscape:current-layer="layer1"
     showgrid="false"
     inkscape:window-width="1920"
     inkscape:window-height="1071"
     inkscape:window-x="0"
     inkscape:window-y="0"
     inkscape:window-maximized="0"
     fit-margin-top="0"
     fit-margin-left="0"
     fit-margin-right="0"
     fit-margin-bottom="0" />
  <metadata
     id="metadata7">
    <rdf:RDF>
      <cc:Work
         rdf:about="">
        <dc:format>image/svg+xml</dc:format>
        <dc:type
           rdf:resource="http://purl.org/dc/dcmitype/StillImage" />
        <dc:title />
      </cc:Work>
    </rdf:RDF>
  </metadata>
  <g
     inkscape:label="Ebene 1"
     inkscape:groupmode="layer"
     id="layer1"
     transform="translate(-363.68402,-672.6778)">
    <path
       style="fill:#000000"
       d="m 199.375,27.375 c -4.28611,0.01958 -8.63403,0.993045 -12.59375,2.9375 C 172.67674,37.23865 162,58.37029 162,79.375 c 0,21.71054 10.65299,42.78861 25.3125,50.09375 11.84573,5.90297 26.38226,1.90819 35.875,-9.875 2.60944,-3.23905 5.60052,-7.74661 6.65625,-10 C 243.54539,80.34832 234.79531,42.4681 211.5,30.1875 207.87724,28.27769 203.66111,27.355416 199.375,27.375 z m -80.40625,2.84375 -5.75,3.0625 c -3.14969,1.67847 -5.85337,3.1146 -6,3.21875 -0.22369,0.15889 41.35572,80.40373 43.25,83.46875 0.412,0.66661 1.65727,0.50032 3.53125,-0.46875 l 2.875,-1.46875 -2.59375,-6.28125 c -3.06833,-7.46786 -6.2261,-19.14797 -6.25,-23.03125 -0.0159,-2.59229 -4.69048,-12.17393 -22.15625,-45.375 l -6.90625,-13.125 z m 160.46875,1.1875 c -0.1333,0.02267 -0.22026,0.05783 -0.28125,0.125 -0.4773,0.52557 -7.05945,12.79487 -14.59375,27.25 -10.3792,19.91336 -13.9236,27.66764 -14.625,32 -1.2054,7.44488 -3.1157,14.46289 -5.75,20.9375 -1.9867,4.88305 -2.01825,5.2792 -0.40625,6.21875 0.9471,0.55199 2.45695,1.01455 3.34375,1.03125 1.1199,0.0211 8.0667,-12.36802 22.75,-40.5625 11.6257,-22.32378 21.125,-40.99281 21.125,-41.5 0,-1.420931 -9.563,-5.840055 -11.5625,-5.5 z M 316.375,59.0625 286.78125,91.78125 257.21875,124.5 l 4.59375,4.75 c 2.5402,2.61769 4.9158,4.64269 5.25,4.5 1.1274,-0.48134 58.94645,-64.93271 58.84375,-65.59375 -0.056,-0.36012 -2.2185,-2.55361 -4.8125,-4.875 L 316.375,59.0625 z M 82.5,59.28125 77.65625,63.375 c -2.66698,2.26055 -4.917,4.39105 -5,4.71875 -0.08302,0.32771 13.46727,15.69164 30.125,34.15625 l 30.28125,33.59375 4.59375,-4.90625 4.5625,-4.90625 -2.84375,-3.46875 C 137.79904,120.64838 124.35,105.63405 109.5,89.1875 L 82.5,59.28125 z M 53.6875,98 c -0.219,0 -2.05443,2.47562 -4.0625,5.5 l -3.65625,5.5 9.75,6.25 c 5.3599,3.43812 22.14843,14.20803 37.28125,23.9375 15.13281,9.72947 27.87267,17.61358 28.3125,17.5 0.93714,-0.24199 6.18468,-11.55994 5.59375,-12.0625 C 125.86729,143.7414 54.03606,98 53.6875,98 z m 290.59375,0.4375 c -0.6965,0.26728 -16.91355,10.47436 -36.03125,22.6875 -19.1178,12.21314 -34.85375,22.27675 -34.96875,22.34375 -0.115,0.067 0.88345,2.33585 2.21875,5.0625 1.3354,2.72665 2.45175,5.53125 2.46875,6.21875 0.0172,0.6875 0.31945,1.25 0.65625,1.25 0.507,0 72.031,-45.49627 73.25,-46.59375 0.9137,-0.82262 -6.42145,-11.41859 -7.59375,-10.96875 z M 234,128.71875 229.25,133.1875 C 220.44519,141.42337 209.59789,146 198.90625,146 189.32528,146 176.19382,140.28703 169.5,133.1875 167.85178,131.43939 165.57164,130 164.4375,130 c -3.31271,0 -13.56351,6.62517 -18.15625,11.71875 -13.40344,14.86509 -20.08267,40.99971 -21.875,85.71875 L 123.6875,245 l 9.65625,0 9.65625,0 -0.0625,-2.75 c -0.0377,-1.5125 -0.60022,-12.49295 -1.25,-24.40625 L 140.5,196.1875 146.84375,195.5 c 3.48076,-0.37261 6.48848,-0.51152 6.6875,-0.3125 0.19902,0.19902 1.05882,13.85686 1.9375,30.34375 0.87867,16.48689 3.38346,55.83007 5.5625,87.4375 2.17905,31.60738 3.96875,57.82 3.96875,58.25 0,0.4301 6.3,0.78125 14,0.78125 l 14,0 0,-48 0,-48 6.5,0 6.5,0 0,48 0,48 14.90625,0 14.9375,0 0.59375,-6.25 c 0.73391,-7.8222 7.71735,-127.21709 9.21875,-157.59375 l 0.65625,-13.34375 6.59375,0.6875 c 3.6273,0.3842 6.67545,0.7776 6.78125,0.875 0.2135,0.19651 -1.34305,30.01754 -2.15625,41.375 l -0.5,7.25 8.96875,0 9,0 0,-5.75 C 274.9744,228.40085 273.02495,194.49841 271.96875,186.5 267.97585,156.26319 256.7097,137.30047 238.75,130.53125 L 234,128.71875 z M 35.46875,143.375 c -0.97657,0.0807 -1.701096,1.6401 -2.84375,5.75 -0.93908,3.37768 -1.43595,6.40741 -1.09375,6.75 0.3422,0.34258 18.94546,6.09457 41.3125,12.78125 22.36705,6.68669 41.07955,12.05809 41.59375,11.9375 1.24572,-0.29213 3.82476,-11.76582 2.84375,-12.65625 -0.61779,-0.56075 -23.1396,-7.33544 -81.375,-24.5 -0.151257,-0.0446 -0.29799,-0.074 -0.4375,-0.0625 z m 327.375,0.25 c -1.3171,0.10773 -80.13335,23.32083 -80.53125,23.71875 -0.1788,0.17876 0.6953,4.63163 2.1875,11.25 0.4561,2.02307 2.0862,1.63743 41.5,-10.09375 22.5736,-6.71885 41.23185,-12.41939 41.46875,-12.65625 0.9543,-0.95439 -3.3482,-12.32318 -4.625,-12.21875 z M 27,192 l 0,7 0,7 42.375,0 42.375,0 0.625,-3.125 c 0.34375,-1.71875 0.625,-4.86875 0.625,-7 l 0,-3.875 -43,0 -43,0 z m 258.75,0 0.625,3.125 c 0.3438,1.71875 0.625,4.86875 0.625,7 l 0,3.875 42.5,0 42.5,0 0,-7 0,-7 -43.125,0 -43.125,0 z m 2.25,26.1875 0,7.15625 0,7.15625 37.25,11.125 c 20.4851,6.12629 37.6433,11.06805 38.125,10.96875 1.1936,-0.24615 4.73805,-11.91525 3.84375,-12.65625 C 366.82575,241.61182 355.25,238.04022 341.5,234 c -13.75,-4.04022 -31.4125,-9.23686 -39.25,-11.5625 l -14.25,-4.25 z m -177.5,0.0312 -39.1875,11.625 c -21.54744,6.40374 -39.44445,11.93867 -39.78125,12.28125 -0.33681,0.34259 0.15467,3.37232 1.09375,6.75 1.30595,4.69725 2.07113,6.04435 3.28125,5.6875 54.11833,-15.95905 73.76074,-21.88986 74.40625,-22.5 0.4395,-0.41543 0.66452,-3.71328 0.5,-7.3125 l -0.3125,-6.5312 z m 178,29.75 -0.3125,5.46875 c -0.2955,5.41262 -0.3258,5.44522 -3.6875,5.75 -3.1133,0.28227 -0.7778,1.97764 28.3125,20.5625 17.4294,11.13505 31.92255,20.248 32.21875,20.25 0.7435,0.006 7.32605,-10.96515 6.84375,-11.40625 -0.2139,-0.19563 -14.55,-9.42587 -31.875,-20.5 l -31.5,-20.125 z m -179,0.34375 -22.03125,14.09375 c -12.1106,7.74977 -26.39289,16.90563 -31.75,20.34375 l -9.75,6.25 3.65625,5.5 c 2.00807,3.02438 3.81924,5.5 4.03125,5.5 0.21201,0 14.64163,-9.1125 32.0625,-20.25 30.16942,-19.2879 31.50612,-20.27376 28.21875,-20.75 -3.33413,-0.48302 -3.45448,-0.67615 -3.9375,-5.59375 l -0.5,-5.09375 z M 144,259 l -4.25,0.0625 -4.25,0.0937 -31.71875,35.15625 -31.71875,35.1875 5.125,4.625 5.09375,4.625 13.6875,-15.125 c 7.53065,-8.3193 21.43784,-23.675 30.875,-34.125 L 144,270.5 l 0,-5.75 0,-5.75 z m 112,0 0,6.53125 0,6.5 30.1875,33.46875 30.1875,33.4375 4.71875,-4.21875 c 2.5909,-2.3197 4.53045,-4.75445 4.34375,-5.40625 -0.1867,-0.6519 -14.3877,-16.73934 -31.5625,-35.75 C 264.7434,261.31714 262.44965,259 259.34375,259 L 256,259 z m -110.5625,28.5 -3.09375,6 c -1.71458,3.3 -10.41822,19.93015 -19.3125,36.96875 -8.89429,17.03846 -15.79067,31.11865 -15.34375,31.28125 0.44692,0.1626 3.0625,1.55045 5.8125,3.09375 2.75,1.5434 5.28193,2.5695 5.625,2.25 0.34307,-0.3195 6.75557,-12.34752 14.25,-26.71875 L 147,314.25 146.9063,306.875 C 146.8466,302.8213 146.49086,296.8 146.125,293.5 l -0.6875,-6 z m 109.46875,4.5 c -0.3277,-0.003 -0.8997,5.65138 -1.25,12.5625 l -0.625,12.5625 10.84375,20.6875 c 5.9683,11.37626 11.8166,22.6 13,24.9375 1.1833,2.3375 2.6304,4.25 3.1875,4.25 2.4149,0 11.041,-5.19035 10.75,-6.46875 C 290.3099,358.32315 255.56375,292.006 254.90625,292 z"
       transform="translate(336.68402,645.6778)"
       id="path5946"
       inkscape:connector-curvature="0" />
  </g>
</svg>
