<?xml version="1.0" encoding="UTF-8" standalone="no"?>
<!-- Created with Inkscape (http://www.inkscape.org/) -->

<svg
   xmlns:dc="http://purl.org/dc/elements/1.1/"
   xmlns:cc="http://creativecommons.org/ns#"
   xmlns:rdf="http://www.w3.org/1999/02/22-rdf-syntax-ns#"
   xmlns:svg="http://www.w3.org/2000/svg"
   xmlns="http://www.w3.org/2000/svg"
   xmlns:sodipodi="http://sodipodi.sourceforge.net/DTD/sodipodi-0.dtd"
   xmlns:inkscape="http://www.inkscape.org/namespaces/inkscape"
   width="344.20001"
   height="344.20001"
   id="svg2"
   version="1.1"
   inkscape:version="0.48.2 r9819"
   sodipodi:docname="GE.svg">
  <defs
     id="defs4">
    <inkscape:perspective
       sodipodi:type="inkscape:persp3d"
       inkscape:vp_x="-965.88144 : 609.08931 : 1"
       inkscape:vp_y="0 : 3135.0012 : 0"
       inkscape:vp_z="1252.5634 : 779.2487 : 1"
       inkscape:persp3d-origin="-252.04156 : 266.63723 : 1"
       id="perspective10" />
    <inkscape:perspective
       id="perspective3409"
       inkscape:persp3d-origin="0.5 : 0.33333333 : 1"
       inkscape:vp_z="1 : 0.5 : 1"
       inkscape:vp_y="0 : 1000 : 0"
       inkscape:vp_x="0 : 0.5 : 1"
       sodipodi:type="inkscape:persp3d" />
    <inkscape:perspective
       id="perspective3437"
       inkscape:persp3d-origin="0.5 : 0.33333333 : 1"
       inkscape:vp_z="1 : 0.5 : 1"
       inkscape:vp_y="0 : 1000 : 0"
       inkscape:vp_x="0 : 0.5 : 1"
       sodipodi:type="inkscape:persp3d" />
    <inkscape:perspective
       id="perspective3465"
       inkscape:persp3d-origin="0.5 : 0.33333333 : 1"
       inkscape:vp_z="1 : 0.5 : 1"
       inkscape:vp_y="0 : 1000 : 0"
       inkscape:vp_x="0 : 0.5 : 1"
       sodipodi:type="inkscape:persp3d" />
    <inkscape:perspective
       id="perspective4306"
       inkscape:persp3d-origin="0.5 : 0.33333333 : 1"
       inkscape:vp_z="1 : 0.5 : 1"
       inkscape:vp_y="0 : 1000 : 0"
       inkscape:vp_x="0 : 0.5 : 1"
       sodipodi:type="inkscape:persp3d" />
    <inkscape:perspective
       id="perspective4333"
       inkscape:persp3d-origin="0.5 : 0.33333333 : 1"
       inkscape:vp_z="1 : 0.5 : 1"
       inkscape:vp_y="0 : 1000 : 0"
       inkscape:vp_x="0 : 0.5 : 1"
       sodipodi:type="inkscape:persp3d" />
    <inkscape:perspective
       id="perspective4358"
       inkscape:persp3d-origin="0.5 : 0.33333333 : 1"
       inkscape:vp_z="1 : 0.5 : 1"
       inkscape:vp_y="0 : 1000 : 0"
       inkscape:vp_x="0 : 0.5 : 1"
       sodipodi:type="inkscape:persp3d" />
    <inkscape:perspective
       id="perspective4380"
       inkscape:persp3d-origin="0.5 : 0.33333333 : 1"
       inkscape:vp_z="1 : 0.5 : 1"
       inkscape:vp_y="0 : 1000 : 0"
       inkscape:vp_x="0 : 0.5 : 1"
       sodipodi:type="inkscape:persp3d" />
    <inkscape:perspective
       id="perspective4402"
       inkscape:persp3d-origin="0.5 : 0.33333333 : 1"
       inkscape:vp_z="1 : 0.5 : 1"
       inkscape:vp_y="0 : 1000 : 0"
       inkscape:vp_x="0 : 0.5 : 1"
       sodipodi:type="inkscape:persp3d" />
    <inkscape:perspective
       id="perspective4424"
       inkscape:persp3d-origin="0.5 : 0.33333333 : 1"
       inkscape:vp_z="1 : 0.5 : 1"
       inkscape:vp_y="0 : 1000 : 0"
       inkscape:vp_x="0 : 0.5 : 1"
       sodipodi:type="inkscape:persp3d" />
    <inkscape:perspective
       id="perspective4466"
       inkscape:persp3d-origin="0.5 : 0.33333333 : 1"
       inkscape:vp_z="1 : 0.5 : 1"
       inkscape:vp_y="0 : 1000 : 0"
       inkscape:vp_x="0 : 0.5 : 1"
       sodipodi:type="inkscape:persp3d" />
    <inkscape:perspective
       id="perspective4664"
       inkscape:persp3d-origin="0.5 : 0.33333333 : 1"
       inkscape:vp_z="1 : 0.5 : 1"
       inkscape:vp_y="0 : 1000 : 0"
       inkscape:vp_x="0 : 0.5 : 1"
       sodipodi:type="inkscape:persp3d" />
    <inkscape:perspective
       id="perspective4678"
       inkscape:persp3d-origin="0.5 : 0.33333333 : 1"
       inkscape:vp_z="1 : 0.5 : 1"
       inkscape:vp_y="0 : 1000 : 0"
       inkscape:vp_x="0 : 0.5 : 1"
       sodipodi:type="inkscape:persp3d" />
    <inkscape:perspective
       id="perspective4702"
       inkscape:persp3d-origin="0.5 : 0.33333333 : 1"
       inkscape:vp_z="1 : 0.5 : 1"
       inkscape:vp_y="0 : 1000 : 0"
       inkscape:vp_x="0 : 0.5 : 1"
       sodipodi:type="inkscape:persp3d" />
    <inkscape:perspective
       id="perspective4727"
       inkscape:persp3d-origin="0.5 : 0.33333333 : 1"
       inkscape:vp_z="1 : 0.5 : 1"
       inkscape:vp_y="0 : 1000 : 0"
       inkscape:vp_x="0 : 0.5 : 1"
       sodipodi:type="inkscape:persp3d" />
    <inkscape:perspective
       id="perspective4749"
       inkscape:persp3d-origin="0.5 : 0.33333333 : 1"
       inkscape:vp_z="1 : 0.5 : 1"
       inkscape:vp_y="0 : 1000 : 0"
       inkscape:vp_x="0 : 0.5 : 1"
       sodipodi:type="inkscape:persp3d" />
    <inkscape:perspective
       id="perspective4771"
       inkscape:persp3d-origin="0.5 : 0.33333333 : 1"
       inkscape:vp_z="1 : 0.5 : 1"
       inkscape:vp_y="0 : 1000 : 0"
       inkscape:vp_x="0 : 0.5 : 1"
       sodipodi:type="inkscape:persp3d" />
    <inkscape:perspective
       id="perspective5029"
       inkscape:persp3d-origin="0.5 : 0.33333333 : 1"
       inkscape:vp_z="1 : 0.5 : 1"
       inkscape:vp_y="0 : 1000 : 0"
       inkscape:vp_x="0 : 0.5 : 1"
       sodipodi:type="inkscape:persp3d" />
    <inkscape:perspective
       id="perspective5045"
       inkscape:persp3d-origin="0.5 : 0.33333333 : 1"
       inkscape:vp_z="1 : 0.5 : 1"
       inkscape:vp_y="0 : 1000 : 0"
       inkscape:vp_x="0 : 0.5 : 1"
       sodipodi:type="inkscape:persp3d" />
    <inkscape:perspective
       id="perspective5045-0"
       inkscape:persp3d-origin="0.5 : 0.33333333 : 1"
       inkscape:vp_z="1 : 0.5 : 1"
       inkscape:vp_y="0 : 1000 : 0"
       inkscape:vp_x="0 : 0.5 : 1"
       sodipodi:type="inkscape:persp3d" />
  </defs>
  <sodipodi:namedview
     id="base"
     pagecolor="#ffffff"
     bordercolor="#666666"
     borderopacity="1.0"
     inkscape:pageopacity="0.0"
     inkscape:pageshadow="2"
     inkscape:zoom="1.4595934"
     inkscape:cx="246.92515"
     inkscape:cy="111.97009"
     inkscape:document-units="px"
     inkscape:current-layer="layer1"
     showgrid="false"
     inkscape:window-width="1920"
     inkscape:window-height="1071"
     inkscape:window-x="0"
     inkscape:window-y="0"
     inkscape:window-maximized="0"
     fit-margin-top="0"
     fit-margin-left="0"
     fit-margin-right="0"
     fit-margin-bottom="0" />
  <metadata
     id="metadata7">
    <rdf:RDF>
      <cc:Work
         rdf:about="">
        <dc:format>image/svg+xml</dc:format>
        <dc:type
           rdf:resource="http://purl.org/dc/dcmitype/StillImage" />
        <dc:title />
      </cc:Work>
    </rdf:RDF>
  </metadata>
  <g
     inkscape:label="Ebene 1"
     inkscape:groupmode="layer"
     id="layer1"
     transform="translate(-368.68402,-675.47781)">
    <path
       style="fill:#000000"
       d="m 625.88994,675.4903 c -8.19495,0.20082 -17.05521,4.3949 -24.90625,12.125 -25.752,25.35536 -27.3787,74.80841 -2.875,86.9375 4.6615,2.3074 11.88715,2.77961 17.84375,1.125 10.0756,-2.79879 23.16365,-15.26744 29.59375,-28.1875 13.6662,-27.45975 9.3263,-60.84814 -9.0625,-69.75 -3.30641,-1.6006 -6.86877,-2.34128 -10.59375,-2.25 z m -114.96875,52.6875 c -11.62815,0.0275 -22.55761,0.47405 -28.5625,1.34375 -17.92544,2.59617 -17.2663,2.26213 -24.1875,11.4375 -12.1122,16.05703 -23.13525,36.4665 -28.6875,53.09375 -1.44425,4.32507 -2.625,8.04108 -2.625,8.28125 0,0.99108 25.38585,12.34179 26,11.625 0.36751,-0.42892 2.15297,-4.60625 3.96875,-9.28125 6.60578,-17.00758 13.95881,-29.49642 23.28125,-39.5625 4.77931,-5.16059 6.4135,-6.25036 10.9375,-7.3125 10.1499,-2.38299 21.4621,-2.47558 32.6875,-0.25 5.7139,1.13287 10.6126,2.26887 10.875,2.53125 0.2624,0.26239 -3.3858,4.66591 -8.125,9.78125 -24.1299,26.04458 -30.3855,40.76162 -35.625,83.8125 -3.0017,24.66407 -6.45927,44.45846 -10.28125,58.96875 l -3.28125,12.5 -7.96875,3.34375 c -13.46519,5.6502 -23.12269,7.53125 -38.46875,7.53125 -14.67332,0 -25.02943,-1.8976 -37.125,-6.8125 -3.4404,-1.3979 -6.59259,-2.19815 -7,-1.78125 -0.71766,0.7343 -14.875,30.86235 -14.875,31.65625 0,0.844 14.95181,6.55425 23.5,8.96875 17.31711,4.8912 25.75425,6 45.5,6 13.42142,0.003 21.09372,-0.4747 27.9375,-1.75 10.74858,-2.003 25.7267,-6.5744 34.5625,-10.5625 l 6.03125,-2.71875 4.15625,-10.4375 c 9.6946,-24.36896 12.99315,-40.62613 14.15625,-69.625 l 0.65625,-16.40625 12.65625,16.8125 c 14.0681,18.6934 20.9244,28.96845 29.1875,43.8125 13.4797,24.21545 24.3855,56.23678 28.625,84 0.5879,3.85 1.3161,8.2375 1.625,9.75 l 0.5625,2.75 20.9375,0 20.9375,0 -0.5,-2.25 c -0.286,-1.2375 -2.08155,-9 -3.96875,-17.25 -16.1377,-70.54785 -34.46285,-108.63404 -73.59375,-153 -1.6952,-1.92199 -1.62335,-2.37054 1.46875,-11.5 6.5166,-19.24009 14.75735,-31.30081 26.96875,-39.40625 7.8919,-5.23835 7.84255,-5.24717 11.34375,0.15625 4.6157,7.12317 16.71285,18.9831 25.78125,25.25 l 7.96875,5.5 35.5,0 35.5,0 0.28125,-13.9375 c 0.2101,-10.46753 -0.0381,-14.10839 -1,-14.71875 -0.7036,-0.44652 -8.03125,-0.83345 -16.28125,-0.84375 -8.25,-0.0103 -22.1227,-0.29585 -30.8125,-0.65625 l -15.78125,-0.65625 -7,-6.46875 -6.96875,-6.46875 -5.78125,2.59375 c -16.3823,7.35196 -30.93485,5.31025 -43.21875,-6.0625 -9.6335,-8.91886 -15.9375,-24.99291 -15.9375,-40.625 0,-7.51393 1.5149,-6.64837 -16.5,-9.3125 -8.37338,-1.2383 -24.48702,-1.87914 -39.4375,-1.84375 z"
       id="path5035"
       inkscape:connector-curvature="0" />
  </g>
</svg>
