<?xml version="1.0" encoding="UTF-8" standalone="no"?>
<!-- Created with Inkscape (http://www.inkscape.org/) -->

<svg
   xmlns:dc="http://purl.org/dc/elements/1.1/"
   xmlns:cc="http://creativecommons.org/ns#"
   xmlns:rdf="http://www.w3.org/1999/02/22-rdf-syntax-ns#"
   xmlns:svg="http://www.w3.org/2000/svg"
   xmlns="http://www.w3.org/2000/svg"
   xmlns:sodipodi="http://sodipodi.sourceforge.net/DTD/sodipodi-0.dtd"
   xmlns:inkscape="http://www.inkscape.org/namespaces/inkscape"
   width="334.10001"
   height="334.10001"
   id="svg2"
   version="1.1"
   inkscape:version="0.48.2 r9819"
   sodipodi:docname="IN.svg">
  <defs
     id="defs4">
    <inkscape:perspective
       sodipodi:type="inkscape:persp3d"
       inkscape:vp_x="-965.88144 : 609.08931 : 1"
       inkscape:vp_y="0 : 3135.0012 : 0"
       inkscape:vp_z="1252.5634 : 779.2487 : 1"
       inkscape:persp3d-origin="-252.04156 : 266.63723 : 1"
       id="perspective10" />
    <inkscape:perspective
       id="perspective3409"
       inkscape:persp3d-origin="0.5 : 0.33333333 : 1"
       inkscape:vp_z="1 : 0.5 : 1"
       inkscape:vp_y="0 : 1000 : 0"
       inkscape:vp_x="0 : 0.5 : 1"
       sodipodi:type="inkscape:persp3d" />
    <inkscape:perspective
       id="perspective3437"
       inkscape:persp3d-origin="0.5 : 0.33333333 : 1"
       inkscape:vp_z="1 : 0.5 : 1"
       inkscape:vp_y="0 : 1000 : 0"
       inkscape:vp_x="0 : 0.5 : 1"
       sodipodi:type="inkscape:persp3d" />
    <inkscape:perspective
       id="perspective3465"
       inkscape:persp3d-origin="0.5 : 0.33333333 : 1"
       inkscape:vp_z="1 : 0.5 : 1"
       inkscape:vp_y="0 : 1000 : 0"
       inkscape:vp_x="0 : 0.5 : 1"
       sodipodi:type="inkscape:persp3d" />
    <inkscape:perspective
       id="perspective4306"
       inkscape:persp3d-origin="0.5 : 0.33333333 : 1"
       inkscape:vp_z="1 : 0.5 : 1"
       inkscape:vp_y="0 : 1000 : 0"
       inkscape:vp_x="0 : 0.5 : 1"
       sodipodi:type="inkscape:persp3d" />
    <inkscape:perspective
       id="perspective4333"
       inkscape:persp3d-origin="0.5 : 0.33333333 : 1"
       inkscape:vp_z="1 : 0.5 : 1"
       inkscape:vp_y="0 : 1000 : 0"
       inkscape:vp_x="0 : 0.5 : 1"
       sodipodi:type="inkscape:persp3d" />
    <inkscape:perspective
       id="perspective4358"
       inkscape:persp3d-origin="0.5 : 0.33333333 : 1"
       inkscape:vp_z="1 : 0.5 : 1"
       inkscape:vp_y="0 : 1000 : 0"
       inkscape:vp_x="0 : 0.5 : 1"
       sodipodi:type="inkscape:persp3d" />
    <inkscape:perspective
       id="perspective4380"
       inkscape:persp3d-origin="0.5 : 0.33333333 : 1"
       inkscape:vp_z="1 : 0.5 : 1"
       inkscape:vp_y="0 : 1000 : 0"
       inkscape:vp_x="0 : 0.5 : 1"
       sodipodi:type="inkscape:persp3d" />
    <inkscape:perspective
       id="perspective4402"
       inkscape:persp3d-origin="0.5 : 0.33333333 : 1"
       inkscape:vp_z="1 : 0.5 : 1"
       inkscape:vp_y="0 : 1000 : 0"
       inkscape:vp_x="0 : 0.5 : 1"
       sodipodi:type="inkscape:persp3d" />
    <inkscape:perspective
       id="perspective4424"
       inkscape:persp3d-origin="0.5 : 0.33333333 : 1"
       inkscape:vp_z="1 : 0.5 : 1"
       inkscape:vp_y="0 : 1000 : 0"
       inkscape:vp_x="0 : 0.5 : 1"
       sodipodi:type="inkscape:persp3d" />
    <inkscape:perspective
       id="perspective4466"
       inkscape:persp3d-origin="0.5 : 0.33333333 : 1"
       inkscape:vp_z="1 : 0.5 : 1"
       inkscape:vp_y="0 : 1000 : 0"
       inkscape:vp_x="0 : 0.5 : 1"
       sodipodi:type="inkscape:persp3d" />
    <inkscape:perspective
       id="perspective4664"
       inkscape:persp3d-origin="0.5 : 0.33333333 : 1"
       inkscape:vp_z="1 : 0.5 : 1"
       inkscape:vp_y="0 : 1000 : 0"
       inkscape:vp_x="0 : 0.5 : 1"
       sodipodi:type="inkscape:persp3d" />
    <inkscape:perspective
       id="perspective4678"
       inkscape:persp3d-origin="0.5 : 0.33333333 : 1"
       inkscape:vp_z="1 : 0.5 : 1"
       inkscape:vp_y="0 : 1000 : 0"
       inkscape:vp_x="0 : 0.5 : 1"
       sodipodi:type="inkscape:persp3d" />
    <inkscape:perspective
       id="perspective4702"
       inkscape:persp3d-origin="0.5 : 0.33333333 : 1"
       inkscape:vp_z="1 : 0.5 : 1"
       inkscape:vp_y="0 : 1000 : 0"
       inkscape:vp_x="0 : 0.5 : 1"
       sodipodi:type="inkscape:persp3d" />
    <inkscape:perspective
       id="perspective4727"
       inkscape:persp3d-origin="0.5 : 0.33333333 : 1"
       inkscape:vp_z="1 : 0.5 : 1"
       inkscape:vp_y="0 : 1000 : 0"
       inkscape:vp_x="0 : 0.5 : 1"
       sodipodi:type="inkscape:persp3d" />
    <inkscape:perspective
       id="perspective4749"
       inkscape:persp3d-origin="0.5 : 0.33333333 : 1"
       inkscape:vp_z="1 : 0.5 : 1"
       inkscape:vp_y="0 : 1000 : 0"
       inkscape:vp_x="0 : 0.5 : 1"
       sodipodi:type="inkscape:persp3d" />
    <inkscape:perspective
       id="perspective4771"
       inkscape:persp3d-origin="0.5 : 0.33333333 : 1"
       inkscape:vp_z="1 : 0.5 : 1"
       inkscape:vp_y="0 : 1000 : 0"
       inkscape:vp_x="0 : 0.5 : 1"
       sodipodi:type="inkscape:persp3d" />
    <inkscape:perspective
       id="perspective5029"
       inkscape:persp3d-origin="0.5 : 0.33333333 : 1"
       inkscape:vp_z="1 : 0.5 : 1"
       inkscape:vp_y="0 : 1000 : 0"
       inkscape:vp_x="0 : 0.5 : 1"
       sodipodi:type="inkscape:persp3d" />
    <inkscape:perspective
       id="perspective5045"
       inkscape:persp3d-origin="0.5 : 0.33333333 : 1"
       inkscape:vp_z="1 : 0.5 : 1"
       inkscape:vp_y="0 : 1000 : 0"
       inkscape:vp_x="0 : 0.5 : 1"
       sodipodi:type="inkscape:persp3d" />
    <inkscape:perspective
       id="perspective5045-0"
       inkscape:persp3d-origin="0.5 : 0.33333333 : 1"
       inkscape:vp_z="1 : 0.5 : 1"
       inkscape:vp_y="0 : 1000 : 0"
       inkscape:vp_x="0 : 0.5 : 1"
       sodipodi:type="inkscape:persp3d" />
    <inkscape:perspective
       id="perspective5267"
       inkscape:persp3d-origin="0.5 : 0.33333333 : 1"
       inkscape:vp_z="1 : 0.5 : 1"
       inkscape:vp_y="0 : 1000 : 0"
       inkscape:vp_x="0 : 0.5 : 1"
       sodipodi:type="inkscape:persp3d" />
    <inkscape:perspective
       id="perspective5283"
       inkscape:persp3d-origin="0.5 : 0.33333333 : 1"
       inkscape:vp_z="1 : 0.5 : 1"
       inkscape:vp_y="0 : 1000 : 0"
       inkscape:vp_x="0 : 0.5 : 1"
       sodipodi:type="inkscape:persp3d" />
    <inkscape:perspective
       id="perspective5424"
       inkscape:persp3d-origin="0.5 : 0.33333333 : 1"
       inkscape:vp_z="1 : 0.5 : 1"
       inkscape:vp_y="0 : 1000 : 0"
       inkscape:vp_x="0 : 0.5 : 1"
       sodipodi:type="inkscape:persp3d" />
    <inkscape:perspective
       id="perspective5442"
       inkscape:persp3d-origin="0.5 : 0.33333333 : 1"
       inkscape:vp_z="1 : 0.5 : 1"
       inkscape:vp_y="0 : 1000 : 0"
       inkscape:vp_x="0 : 0.5 : 1"
       sodipodi:type="inkscape:persp3d" />
    <inkscape:perspective
       id="perspective5464"
       inkscape:persp3d-origin="0.5 : 0.33333333 : 1"
       inkscape:vp_z="1 : 0.5 : 1"
       inkscape:vp_y="0 : 1000 : 0"
       inkscape:vp_x="0 : 0.5 : 1"
       sodipodi:type="inkscape:persp3d" />
    <inkscape:perspective
       id="perspective5604"
       inkscape:persp3d-origin="0.5 : 0.33333333 : 1"
       inkscape:vp_z="1 : 0.5 : 1"
       inkscape:vp_y="0 : 1000 : 0"
       inkscape:vp_x="0 : 0.5 : 1"
       sodipodi:type="inkscape:persp3d" />
    <inkscape:perspective
       id="perspective5620"
       inkscape:persp3d-origin="0.5 : 0.33333333 : 1"
       inkscape:vp_z="1 : 0.5 : 1"
       inkscape:vp_y="0 : 1000 : 0"
       inkscape:vp_x="0 : 0.5 : 1"
       sodipodi:type="inkscape:persp3d" />
    <inkscape:perspective
       id="perspective5642"
       inkscape:persp3d-origin="0.5 : 0.33333333 : 1"
       inkscape:vp_z="1 : 0.5 : 1"
       inkscape:vp_y="0 : 1000 : 0"
       inkscape:vp_x="0 : 0.5 : 1"
       sodipodi:type="inkscape:persp3d" />
    <inkscape:perspective
       id="perspective5938"
       inkscape:persp3d-origin="0.5 : 0.33333333 : 1"
       inkscape:vp_z="1 : 0.5 : 1"
       inkscape:vp_y="0 : 1000 : 0"
       inkscape:vp_x="0 : 0.5 : 1"
       sodipodi:type="inkscape:persp3d" />
    <inkscape:perspective
       id="perspective5956"
       inkscape:persp3d-origin="0.5 : 0.33333333 : 1"
       inkscape:vp_z="1 : 0.5 : 1"
       inkscape:vp_y="0 : 1000 : 0"
       inkscape:vp_x="0 : 0.5 : 1"
       sodipodi:type="inkscape:persp3d" />
    <inkscape:perspective
       id="perspective6078"
       inkscape:persp3d-origin="0.5 : 0.33333333 : 1"
       inkscape:vp_z="1 : 0.5 : 1"
       inkscape:vp_y="0 : 1000 : 0"
       inkscape:vp_x="0 : 0.5 : 1"
       sodipodi:type="inkscape:persp3d" />
    <inkscape:perspective
       id="perspective6094"
       inkscape:persp3d-origin="0.5 : 0.33333333 : 1"
       inkscape:vp_z="1 : 0.5 : 1"
       inkscape:vp_y="0 : 1000 : 0"
       inkscape:vp_x="0 : 0.5 : 1"
       sodipodi:type="inkscape:persp3d" />
    <inkscape:perspective
       id="perspective6234"
       inkscape:persp3d-origin="0.5 : 0.33333333 : 1"
       inkscape:vp_z="1 : 0.5 : 1"
       inkscape:vp_y="0 : 1000 : 0"
       inkscape:vp_x="0 : 0.5 : 1"
       sodipodi:type="inkscape:persp3d" />
    <inkscape:perspective
       id="perspective6250"
       inkscape:persp3d-origin="0.5 : 0.33333333 : 1"
       inkscape:vp_z="1 : 0.5 : 1"
       inkscape:vp_y="0 : 1000 : 0"
       inkscape:vp_x="0 : 0.5 : 1"
       sodipodi:type="inkscape:persp3d" />
    <inkscape:perspective
       id="perspective6372"
       inkscape:persp3d-origin="0.5 : 0.33333333 : 1"
       inkscape:vp_z="1 : 0.5 : 1"
       inkscape:vp_y="0 : 1000 : 0"
       inkscape:vp_x="0 : 0.5 : 1"
       sodipodi:type="inkscape:persp3d" />
    <inkscape:perspective
       id="perspective6388"
       inkscape:persp3d-origin="0.5 : 0.33333333 : 1"
       inkscape:vp_z="1 : 0.5 : 1"
       inkscape:vp_y="0 : 1000 : 0"
       inkscape:vp_x="0 : 0.5 : 1"
       sodipodi:type="inkscape:persp3d" />
  </defs>
  <sodipodi:namedview
     id="base"
     pagecolor="#ffffff"
     bordercolor="#666666"
     borderopacity="1.0"
     inkscape:pageopacity="0.0"
     inkscape:pageshadow="2"
     inkscape:zoom="1.8025207"
     inkscape:cx="37.557492"
     inkscape:cy="165.62585"
     inkscape:document-units="px"
     inkscape:current-layer="layer1"
     showgrid="false"
     inkscape:window-width="1920"
     inkscape:window-height="1071"
     inkscape:window-x="0"
     inkscape:window-y="0"
     inkscape:window-maximized="0"
     fit-margin-top="0"
     fit-margin-left="0"
     fit-margin-right="0"
     fit-margin-bottom="0" />
  <metadata
     id="metadata7">
    <rdf:RDF>
      <cc:Work
         rdf:about="">
        <dc:format>image/svg+xml</dc:format>
        <dc:type
           rdf:resource="http://purl.org/dc/dcmitype/StillImage" />
        <dc:title />
      </cc:Work>
    </rdf:RDF>
  </metadata>
  <g
     inkscape:label="Ebene 1"
     inkscape:groupmode="layer"
     id="layer1"
     transform="translate(-367.68402,-683.17681)">
    <path
       style="fill:#000000"
       d="m 534.84908,683.1778 -2.25,14.5 c -1.23805,7.975 -2.2783,14.6125 -2.3125,14.75 -0.0342,0.1375 -1.3734,0.25 -2.96875,0.25 -1.59534,0 -8.07779,0.88684 -14.40625,1.96875 -21.92734,3.74866 -41.81107,12.3177 -58.40625,25.1875 -3.4257,2.65668 -6.68723,4.84375 -7.25,4.84375 -0.56277,0 -13.29472,-9.12325 -28.28125,-20.28125 -27.57087,-20.52749 -29.75,-22.10854 -29.75,-21.5 0,0.18631 9.60414,13.33371 21.34375,29.21875 l 21.34375,28.875 -5.3125,7.09375 c -14.03906,18.74019 -25.3148,49.86157 -25.375,69.96875 -0.008,2.81546 -0.39429,5.69786 -0.84375,6.40625 -0.49184,0.77522 -6.87095,2.1794 -16,3.5 -8.34213,1.20677 -15.15625,2.44646 -15.15625,2.75 0,0.30354 7.09391,1.58823 15.78125,2.875 l 15.8125,2.34375 1.15625,9.625 c 2.79971,23.27834 11.15417,42.5866 29.65625,68.5625 0.62793,0.8816 -5.44585,9.86125 -20.0625,29.65625 -11.5335,15.6194 -21.36996,29.04815 -21.84375,29.84375 -1.03592,1.7397 -1.90116,2.36675 31.875,-22.78125 l 26.875,-20 7.125,5.3125 c 18.22962,13.6179 41.21552,22.6046 65.03125,25.4375 4.3406,0.5163 8.16531,1.4079 8.53125,2 0.36594,0.5921 1.73577,8.51514 3.03125,17.59375 1.29548,9.0787 2.55313,16.3218 2.78125,16.0938 0.22813,-0.2281 4.16608,-25.92655 8.78125,-57.12505 4.61516,-31.1985 8.53281,-56.8302 8.6875,-56.9375 0.15469,-0.1074 3.43741,-1.77995 7.3125,-3.71875 l 7.0625,-3.53125 9.9375,5.625 c 23.38768,13.231 21.72035,12.4178 20.375,9.875 -0.66659,-1.2599 -4.65467,-8.38125 -8.875,-15.84375 l -7.6875,-13.5625 3.6875,-6.9375 3.6875,-6.9375 56.875,-8.625 c 31.28988,-4.73979 56.23125,-8.87564 55.40625,-9.1875 -0.825,-0.31186 -26.46412,-4.19493 -56.96875,-8.65625 -30.50464,-4.46132 -55.5105,-8.20046 -55.5625,-8.3125 -0.052,-0.11203 -1.57094,-3.29092 -3.375,-7.03125 -1.80405,-3.74033 -3.05205,-7.3568 -2.78125,-8.0625 0.2708,-0.70569 4.14704,-7.71434 8.59375,-15.5625 4.44672,-7.84815 7.47788,-14.02931 6.75,-13.75 -0.72787,0.27931 -7.683,4.10634 -15.4375,8.5 l -14.09375,7.96875 -7.3125,-3.625 c -4.02448,-2.0038 -7.44854,-3.7277 -7.625,-3.8125 -0.30281,-0.1455 -9.1805,-58.84658 -9.1875,-60.75 -0.004,-1.17413 18.23273,0.11 28.03125,1.96875 48.6992,9.23808 88.0358,48.81864 97.46875,98.09375 l 1.5,7.84375 -0.46875,-9.5 c -0.57551,-12.0194 -4.97271,-29.72313 -10.5625,-42.46875 -3.34762,-7.63309 -12.20131,-22.25115 -19.40625,-32.0625 -0.84022,-1.14416 6.51396,-11.50034 38.4375,-54.21875 1.925,-2.57593 2.825,-4.25772 2,-3.75 -0.825,0.50771 -13.425,9.73249 -28,20.5 -14.575,10.7675 -27.03753,19.91201 -27.6875,20.3125 -0.68914,0.42465 -4.02391,-1.39592 -8,-4.375 -13.33479,-9.99109 -26.95748,-16.81165 -42.8125,-21.40625 -9.62202,-2.78836 -24.7452,-5.52525 -30.625,-5.53125 l -3.65625,0 -1.15625,-8.25 c -0.64239,-4.5375 -1.68888,-11.175 -2.3125,-14.75 l -1.125,-6.5 z m -9.125,55.90625 c 0.15207,-0.008 0.25394,0.004 0.28125,0.0312 0.35624,0.35625 -7.16641,52.17968 -8.28125,57.0625 -0.28718,1.25778 -3.01948,3.34152 -7.40625,5.59375 l -7,3.5625 -14.625,-8.40625 c -8.05534,-4.62227 -14.8082,-8.25431 -15,-8.0625 -0.19181,0.19181 3.37682,7.07121 7.9375,15.25 l 8.28125,14.84375 -3.1875,6.125 c -1.75208,3.36139 -3.36607,6.618 -3.59375,7.25 -0.24673,0.68484 -11.62349,2.81074 -28.1875,5.25 -15.28601,2.25106 -27.97059,4.09375 -28.1875,4.09375 -0.71793,0 0.72193,-7.37689 3.125,-16 3.111,-11.16345 11.83416,-28.79999 19.125,-38.625 16.54779,-22.29949 40.59466,-38.7083 67.15625,-45.8125 4.54222,-1.21487 8.49798,-2.10042 9.5625,-2.15625 z m -99.75,120.625 c 0.4125,0.0207 13.30619,1.97084 28.65625,4.3125 l 27.90625,4.25 3.8125,7.125 3.8125,7.15625 -8,14.0625 c -4.4007,7.7492 -8.28049,14.77735 -8.59375,15.59375 -0.31327,0.8164 5.01503,-1.71165 11.8125,-5.59375 20.07763,-11.4664 17.66726,-10.77965 25.28125,-7.03125 4.48741,2.2091 6.70492,3.90545 7.03125,5.40625 0.26182,1.2041 2.75786,17.7125 5.5625,36.6875 2.80465,18.975 5.361,35.5125 5.65625,36.75 0.46451,1.9469 0.12958,2.23425 -2.34375,2.15625 -6.81002,-0.215 -23.92566,-6.0246 -35.53125,-12.0625 -33.90945,-17.6417 -58.16614,-51.29103 -64.3125,-89.1875 -1.59493,-9.83389 -1.97385,-19.6863 -0.75,-19.625 z"
       id="path6378"
       inkscape:connector-curvature="0" />
  </g>
</svg>
