<?xml version="1.0" encoding="UTF-8" standalone="no"?>
<!-- Created with Inkscape (http://www.inkscape.org/) -->

<svg
   xmlns:dc="http://purl.org/dc/elements/1.1/"
   xmlns:cc="http://creativecommons.org/ns#"
   xmlns:rdf="http://www.w3.org/1999/02/22-rdf-syntax-ns#"
   xmlns:svg="http://www.w3.org/2000/svg"
   xmlns="http://www.w3.org/2000/svg"
   xmlns:sodipodi="http://sodipodi.sourceforge.net/DTD/sodipodi-0.dtd"
   xmlns:inkscape="http://www.inkscape.org/namespaces/inkscape"
   width="339.48999"
   height="339.48999"
   id="svg2"
   version="1.1"
   inkscape:version="0.48.2 r9819"
   sodipodi:docname="KO.svg">
  <defs
     id="defs4">
    <inkscape:perspective
       sodipodi:type="inkscape:persp3d"
       inkscape:vp_x="-965.88144 : 609.08931 : 1"
       inkscape:vp_y="0 : 3135.0012 : 0"
       inkscape:vp_z="1252.5634 : 779.2487 : 1"
       inkscape:persp3d-origin="-252.04156 : 266.63723 : 1"
       id="perspective10" />
    <inkscape:perspective
       id="perspective3409"
       inkscape:persp3d-origin="0.5 : 0.33333333 : 1"
       inkscape:vp_z="1 : 0.5 : 1"
       inkscape:vp_y="0 : 1000 : 0"
       inkscape:vp_x="0 : 0.5 : 1"
       sodipodi:type="inkscape:persp3d" />
    <inkscape:perspective
       id="perspective3437"
       inkscape:persp3d-origin="0.5 : 0.33333333 : 1"
       inkscape:vp_z="1 : 0.5 : 1"
       inkscape:vp_y="0 : 1000 : 0"
       inkscape:vp_x="0 : 0.5 : 1"
       sodipodi:type="inkscape:persp3d" />
    <inkscape:perspective
       id="perspective3465"
       inkscape:persp3d-origin="0.5 : 0.33333333 : 1"
       inkscape:vp_z="1 : 0.5 : 1"
       inkscape:vp_y="0 : 1000 : 0"
       inkscape:vp_x="0 : 0.5 : 1"
       sodipodi:type="inkscape:persp3d" />
    <inkscape:perspective
       id="perspective4306"
       inkscape:persp3d-origin="0.5 : 0.33333333 : 1"
       inkscape:vp_z="1 : 0.5 : 1"
       inkscape:vp_y="0 : 1000 : 0"
       inkscape:vp_x="0 : 0.5 : 1"
       sodipodi:type="inkscape:persp3d" />
    <inkscape:perspective
       id="perspective4333"
       inkscape:persp3d-origin="0.5 : 0.33333333 : 1"
       inkscape:vp_z="1 : 0.5 : 1"
       inkscape:vp_y="0 : 1000 : 0"
       inkscape:vp_x="0 : 0.5 : 1"
       sodipodi:type="inkscape:persp3d" />
    <inkscape:perspective
       id="perspective4358"
       inkscape:persp3d-origin="0.5 : 0.33333333 : 1"
       inkscape:vp_z="1 : 0.5 : 1"
       inkscape:vp_y="0 : 1000 : 0"
       inkscape:vp_x="0 : 0.5 : 1"
       sodipodi:type="inkscape:persp3d" />
    <inkscape:perspective
       id="perspective4380"
       inkscape:persp3d-origin="0.5 : 0.33333333 : 1"
       inkscape:vp_z="1 : 0.5 : 1"
       inkscape:vp_y="0 : 1000 : 0"
       inkscape:vp_x="0 : 0.5 : 1"
       sodipodi:type="inkscape:persp3d" />
    <inkscape:perspective
       id="perspective4402"
       inkscape:persp3d-origin="0.5 : 0.33333333 : 1"
       inkscape:vp_z="1 : 0.5 : 1"
       inkscape:vp_y="0 : 1000 : 0"
       inkscape:vp_x="0 : 0.5 : 1"
       sodipodi:type="inkscape:persp3d" />
    <inkscape:perspective
       id="perspective4424"
       inkscape:persp3d-origin="0.5 : 0.33333333 : 1"
       inkscape:vp_z="1 : 0.5 : 1"
       inkscape:vp_y="0 : 1000 : 0"
       inkscape:vp_x="0 : 0.5 : 1"
       sodipodi:type="inkscape:persp3d" />
    <inkscape:perspective
       id="perspective4466"
       inkscape:persp3d-origin="0.5 : 0.33333333 : 1"
       inkscape:vp_z="1 : 0.5 : 1"
       inkscape:vp_y="0 : 1000 : 0"
       inkscape:vp_x="0 : 0.5 : 1"
       sodipodi:type="inkscape:persp3d" />
    <inkscape:perspective
       id="perspective4664"
       inkscape:persp3d-origin="0.5 : 0.33333333 : 1"
       inkscape:vp_z="1 : 0.5 : 1"
       inkscape:vp_y="0 : 1000 : 0"
       inkscape:vp_x="0 : 0.5 : 1"
       sodipodi:type="inkscape:persp3d" />
    <inkscape:perspective
       id="perspective4678"
       inkscape:persp3d-origin="0.5 : 0.33333333 : 1"
       inkscape:vp_z="1 : 0.5 : 1"
       inkscape:vp_y="0 : 1000 : 0"
       inkscape:vp_x="0 : 0.5 : 1"
       sodipodi:type="inkscape:persp3d" />
    <inkscape:perspective
       id="perspective4702"
       inkscape:persp3d-origin="0.5 : 0.33333333 : 1"
       inkscape:vp_z="1 : 0.5 : 1"
       inkscape:vp_y="0 : 1000 : 0"
       inkscape:vp_x="0 : 0.5 : 1"
       sodipodi:type="inkscape:persp3d" />
    <inkscape:perspective
       id="perspective4727"
       inkscape:persp3d-origin="0.5 : 0.33333333 : 1"
       inkscape:vp_z="1 : 0.5 : 1"
       inkscape:vp_y="0 : 1000 : 0"
       inkscape:vp_x="0 : 0.5 : 1"
       sodipodi:type="inkscape:persp3d" />
    <inkscape:perspective
       id="perspective4749"
       inkscape:persp3d-origin="0.5 : 0.33333333 : 1"
       inkscape:vp_z="1 : 0.5 : 1"
       inkscape:vp_y="0 : 1000 : 0"
       inkscape:vp_x="0 : 0.5 : 1"
       sodipodi:type="inkscape:persp3d" />
    <inkscape:perspective
       id="perspective4771"
       inkscape:persp3d-origin="0.5 : 0.33333333 : 1"
       inkscape:vp_z="1 : 0.5 : 1"
       inkscape:vp_y="0 : 1000 : 0"
       inkscape:vp_x="0 : 0.5 : 1"
       sodipodi:type="inkscape:persp3d" />
    <inkscape:perspective
       id="perspective5029"
       inkscape:persp3d-origin="0.5 : 0.33333333 : 1"
       inkscape:vp_z="1 : 0.5 : 1"
       inkscape:vp_y="0 : 1000 : 0"
       inkscape:vp_x="0 : 0.5 : 1"
       sodipodi:type="inkscape:persp3d" />
    <inkscape:perspective
       id="perspective5045"
       inkscape:persp3d-origin="0.5 : 0.33333333 : 1"
       inkscape:vp_z="1 : 0.5 : 1"
       inkscape:vp_y="0 : 1000 : 0"
       inkscape:vp_x="0 : 0.5 : 1"
       sodipodi:type="inkscape:persp3d" />
    <inkscape:perspective
       id="perspective5045-0"
       inkscape:persp3d-origin="0.5 : 0.33333333 : 1"
       inkscape:vp_z="1 : 0.5 : 1"
       inkscape:vp_y="0 : 1000 : 0"
       inkscape:vp_x="0 : 0.5 : 1"
       sodipodi:type="inkscape:persp3d" />
    <inkscape:perspective
       id="perspective5267"
       inkscape:persp3d-origin="0.5 : 0.33333333 : 1"
       inkscape:vp_z="1 : 0.5 : 1"
       inkscape:vp_y="0 : 1000 : 0"
       inkscape:vp_x="0 : 0.5 : 1"
       sodipodi:type="inkscape:persp3d" />
    <inkscape:perspective
       id="perspective5283"
       inkscape:persp3d-origin="0.5 : 0.33333333 : 1"
       inkscape:vp_z="1 : 0.5 : 1"
       inkscape:vp_y="0 : 1000 : 0"
       inkscape:vp_x="0 : 0.5 : 1"
       sodipodi:type="inkscape:persp3d" />
    <inkscape:perspective
       id="perspective5424"
       inkscape:persp3d-origin="0.5 : 0.33333333 : 1"
       inkscape:vp_z="1 : 0.5 : 1"
       inkscape:vp_y="0 : 1000 : 0"
       inkscape:vp_x="0 : 0.5 : 1"
       sodipodi:type="inkscape:persp3d" />
    <inkscape:perspective
       id="perspective5442"
       inkscape:persp3d-origin="0.5 : 0.33333333 : 1"
       inkscape:vp_z="1 : 0.5 : 1"
       inkscape:vp_y="0 : 1000 : 0"
       inkscape:vp_x="0 : 0.5 : 1"
       sodipodi:type="inkscape:persp3d" />
    <inkscape:perspective
       id="perspective5464"
       inkscape:persp3d-origin="0.5 : 0.33333333 : 1"
       inkscape:vp_z="1 : 0.5 : 1"
       inkscape:vp_y="0 : 1000 : 0"
       inkscape:vp_x="0 : 0.5 : 1"
       sodipodi:type="inkscape:persp3d" />
    <inkscape:perspective
       id="perspective5699"
       inkscape:persp3d-origin="0.5 : 0.33333333 : 1"
       inkscape:vp_z="1 : 0.5 : 1"
       inkscape:vp_y="0 : 1000 : 0"
       inkscape:vp_x="0 : 0.5 : 1"
       sodipodi:type="inkscape:persp3d" />
  </defs>
  <sodipodi:namedview
     id="base"
     pagecolor="#ffffff"
     bordercolor="#666666"
     borderopacity="1.0"
     inkscape:pageopacity="0.0"
     inkscape:pageshadow="2"
     inkscape:zoom="1.0393567"
     inkscape:cx="491.14907"
     inkscape:cy="63.702361"
     inkscape:document-units="px"
     inkscape:current-layer="layer1"
     showgrid="false"
     inkscape:window-width="1920"
     inkscape:window-height="1071"
     inkscape:window-x="0"
     inkscape:window-y="0"
     inkscape:window-maximized="0"
     fit-margin-top="0"
     fit-margin-left="0"
     fit-margin-right="0"
     fit-margin-bottom="0" />
  <metadata
     id="metadata7">
    <rdf:RDF>
      <cc:Work
         rdf:about="">
        <dc:format>image/svg+xml</dc:format>
        <dc:type
           rdf:resource="http://purl.org/dc/dcmitype/StillImage" />
        <dc:title />
      </cc:Work>
    </rdf:RDF>
  </metadata>
  <g
     inkscape:label="Ebene 1"
     inkscape:groupmode="layer"
     id="layer1"
     transform="translate(-373.74081,-675.89716)">
    <path
       style="fill:#000000"
       d="m 574.38884,675.8969 c -5.46412,0.0177 -10.15464,2.26807 -14.5625,6.8125 -10.5439,10.87063 -26.22311,38.77903 -32.4375,57.75 -5.28146,16.12286 -6.66603,26.14754 -6.09375,43.71875 0.51436,15.79282 2.08965,23.83703 7.09375,36 l 2.46875,6 -4.15625,1.84375 c -7.2611,3.18496 -8.60081,2.82844 -10.90625,-2.84375 -5.96052,-14.66498 -9.41343,-35.21552 -8.53125,-50.6875 l 0.5,-8.78125 -2.9375,1.75 c -1.61678,0.95247 -5.49891,3.86433 -8.625,6.46875 l -5.6875,4.71875 -2,-2.3125 c -1.1,-1.27905 -5.28076,-6.17348 -9.28125,-10.875 -13.55134,-15.92597 -40.40746,-40.55616 -49.0625,-44.96875 -15.81341,-8.06214 -40.06797,13.73199 -41.875,37.625 -0.50963,6.73851 -0.29363,8.02389 2.15625,13.03125 2.35867,4.82096 3.79189,6.22832 10.875,10.78125 27.79511,17.86635 40.01159,27.02467 52.03125,39 6.3847,6.36116 7.74839,8.23851 7.25,10.03125 -4.18417,15.05075 -4.46707,36.13851 -0.6875,49.9375 4.71853,17.22707 15.2126,37.92659 28.1875,55.5625 8.58774,11.67272 33.32638,36.60024 44.34375,44.6875 24.0128,17.62645 47.70825,29.3584 67.65625,33.5001 2.4195,0.5024 9.58125,0.8304 15.90625,0.7187 9.5798,-0.1693 12.26155,-0.5904 16.03125,-2.4375 10.8925,-5.337 23.83925,-18.62917 31.90625,-32.75005 4.5662,-7.99285 11.59685,-25.3094 10.65625,-26.25 -0.2907,-0.29071 -1.5578,0.1387 -2.8125,0.9375 -2.9798,1.89711 -11.86345,5.31926 -18.78125,7.25 -9.3367,2.60585 -23.22555,3.56312 -35.28125,2.4375 -40.9614,-3.82452 -73.9585,-28.81633 -86.9375,-65.875 -2.4448,-6.98067 -4.87197,-19.31977 -3.96875,-20.125 0.91018,-0.81143 11.5183,-2.80333 12.3125,-2.3125 0.3407,0.21057 0.8924,2.58552 1.25,5.28125 0.9108,6.86628 4.94205,18.27767 9.21875,26.0625 15.6936,28.56683 48.03765,45.62574 82.90625,43.75 12.5272,-0.6739 19.9208,-2.41895 30.125,-7.125 35.7261,-16.47653 45.6421,-53.9536 27.125,-102.53125 -2.8367,-7.44182 -12.09365,-26.23471 -14.84375,-30.125 l -1.84375,-2.59375 -8.78125,1.375 c -4.8276,0.76518 -13.4435,2.51394 -19.125,3.875 -5.6816,1.36106 -10.872,2.46875 -11.5625,2.46875 -1.2542,0 -4.8175,-10.80229 -4,-12.125 0.5278,-0.8541 19.29605,-5.36329 28.90625,-6.9375 9.2434,-1.51413 13.6861,-4.56276 17.1875,-11.8125 2.2811,-4.72309 2.74225,-6.98477 2.78125,-14.125 0.1219,-22.13008 -12.65645,-40.5149 -27.96875,-40.28125 -5.3288,0.0813 -13.5217,3.21237 -30,11.53125 -9.373,4.73185 -12.05935,7.05172 -17.40625,15 -9.4049,13.98075 -14.0761,29.99741 -12.3125,42.15625 0.5647,3.89328 1.3103,7.852 1.6875,8.78125 0.5627,1.38579 -0.4299,2.03153 -5.625,3.59375 -3.4836,1.04755 -6.51485,1.7577 -6.71875,1.59375 -1.1755,-0.94562 -3.09475,-12.96862 -3.09375,-19.375 0.003,-11.44013 2.27925,-20.2108 8.40625,-32.5 5.3212,-10.67296 12.07665,-20.46891 21.78125,-31.59375 8.042,-9.21896 8.48675,-18.16106 1.59375,-31.09375 -3.642,-6.83312 -13.309,-16.26413 -20.0625,-19.59375 -5.42128,-2.67281 -10.12513,-4.01375 -14.375,-4 z m -0.21875,13.78125 c 6.19202,-0.31484 16.01377,5.99608 21.75,14.65625 3.4656,5.2321 4.99085,12.55787 3.09375,14.84375 -4.5532,5.48629 -22.95295,-5.96233 -27.65625,-17.21875 -1.9006,-4.5489 -1.9931,-10.26203 -0.1875,-11.40625 0.851,-0.53928 1.85333,-0.8167 3,-0.875 z m -151.8125,43 c 1.61065,-0.0158 2.9413,0.64518 3.75,2.15625 3.92669,7.33708 -5.05188,26.76498 -14.4375,31.21875 -4.08603,1.93894 -6.82469,2.08156 -8.46875,0.4375 -1.64911,-1.64911 -1.4855,-9.68 0.28125,-14.6875 3.62563,-10.27616 13.1227,-19.0686 18.875,-19.125 z m 81,1 c -8.93286,0.0177 -17.7115,2.83733 -22.84375,7.59375 l -2.625,2.4375 7.28125,7.875 7.28125,7.875 4.03125,-2.75 c 2.21337,-1.51703 6.38416,-3.95897 9.25,-5.40625 5.40857,-2.73138 5.92766,-3.60707 7.875,-13.34375 0.61402,-3.0701 0.54508,-3.14811 -4.09375,-3.84375 -2.03365,-0.30497 -4.09482,-0.44159 -6.15625,-0.4375 z m 147.5,11.125 c 3.04999,0.0222 7.17425,4.18992 10.25,10.4375 4.084,8.29576 5.05905,18.95213 2.21875,24.4375 -2.3882,4.61213 -5.19825,4.92185 -9.59375,1.0625 -4.8923,-4.29548 -7.9484,-11.93763 -8.4375,-21.0625 -0.439,-8.18725 1.57475,-14.17981 4.96875,-14.8125 0.19298,-0.036 0.39042,-0.064 0.59375,-0.0625 z"
       id="path5430"
       inkscape:connector-curvature="0" />
  </g>
</svg>
