<?xml version="1.0" encoding="UTF-8" standalone="no"?>
<svg
   xmlns:dc="http://purl.org/dc/elements/1.1/"
   xmlns:cc="http://creativecommons.org/ns#"
   xmlns:rdf="http://www.w3.org/1999/02/22-rdf-syntax-ns#"
   xmlns:svg="http://www.w3.org/2000/svg"
   xmlns="http://www.w3.org/2000/svg"
   xmlns:sodipodi="http://sodipodi.sourceforge.net/DTD/sodipodi-0.dtd"
   xmlns:inkscape="http://www.inkscape.org/namespaces/inkscape"
   viewBox="0 0 400 400.14181"
   id="svg3281"
   version="1.1"
   inkscape:version="0.48.2 r9819"
   width="100%"
   height="100%"
   sodipodi:docname="beherrschen.svg"
   inkscape:export-filename="/Users/jens/Documents/Rollenspiel/AdZ/Git/Regelwerk/Ressourcen/Techniken/beherrschen.png"
   inkscape:export-xdpi="352.04156"
   inkscape:export-ydpi="352.04156">
  <metadata
     id="metadata3307">
    <rdf:RDF>
      <cc:Work
         rdf:about="">
        <dc:format>image/svg+xml</dc:format>
        <dc:type
           rdf:resource="http://purl.org/dc/dcmitype/StillImage" />
        <dc:title></dc:title>
      </cc:Work>
    </rdf:RDF>
  </metadata>
  <defs
     id="defs3305" />
  <sodipodi:namedview
     pagecolor="#ffffff"
     bordercolor="#666666"
     borderopacity="1"
     objecttolerance="10"
     gridtolerance="10"
     guidetolerance="10"
     inkscape:pageopacity="0"
     inkscape:pageshadow="2"
     inkscape:window-width="1214"
     inkscape:window-height="815"
     id="namedview3303"
     showgrid="false"
     inkscape:zoom="0.27773285"
     inkscape:cx="354.75265"
     inkscape:cy="209.06988"
     inkscape:window-x="518"
     inkscape:window-y="230"
     inkscape:window-maximized="0"
     inkscape:current-layer="svg3281"
     fit-margin-top="0"
     fit-margin-left="0"
     fit-margin-right="0"
     fit-margin-bottom="0" />
  <path
     style="fill:#000000"
     d="M 189.64829,400.03185 C 169.796,399.23994 151.45719,395.98589 133.30745,390.03472 73.953953,370.57309 26.665935,324.63026 5.3554477,265.72249 c -2.09436,-5.78937 -5.59009304,-17.1911 -5.34302404,-17.42689 0.04169,-0.0398 0.95882,1.47464 2.03805704,3.36541 4.233332,7.41661 9.2145113,14.79241 14.8563993,21.9984 8.723926,11.14244 19.784202,22.20697 31.065589,31.0775 43.426264,34.14598 99.889151,46.68291 154.196021,34.23741 19.89273,-4.55882 39.76749,-12.96392 57.33811,-24.24843 19.363,-12.43565 36.87457,-29.13946 50.28486,-47.96539 30.10938,-42.26884 40.7575,-95.12065 29.43576,-146.1039 C 328.24314,71.194084 296.01163,27.48255 251.85876,2.1698616 c -2.00103,-1.147189 -3.60324,-2.12083004 -3.56044,-2.16363604 0.14197,-0.141965 8.0539,2.17587204 12.62719,3.69917304 39.56444,13.1784724 74.05699,38.1764114 99.1087,71.8275054 22.32792,29.992296 36.22744,66.578926 39.26205,103.346476 0.12962,1.57051 0.28914,3.4497 0.35451,4.17599 0.51364,5.70711 0.44924,21.43954 -0.11777,28.77187 -2.03146,26.26986 -8.54407,50.45768 -19.87159,73.80323 -14.01304,28.88025 -35.15616,54.47968 -61.07713,73.95032 -30.32506,22.77875 -66.59557,36.59345 -104.55456,39.8227 -7.64277,0.65019 -17.47902,0.90367 -24.38143,0.62836 z M 119.13987,293.0796 c -9.61931,-0.95603 -16.35579,-2.87331 -24.173317,-6.88006 -11.50684,-5.89763 -20.1764,-14.46153 -25.58197,-25.2702 -3.83105,-7.66031 -5.56655,-15.00062 -5.84481,-24.72068 -0.0842,-2.93943 -0.26243,-5.08792 -0.53877,-6.49305 -0.227154,-1.15503 -0.710254,-4.51571 -1.073554,-7.46818 -0.91639,-7.44734 -1.75452,-11.7242 -4.73236,-24.14847 -5.48134,-22.86948 -12.4588,-40.26319 -23.129756,-57.65877 -3.382866,-5.51468 -8.974835,-13.54775 -12.383016,-17.78867 -0.581118,-0.7231 -1.056578,-1.37965 -1.056578,-1.45899 0,-0.0793 0.87843,-1.31633 1.952065,-2.74884 3.39225,-4.52616 6.973493,-7.6201 10.346218,-8.9384 6.250767,-2.44324 13.687737,0.78008 22.736287,9.85431 6.89806,6.91764 16.083094,19.72363 23.023534,32.09993 2.11426,3.77017 4.86222,10.08358 6.84942,15.73646 0.48325,1.37465 0.67403,1.68748 0.96037,1.57472 0.19652,-0.0774 3.56974,-1.28182 7.49603,-2.67653 3.92629,-1.39471 7.166027,-2.559 7.199437,-2.58729 0.0334,-0.0283 -0.37563,-1.27614 -0.90899,-2.77298 -2.618607,-7.34905 -6.174867,-15.17022 -9.939347,-21.85927 -0.89252,-1.58591 -1.62276,-2.99406 -1.62276,-3.12925 0,-0.13516 2.9582,-5.71426 6.57378,-12.39798 l 6.573777,-12.15222 5.40785,-46.331046 c 2.97431,-25.482094 5.44284,-46.437515 5.48562,-46.567616 0.13593,-0.413401 3.01113,-1.658788 5.17275,-2.240572 1.87354,-0.504256 2.50179,-0.562688 6.15026,-0.572045 3.01826,-0.008 4.54386,0.08726 5.93062,0.369191 2.54398,0.517255 5.72015,1.520523 7.7677,2.453625 1.83736,0.837312 4.91397,2.729574 5.45449,3.354764 0.30099,0.34815 -0.25519,4.933419 -5.66863,46.732703 -3.30131,25.49067 -6.00434,46.544346 -6.00673,46.785966 -0.003,0.34429 2.04097,1.69281 9.45238,6.23498 5.2012,3.18762 9.533,5.70813 9.62625,5.60114 0.0933,-0.10699 11.76535,-23.96642 25.93803,-53.020946 14.17269,-29.054534 25.84669,-52.914593 25.94226,-53.022359 0.23671,-0.266941 7.56583,1.057487 10.85235,1.961103 6.58072,1.809342 11.38083,4.539652 15.50289,8.818062 1.88706,1.95864 3.7167,4.25681 3.7167,4.66848 0,0.12335 -12.76132,24.399644 -28.35849,53.947334 -15.59718,29.547676 -28.3233,53.748576 -28.28026,53.779766 3.20472,2.32271 11.18612,8.41917 13.35993,10.20478 1.62691,1.33638 2.97098,2.41001 2.9868,2.38587 0.0507,-0.0773 80.29679,-85.680176 81.01824,-86.426536 l 0.69421,-0.71818 1.29214,0.44456 c 5.67519,1.95255 11.66037,7.58328 15.02808,14.13816 1.67769,3.2654 3.02978,7.78103 2.84646,9.50638 -0.0602,0.56608 -6.80139,7.981616 -38.63716,42.501856 -21.21036,22.99889 -38.87392,42.16977 -39.25236,42.60198 l -0.68809,0.78582 2.21598,2.94826 c 2.67199,3.55495 5.46755,7.70981 7.64365,11.36028 0.88557,1.48557 1.71821,2.65748 1.85028,2.60426 0.13208,-0.0532 14.47362,-8.29828 31.87009,-18.32234 l 31.62996,-18.22558 0.76878,0.38724 c 2.39652,1.20713 5.72344,4.37475 7.69467,7.32622 2.80114,4.1941 4.13311,9.34455 3.63043,14.03827 l -0.15657,1.46208 -2.56403,1.36182 c -20.97194,11.13866 -46.53281,26.25714 -63.18813,37.37385 -10.73053,7.16219 -17.45461,12.09286 -27.01725,19.81145 -7.11948,5.74656 -10.48494,8.43573 -21.85541,17.46349 -7.96366,6.32287 -10.38387,8.30145 -17.43524,14.25386 -9.63011,8.1292 -19.00252,13.34632 -30.09452,16.75201 -3.51891,1.08045 -8.46667,2.26937 -10.78797,2.59227 -1.85682,0.25832 -8.17851,0.46744 -9.6647,0.31975 z"
     id="path3149"
     inkscape:connector-curvature="0" />
</svg>
