<?xml version="1.0" encoding="UTF-8" standalone="no"?>
<svg
   xmlns:dc="http://purl.org/dc/elements/1.1/"
   xmlns:cc="http://creativecommons.org/ns#"
   xmlns:rdf="http://www.w3.org/1999/02/22-rdf-syntax-ns#"
   xmlns:svg="http://www.w3.org/2000/svg"
   xmlns="http://www.w3.org/2000/svg"
   xmlns:sodipodi="http://sodipodi.sourceforge.net/DTD/sodipodi-0.dtd"
   xmlns:inkscape="http://www.inkscape.org/namespaces/inkscape"
   version="1.1"
   id="Your_Icon"
   x="0px"
   y="0px"
   width="400"
   height="400"
   viewBox="5 -10 400 540"
   enable-background="new 0 0 100 100"
   xml:space="preserve"
   inkscape:version="0.48.2 r9819"
   sodipodi:docname="erkennen.svg"><metadata
   id="metadata15"><rdf:RDF><cc:Work
       rdf:about=""><dc:format>image/svg+xml</dc:format><dc:type
         rdf:resource="http://purl.org/dc/dcmitype/StillImage" /><dc:title /></cc:Work></rdf:RDF></metadata><defs
   id="defs13" /><sodipodi:namedview
   pagecolor="#ffffff"
   bordercolor="#666666"
   borderopacity="1"
   objecttolerance="10"
   gridtolerance="10"
   guidetolerance="10"
   inkscape:pageopacity="0"
   inkscape:pageshadow="2"
   inkscape:window-width="1179"
   inkscape:window-height="798"
   id="namedview11"
   showgrid="false"
   inkscape:zoom="1.0771035"
   inkscape:cx="156.68739"
   inkscape:cy="176.26832"
   inkscape:window-x="0"
   inkscape:window-y="0"
   inkscape:window-maximized="0"
   inkscape:current-layer="Your_Icon"
   fit-margin-top="0"
   fit-margin-left="0"
   fit-margin-right="0"
   fit-margin-bottom="0" />

<g
   id="g3290"
   transform="matrix(5.4,0,0,5.4,-22,179)"><g
     id="g3286"><path
       d="m -7.962963,14.999 c 0,-3.124 15.625,-24.999 50,-24.999 34.375,0 50,21.875 50,25 0,3.125 -15.625,25 -50,25 -34.375,0 -50,-21.876 -50,-25.001 z m 50,-20.373 c -11.251,0 -20.372,9.121 -20.372,20.373 0,11.251 9.121,20.373 20.372,20.373 11.252,0 20.373,-9.121 20.373,-20.373 0,-11.251 -9.121,-20.373 -20.373,-20.373 z"
       id="path3"
       inkscape:connector-curvature="0"
       style="fill:#000000" /><path
       d="m 53.535037,15 c 0,6.349 -5.148,11.498 -11.499,11.498 -6.351,0 -11.498,-5.148 -11.498,-11.498 0,-6.351 5.148,-11.498 11.498,-11.498 6.35,0 11.499,5.147 11.499,11.498 z m -15.106,-7.342 c -1.522,0 -2.757,1.234 -2.757,2.757 0,1.523 1.235,2.758 2.757,2.758 1.523,0 2.758,-1.234 2.758,-2.758 -10e-4,-1.523 -1.235,-2.757 -2.758,-2.757 z"
       id="path5"
       inkscape:connector-curvature="0"
       style="fill:#000000" /></g></g>
</svg>