<?xml version="1.0" encoding="UTF-8" standalone="no"?>
<svg
   xmlns:dc="http://purl.org/dc/elements/1.1/"
   xmlns:cc="http://creativecommons.org/ns#"
   xmlns:rdf="http://www.w3.org/1999/02/22-rdf-syntax-ns#"
   xmlns:svg="http://www.w3.org/2000/svg"
   xmlns="http://www.w3.org/2000/svg"
   xmlns:sodipodi="http://sodipodi.sourceforge.net/DTD/sodipodi-0.dtd"
   xmlns:inkscape="http://www.inkscape.org/namespaces/inkscape"
   viewBox="0 0 505.30055 509.68088"
   id="svg2"
   version="1.1"
   inkscape:version="0.48.2 r9819"
   width="100%"
   height="100%"
   sodipodi:docname="feather.svg"
   inkscape:export-filename="/Users/jens/Documents/Rollenspiel/AdZ/Sonstiges Material/game-icons.net/feather.png"
   inkscape:export-xdpi="351"
   inkscape:export-ydpi="351">
  <metadata
     id="metadata34">
    <rdf:RDF>
      <cc:Work
         rdf:about="">
        <dc:format>image/svg+xml</dc:format>
        <dc:type
           rdf:resource="http://purl.org/dc/dcmitype/StillImage" />
        <dc:title></dc:title>
      </cc:Work>
    </rdf:RDF>
  </metadata>
  <defs
     id="defs32" />
  <sodipodi:namedview
     pagecolor="#ffffff"
     bordercolor="#666666"
     borderopacity="1"
     objecttolerance="10"
     gridtolerance="10"
     guidetolerance="10"
     inkscape:pageopacity="0"
     inkscape:pageshadow="2"
     inkscape:window-width="1113"
     inkscape:window-height="775"
     id="namedview30"
     showgrid="false"
     fit-margin-top="0"
     fit-margin-left="0"
     fit-margin-right="0"
     fit-margin-bottom="0"
     inkscape:zoom="0.25972748"
     inkscape:cx="14.375841"
     inkscape:cy="402.76568"
     inkscape:window-x="514"
     inkscape:window-y="114"
     inkscape:window-maximized="0"
     inkscape:current-layer="svg2" />
  <path
     style="fill:#000000"
     d="M 477.69718,2.98e-5 422.69309,16.007061 c -30.25129,8.806097 -55.05668,15.96311 -55.117,15.902806 -0.0603,-0.06026 9.77355,-6.780179 21.84357,-14.938738 12.07006,-8.1585449 21.91196,-14.8615777 21.8783,-14.8953078 -0.0336,-0.033775 -2.99079,0.6737983 -6.57478,1.5720423 -26.80312,6.7175985 -58.94206,18.2985945 -96.00746,34.6022925 -5.41377,2.381326 -6.28544,2.857952 -7.59096,4.134205 -0.81095,0.792798 -17.32038,17.968405 -36.68678,38.171953 -19.36641,20.203556 -35.24527,36.703846 -35.28842,36.660706 -0.0431,-0.0431 5.66168,-11.88839 12.68056,-26.31649 7.01888,-14.428115 12.7219,-26.279249 12.67188,-26.333869 -0.22821,-0.249129 -12.97799,7.378126 -21.93911,13.123503 -16.24646,10.416363 -32.52144,22.2467 -48.77673,35.444766 -3.28651,2.6684 -6.20614,5.06319 -6.48793,5.32409 -0.37753,0.34956 -2.73297,9.4987 -8.93718,34.76732 -7.24558,29.50985 -8.43589,34.11525 -8.5811,33.03894 -0.0928,-0.68788 -0.92614,-12.00494 -1.84996,-25.14399 -0.92383,-13.13905 -1.71711,-23.92547 -1.76313,-23.97147 -0.046,-0.046 -3.63874,3.33564 -7.9818,7.51279 -38.60774,37.13298 -68.128282,75.4164 -87.174488,113.05674 -7.010963,13.8555 -12.754987,28.31936 -16.484728,41.52449 -0.647626,2.29293 -1.210117,4.207 -1.250676,4.2558 -0.04062,0.0488 -7.220738,-4.67931 -15.963615,-10.50923 -8.742878,-5.82992 -15.942726,-10.55615 -15.998343,-10.50055 -0.09879,0.0988 0.958578,3.51957 4.924563,15.92019 6.419355,20.07163 12.995368,35.84926 20.089131,48.1948 1.781416,3.10027 2.472741,4.75087 1.988944,4.75087 -0.061,0 -8.471891,-2.56716 -18.690797,-5.70625 -10.2189071,-3.13911 -18.87010136,-5.78854 -19.22928886,-5.87995 -0.6081087,-0.15473 -0.5774138,-0.0271 0.5298019,1.75442 3.61474386,5.8158 10.18017696,15.48909 13.68806196,20.17599 10.231211,13.66999 20.581096,23.69947 33.203959,32.17909 l 0.616649,0.4169 -2.510057,7.22618 c -9.758321,28.08922 -17.897389,58.39718 -23.849864,88.79866 -2.287054,11.68079 -2.954961,15.52737 -2.727197,15.75513 0.107127,0.10713 4.416618,0.9701 9.571221,1.91946 5.154603,0.94942 9.551045,1.70914 9.770982,1.68496 0.287175,-0.0317 0.578887,-1.06209 1.042241,-3.65651 5.166848,-28.93037 11.656921,-55.12682 21.061872,-85.04659 1.585671,-5.04444 4.149931,-13.29896 5.706262,-18.3434 5.34389,-17.32085 10.225617,-31.15532 16.615006,-47.10913 22.8289,-57.00208 53.72556,-107.92103 91.81244,-151.32424 13.25273,-15.10258 30.00236,-31.82114 45.1289,-45.04203 24.56505,-21.47034 51.38459,-40.58956 80.30441,-57.23623 16.89006,-9.722157 35.76304,-19.204864 54.49166,-27.393478 7.07608,-3.093824 17.95515,-7.562295 18.09152,-7.425931 0.319,0.318985 7.53787,18.561724 7.38251,18.656056 -0.10251,0.06219 -1.93336,0.829861 -4.07341,1.70232 -73.49981,29.963963 -134.45791,72.237693 -183.75519,127.430933 -20.04483,22.44218 -38.85054,48.21468 -54.648,74.90214 -16.34031,27.60454 -31.09695,58.97874 -42.549351,90.47491 -1.47465,4.05552 -2.675078,7.47824 -2.675078,7.60834 0,0.13004 2.845308,0.15441 6.322908,0.0521 14.854841,-0.43696 24.826421,-1.4278 37.034181,-3.67389 4.82935,-0.88854 12.58773,-2.60526 12.8282,-2.8401 0.10237,-0.0998 1.34772,-14.77973 2.77063,-32.62203 1.42291,-17.84231 2.67707,-32.35025 2.77929,-32.2399 0.10221,0.1104 3.27604,13.33197 7.05247,29.38242 3.77645,16.05046 6.94941,29.27145 7.05248,29.38242 0.22935,0.24694 9.53677,-3.4771 15.04296,-6.01893 7.03777,-3.2488 17.16477,-8.96044 17.01453,-9.59725 -0.06,-0.2544 -20.16924,-42.70692 -21.66117,-45.72818 -0.3674,-0.74403 -0.28176,-0.69914 0.8338,0.41689 0.68758,0.68787 8.60137,9.06747 17.57907,18.62131 8.9777,9.55384 16.40885,17.40535 16.51946,17.4488 0.35057,0.13777 6.96938,-5.83278 10.18788,-9.18907 5.55752,-5.79543 8.10208,-9.19989 15.52065,-20.76658 20.9225,-32.6214 37.33104,-54.8073 55.69023,-75.31905 5.71494,-6.38501 20.09992,-20.83319 26.0299,-26.1428 15.24443,-13.64957 31.28375,-25.84557 47.76054,-36.30461 0.74201,-0.471 1.24228,-0.90955 1.11172,-0.98143 -0.13049,-0.0719 -11.13356,-3.99616 -24.44917,-8.72005 -14.62551,-5.18863 -23.92308,-8.61948 -23.48508,-8.66795 0.3988,-0.0442 17.35673,0.42364 37.6769,1.04224 l 36.93864,1.1204 6.27948,-3.29173 c 10.1266,-5.32236 17.81069,-9.99645 25.8388,-15.71173 2.17944,-1.55158 3.00557,-2.27903 2.64034,-2.32768 -0.29235,-0.039 -12.28132,-1.00795 -26.63786,-2.15395 -14.3565,-1.14602 -26.13214,-2.11602 -26.16884,-2.15396 -0.0367,-0.0379 18.03076,-4.31743 40.14351,-9.51042 l 40.20432,-9.44094 2.58823,-2.64902 c 1.42285,-1.45648 4.14762,-4.39359 6.06234,-6.52266 21.14174,-23.508572 34.68511,-48.33149 37.21657,-68.231825 0.5735,-4.508434 0.43783,-12.235451 -0.26923,-15.720422 -1.38906,-6.846469 -4.71153,-13.384362 -9.29331,-18.282605 C 491.78487,6.6912338 484.88167,2.424787 479.08682,0.4690074 L 477.69718,0 z"
     id="path3063"
     inkscape:connector-curvature="0" />
</svg>
