<?xml version="1.0" encoding="UTF-8" standalone="no"?>
<svg
   xmlns:dc="http://purl.org/dc/elements/1.1/"
   xmlns:cc="http://creativecommons.org/ns#"
   xmlns:rdf="http://www.w3.org/1999/02/22-rdf-syntax-ns#"
   xmlns:svg="http://www.w3.org/2000/svg"
   xmlns="http://www.w3.org/2000/svg"
   xmlns:sodipodi="http://sodipodi.sourceforge.net/DTD/sodipodi-0.dtd"
   xmlns:inkscape="http://www.inkscape.org/namespaces/inkscape"
   version="1.1"
   x="0px"
   y="0px"
   width="96.426224"
   height="97.060745"
   viewBox="0 0 96.426224 97.060745"
   enable-background="new 0 0 100 100"
   xml:space="preserve"
   id="svg2"
   inkscape:version="0.91 r13725"
   sodipodi:docname="kooperieren.svg"><metadata
     id="metadata122"><rdf:RDF><cc:Work
         rdf:about=""><dc:format>image/svg+xml</dc:format><dc:type
           rdf:resource="http://purl.org/dc/dcmitype/StillImage" /><dc:title></dc:title></cc:Work></rdf:RDF></metadata><defs
     id="defs120" /><sodipodi:namedview
     pagecolor="#ffffff"
     bordercolor="#666666"
     borderopacity="1"
     objecttolerance="10"
     gridtolerance="10"
     guidetolerance="10"
     inkscape:pageopacity="0"
     inkscape:pageshadow="2"
     inkscape:window-width="1180"
     inkscape:window-height="749"
     id="namedview118"
     showgrid="false"
     inkscape:zoom="3.6960692"
     inkscape:cx="52.281274"
     inkscape:cy="47.186942"
     inkscape:window-x="202"
     inkscape:window-y="72"
     inkscape:window-maximized="0"
     inkscape:current-layer="svg2"
     fit-margin-top="0"
     fit-margin-left="0"
     fit-margin-right="0"
     fit-margin-bottom="0" /><g
     id="Your_Icon"
     transform="translate(-2.2073897,-2.2447066)"><g
       id="g114"><path
         d="M 88.457,57.624 80.386,44.278 c 3.389,-1.009 6.991,-2.049 10.462,-2.216 7.564,-0.352 9.782,-10.454 5.925,-16.83 -3.856,-6.381 -13.871,-9.124 -17.654,-2.568 -1.945,3.36 -4.396,6.079 -6.69,8.45 L 63.793,16.847 c -3.198,-5.302 -10.094,-7 -15.396,-3.79 L 37.466,19.662 C 36.643,16.742 35.893,13.521 35.751,10.036 35.439,2.468 25.296,0.248 18.913,4.104 12.54,7.963 9.809,17.941 16.349,21.766 c 2.721,1.589 5.194,3.875 7.519,6.126 L 7.621,37.715 c -5.3,3.206 -6.995,10.101 -3.8,15.399 l 8.938,14.77 c 2.654,-2.695 5.725,-5.82 8.057,-9.854 3.788,-6.555 13.805,-3.812 17.66,2.569 3.863,6.373 1.642,16.479 -5.928,16.83 -4.119,0.193 -8.428,1.628 -12.337,2.777 l 8.279,13.686 c 3.202,5.299 10.098,6.999 15.396,3.794 L 84.668,73.02 c 5.298,-3.202 6.993,-10.098 3.789,-15.396"
         id="path116"
         inkscape:connector-curvature="0" /></g></g></svg>