<svg xmlns="http://www.w3.org/2000/svg" xmlns:xlink="http://www.w3.org/1999/xlink" version="1.1" id="Layer_2" x="0px" y="0px" width="100px" height="100px" viewBox="0 0 100 100" enable-background="new 0 0 100 100" xml:space="preserve">
<path d="M89.631,47.158c0.55,0,1,0.45,1,1v38.977c0,0.55,0,1.45,0,2V99c0,0.55-0.45,1-1,1h-9.865c-0.55,0-1.45,0-2,0H22.234  c-0.55,0-1.45,0-2,0h-9.865c-0.55,0-1-0.45-1-1v-9.865c0-0.55,0-1.45,0-2V48.158c0-0.55,0.45-1,1-1h9.865c0.55,0,1,0.45,1,1v38.977  c0,0.55,0.45,1,1,1h55.532c0.55,0,1-0.45,1-1V48.158c0-0.55,0.45-1,1-1H89.631z"/>
<path d="M75.952,23.44c-0.389-0.389-1.013-0.377-1.388,0.025L57,42.361c-0.375,0.403-0.681,0.282-0.681-0.268V1c0-0.55-0.45-1-1-1  H44.695c-0.55,0-1,0.45-1,1v41.118c0,0.55-0.306,0.67-0.681,0.268l-17.58-18.917c-0.375-0.403-0.999-0.414-1.388-0.025l-7.521,7.522  c-0.389,0.389-0.4,1.037-0.026,1.439L49.313,67.7c0.374,0.403,0.987,0.403,1.362,0l32.826-35.298  c0.375-0.403,0.363-1.051-0.026-1.439L75.952,23.44z"/>
</svg>