<?xml version="1.0" encoding="UTF-8" standalone="no"?>
<svg
   xmlns:dc="http://purl.org/dc/elements/1.1/"
   xmlns:cc="http://creativecommons.org/ns#"
   xmlns:rdf="http://www.w3.org/1999/02/22-rdf-syntax-ns#"
   xmlns:svg="http://www.w3.org/2000/svg"
   xmlns="http://www.w3.org/2000/svg"
   xmlns:sodipodi="http://sodipodi.sourceforge.net/DTD/sodipodi-0.dtd"
   xmlns:inkscape="http://www.inkscape.org/namespaces/inkscape"
   viewBox="0 0 399.99924 400"
   id="svg2"
   version="1.1"
   inkscape:version="0.48.2 r9819"
   width="100%"
   height="100%"
   sodipodi:docname="versetzen.svg"
   inkscape:export-filename="/Users/jens/Documents/Rollenspiel/AdZ/Git/Regelwerk/Ressourcen/Techniken/versetzen.png"
   inkscape:export-xdpi="352.57001"
   inkscape:export-ydpi="352.57001">
  <metadata
     id="metadata24">
    <rdf:RDF>
      <cc:Work
         rdf:about="">
        <dc:format>image/svg+xml</dc:format>
        <dc:type
           rdf:resource="http://purl.org/dc/dcmitype/StillImage" />
        <dc:title></dc:title>
      </cc:Work>
    </rdf:RDF>
  </metadata>
  <defs
     id="defs22" />
  <sodipodi:namedview
     pagecolor="#ffffff"
     bordercolor="#666666"
     borderopacity="1"
     objecttolerance="10"
     gridtolerance="10"
     guidetolerance="10"
     inkscape:pageopacity="0"
     inkscape:pageshadow="2"
     inkscape:window-width="816"
     inkscape:window-height="590"
     id="namedview20"
     showgrid="false"
     inkscape:zoom="0.19105537"
     inkscape:cx="121.34325"
     inkscape:cy="269.95162"
     inkscape:window-x="763"
     inkscape:window-y="241"
     inkscape:window-maximized="0"
     inkscape:current-layer="svg2"
     fit-margin-top="0"
     fit-margin-left="0"
     fit-margin-right="0"
     fit-margin-bottom="0" />
  <path
     style="fill:#000000"
     d="m 180.79256,395.18835 c -74.51939,-1.7966 -139.111755,-14.1057 -166.828835,-31.792 -5.9268196,-3.7819 -10.7202296,-8.5682 -12.5216796,-12.5031 -0.77201004,-1.6863 -1.44662004,-4.47 -1.442020041258,-5.9502 C 0.00502536,343.33615 0.47293536,341.14445 1.1852154,339.39155 c 1.68308,-4.1421 6.44946,-9.0528 12.7015396,-13.086 19.58603,-12.6352 59.523635,-22.9399 109.247615,-28.1883 9.43474,-0.9959 24.13518,-2.2121 24.33402,-2.0132 0.0914,0.091 0.65526,6.6537 0.68322,7.9516 0.0121,0.5645 -0.0489,0.5946 -1.49583,0.7384 -4.6468,0.4617 -15.30268,1.8382 -20.83964,2.692 -27.72129,4.2745 -48.58016,10.6494 -59.66951,18.2363 -4.09727,2.8031 -6.36998,5.1743 -7.89119,8.2331 -0.93091,1.8719 -0.93633,1.8972 -0.93633,4.3747 0,2.4794 0.005,2.5016 0.9387,4.3748 1.10492,2.2161 2.57607,4.0576 4.68618,5.8658 21.73351,18.6237 98.5906,29.6188 172.82498,24.7241 48.45712,-3.195 86.95029,-12.6098 101.08745,-24.7241 2.11013,-1.8082 3.58126,-3.6497 4.6862,-5.8658 0.93391,-1.8732 0.93869,-1.8954 0.93869,-4.3748 0,-2.4775 -0.005,-2.5028 -0.93634,-4.3747 -3.0825,-6.1982 -11.19356,-11.4853 -25.5462,-16.6519 -13.27837,-4.7799 -34.4825,-9.2147 -55.98208,-11.7085 -8.23466,-0.9552 -7.48662,-0.7978 -7.48662,-1.5748 0,-0.9546 0.45878,-7.44 0.54554,-7.7119 0.085,-0.2664 1.95267,-0.1575 11.74593,0.6845 54.79539,4.711 99.87022,15.6222 121.09211,29.3127 4.62386,2.9829 9.01535,6.9823 11.06242,10.0748 1.79317,2.7089 2.81578,5.8092 2.82431,8.5627 0.005,1.4802 -0.66999,4.2639 -1.44201,5.9502 -1.80144,3.9349 -6.59487,8.7212 -12.52168,12.5031 -32.86387,20.9704 -116.43561,33.9282 -205.04413,31.792 z m 15.08499,-48.6205 c -9.79791,-0.2316 -22.15502,-1.6658 -27.60576,-3.2038 l -0.78799,-0.2224 -2.52764,-34.1401 c -1.39019,-18.777 -2.57963,-34.5017 -2.64316,-34.9437 l -0.11552,-0.8037 -4.94939,-0.2725 C 116.2618,270.72485 78.1493,265.02795 50.19212,256.97935 20.266165,248.36405 2.9305354,237.60963 0.57331536,226.19762 c -0.44423,-2.15065 -0.44397,-3.09991 0.001,-5.26044 C 3.1429054,208.47702 23.637785,196.78555 58.43612,187.92947 c 14.92894,-3.79938 33.10911,-7.17024 50.61852,-9.3854 1.53643,-0.19437 3.13586,-0.41439 3.55428,-0.48891 l 0.76077,-0.1355 -0.15483,1.31635 c -0.15271,1.29831 -0.79965,8.66991 -0.80516,9.17443 -0.002,0.14284 -0.43025,0.32714 -0.95264,0.40957 -0.52238,0.0824 -3.66509,0.75603 -6.98379,1.49692 -21.5143,4.80296 -36.06217,10.82897 -43.02465,17.82165 -2.51086,2.52175 -3.62882,4.32328 -4.15926,6.70239 -2.72373,12.21647 18.83039,23.86262 57.68754,31.16978 12.78877,2.4049 30.05348,4.6329 43.66443,5.6347 l 2.09693,0.1543 -0.1433,-1.431 c -0.17436,-1.7416 -1.70398,-22.39497 -1.70398,-23.00773 0,-0.42859 -0.27761,-0.43628 -15.75543,-0.43628 l -15.75544,0 0.003,-3.63157 c 0.007,-7.4146 0.76326,-26.05609 1.33046,-32.79589 0.11895,-1.41352 0.27521,-3.47513 0.34723,-4.58136 0.29271,-4.49607 1.47628,-14.41623 2.57306,-21.56595 0.7709,-5.02548 1.24053,-7.4921 2.48261,-13.0393 0.49117,-2.19357 0.83439,-4.04695 0.76272,-4.11863 -0.0717,-0.0717 -2.5678,-0.36281 -5.54691,-0.64694 C 78.83069,141.72849 37.062555,131.54217 16.038615,118.9153 10.442335,115.5542 5.3147354,111.10559 3.0377554,107.63598 -0.22384464,102.66605 -0.59759464,97.93739 1.8768054,92.947679 4.9961554,86.657389 12.416285,80.774409 24.143425,75.293809 48.79082,63.775009 88.51087,55.347169 137.8833,51.160379 c 3.62598,-0.30749 7.09553,-0.55896 7.7101,-0.55882 l 1.11741,2.2e-4 0.0542,4.34616 0.0541,4.34617 -0.7246,0.11318 c -0.39853,0.0623 -3.43989,0.42491 -6.75859,0.80586 -42.15443,4.83897 -72.61217,14.84364 -80.3175,26.38247 -2.81494,4.21541 -2.59772,8.81399 0.6079,12.869411 7.05334,8.92314 25.98728,16.57028 54.67969,22.08431 8.20301,1.57644 25.47589,4.13835 27.90147,4.13835 0.49501,0 0.6948,-0.2168 1.2871,-1.39675 3.97857,-7.9259 10.01364,-14.83733 16.21118,-18.5652 3.75687,-2.25979 6.43715,-3.12949 15.96745,-5.18111 4.18886,-0.90175 7.64735,-1.6726 7.68552,-1.71299 0.0381,-0.0404 -0.88713,-1.28025 -2.05616,-2.75522 -5.43091,-6.852161 -8.16427,-10.447091 -9.43056,-12.403221 -8.53453,-13.18369 -11.02049,-30.96151 -6.62512,-47.37804 4.00109,-14.943958 13.94302,-26.9860984 25.26626,-30.6036984 3.33722,-1.0661997 4.45262,-1.2047397 8.55625,-1.0627497 3.90505,0.13512 5.91075,0.46181 8.76355,1.4273997 11.23115,3.80143 20.68365,15.0704904 24.80223,29.5685984 2.16413,7.61807 2.89471,15.53632 2.11925,22.96907 -0.78524,7.52685 -2.66798,14.12771 -5.82924,20.43728 -1.9905,3.97288 -2.45691,4.67182 -10.40422,15.59183 -1.56511,2.150511 -2.77483,3.970131 -2.6883,4.043601 0.0865,0.0735 3.82803,0.79696 8.31442,1.60774 9.07667,1.64034 11.30349,2.25703 15.10055,4.18192 3.23487,1.63989 5.70226,3.40015 8.41275,6.00176 3.68916,3.54094 6.74697,7.71957 9.26404,12.65975 0.6889,1.35206 1.27512,2.48615 1.30272,2.5202 0.11091,0.13687 9.99531,-1.15768 15.95808,-2.09002 18.6257,-2.91231 34.113,-6.74892 46.00956,-11.39778 3.83226,-1.49755 10.31614,-4.75433 13.0112,-6.53538 4.15109,-2.74328 6.83254,-5.466 8.28901,-8.41663 2.11138,-4.277401 1.47938,-8.196491 -1.9739,-12.240361 -8.18936,-9.58988 -31.54667,-17.81052 -65.20245,-22.94811 -5.74126,-0.8764 -17.10631,-2.30234 -21.00724,-2.6357 l -2.01134,-0.17188 0.0804,-4.35789 c 0.0442,-2.39684 0.11559,-4.39572 0.15858,-4.44196 0.10631,-0.11434 11.39907,0.76606 18.53347,1.4449 56.6817,5.39321 100.51556,16.90502 119.786,31.45865 2.68566,2.0283 5.9115,5.35635 7.38916,7.62325 3.7748,5.791081 3.63211,11.518961 -0.43058,17.283601 -1.29838,1.84227 -4.52793,5.08933 -6.76697,6.8036 -17.81982,13.64346 -57.73337,24.75745 -109.69747,30.54543 -3.3187,0.36965 -7.8442,0.83239 -10.05666,1.0283 -5.53858,0.49045 -5.02862,0.29036 -4.67393,1.83397 1.42565,6.20415 3.08077,18.35916 4.11621,30.22892 0.66014,7.5675 1.3399,27.63081 1.3399,39.54753 l 0,8.72444 -14.97325,0 -14.97325,0 0,0.49848 c 0,0.27416 -0.35535,5.81869 -0.78969,12.32119 -0.43434,6.50254 -0.73246,11.87994 -0.66251,11.94994 0.20138,0.2014 15.40003,-1.2562 23.01815,-2.2074 50.78325,-6.34137 82.18801,-19.69081 79.91282,-33.96919 -1.19893,-7.52399 -11.394,-14.60598 -29.51777,-20.50446 -6.57398,-2.13954 -16.36134,-4.63447 -23.84915,-6.07947 -1.31177,-0.25315 -2.40343,-0.48262 -2.42589,-0.50994 -0.0876,-0.1066 -0.69775,-10.33539 -0.62177,-10.42381 0.0999,-0.11624 4.50205,0.43286 11.70007,1.45941 47.74581,6.80928 82.66363,18.32409 95.86434,31.61309 2.32429,2.33983 3.75853,4.27969 4.82581,6.52707 7.19847,15.15795 -13.363,30.4105 -55.7704,41.3706 -26.95757,6.9671 -62.54373,11.9675 -99.67267,14.0055 -2.64267,0.1451 -4.85342,0.3086 -4.91279,0.3633 -0.0594,0.055 -1.13558,15.696 -2.39161,34.7584 -1.25601,19.0624 -2.32962,34.7786 -2.38576,34.9249 -0.19746,0.5146 -8.48572,2.0094 -14.78105,2.6658 -6.32861,0.6598 -16.11687,1.0376 -22.7951,0.8797 z"
     id="path4460"
     inkscape:connector-curvature="0" />
</svg>
