<?xml version="1.0" encoding="UTF-8" standalone="no"?>
<!-- Created with Inkscape (http://www.inkscape.org/) -->

<svg
   xmlns:dc="http://purl.org/dc/elements/1.1/"
   xmlns:cc="http://creativecommons.org/ns#"
   xmlns:rdf="http://www.w3.org/1999/02/22-rdf-syntax-ns#"
   xmlns:svg="http://www.w3.org/2000/svg"
   xmlns="http://www.w3.org/2000/svg"
   xmlns:sodipodi="http://sodipodi.sourceforge.net/DTD/sodipodi-0.dtd"
   xmlns:inkscape="http://www.inkscape.org/namespaces/inkscape"
   width="212.59843"
   height="204.05383"
   id="svg2"
   version="1.1"
   inkscape:version="0.47 r22583"
   sodipodi:docname="Neues Dokument 1">
  <defs
     id="defs4">
    <inkscape:perspective
       sodipodi:type="inkscape:persp3d"
       inkscape:vp_x="0 : 526.18109 : 1"
       inkscape:vp_y="0 : 1000 : 0"
       inkscape:vp_z="744.09448 : 526.18109 : 1"
       inkscape:persp3d-origin="372.04724 : 350.78739 : 1"
       id="perspective10" />
    <inkscape:perspective
       id="perspective2884"
       inkscape:persp3d-origin="0.5 : 0.33333333 : 1"
       inkscape:vp_z="1 : 0.5 : 1"
       inkscape:vp_y="0 : 1000 : 0"
       inkscape:vp_x="0 : 0.5 : 1"
       sodipodi:type="inkscape:persp3d" />
  </defs>
  <sodipodi:namedview
     id="base"
     pagecolor="#ffffff"
     bordercolor="#666666"
     borderopacity="1.0"
     inkscape:pageopacity="0.0"
     inkscape:pageshadow="2"
     inkscape:zoom="0.86542969"
     inkscape:cx="243.35405"
     inkscape:cy="35.121167"
     inkscape:document-units="px"
     inkscape:current-layer="layer1"
     showgrid="false"
     inkscape:window-width="1376"
     inkscape:window-height="861"
     inkscape:window-x="0"
     inkscape:window-y="0"
     inkscape:window-maximized="0" />
  <metadata
     id="metadata7">
    <rdf:RDF>
      <cc:Work
         rdf:about="">
        <dc:format>image/svg+xml</dc:format>
        <dc:type
           rdf:resource="http://purl.org/dc/dcmitype/StillImage" />
        <dc:title></dc:title>
      </cc:Work>
    </rdf:RDF>
  </metadata>
  <g
     inkscape:label="Ebene 1"
     inkscape:groupmode="layer"
     id="layer1"
     transform="translate(-106.64595,-178.55026)">
    <path
       style="fill:#000000"
       d="m 204.9488,178.55045 -6.35116,0.86724 c -3.48042,0.48409 -9.77978,1.75988 -14.00319,2.83126 l -7.6775,1.93851 -6.24917,3.08629 -6.24913,3.11182 -6.12161,6.1216 -6.12162,6.12162 -3.08629,5.84105 -3.06081,5.81553 -1.63242,6.32567 -1.60694,6.35114 0,5.20339 0,5.20337 1.27532,6.24912 c 0.70893,3.43221 2.2114,8.64575 3.31588,11.58008 1.10447,2.9343 3.05679,6.99595 4.36164,9.02937 1.30487,2.03344 3.17307,4.53109 4.1321,5.56043 l 1.73445,1.88752 -0.91821,5.50946 -0.94377,5.50945 1.24982,5.89206 1.22431,5.89202 1.65794,2.34663 c 0.91932,1.29109 1.68344,2.58593 1.68344,2.85676 0,0.27085 -4.49937,-1.7693 -9.99862,-4.5147 -5.49924,-2.74539 -10.69433,-5.58849 -11.52902,-6.32565 -0.83471,-0.73719 -2.55645,-3.43076 -3.85153,-5.99406 l -2.37212,-4.66777 -3.03527,-2.06601 -3.06082,-2.06605 -2.93326,0 -2.93329,0 -1.68347,1.83648 -1.70892,1.8365 -0.89271,3.26482 c -0.48945,1.79569 -0.8903,4.45787 -0.89274,5.94308 l 0,2.7037 -3.57094,3.23936 -3.54547,3.23935 -1.45384,3.21386 -1.45391,3.21385 0.99474,2.39761 0.96925,2.37212 3.23935,1.45392 3.21387,1.45383 5.10132,-0.22951 c 2.79661,-0.13127 6.72867,-0.27695 8.74881,-0.30611 l 3.67298,-0.0511 20.25235,9.92215 20.27781,9.92209 -0.28057,1.7855 -0.25507,1.75994 -8.92735,4.71876 c -4.90633,2.60364 -11.88495,5.91064 -15.50808,7.3459 l -6.58072,2.62719 -5.10133,-1.02025 -5.12685,-0.99479 -3.03532,0.56117 c -1.67197,0.31364 -3.7083,0.93218 -4.54017,1.37738 l -1.53041,0.8162 -1.1478,2.75471 -1.1478,2.75475 0.86721,2.27009 0.84171,2.29561 4.08112,4.13206 4.08105,4.15765 0.76518,5.22884 c 0.41629,2.87992 0.75614,5.46283 0.76523,5.73902 0.007,0.2761 0.77851,1.46983 1.70895,2.65267 l 1.70894,2.16809 2.75475,0 2.7547,0 1.86198,-0.89273 1.8875,-0.89272 2.27011,-2.98429 c 1.24972,-1.64565 3.4535,-4.78021 4.8973,-6.96336 l 2.62718,-3.97901 12.77886,-6.60628 12.75333,-6.63175 4.20859,3.90256 4.18312,3.92803 3.74951,1.65795 3.77499,1.65793 6.19813,1.12228 6.22363,1.09678 5.7135,0.0252 5.71349,0 5.71354,-1.1988 5.71348,-1.19879 4.8973,-2.39768 4.8973,-2.42309 3.08629,-3.18836 3.11184,-3.16285 12.3197,6.3767 c 6.77241,3.50387 12.99374,6.9766 13.82464,7.72853 0.83092,0.75198 2.58,3.29359 3.90257,5.63702 l 2.39759,4.25957 3.23937,2.55069 3.23934,2.57621 2.80575,0 2.80572,0 1.65794,-1.8365 c 0.91391,-1.01008 2.06508,-3.09074 2.57621,-4.61673 l 0.94371,-2.78025 0,-3.29033 0,-3.29041 4.94831,-4.71874 4.94832,-4.71873 -0.25506,-3.46889 -0.25507,-3.46892 -2.70371,-1.83649 -2.72921,-1.81096 -3.51996,-0.53564 -3.51992,-0.53567 -4.38714,0.9948 -4.41265,0.99474 -15.07446,-7.01434 -15.0745,-6.98885 0,-2.57615 0,-2.60169 20.40537,-9.69257 20.40536,-9.71806 4.08109,0.58666 c 2.24462,0.31111 6.05594,0.5034 8.46824,0.43362 l 4.38714,-0.12736 2.55067,-1.4794 2.55067,-1.50488 1.0968,-2.2446 1.09678,-2.2701 -0.4591,-1.811 -0.45912,-1.81093 -4.51472,-4.99935 -4.51465,-4.97379 0,-2.39766 c 0,-1.30688 -0.54837,-4.22811 -1.22431,-6.50419 l -1.22435,-4.1321 -2.01502,-1.32634 -2.01503,-1.30084 -1.913,0 -1.88751,0 -3.39243,2.19356 -3.36683,2.1681 -3.11183,5.79 -3.11182,5.76456 -9.79458,5.05028 c -5.38702,2.78739 -10.06604,5.08302 -10.38127,5.10135 -0.31519,0.0182 0.3819,-1.76527 1.53043,-3.97905 l 2.09156,-4.03005 0.38258,-6.78477 0.40813,-6.78482 -0.8162,-3.49442 -0.81627,-3.5199 3.51994,-4.1066 3.49443,-4.1066 2.57618,-5.20332 2.57617,-5.22889 1.17334,-5.53496 1.1733,-5.53494 0,-6.37668 0.0252,-6.37669 -1.32632,-5.86656 -1.32634,-5.86652 -1.93849,-4.38716 c -1.06299,-2.41104 -3.57734,-6.69915 -5.58601,-9.51402 l -3.64747,-5.10133 -3.9025,-3.44342 c -2.14458,-1.88982 -5.50723,-4.38107 -7.47348,-5.53496 l -3.57093,-2.09155 -6.73377,-2.27008 -6.70827,-2.2446 -8.72329,-1.68341 -8.72327,-1.68348 -9.28445,0 -9.28446,0 z m -3.54543,4.89731 11.58007,0 11.58005,0 7.88157,1.60693 c 4.33524,0.88488 10.58179,2.51692 13.90116,3.64744 3.31938,1.1305 7.54327,2.94531 9.38646,4.03004 l 3.36686,1.98955 4.41269,4.36165 4.41265,4.36166 3.06082,4.69321 3.08629,4.71875 1.78551,5.07582 1.81093,5.10134 0.38263,9.79459 0.40807,9.79457 -2.14254,6.37669 -2.14258,6.40216 -2.95875,4.61675 -2.95878,4.61672 -0.7907,-2.04057 -0.76523,-2.01502 0.43362,-5.7135 0.43362,-5.71347 1.70897,-4.89732 1.70894,-4.89728 0.0763,-6.30016 0.0762,-6.32565 -1.40289,-2.16807 -1.42836,-2.1426 -1.58143,1.58141 -1.5814,1.58143 0.91825,2.39764 0.91822,2.3976 -0.51013,4.66778 -0.51013,4.6677 -1.70895,4.71874 -1.70896,4.71878 -0.0252,7.34591 -0.0253,7.34595 1.42838,6.78477 1.42836,6.78475 -0.025,4.79528 -0.0256,4.79526 -0.84172,3.13735 -0.8417,3.16282 -2.2701,2.14256 -2.2446,2.16805 -6.68274,2.55069 -6.68278,2.55071 -3.34139,2.4231 -3.34137,2.42313 -1.58141,2.6017 -1.58141,2.60167 -0.51016,3.41788 -0.53563,3.4179 -3.64745,0.91827 -3.64744,0.91821 -11.55455,0.3316 -11.58005,0.33162 -5.12685,-0.71419 c -2.82038,-0.39903 -5.85971,-0.97243 -6.7338,-1.24984 -0.87405,-0.2774 -1.54897,-0.73642 -1.50486,-1.04574 0.0444,-0.30941 0.053,-1.72044 0,-3.11187 l -0.10228,-2.52517 -2.29564,-3.39239 -2.2956,-3.41791 -3.06082,-2.09152 -3.08629,-2.09152 -5.79,-1.96405 c -3.19031,-1.08509 -6.63999,-2.53403 -7.67755,-3.21387 l -1.8875,-1.22432 -1.63242,-3.21383 -1.63245,-3.18835 -0.51014,-4.3361 -0.48461,-4.33618 1.70893,-8.82532 1.70898,-8.82529 0,-6.3257 0,-6.35115 -2.04054,-6.81028 -2.04056,-6.83581 0,-4.13209 0.0252,-4.13208 0.7652,-1.22431 0.76522,-1.19884 -1.32634,-1.45389 c -0.72025,-0.79586 -1.6383,-1.42837 -2.04054,-1.42837 l -0.71422,0 -1.30084,3.06082 -1.27531,3.06079 0.45912,5.30541 0.48464,5.30539 1.86198,6.19813 1.88748,6.19814 -0.28057,6.24912 -0.25507,6.24916 -0.56113,0 c -0.3086,0 -1.73151,-1.96857 -3.16282,-4.36165 l -2.6017,-4.36164 -2.14255,-6.45323 -2.14261,-6.45319 -0.45908,-8.16214 -0.43364,-8.16214 1.30088,-5.10134 1.30084,-5.07581 2.39761,-4.74425 2.39764,-4.76978 3.74946,-4.56571 3.724,-4.59116 5.50946,-3.64749 5.53495,-3.64747 5.91755,-2.11706 5.94305,-2.11704 8.06014,-1.65793 8.08563,-1.63244 z m -4.13206,70.83211 -7.62651,0.91827 c -4.20719,0.49616 -9.44186,1.29047 -11.63107,1.75997 l -3.97903,0.84167 -2.19357,2.2701 -2.19358,2.29565 -0.45917,2.93326 -0.48459,2.95878 2.21906,5.53495 2.19358,5.56047 1.75994,1.93852 c 0.9731,1.06975 2.88739,2.63246 4.23415,3.46887 l 2.44866,1.50495 3.82597,0 3.85152,0.025 2.95879,-3.06079 c 1.62866,-1.67696 4.62726,-5.58038 6.68273,-8.6723 l 3.74951,-5.6115 0.35709,-3.85151 0.38261,-3.85152 -1.32634,-2.55065 -1.32638,-2.57616 -1.70892,-0.91827 -1.73445,-0.91822 z m 31.42424,0 -2.65268,2.37211 -2.65273,2.37216 -0.35708,4.03005 -0.3571,4.05558 3.11184,5.20336 3.11181,5.22889 4.20861,4.48916 4.20859,4.46368 4.51472,-0.38259 4.48915,-0.35709 2.83127,-2.16809 2.83124,-2.16807 2.52517,-6.0706 2.55065,-6.09611 0,-2.47413 c 0,-1.35682 -0.39365,-3.29676 -0.86721,-4.33614 l -0.86723,-1.913 -2.6017,-1.70897 -2.60167,-1.73447 -6.12159,-0.86722 c -3.36691,-0.48758 -8.18853,-1.11773 -10.71286,-1.40287 l -4.5912,-0.53564 z m 71.67388,23.46617 1.35184,0.86725 1.37738,0.84173 0.63765,2.39763 c 0.35586,1.3124 0.70992,4.02805 0.7907,6.04509 l 0.15327,3.67297 3.90252,3.85149 c 2.14493,2.1225 4.31776,4.67495 4.84627,5.66252 l 0.96925,1.81098 -1.37738,0.99473 -1.35183,0.99477 -3.59643,0.53563 -3.59644,0.53566 -3.44342,-0.94374 -3.46891,-0.91826 -2.42315,0.48464 c -1.33128,0.26623 -10.35156,4.21743 -20.04826,8.77431 -9.69675,4.55687 -17.99244,8.54149 -18.44136,8.85081 -0.44891,0.30932 -1.52278,0.79229 -2.37213,1.09683 l -1.5304,0.56111 0.4591,-3.92804 c 0.25668,-2.16699 1.06757,-5.42415 1.78551,-7.21837 l 1.30084,-3.26488 15.68663,-7.80506 15.6866,-7.83055 1.35186,-1.5304 c 0.75121,-0.839 2.58768,-3.67673 4.08108,-6.32565 l 2.72922,-4.82077 2.27008,-1.68345 2.27011,-1.70898 z m -174.72097,0.43362 2.65268,2.34664 2.65272,2.34662 1.58141,3.13733 c 0.87343,1.72602 2.52631,4.17903 3.67297,5.45843 l 2.09155,2.32112 15.99268,8.0346 15.99274,8.00911 1.35182,4.79529 c 0.74153,2.64265 1.35189,5.80925 1.35189,7.01433 l 0,2.19357 -0.61216,-0.0762 c -0.33672,-0.0405 -8.69274,-4.05964 -18.56889,-8.92736 l -17.95671,-8.85084 -3.39243,-0.76517 -3.36688,-0.73971 -4.9228,0.73971 -4.92277,0.73969 -3.29039,-0.86724 -3.29034,-0.89272 -0.53563,-0.84174 -0.51014,-0.81622 1.30084,-1.98952 c 0.71136,-1.08566 2.80406,-3.3612 4.64223,-5.07583 l 3.34136,-3.11181 0.3571,-4.46369 c 0.20461,-2.45472 0.75625,-5.45498 1.22432,-6.65727 l 0.86724,-2.19357 1.14778,-0.43361 1.14781,-0.43363 z m 84.96283,3.21387 c -0.40238,0 -1.90882,1.34916 -3.36687,3.00977 l -2.65269,3.00982 -1.53042,3.44339 -1.5304,3.44339 -0.48462,4.76977 -0.51015,4.76975 1.27536,3.06079 1.30084,3.0608 1.42836,0 1.42837,0 2.67821,-2.62718 2.70371,-2.60165 0,-11.68209 0,-11.65656 -0.7397,0 z m 4.00457,0 0,11.58005 0,11.60555 2.62719,2.70373 2.65273,2.72921 1.63241,-0.22961 1.60694,-0.22951 1.09675,-2.04056 1.07128,-2.04054 -0.38259,-5.8155 -0.38256,-5.81556 -1.70899,-3.34136 c -0.93967,-1.84187 -2.84363,-4.66544 -4.23411,-6.24914 -1.39051,-1.58369 -2.83697,-2.85676 -3.23934,-2.85676 l -0.73971,0 z m 37.06121,23.92528 c 0.11322,-0.0182 0.20081,-0.003 0.25507,0.0511 0.21723,0.21717 -0.46319,2.90969 -1.50486,5.96857 l -1.88748,5.56047 -0.0763,10.61081 -0.10227,10.61079 -0.94377,3.31586 -0.96927,3.31587 -3.18836,4.48918 -3.2138,4.46366 -3.21387,2.2446 c -1.77613,1.23085 -5.21242,2.99347 -7.6265,3.92802 l -4.38713,1.70894 -9.7946,0.25509 -9.79458,0.28058 -3.26486,-0.73969 c -1.7957,-0.39663 -4.86184,-1.29013 -6.81029,-1.98954 l -3.54546,-1.27534 -3.2138,-2.52515 -3.21386,-2.55068 -2.44865,-3.57093 c -1.35526,-1.96984 -3.04539,-5.15255 -3.74949,-7.06534 l -1.27531,-3.46895 -0.17855,-11.42697 -0.15327,-11.42705 -1.86199,-5.17786 c -1.02579,-2.83534 -1.72631,-5.28799 -1.55592,-5.45841 0.17044,-0.17044 0.68026,-0.0573 1.14784,0.25507 0.46756,0.31227 1.78702,2.97406 2.93324,5.89204 1.14627,2.91797 2.64946,7.6928 3.34139,10.61078 0.69194,2.91798 1.49829,7.01823 1.78549,9.13138 l 0.51011,3.85151 2.52516,2.11711 c 1.38207,1.16294 3.91495,2.81994 5.63701,3.69847 1.72202,0.87849 5.23322,2.16137 7.80503,2.83123 l 4.69325,1.19884 7.77953,0.12736 7.80506,0.10228 4.82077,-1.02025 c 2.65311,-0.552 6.35635,-1.66729 8.23869,-2.47414 l 3.41789,-1.45392 2.88226,-2.52516 2.85672,-2.49962 1.02029,-6.3512 0.99474,-6.32565 2.39764,-7.5245 2.39765,-7.52449 1.30085,-1.30083 c 0.5332,-0.53319 1.08984,-0.88843 1.42834,-0.94375 z m -4.94826,2.7037 -0.61215,1.58142 c -0.33319,0.86646 -1.32067,3.77881 -2.19358,6.47872 -0.87293,2.69989 -2.06907,7.77095 -2.67823,11.27398 l -1.12225,6.3767 -0.91828,0.91818 -0.91822,0.91829 -0.0256,-3.21386 c -0.009,-1.77322 -0.23903,-5.20753 -0.5101,-7.62652 l -0.48463,-4.38714 1.32634,-0.73973 1.32633,-0.76515 0,-1.7855 0,-1.78545 1.50491,-2.2956 c 0.83029,-1.25926 2.37643,-2.8925 3.41791,-3.62198 l 1.88751,-1.32636 z m -66.62353,0.35711 c 0.4082,0.0498 1.52782,0.89078 2.72921,2.04052 l 2.49967,2.39764 0.94375,3.46894 0.91824,3.46888 0.63764,0 0.6632,0 0,7.75408 0,7.754 -0.71419,0 c -0.39393,0 -1.06791,-0.4591 -1.50489,-1.02026 l -0.81624,-1.02025 -0.94376,-5.91761 c -0.51871,-3.2469 -1.83207,-8.72459 -2.93325,-12.19218 -1.10115,-3.46756 -1.84339,-6.49727 -1.63245,-6.70826 0.0267,-0.0268 0.0943,-0.0328 0.15325,-0.025 z m 56.21678,12.93192 0.17853,2.80572 0.17855,2.80575 -1.30083,1.32634 -1.30086,1.30085 -1.19878,0 -1.22431,0 0.25508,-3.87701 0.25507,-3.87707 2.06599,-0.25502 2.09156,-0.22956 z m -46.19263,0.0762 0.73969,0 c 0.41221,0 1.33042,0.21214 2.04053,0.48461 l 1.30084,0.48467 0,3.59644 0,3.59643 -1.07129,0 c -0.58356,0 -1.50182,-0.45605 -2.04053,-0.99477 l -0.96924,-0.96927 0,-3.1118 0,-3.08631 z m 39.9945,0.63768 0,4.56569 0,4.5912 -0.76517,0 c -0.41221,0 -1.3305,0.21213 -2.04058,0.48464 l -1.27531,0.48463 0,-4.56573 0,-4.56571 0.73968,0 c 0.41222,0 1.33042,-0.23759 2.04053,-0.51012 l 1.30085,-0.4846 z m -34.281,0.38256 2.04053,0.40813 2.04051,0.38259 0,4.38715 0,4.41267 -0.61216,-0.10227 c -0.33665,-0.0521 -1.25491,-0.25382 -2.0405,-0.45912 l -1.42838,-0.38261 0,-4.31063 0,-4.33614 z m 9.79456,0.48467 0,4.94827 0,4.97383 -1.65792,0 -1.65795,0 -0.4336,-1.1478 c -0.2387,-0.62201 -0.31911,-2.73398 -0.17857,-4.69324 l 0.25508,-3.54543 1.83649,-0.28057 1.83647,-0.25506 z m 14.69185,0 1.83649,0.25506 1.83646,0.28057 0,4.48918 0,4.48916 -1.83646,0.25506 -1.83649,0.25508 0,-4.9993 0,-5.02481 z m -13.05942,0.94374 2.44865,0 2.44862,0 0,4.48916 0,4.4892 -2.44862,0 -2.44865,0 0,-4.4892 0,-4.48916 z m 6.52972,0 2.44865,0 2.44865,0 0,4.48916 0,4.4892 -2.44865,0 -2.44865,0 0,-4.4892 0,-4.48916 z m 21.98679,6.52969 0.86723,0 0,3.36692 0,3.39235 -1.42837,1.07131 c -0.78564,0.59635 -1.88752,1.10803 -2.44862,1.1223 l -1.0203,0.025 0,-3.64742 0,-3.64747 1.5814,-0.84172 c 0.86834,-0.46472 1.9702,-0.84173 2.44866,-0.84173 z m -45.17238,0.10228 c 0.28207,-0.0377 1.06825,0.22475 1.8875,0.66315 l 1.70894,0.91827 0,3.64744 0,3.64747 -1.09679,0 -1.09678,0 -1.24983,-1.42838 -1.22432,-1.42838 0.3571,-2.85674 c 0.19746,-1.57124 0.48929,-2.98873 0.63765,-3.13732 0.0184,-0.0184 0.036,-0.0202 0.0762,-0.025 z m 5.22888,2.3466 0.73969,0 c 0.41218,0 1.33046,0.21215 2.04053,0.48465 l 1.30082,0.48457 0,4.00459 0,4.00458 -0.61216,-0.10227 c -0.33665,-0.0521 -1.25491,-0.2538 -2.0405,-0.45912 l -1.42838,-0.38257 0,-4.03007 0,-4.00456 z m 33.61785,0.0511 c 0.1165,0.005 0.19414,0.0385 0.22953,0.0762 0.14198,0.15342 0.41947,1.86049 0.63769,3.80051 l 0.40809,3.51992 -1.98948,0.76522 c -1.09635,0.41682 -2.1514,0.76519 -2.34664,0.76519 -0.19523,0 -0.3571,-1.81573 -0.3571,-4.03007 l 0,-4.03004 1.68344,-0.53566 c 0.69874,-0.22182 1.38403,-0.34957 1.73447,-0.33158 z m -5.96855,0.94377 0.45909,0.43359 c 0.25046,0.25044 0.4591,2.24287 0.4591,4.41266 l 0,3.95353 -2.04052,0 -2.04056,0 0,-4.00458 0,-3.97901 1.58145,-0.40814 1.58144,-0.40805 z m -11.32504,0.51012 0,4.54015 0,4.56575 -2.06601,0 -2.06606,0 -0.43363,-1.14785 c -0.24028,-0.62613 -0.32067,-2.55445 -0.17853,-4.28513 l 0.25507,-3.13728 2.24462,-0.28062 2.24454,-0.25502 z m 6.52975,0 0,4.54015 0,4.56575 -2.49968,0 -2.47413,0 0.22956,-4.28513 0.25508,-4.28513 2.24456,-0.28062 2.24461,-0.25502 z m -17.14051,0.12736 2.04052,0 2.04054,0 0,4.08101 0,4.08112 -1.50491,0 c -0.82301,0 -1.74122,-0.26189 -2.04052,-0.56116 l -0.53563,-0.53563 0,-3.54544 0,-3.5199 z m -29.07766,4.15755 0.6632,0.40814 c 0.36541,0.22583 0.66315,1.09648 0.66315,1.91299 0,0.81652 0.55097,2.80103 1.22432,4.41266 0.67335,1.61163 1.22431,3.26468 1.22431,3.69844 l 0,0.79071 -12.47273,6.55524 -12.47282,6.52972 -1.65794,1.88748 c -0.91785,1.03275 -2.88306,3.8073 -4.36164,6.17264 l -2.70374,4.31062 -2.0405,1.60696 c -1.13057,0.8893 -2.35664,1.63239 -2.72921,1.63239 -0.37259,0 -1.01918,-0.64275 -1.42839,-1.42835 -0.40923,-0.78559 -1.01038,-3.9304 -1.32634,-6.96334 l -0.56116,-5.50945 -4.84628,-4.74424 -4.82076,-4.76974 0,-0.91826 0,-0.94372 2.06602,-1.35188 2.06608,-1.35183 4.66771,0.66314 c 2.5681,0.36899 6.13692,0.62051 7.93259,0.56117 l 3.26486,-0.10228 5.86653,-2.42313 c 3.22654,-1.33468 9.4483,-4.2732 13.82463,-6.52972 l 7.95811,-4.10659 z m 80.67771,0.0511 3.36691,1.45384 c 1.85714,0.80438 8.16724,3.69656 14.00319,6.40221 l 10.61078,4.89732 2.04053,0.22952 c 1.12229,0.11738 4.45492,-0.0671 7.39696,-0.40809 l 5.33093,-0.63767 3.03525,1.27533 c 1.6594,0.69333 3.00981,1.53996 3.00981,1.88749 0,0.34753 -2.2041,2.86864 -4.89727,5.58598 l -4.8973,4.9228 -0.76521,6.01957 -0.73968,5.99411 -1.09681,1.09676 -1.09675,1.09681 -2.47419,-1.47939 -2.44866,-1.50487 -3.23937,-5.53501 -3.23933,-5.56045 -2.85671,-1.7855 c -1.57126,-0.98786 -7.26432,-4.05015 -12.65135,-6.81024 -5.38702,-2.76019 -10.28387,-5.33401 -10.86586,-5.71354 l -1.04578,-0.68868 1.75996,-5.38191 1.75995,-5.35639 z"
       id="path2890" />
  </g>
</svg>
