<?xml version="1.0" encoding="UTF-8" standalone="no"?>
<svg
   xmlns:dc="http://purl.org/dc/elements/1.1/"
   xmlns:cc="http://creativecommons.org/ns#"
   xmlns:rdf="http://www.w3.org/1999/02/22-rdf-syntax-ns#"
   xmlns:svg="http://www.w3.org/2000/svg"
   xmlns="http://www.w3.org/2000/svg"
   xmlns:sodipodi="http://sodipodi.sourceforge.net/DTD/sodipodi-0.dtd"
   xmlns:inkscape="http://www.inkscape.org/namespaces/inkscape"
   version="1.1"
   id="Your_Icon"
   x="0px"
   y="0px"
   width="100px"
   height="100px"
   viewBox="0 0 100 100"
   enable-background="new 0 0 100 100"
   xml:space="preserve"
   inkscape:version="0.91 r13725"
   sodipodi:docname="Zusatzprobe.svg"><metadata
     id="metadata17"><rdf:RDF><cc:Work
         rdf:about=""><dc:format>image/svg+xml</dc:format><dc:type
           rdf:resource="http://purl.org/dc/dcmitype/StillImage" /></cc:Work></rdf:RDF></metadata><defs
     id="defs15" /><sodipodi:namedview
     pagecolor="#ffffff"
     bordercolor="#666666"
     borderopacity="1"
     objecttolerance="10"
     gridtolerance="10"
     guidetolerance="10"
     inkscape:pageopacity="0"
     inkscape:pageshadow="2"
     inkscape:window-width="1127"
     inkscape:window-height="769"
     id="namedview13"
     showgrid="false"
     inkscape:zoom="5.4114063"
     inkscape:cx="26.900644"
     inkscape:cy="50"
     inkscape:window-x="0"
     inkscape:window-y="0"
     inkscape:window-maximized="0"
     inkscape:current-layer="Your_Icon" /><g
     id="g3"><g
       id="g5"><g
         id="g7" /></g><g
       id="g9" /></g><path
     d="m 82.5,48.631389 0,2.742278 c 0,4.531944 -3.678278,8.2095 -8.215278,8.2095 l -14.698666,0 0,14.700833 c 0,4.537722 -3.679723,8.216 -8.217445,8.216 l -2.739389,0 c -4.537722,0 -8.215278,-3.678278 -8.215278,-8.215278 l 0,-14.700833 -14.698666,0 C 21.177556,59.583889 17.5,55.906333 17.5,51.373667 l 0,-2.742278 c 0,-4.537722 3.677556,-8.215278 8.215278,-8.215278 l 14.698666,0 0,-14.700833 C 40.413944,21.177556 44.0915,17.5 48.629222,17.5 l 2.739389,0 c 4.537722,0 8.218167,3.677556 8.218167,8.215278 l 0,14.700833 14.698666,0 c 4.536278,0 8.214556,3.678278 8.214556,8.215278 z"
     id="path11"
     inkscape:connector-curvature="0" /></svg>